<svg width="48" height="48" viewBox="0 0 48 48" fill="none" xmlns="http://www.w3.org/2000/svg">
<path d="M37 2.5H36L39.4999 7.50002L40.0001 6.49999C39.5 4.5 37.8258 2.86175 37 2.5Z" fill="#5CAAE2"/>
<path d="M26.25 8.47244V8L30.0604 12.9134H29.7222V13.4331H29.1204V14L25 8.99213L25.6944 9.03937V8.47244H26.25Z" fill="#5CAAE2"/>
<path d="M26.0236 6.25691L26.4654 7.01125L30.6156 3.44145L29.7601 2.67399L31.1764 0.448644C31.3117 0.0975917 31.0656 0.132554 30.9257 0.193917C28.241 2.59614 26.539 5.23684 26.0236 6.25691Z" fill="#5CAAE2"/>
<path d="M31.6813 13.515L30.945 13.2099L36.296 11.3479L37.026 12.132L39.8931 12.0467C40.3013 12.1085 40.1442 12.3013 40.0147 12.39C36.3414 13.4708 32.9286 13.5904 31.6813 13.515Z" fill="#5CAAE2"/>
<path d="M33.3182 1C28.397 4.1619 26.3889 6.8254 26 7.7619L30.5 13.5C36.3121 11.4429 39.5758 10.4603 40 9.90476C40 8.99048 39.7879 7.85714 39.6818 7.42857L36.553 2.71429C35.9167 2.14286 34.1313 1.33333 33.3182 1Z" fill="#EAE7E0"/>
<path d="M30.4087 6L27.5 8.5L30 12L33.5 10C32.6096 7.48 31.5681 6.31667 30.4087 6Z" fill="#5CAAE2"/>
<path d="M29.75 14.3309L25.3 8.93455L22.25 7L16.5 14.5C19.34 16.6585 22.2167 20.2103 23 21.5L31 18.0473L29.75 14.3309Z" fill="#EAE7E0"/>
<path d="M23.8372 13.2857L21.8372 11L20.7674 14.4286L17 15.1429C19.5581 17.2857 21.3721 19.7143 22.2093 21L23.4186 17.7143L27 16.9524L25 14.619L23.3256 15.0476L23.2326 14.9524L23.8372 13.2857Z" fill="#5CAAE2"/>
<path d="M23.8908 48C34.3239 48 43 41.2262 43 31.255C42.3448 25.3064 37.3218 22.2228 33.9914 21.4923C31.327 20.9078 28.4588 21.8451 27.2213 22.3321C21.7178 26.2979 22.1983 30.7804 23.727 32.6589C24.4004 33.5981 26.5989 35.7793 29.569 35.5288C32.5391 35.2784 34.137 33.2851 34.319 32.2415C34.1552 32.485 33.642 32.8467 32.4626 32.5545C31.2833 32.2623 31.2305 31.0545 31.5 30.5C31.7695 29.9455 32.8994 29.2776 33.9914 29.9455C35.0833 30.6134 35.6293 31.6153 35.2471 32.8676C33.2816 37.543 28.9684 37.3552 26.9483 36.8855C19.9161 34.6313 20.6695 27.8285 22.0891 24.6803C22.5259 23.8976 23.806 22.3689 23.181 21.4923C21.3247 18.8882 16.8477 13.5136 15.3736 14.0354C14.3362 14.1398 11.7386 15.9664 10.231 17.4743C6.99032 20.7156 5 25.1084 5 29.9455C5 39.9167 13.4577 48 23.8908 48Z" fill="#D80713"/>
<path d="M23.4052 45.0002C32.4655 45.0002 40 39.0233 40 30.2252C39.4695 26.2373 37.0562 23.6345 34.164 22.9899C31.8502 22.4742 29.29 22.7805 27.9566 23.5054C23.4052 25.9796 24.4586 31.2715 25.7283 32.4229C26.5241 33.1445 27.7376 34.2859 30.3276 34.2859C32.6034 34.2859 34.0466 33.3437 34.2046 32.4229C34.0624 32.6377 33 33.0002 32.1363 32.4229C31.3247 31.8804 31 31.0002 32 30.0002C32.6345 29.6577 33.1676 29.584 34 30.0002C35 30.5002 35.3319 31.8952 35 33.0002C33.2931 37.1255 28.6207 37.5002 26.9138 36.9645C22.8363 35.6848 18.8411 32.4229 21.8405 24.424C22.1154 23.6908 23.0427 22.2735 22.5 21.5C20.8879 19.2023 17.2888 14.571 16.0086 15.0315C15.1078 15.1235 12.8519 16.7353 11.5427 18.0658C8.72844 20.9257 7 24.8017 7 29.0698C7 37.8679 14.3448 45.0002 23.4052 45.0002Z" fill="#FFDC5E"/>
<path d="M21 22.1875C19.2201 19.4375 16.4576 17.5833 15.2989 17C11.6279 21 11.614 24.3958 12.4483 26C17.2456 26 20.3511 23.4167 21 22.1875Z" fill="#EAE7E0"/>
</svg>
