<svg width="44" height="35" viewBox="0 0 44 35" fill="none" xmlns="http://www.w3.org/2000/svg">
<path d="M36.9973 2.90187C34.1638 1.53512 31.1736 0.560493 28.1015 0.00240537C28.0736 -0.00306562 28.0448 0.000850735 28.0191 0.0135968C27.9934 0.0263429 27.9722 0.0472696 27.9585 0.0733996C27.5743 0.791569 27.1487 1.72827 26.8508 2.46443C23.4916 1.93589 20.1496 1.93589 16.8594 2.46443C16.5615 1.71181 16.1204 0.791569 15.7345 0.0733996C15.7202 0.047865 15.699 0.0274503 15.6735 0.01482C15.648 0.00218962 15.6194 -0.00206975 15.5916 0.00259699C12.5192 0.559387 9.52874 1.53393 6.69564 2.90168C6.6714 2.91256 6.65098 2.93108 6.63719 2.95469C0.971328 11.8498 -0.580892 20.5262 0.18065 29.095C0.182804 29.116 0.188942 29.1363 0.198701 29.1548C0.20846 29.1732 0.221642 29.1894 0.237466 29.2024C3.97561 32.0873 7.59667 33.8386 11.1505 34.9994C11.1782 35.0081 11.2077 35.0077 11.2351 34.9982C11.2625 34.9888 11.2865 34.9708 11.3039 34.9466C12.1444 33.7403 12.8938 32.4681 13.5364 31.1305C13.5452 31.1122 13.5503 31.0921 13.5512 31.0716C13.5521 31.0511 13.5489 31.0306 13.5417 31.0115C13.5346 30.9924 13.5237 30.9751 13.5097 30.9608C13.4957 30.9464 13.479 30.9353 13.4607 30.9283C12.2719 30.4545 11.1402 29.8768 10.0514 29.2208C10.0315 29.2085 10.0148 29.1913 10.0028 29.1707C9.99079 29.15 9.98378 29.1266 9.98242 29.1025C9.98105 29.0783 9.98536 29.0542 9.99498 29.0322C10.0046 29.0102 10.0192 28.991 10.0375 28.9764C10.2666 28.796 10.4959 28.6084 10.7146 28.4188C10.734 28.4019 10.7576 28.3911 10.7825 28.3876C10.8075 28.384 10.8329 28.3879 10.8559 28.3987C18.0084 31.8303 25.7517 31.8303 32.8197 28.3987C32.8427 28.3872 32.8684 28.3828 32.8937 28.386C32.919 28.3892 32.9429 28.3999 32.9627 28.4169C33.1815 28.6063 33.4106 28.796 33.6415 28.9764C33.6599 28.9909 33.6746 29.0099 33.6843 29.0318C33.6941 29.0537 33.6986 29.0777 33.6974 29.1019C33.6962 29.126 33.6894 29.1494 33.6775 29.1701C33.6657 29.1908 33.6492 29.2081 33.6295 29.2206C32.5403 29.8891 31.3994 30.4597 30.2188 30.9264C30.2004 30.9337 30.1838 30.9451 30.1699 30.9597C30.156 30.9743 30.1453 30.9918 30.1383 31.011C30.1313 31.0303 30.1282 31.0509 30.1293 31.0715C30.1304 31.0921 30.1356 31.1122 30.1447 31.1305C30.8009 32.4662 31.5503 33.7384 32.3754 34.9447C32.3922 34.9696 32.4161 34.9883 32.4436 34.9981C32.4712 35.0079 32.5009 35.0084 32.5287 34.9994C36.0997 33.8384 39.7207 32.0871 43.4589 29.2024C43.475 29.1901 43.4884 29.1743 43.4982 29.156C43.5081 29.1378 43.5141 29.1176 43.5159 29.0968C44.4271 19.1901 41.9895 10.5849 37.0541 2.95641C37.042 2.93163 37.0218 2.91241 36.9973 2.90187ZM14.6044 23.8775C12.4511 23.8775 10.6767 21.7999 10.6767 19.2485C10.6767 16.6973 12.4167 14.6197 14.6046 14.6197C16.8095 14.6197 18.5666 16.7155 18.5321 19.2487C18.5321 21.7999 16.7922 23.8775 14.6044 23.8775ZM29.1265 23.8775C26.9732 23.8775 25.1988 21.7999 25.1988 19.2485C25.1988 16.6973 26.9386 14.6197 29.1265 14.6197C31.3314 14.6197 33.0885 16.7155 33.0541 19.2487C33.0541 21.7999 31.3314 23.8775 29.1265 23.8775Z" fill="#FFDC5E"/>
</svg>
