<svg width="43" height="43" viewBox="0 0 43 43" fill="none" xmlns="http://www.w3.org/2000/svg">
<path d="M21.3842 14.2586C17.4566 14.2586 14.2513 17.4643 14.2513 21.3924C14.2513 25.3206 17.4566 28.5263 21.3842 28.5263C25.3119 28.5263 28.5172 25.3206 28.5172 21.3924C28.5172 17.4643 25.3119 14.2586 21.3842 14.2586ZM42.7776 21.3924C42.7776 18.4383 42.8044 15.5109 42.6385 12.5621C42.4726 9.13699 41.6914 6.09721 39.1871 3.5926C36.6775 1.08264 33.6434 0.30664 30.2188 0.140737C27.265 -0.0251669 24.338 0.00159184 21.3896 0.00159184C18.4358 0.00159184 15.5088 -0.0251669 12.5604 0.140737C9.13578 0.30664 6.0964 1.08799 3.59212 3.5926C1.0825 6.10256 0.306599 9.13699 0.140718 12.5621C-0.0251635 15.5162 0.00159163 18.4436 0.00159163 21.3924C0.00159163 24.3412 -0.0251635 27.274 0.140718 30.2228C0.306599 33.6479 1.08785 36.6877 3.59212 39.1923C6.10175 41.7022 9.13578 42.4782 12.5604 42.6441C15.5142 42.81 18.4412 42.7833 21.3896 42.7833C24.3434 42.7833 27.2704 42.81 30.2188 42.6441C33.6434 42.4782 36.6828 41.6969 39.1871 39.1923C41.6967 36.6823 42.4726 33.6479 42.6385 30.2228C42.8097 27.274 42.7776 24.3466 42.7776 21.3924ZM21.3842 32.3688C15.3108 32.3688 10.4093 27.4666 10.4093 21.3924C10.4093 15.3182 15.3108 10.416 21.3842 10.416C27.4577 10.416 32.3592 15.3182 32.3592 21.3924C32.3592 27.4666 27.4577 32.3688 21.3842 32.3688ZM32.8087 12.53C31.3907 12.53 30.2455 11.3847 30.2455 9.9665C30.2455 8.5483 31.3907 7.40303 32.8087 7.40303C34.2267 7.40303 35.3718 8.5483 35.3718 9.9665C35.3722 10.3033 35.3062 10.6368 35.1776 10.948C35.0489 11.2592 34.8601 11.542 34.622 11.7801C34.3839 12.0182 34.1012 12.207 33.79 12.3357C33.4789 12.4644 33.1454 12.5304 32.8087 12.53Z" fill="#FFDC5E"/>
</svg>
