<svg width="43" height="43" viewBox="0 0 43 43" fill="none" xmlns="http://www.w3.org/2000/svg">
<path d="M41.0688 0H1.7112C0.764692 0 0 0.764692 0 1.7112V41.0688C0 42.0153 0.764692 42.78 1.7112 42.78H41.0688C42.0153 42.78 42.78 42.0153 42.78 41.0688V1.7112C42.78 0.764692 42.0153 0 41.0688 0ZM12.6896 36.4539H6.34213V16.0372H12.6896V36.4539ZM9.51855 13.2458C8.7909 13.2458 8.07958 13.03 7.47456 12.6257C6.86954 12.2215 6.39798 11.6469 6.11952 10.9746C5.84106 10.3023 5.7682 9.5626 5.91016 8.84892C6.05212 8.13525 6.40252 7.4797 6.91705 6.96518C7.43158 6.45065 8.08713 6.10025 8.8008 5.95829C9.51447 5.81633 10.2542 5.88919 10.9265 6.16765C11.5987 6.44611 12.1733 6.91767 12.5776 7.52269C12.9819 8.12771 13.1976 8.83902 13.1976 9.56668C13.1923 11.5987 11.5453 13.2458 9.51855 13.2458ZM36.4539 36.4539H30.1118V26.5236C30.1118 24.1547 30.069 21.1119 26.8124 21.1119C23.513 21.1119 23.0049 23.6894 23.0049 26.3525V36.4539H16.6682V16.0372H22.7536V18.8285H22.8392C23.6841 17.2243 25.7536 15.5291 28.8444 15.5291C35.2721 15.5291 36.4539 19.759 36.4539 25.2562V36.4539Z" fill="#FFDC5E"/>
</svg>
