<svg width="151" height="32" viewBox="0 0 151 32" fill="none" xmlns="http://www.w3.org/2000/svg">
<path d="M69.2899 20.6099C70.5299 20.6099 71.3099 19.9099 71.3099 19.0099C71.3099 17.6599 69.9499 17.1699 68.7799 16.4099C67.1999 15.4799 66.3699 14.5899 66.3699 13.1799C66.3699 11.4199 67.7399 10.1599 69.8399 10.1599C70.8399 10.1599 71.7599 10.3799 72.7099 10.8499L72.6499 12.6699C71.5799 12.0899 70.7099 11.7699 69.9899 11.7699C68.9099 11.7699 68.2899 12.2999 68.2899 13.0799C68.2899 14.1299 69.5999 14.6399 70.6799 15.3299C72.4299 16.3699 73.3299 17.3599 73.3299 18.9499C73.3299 20.9399 71.8399 22.3599 69.3899 22.3599C68.3099 22.3599 67.2599 22.1299 66.3099 21.6799L66.1299 19.4399C67.2999 20.1999 68.3199 20.5999 69.2899 20.5999" fill="white"/>
<path d="M57.9801 20.6099C59.2201 20.6099 60.0001 19.9099 60.0001 19.0099C60.0001 17.6599 58.6401 17.1699 57.4701 16.4099C55.8901 15.4799 55.0701 14.5899 55.0701 13.1799C55.0701 11.4199 56.4401 10.1599 58.5401 10.1599C59.5401 10.1599 60.4601 10.3799 61.4101 10.8499L61.3501 12.6699C60.2801 12.0899 59.4101 11.7699 58.6901 11.7699C57.6101 11.7699 57.0001 12.2999 57.0001 13.0799C57.0001 14.1299 58.3101 14.6399 59.3901 15.3299C61.1301 16.3699 62.0301 17.3599 62.0301 18.9499C62.0301 20.9399 60.5501 22.3599 58.0901 22.3599C57.0101 22.3599 55.9601 22.1299 55.0101 21.6799L54.8301 19.4399C56.0101 20.1999 57.0201 20.5999 57.9901 20.5999" fill="white"/>
<path d="M79.7702 17.2299C79.7702 19.4399 80.7002 20.5699 82.5302 20.5699C84.3602 20.5699 85.2903 19.4199 85.2903 17.1799V10.5599H87.3302V17.2099C87.3302 20.5499 85.5203 22.3599 82.5403 22.3599C79.5603 22.3599 77.7402 20.3399 77.7402 17.2399V10.5599H79.7702V17.2299Z" fill="white"/>
<path d="M97.9094 13.9499C97.9094 12.1699 95.9694 12.1899 94.3294 12.1899V15.7299C95.6094 15.7299 97.9094 15.8599 97.9094 13.9499ZM92.3594 10.5599H95.0094C96.4694 10.5599 97.5894 10.6499 98.5794 11.3499C99.4294 11.9499 99.9194 12.8499 99.9194 13.7899C99.9194 15.2899 99.0294 16.4199 97.4194 16.9699L101.109 21.9799H98.7694L95.2994 17.2399H94.3294V21.9799H92.3594V10.5599Z" fill="white"/>
<path d="M138.53 21.9799H136.52V12.2999H132.66V10.5599H142.37V12.2999H138.53V21.9799Z" fill="white"/>
<path d="M44.0602 17.4299C44.5802 15.9799 45.1702 14.6799 45.9702 13.3999C46.7702 14.6899 47.4103 16.0499 47.8903 17.4299H44.0502H44.0602ZM46.0403 10.1899L45.9503 10.1399L45.8602 10.1899C43.0302 14.3999 41.9502 16.6799 40.2402 21.9799H42.2802C42.4702 21.2799 42.9502 19.8399 43.1902 19.1599H48.7102C48.9502 19.8399 49.4402 21.2799 49.6202 21.9799H51.6602C49.9302 16.6299 48.8202 14.3299 46.0302 10.1899" fill="white"/>
<path d="M107.56 17.4299C108.08 15.9799 108.67 14.6799 109.47 13.3999C110.27 14.6899 110.91 16.0499 111.4 17.4299H107.56ZM109.54 10.1899L109.45 10.1399L109.36 10.1899C106.52 14.3999 105.45 16.6799 103.74 21.9799H105.78C105.97 21.2799 106.45 19.8399 106.69 19.1599H112.2C112.44 19.8399 112.93 21.2799 113.11 21.9799H115.15C113.42 16.6299 112.31 14.3299 109.53 10.1899" fill="white"/>
<path d="M120.99 14.8799L128.48 22.3699L128.57 22.3399L128.6 22.2499V10.5599H126.67V17.6299L119.18 10.1399L119.08 10.1599L119.05 10.2599V21.9799H120.99V14.8799Z" fill="white"/>
<path d="M147.86 11.77V12.71C147.86 12.71 147.98 12.71 148.12 12.71C148.38 12.71 148.55 12.68 148.64 12.61C148.73 12.54 148.77 12.42 148.77 12.2299C148.77 11.92 148.57 11.76 148.16 11.76H147.84L147.86 11.77ZM148.98 14.24L148.27 13.03H147.86V14.24H147.46V11.43H148.18C148.86 11.43 149.19 11.69 149.19 12.21C149.19 12.57 149.01 12.82 148.65 12.97L149.42 14.24H148.98ZM150.17 12.86C150.17 12.33 149.98 11.88 149.61 11.51C149.24 11.14 148.79 10.95 148.26 10.95C147.73 10.95 147.28 11.14 146.91 11.51C146.54 11.88 146.35 12.33 146.35 12.86C146.35 13.39 146.54 13.84 146.91 14.21C147.28 14.58 147.73 14.77 148.26 14.77C148.79 14.77 149.24 14.58 149.61 14.21C149.98 13.84 150.17 13.39 150.17 12.86ZM145.99 12.86C145.99 12.23 146.21 11.7 146.66 11.25C147.11 10.81 147.64 10.58 148.27 10.58C148.9 10.58 149.43 10.8 149.88 11.25C150.33 11.7 150.55 12.23 150.55 12.86C150.55 13.49 150.33 14.02 149.88 14.47C149.44 14.91 148.9 15.14 148.27 15.14C147.64 15.14 147.11 14.92 146.66 14.47C146.21 14.02 145.99 13.49 145.99 12.86Z" fill="white"/>
<path d="M10.6099 14.2199C12.3599 17.0599 13.9699 19.9599 15.8599 22.6599C17.7299 25.3199 19.89 27.7799 21.98 30.3899C20.04 31.3199 17.8599 31.7699 15.5799 31.6699C15.2999 31.6599 14.97 31.3799 14.76 31.1399C11.36 27.3499 8.54994 23.1399 6.19994 18.6299C6.02994 18.3099 6.12994 17.8499 6.14994 17.4499C6.14994 17.2899 6.31994 17.1499 6.35994 16.9899C6.96994 14.7099 8.47994 13.8599 10.6099 14.2299V14.2199Z" fill="white"/>
<path d="M24.7903 3.69992C25.4303 4.22992 25.9403 4.62994 26.4103 5.05994C29.4703 7.85994 29.7603 8.68992 28.1203 12.4499C26.6703 15.7799 24.8503 18.9599 23.3203 22.2599C22.6003 23.8099 21.4403 24.2099 19.9303 24.1499C19.1703 24.1199 18.3703 24.4399 17.7303 23.5699C16.3903 21.7499 16.3403 21.7999 17.5403 19.8699C20.5603 15.0399 22.9603 9.92993 24.4903 4.42993C24.5503 4.22993 24.6403 4.03994 24.7803 3.68994L24.7903 3.69992Z" fill="white"/>
<path d="M0.419922 14.8C0.579922 12.45 1.25993 10.48 2.34993 8.64996C2.54993 8.30996 3.06992 8.04997 3.47992 7.96997C8.42992 6.96997 13.4299 6.61997 18.4699 6.87997C18.8899 6.89997 19.3399 7.26996 19.6799 7.58996C20.0199 7.89996 20.2399 8.34996 20.4999 8.73996C21.3699 10.04 21.2799 11.59 20.2399 12.75C20.0999 12.91 19.7999 13.02 19.5899 13.01C13.1599 12.58 6.81992 13.19 0.419922 14.8Z" fill="white"/>
<path d="M6.19986 14.6C4.89986 17.77 3.69985 20.7 2.39985 23.87C3.90985 24.16 5.21986 24.53 6.54986 24.63C8.07986 24.74 9.10985 25.32 9.94985 26.65C10.9899 28.3 12.2998 29.79 13.5198 31.38C8.01985 31.22 0.15986 25.44 0.32986 15.91C2.20986 15.49 4.13987 15.06 6.20987 14.6H6.19986Z" fill="white"/>
<path d="M19.1396 25.45C22.3796 24.95 25.4196 24.48 28.4596 24C28.5796 23.98 28.6896 23.89 28.9696 23.74C28.3796 22.16 27.7396 20.58 27.2196 18.97C27.0496 18.43 27.0396 17.73 27.2496 17.21C28.1296 14.98 29.1096 12.79 30.0496 10.59C32.9696 16.84 30.5296 25.84 23.1596 29.81C21.8596 28.4 20.5296 26.95 19.1396 25.44V25.45Z" fill="white"/>
<path d="M21.9895 8.85995C19.8795 6.13995 17.9295 3.62995 15.8295 0.929954C14.6795 2.29995 13.6195 3.45995 12.6895 4.70995C12.1095 5.47995 11.5195 5.88995 10.4995 5.95995C8.23953 6.12995 5.99953 6.49997 3.76953 6.78997C7.46953 1.00997 17.1495 -1.21005 23.7895 3.17995C23.2195 4.98995 22.6295 6.84995 21.9895 8.85995Z" fill="white"/>
</svg>
