<?xml version="1.0" encoding="UTF-8"?>
<svg id="Layer_1" xmlns="http://www.w3.org/2000/svg" version="1.1" viewBox="0 0 1233 295">
  <!-- Generator: Adobe Illustrator 29.7.1, SVG Export Plug-In . SVG Version: 2.1.1 Build 8)  -->
  <defs>
    <style>
      .st0 {
        fill: #fff;
      }
    </style>
  </defs>
  <path class="st0" d="M236.9,263.9c.4,0,.6.5.3.7-24.9,19.1-56,30.4-89.7,30.4s-64.8-11.3-89.7-30.4c-.3-.2-.1-.7.3-.7h178.9,0ZM275.4,221c-5.2,9-11.2,17.3-18.1,24.9-.3.3-.6.5-1,.5H38.7c-.4,0-.8-.2-1-.5-6.9-7.6-12.9-16-18.1-24.9-.2-.4,0-.8.5-.8h254.9c.4,0,.7.5.5.8ZM292.1,176.8c-1.8,8.7-4.3,17.1-7.5,25.2-.2.4-.6.7-1,.7H11.4c-.4,0-.9-.3-1-.7-3.2-8.1-5.7-16.5-7.5-25.2,0-.3.2-.7.5-.7h288.1c.3,0,.6.3.5.7ZM146.5,0c81.9-.5,148.5,65.7,148.5,147.5s-.1,7.2-.4,10.7c0,.3-.3.5-.5.5H.9c-.3,0-.5-.2-.5-.5C.1,154.7,0,151.2,0,147.6,0,67.4,66.3.5,146.5,0Z"/>
  <path class="st0" d="M383.1,58.3h81c38.5,0,57,17.8,57,45.9s-10.1,32-24.3,38.3c17.5,5.1,31.6,18.8,31.6,41.3,0,32.2-22.3,50.5-64.3,50.5h-81V58.3ZM454.9,87.5h-35.7v43.6h35.7c19.5,0,29.1-5.8,29.1-21.8s-9.6-21.8-29.1-21.8ZM460.5,158.8h-41.2v46.4h41.2c20,0,30.9-6.3,30.9-23.1s-10.9-23.4-30.9-23.4Z"/>
  <path class="st0" d="M624.7,234.1v-19.6c-9.2,14.8-26.5,22.1-46.1,22.1s-43.6-13.1-43.6-36.8,16.8-34.7,41.5-39l45.9-7.8v-3c0-13.6-10.2-19.6-24.7-19.6s-22.7,6.8-23.7,17.4h-34.4c1.3-26.7,22.7-41,58.1-41s58.4,15.9,58.4,49.1v78.3h-31.4ZM622.4,182.3v-5.8l-34.4,6c-13.8,2.3-20.1,6.3-20.1,15.9s7.4,13.6,20.1,13.6,34.4-10.6,34.4-29.7Z"/>
  <path class="st0" d="M724.6,106.8c30.3,0,56.3,12.8,56.8,40.3h-33.9c-.8-9.3-9.1-16.6-24-16.6s-20.7,5-20.7,12.6,5.8,9.8,16.7,11.8l28.5,5.5c22.7,4.3,35.6,15.9,35.6,36s-20,40.3-56.8,40.3-58.6-16.4-59.8-42.8h35.3c1,10.6,9.1,19.1,25.8,19.1s22.7-5.8,22.7-13.1-5.8-10.3-16.7-12.3l-28.5-5.3c-22.7-4.3-35.6-16.1-35.6-36.2s22-39.3,54.5-39.3h0Z"/>
  <path class="st0" d="M853.7,106.8c40.4,0,64.3,23.9,64.3,64.2v10.8h-95.3c.8,15.4,12.3,29.7,30.8,29.7s24.5-6.5,27.5-17.6h35.3c-5.5,27.7-30.5,42.8-62.8,42.8s-65.3-23.2-65.3-64.9,25.5-64.9,65.5-64.9h0ZM883.5,158.6c-.8-16.1-13.4-27.7-29-27.7s-29.5,12.8-31.5,27.7h60.5Z"/>
  <path class="st0" d="M1042.3,234.5v-36.5h-86.9v-29.5l80-110.1h41v176.1h-34.2ZM1042.3,96.2l-52.2,73.1h52.2v-73.1Z"/>
  <path class="st0" d="M1176.9,197.9h-87.2v-29.4l80.3-110.1h41.2v110.9h21.6v28.7h-21.6v36.5h-34.3v-36.6ZM1176.9,96.1l-52.4,73.1h52.4v-73.1Z"/>
</svg>