<svg width="184" height="72" viewBox="0 0 184 72" fill="none" xmlns="http://www.w3.org/2000/svg">
<g clip-path="url(#clip0_1397_3948)">
<path d="M183.464 0.536621V71.4634H0.537109V0.536621H183.464Z" fill="black" stroke="white"/>
<path fill-rule="evenodd" clip-rule="evenodd" d="M18.3882 36.355C22.8727 36.355 27.2965 37.4325 27.2965 41.8897C27.2965 45.5264 23.7842 47.4489 21.6696 48.0244C25.668 48.3795 29.7028 50.4978 29.7028 54.4284C29.7028 58.9468 25.5707 61.5672 20.9768 61.5182H8.34961V60.6366L10.4157 60.5019C11.5702 60.355 11.789 60.208 11.8254 58.8121C11.8619 56.8774 11.8619 55.6774 11.8619 53.755V44.1182C11.8619 42.1958 11.8619 41.008 11.8254 39.0611C11.8011 37.6774 11.5702 37.4325 10.4035 37.3836L8.34961 37.2489V36.355H18.3882ZM15.5686 37.408V47.8162C15.5686 47.8162 16.9419 47.8774 17.9385 47.8774C21.3657 47.8774 23.5047 46.1999 23.5047 42.5754C23.5047 39.3672 21.4386 37.3101 18.0357 37.3101C16.869 37.3101 15.5686 37.408 15.5686 37.408ZM15.5686 48.9305V57.4897C15.5686 60.0733 16.7961 60.5387 19.6886 60.5387C23.687 60.5387 25.7652 58.2121 25.7652 54.5264C25.7652 50.1672 22.0342 48.9305 18.0357 48.9305H15.5686Z" fill="white"/>
<path d="M37.3711 53.7918C37.3711 55.7143 37.3711 56.902 37.3954 58.849C37.4197 60.2326 37.6507 60.4041 38.8295 60.5388L40.1178 60.6735V61.5183H31.2459V60.6612L32.5584 60.5265C33.7252 60.4041 33.9561 60.2449 33.9804 58.849C34.0047 56.902 34.0047 55.7143 34.0047 53.7918V38.7061C34.0047 37.102 33.5307 36.7224 32.1574 36.6245L30.6504 36.5265V35.7673C32.9352 35.4857 35.22 35.0694 37.4562 34.5061C37.4562 34.5061 37.359 37.9592 37.359 41.7673V53.8041L37.3711 53.7918Z" fill="white"/>
<path fill-rule="evenodd" clip-rule="evenodd" d="M50.7516 59.645L50.7638 59.6572ZM49.7308 60.4654C49.3662 60.7103 48.9854 60.9225 48.5884 61.1021C48.1833 61.2817 47.77 61.4286 47.3487 61.5429C46.9274 61.6572 46.498 61.7388 46.0605 61.7878C45.5136 61.7756 44.9789 61.6654 44.4806 61.4572C43.9823 61.249 43.5205 60.9552 43.1437 60.5756C42.7548 60.196 42.4388 59.7429 42.2201 59.2409C42.0013 58.7388 41.8798 58.2001 41.8555 57.6613C41.8555 53.8531 46.5223 52.6041 50.703 52.1388V48.147C50.703 46.2858 49.986 45.4041 48.4425 45.4041C48.1995 45.4041 47.9442 45.4286 47.7012 45.5021C47.4581 45.5756 47.2394 45.6858 47.0206 45.8205C46.814 45.9674 46.6317 46.1388 46.4737 46.3347C46.3279 46.5429 46.2063 46.7633 46.1091 46.996C45.4285 48.2817 44.833 49.0409 43.9094 49.0409C43.7271 49.0531 43.5569 49.0164 43.3868 48.9552C43.2288 48.8939 43.0829 48.796 42.9493 48.6735C42.8277 48.5388 42.7305 48.3919 42.6697 48.2327C42.5968 48.0735 42.5725 47.8898 42.5725 47.7184C42.5725 46.0409 46.5223 44.3511 48.8679 44.3511C52.5139 44.3511 54.1667 45.5021 54.1667 48.3796C54.1667 49.7021 54.0087 56.5103 54.0087 57.6613C54.0087 58.8245 54.5799 59.4123 55.5522 59.4123C55.7385 59.396 55.9208 59.3633 56.0991 59.3143C56.2773 59.2654 56.4515 59.2082 56.6217 59.1429C56.7918 59.0694 56.9579 58.9878 57.1199 58.898C57.2739 58.8082 57.4238 58.7062 57.5696 58.5919L57.9099 59.3266C56.3178 60.6368 54.908 61.7511 53.3646 61.7511C53.0608 61.7266 52.7691 61.6654 52.5017 61.5552C52.2222 61.445 51.967 61.2858 51.7361 61.1021C51.5051 60.9184 51.2985 60.698 51.1284 60.4409C50.9704 60.2082 50.8489 59.9388 50.7638 59.6572C50.4397 59.9511 50.0954 60.2205 49.7308 60.4654ZM50.6787 53.1062C48.0658 53.3021 44.9302 54.1103 44.9302 56.5103C44.9424 56.9266 45.0396 57.3429 45.1976 57.7225C45.3678 58.1021 45.5987 58.4572 45.8903 58.7511C46.1699 59.0449 46.5223 59.2776 46.8991 59.449C47.2758 59.6205 47.6769 59.7184 48.0901 59.7307C49.0502 59.7674 49.9738 59.4368 50.703 58.7878C50.703 58.7878 50.703 53.1062 50.6787 53.1062Z" fill="white"/>
<path d="M72.6895 46.7143C72.7017 46.9224 72.6774 47.1306 72.6045 47.3265C72.5316 47.5224 72.4222 47.6939 72.2885 47.8408C72.1426 48 71.9725 48.1102 71.7902 48.1959C71.5958 48.2694 71.4013 48.3183 71.1947 48.3061C70.2346 48.3061 69.6998 47.4857 69.08 46.7632C68.9342 46.5592 68.7681 46.3755 68.5817 46.2122C68.4035 46.049 68.205 45.9102 67.9862 45.7959C67.7675 45.6816 67.5406 45.5877 67.3057 45.5143C67.0707 45.449 66.8276 45.4122 66.5765 45.4041C64.0121 45.4041 62.0312 48.049 62.0312 51.8571C62.0312 56.0449 64.085 59.3755 68.2415 59.3755C68.6304 59.3673 69.0193 59.3224 69.4082 59.2408C69.789 59.1592 70.1617 59.0408 70.5263 58.8857C70.8828 58.7306 71.2271 58.5469 71.5593 58.3347C71.8834 58.1143 72.1872 57.8653 72.4708 57.5877L72.9205 58.2612C70.8301 60.4653 68.8613 61.849 66.3942 61.849C62.0312 61.849 58.9199 57.8939 58.9199 53.3755C58.9199 48.3551 61.9704 44.351 67.2692 44.351C70.0887 44.351 72.7017 45.5755 72.7017 46.7388M80.261 53.8286C80.261 55.7388 80.261 56.902 80.2975 58.849C80.3339 60.2326 80.5648 60.4041 81.7194 60.5388L82.8618 60.6735V61.5183H74.1601V60.6612L75.4605 60.5265C76.6272 60.4041 76.8459 60.2449 76.8946 58.849C76.9189 56.902 76.9189 55.7143 76.9189 53.7918V38.7061C76.9189 37.102 76.4327 36.7224 75.0594 36.6245L73.5403 36.5265V35.7673C75.8372 35.4857 78.122 35.0694 80.3582 34.5061C80.3582 34.5061 80.261 37.9592 80.261 41.7673V52.6653L86.3376 46.7877C86.8845 46.2367 86.7022 45.6979 85.9487 45.6857L84.4539 45.5755V44.6816H91.8187V45.5388C91.4946 45.5143 91.1665 45.5183 90.8343 45.551C90.5102 45.5918 90.1902 45.6653 89.8742 45.7714C89.5582 45.8857 89.2584 46.0245 88.9749 46.1877C88.6913 46.3592 88.428 46.5592 88.1849 46.7877L83.0198 51.6245L90.0079 59.2775C90.5913 60.1102 91.5149 60.6122 92.5115 60.6367L92.8882 60.6612V61.5306H84.6848V60.6612L85.815 60.5632C86.3012 60.5388 86.3376 60.1837 86.1067 59.8775L83.3479 56.5714C82.3878 55.3959 81.3548 54.2571 80.261 53.2041V53.8286ZM96.279 61.3224C95.8415 61.3714 95.4039 61.4694 94.9786 61.6163H94.8449L94.5046 55.849H95.3796C96.0602 59.351 97.6158 60.7592 100.156 60.7592C102.222 60.7592 103.437 59.6081 103.437 58.0286C103.437 56.5347 102.781 55.9224 99.6333 54.5877C97.2877 53.5959 94.93 52.4449 94.93 49.3592C94.93 46.0041 98.0047 44.3388 100.727 44.3388C101.934 44.3796 103.129 44.5183 104.312 44.7551C104.713 44.6571 105.09 44.5347 105.455 44.3388H105.588L105.686 49.8H104.725C104.543 47.1673 103.413 45.4286 100.739 45.4286C98.9891 45.4286 97.6523 46.4326 97.6523 48.0122C97.6523 49.6653 98.6975 50.1918 101.626 51.551C104.409 52.8735 106.451 53.853 106.451 56.4735C106.451 59.9755 103.474 61.8612 100.156 61.8612C99.8318 61.8449 99.5077 61.8204 99.1836 61.7877L98.2113 61.6653C97.8954 61.6163 97.5753 61.5632 97.2512 61.5061C96.9352 61.449 96.6193 61.3837 96.3033 61.3102M110.437 57.9918C110.437 55.2857 110.571 50.8286 110.656 46.3959H108.517V45.8571C109.003 45.4898 109.473 45.102 109.927 44.6939C110.389 44.2939 110.83 43.8735 111.252 43.4326C111.673 42.9918 112.082 42.5347 112.479 42.0612C112.868 41.5877 113.241 41.102 113.597 40.6041H113.962V44.8775H119.091V46.3592H113.962V57.1959C113.962 59.1183 114.873 59.8775 116.295 59.8775C116.555 59.853 116.806 59.8081 117.049 59.7428C117.3 59.6775 117.543 59.5918 117.778 59.4857C118.013 59.3796 118.24 59.2571 118.459 59.1183C118.669 58.9714 118.868 58.8081 119.054 58.6286L119.455 59.2775C117.632 60.9428 116.162 61.849 114.29 61.849C113.78 61.8735 113.269 61.7877 112.795 61.6041C112.309 61.4204 111.872 61.1388 111.519 60.7714C111.155 60.4041 110.863 59.9755 110.681 59.4857C110.486 59.0081 110.401 58.4939 110.425 57.9796" fill="white"/>
<path fill-rule="evenodd" clip-rule="evenodd" d="M120.645 53.1429C120.632 50.8164 121.544 48.5756 123.16 46.9225C124.789 45.2694 126.989 44.3266 129.298 44.3143C131.607 44.3021 133.831 45.2082 135.472 46.8368C137.112 48.4776 138.048 50.7062 138.06 53.0327C138.06 55.3592 137.161 57.5878 135.545 59.2409C133.916 60.8939 131.716 61.8368 129.407 61.849C127.098 61.8613 124.874 60.9551 123.233 59.3266C121.593 57.6858 120.657 55.4694 120.645 53.1429ZM134.317 53.4613C134.317 48.8327 132.482 45.4776 129.152 45.4776C125.846 45.4776 124.376 48.7347 124.376 52.7388C124.376 57.3552 126.235 60.7347 129.541 60.7347C132.859 60.7347 134.317 57.4654 134.317 53.4613Z" fill="white"/>
<path d="M153.301 50.4979C153.301 48.0489 152.158 46.5918 149.995 46.5918C148.537 46.5428 147.115 47.0081 145.96 47.9142V53.7918C145.96 55.7142 145.96 56.902 145.985 58.8489C146.021 60.2326 146.264 60.404 147.407 60.5387L148.719 60.6734V61.5183H139.75V60.6612L141.063 60.5265C142.229 60.404 142.448 60.2449 142.484 58.8489C142.509 56.902 142.509 55.7142 142.509 53.7918V49.1387C142.509 47.2898 142.132 46.653 140.637 46.5183L139.531 46.4326V45.6C140.082 45.5347 140.625 45.4571 141.16 45.3673C141.703 45.2694 142.245 45.1632 142.788 45.0489C143.323 44.9265 143.854 44.7877 144.38 44.6326C144.907 44.4857 145.434 44.3224 145.96 44.1428V47.0571C146.374 46.6571 146.815 46.2979 147.285 45.9796C147.763 45.6612 148.265 45.3836 148.792 45.1469C149.311 44.9183 149.849 44.7347 150.408 44.5959C150.959 44.4653 151.522 44.3796 152.098 44.3387C155.014 44.3387 156.74 46.2 156.74 49.5918V53.7918C156.74 55.7142 156.74 56.902 156.777 58.8489C156.813 60.2326 157.044 60.404 158.199 60.5265L159.499 60.6612V61.5183H150.542V60.6612L151.83 60.5265C153.009 60.3918 153.228 60.2326 153.277 58.8489C153.301 56.902 153.301 55.7142 153.301 53.7918V50.4979Z" fill="white"/>
<path fill-rule="evenodd" clip-rule="evenodd" d="M160.715 53.2654C160.715 48.8083 163.425 44.3389 168.274 44.3389C172.528 44.3389 175.007 47.1919 175.274 51.4532H163.826C163.692 55.9103 165.746 59.3389 170.17 59.3389C171.944 59.3389 173.646 58.6654 174.971 57.4899L175.396 58.1878C173.184 60.4042 170.887 61.8491 168.262 61.8491C163.632 61.8491 160.715 57.894 160.715 53.2654ZM163.923 50.3756H171.689C171.689 47.8532 170.462 45.4042 167.982 45.4042C165.467 45.4042 164.191 47.8532 163.935 50.3634L163.923 50.3756Z" fill="white"/>
</g>
<defs>
<clipPath id="clip0_1397_3948">
<rect width="184" height="72" fill="white"/>
</clipPath>
</defs>
</svg>
