<svg width="856" height="504" viewBox="0 0 856 504" fill="none" xmlns="http://www.w3.org/2000/svg">
<path d="M856 504L650.963 0.853825H350.59V27.0368H634.825L816.714 473.365L24.5712 386.405V326.885H0V410.039L856 504Z" fill="white"/>
<path d="M49.3161 32.962C52.2661 31.5919 54.7995 29.6511 56.5695 27.0252C58.2006 24.5895 59.1724 21.5831 59.1724 17.8155C59.1724 12.9442 57.6107 9.36688 55.0772 6.62681C52.1967 3.54422 48.1014 1.60333 42.7221 0.8422C41.1257 0.613861 39.4599 0.49969 37.6552 0.49969H4.85899V68.583H37.8288C53.0643 68.583 62.0182 61.4664 62.0182 49.8211C62.0182 47.9943 61.7752 46.396 61.4282 44.8737C59.9359 38.6705 55.5978 35.1693 49.3161 32.962ZM37.3776 27.0252C36.6488 27.2535 35.7812 27.3677 34.8788 27.4438C34.3236 27.4818 33.8724 27.596 33.2477 27.596H22.1074V15.6462H33.6294C34.1153 15.6462 34.4623 15.7604 34.9135 15.7985C39.2863 16.141 41.681 18.1199 41.681 21.5069C41.681 24.4373 40.1192 26.1879 37.4122 27.0252M35.8506 53.3984H22.142V40.8397H35.6423C40.3275 40.8397 42.9651 42.4 43.8674 44.8737C44.1104 45.5207 44.3186 46.2057 44.3186 46.9668C44.3186 51.153 41.1951 53.3984 35.8158 53.3984" fill="white"/>
<path d="M87.8733 47.9182H95.6472L108.523 68.5449H128.964L113.729 44.8357C120.843 41.6008 125.737 35.664 126.674 26.9871C126.778 25.9976 126.882 24.9701 126.882 23.9045C126.882 17.0163 124.973 11.7644 121.225 7.7685C117.72 4.03895 112.444 1.60333 105.295 0.8422C103.733 0.651917 102.172 0.49969 100.402 0.49969H70.1737V68.583H87.8733V47.9182ZM109.043 24.894C109.043 25.6551 108.939 26.3401 108.8 27.0252C107.933 30.9069 104.705 33.1903 99.5343 33.1903H87.8386V16.826H99.4302C105.365 16.826 109.009 19.528 109.009 24.894" fill="white"/>
<path d="M187.72 52.5214H153.362V41.7133H184.041V26.8332H153.362V16.5198H187.234V0.459925H135.836V68.5432H187.72V52.5214Z" fill="white"/>
<path d="M214.86 56.3999H239.5L244.151 68.578H263.134L236.273 0.837243L235.926 0H218.851L218.504 0.837243L191.642 68.578H210.279L214.86 56.3999ZM227.284 22.3773L228.985 27.0202L234.399 41.7101H220.065L227.284 22.3773Z" fill="white"/>
<path d="M287.08 50.9611L293.57 43.2736L294.576 44.8339L309.638 68.5432H330.913L315.642 44.8339L305.89 29.7635L308.181 27.0234L329.802 0.840493L330.114 0.459925H309.083L308.806 0.840493L287.948 27.0234L287.08 28.089V0.459925H269.381V68.5432H287.08V50.9611Z" fill="white"/>
<path d="M1.28629 113.445V129.962H20.4782V181.529H38.1777V129.962H57.3696V113.445H1.28629Z" fill="white"/>
<path d="M105.608 138.905H82.8414V113.445H65.1418V181.529H82.8414V155.65H105.608V181.529H123.307V113.445H105.608V138.905Z" fill="white"/>
<path d="M152.356 160.902H160.13L173.005 181.529H193.447L178.211 157.781C186.158 154.166 191.364 147.278 191.364 136.888C191.364 130 189.455 124.748 185.707 120.752C181.404 116.186 174.671 113.445 164.884 113.445H134.656V181.529H152.356V160.902ZM163.947 129.772C169.882 129.772 173.526 132.512 173.526 137.84C173.526 143.168 170.055 146.098 164.017 146.098H152.321V129.772H163.947Z" fill="white"/>
<path d="M232.663 112.078C212.951 112.078 198.132 127.947 198.132 147.47C198.132 166.993 212.743 182.863 232.455 182.863C252.167 182.863 266.987 166.993 266.987 147.47C266.987 127.947 252.376 112.078 232.663 112.078ZM232.663 165.852C222.981 165.852 216.317 157.289 216.317 147.47C216.317 137.652 222.807 129.089 232.49 129.089C242.172 129.089 248.94 137.652 248.94 147.47C248.94 157.289 242.45 165.852 232.698 165.852" fill="white"/>
<path d="M316.961 151.768C316.961 161.283 312.311 165.773 305.196 165.773C298.082 165.773 293.431 161.092 293.431 151.274V113.445H275.454V151.654C275.454 172.966 286.872 182.785 305.058 182.785C323.243 182.785 335.008 173.156 335.008 151.16V113.445H317.031V151.768H316.961Z" fill="white"/>
<path d="M376.411 155.537H389.008V163.795C386.371 165.66 383.074 166.611 378.771 166.611C368.637 166.611 361.418 158.733 361.418 147.735C361.418 136.737 368.532 128.859 377.764 128.859C384.08 128.859 388.627 131.18 393.208 135.291L403.619 121.971C396.852 115.767 388.904 112.038 377.695 112.038C357.878 112.038 343.267 127.603 343.267 147.431C343.267 168.248 358.156 182.823 378.042 182.823C389.633 182.823 399.038 178.256 405.806 172.32V141.684H376.411V155.537Z" fill="white"/>
<path d="M456.163 113.445V138.905H433.432V113.445H415.697V181.529H433.432V155.65H456.163V181.529H473.863V113.445H456.163Z" fill="white"/>
<path d="M1.28629 226.399V242.954H20.4782V294.483H38.1777V242.954H57.3696V226.399H1.28629Z" fill="white"/>
<path d="M82.6678 267.653H113.347V252.773H82.6678V242.459H116.54V226.399H65.1418V294.483H116.991V278.461H82.6678V267.653Z" fill="white"/>
<path d="M157.388 278.651C148.434 278.651 142.152 270.66 142.152 260.46C142.152 250.261 148.468 242.269 157.388 242.269C163.496 242.269 167.799 245.276 171.443 250.147L184.423 239.453C178.766 231.081 170.645 225.068 157.561 225.068C138.196 225.068 123.863 240.633 123.863 260.46C123.863 280.288 138.577 295.853 156.832 295.853C170.992 295.853 179.113 289.345 185.152 280.478L171.825 270.355C168.007 275.341 164.051 278.613 157.388 278.613" fill="white"/>
<path d="M233.183 251.897H210.452V226.399H192.752V294.483H210.452V268.642H233.183V294.483H250.918V226.399H233.183V251.897Z" fill="white"/>
</svg>
