<svg width="73" height="73" viewBox="0 0 73 73" fill="none" xmlns="http://www.w3.org/2000/svg">
<path fill-rule="evenodd" clip-rule="evenodd" d="M10.4355 18.5662V36.8101L36.9329 46.4757L63.3219 36.8101V18.5662L36.9329 28.231L10.4355 18.5662Z" fill="white"/>
<path fill-rule="evenodd" clip-rule="evenodd" d="M10.4362 40.7818V59.0257L36.9336 68.6906L63.3226 59.0257V40.7818L36.9336 50.4471L10.4362 40.7818ZM33.4043 7.02411H35.8201L37.5308 13.7569L39.268 7.02411H41.6573L39.1869 16.689H35.9016L33.4043 7.02411ZM47.0874 7.02411H42.4992V16.6893H44.9696V10.9336C44.9696 9.65733 45.7838 9.63044 47.0874 9.63044V7.02411ZM59.7929 9.63044C60.6072 9.63044 60.8787 9.90198 60.8787 10.8249V16.689H63.3226V9.63044C63.3226 8.59881 62.7795 6.91541 60.77 7.02411H56.1819V16.6893H58.6257V9.63044H59.7929ZM51.268 7.02411C47.2862 7.02411 47.6842 9.44032 47.6842 11.721C47.6842 14.2728 47.3589 16.6893 51.3226 16.6893C55.2858 16.6893 54.8514 14.2731 54.8514 11.6668C54.8518 9.11462 55.3407 7.02411 51.268 7.02411ZM51.268 14.1913C50.155 14.1913 50.1008 13.3494 50.1008 11.7751C50.1008 10.2549 50.236 9.49448 51.268 9.49448C52.3 9.49448 52.3833 10.2008 52.4087 11.7206C52.4352 13.3771 52.4087 14.1913 51.268 14.1913ZM28.6802 12.8071H33.0362C33.0324 12.511 33.0237 12.2996 33.0237 12.0198C33.0237 9.46759 33.4039 7.02448 29.6573 7.02448C25.6751 7.02448 26.0735 9.73913 26.0735 12.0198C26.0735 14.083 26.0193 16.6893 29.983 16.6893H33.0233V14.3004H29.8197C29.2233 14.3034 28.7347 13.7301 28.6802 12.8071ZM28.6802 10.1735C28.6802 9.0332 30.4177 9.08736 30.4177 10.0107V10.6893H28.6802V10.1735ZM17.739 4.30908V16.689H20.1825V10.6621C20.2371 9.30474 22.5446 9.30474 22.5446 10.6079V16.6893H24.9881V9.87471C24.9881 8.3 23.9564 7.16006 22.1102 7.16006C21.024 7.16006 20.3454 7.29564 20.1825 7.51303V4.30946L17.739 4.30908ZM16.5718 4.30908H13.8027C10.273 4.30908 9.67578 7.24149 9.67578 10.5534C9.67578 13.8653 10.273 16.689 13.2596 16.689H16.5718V14.0826H14.1825C12.445 14.0826 12.5537 11.6937 12.5537 10.4988C12.5537 9.30436 12.228 7.07788 14.6169 7.02411H16.5718V4.30908Z" fill="white"/>
</svg>
