<svg width="131" height="37" viewBox="0 0 131 37" fill="none" xmlns="http://www.w3.org/2000/svg">
<path fill-rule="evenodd" clip-rule="evenodd" d="M19.4603 0.0200195C9.1603 0.0200195 0.820312 8.35997 0.820312 18.66C0.820312 26.91 6.16031 33.88 13.5703 36.35C14.5003 36.51 14.8503 35.95 14.8503 35.46C14.8503 35.02 14.8303 33.55 14.8303 31.99C10.1503 32.85 8.9303 30.85 8.5603 29.8C8.3503 29.26 7.4403 27.61 6.6503 27.17C6.0003 26.82 5.07031 25.96 6.63031 25.93C8.10031 25.91 9.1503 27.28 9.50031 27.84C11.1803 30.66 13.8603 29.87 14.9303 29.38C15.0903 28.17 15.5803 27.35 16.1203 26.89C11.9703 26.42 7.64032 24.82 7.64032 17.68C7.64032 15.65 8.36029 13.97 9.55029 12.67C9.36029 12.2 8.7103 10.29 9.7403 7.72998C9.7403 7.72998 11.3003 7.24001 14.8703 9.64001C16.3603 9.22001 17.9503 9.01001 19.5303 9.01001C21.1103 9.01001 22.7003 9.22001 24.1903 9.64001C27.7603 7.22001 29.3203 7.72998 29.3203 7.72998C30.3503 10.29 29.6903 12.2 29.5103 12.67C30.7003 13.98 31.4203 15.63 31.4203 17.68C31.4203 24.83 27.0603 26.42 22.9103 26.89C23.5903 27.47 24.1703 28.59 24.1703 30.34C24.1703 32.83 24.1503 34.84 24.1503 35.47C24.1503 35.96 24.5003 36.54 25.4303 36.36C32.7903 33.89 38.1303 26.9 38.1303 18.67C38.1303 8.36998 29.7903 0.0300293 19.4903 0.0300293L19.4603 0.0200195Z" fill="white"/>
<path d="M53.7398 16.36C53.5698 16.36 53.3998 16.53 53.3998 16.7V20.21C53.3998 20.38 53.5698 20.55 53.7398 20.55H56.5598V24.91C56.5598 24.91 55.9599 25.17 54.1699 25.17C52.1199 25.17 49.2899 24.4 49.2899 18.07C49.2899 11.74 52.2798 10.97 55.1098 10.97C57.5898 10.97 58.6198 11.4 59.2998 11.57C59.4698 11.66 59.7299 11.4 59.7299 11.23L60.4998 7.81C60.4998 7.72 60.4998 7.63999 60.3298 7.54999C60.0698 7.37999 58.4499 6.44 54.2599 6.44C49.3799 6.44 44.5898 8.41002 44.5898 18.33C44.5898 28.25 50.2399 29.62 54.9398 29.62C58.8699 29.62 61.2698 27.99 61.2698 27.99C61.3598 27.9 61.3598 27.82 61.3598 27.73V16.7C61.3598 16.53 61.1898 16.36 61.0198 16.36" fill="white"/>
<path d="M97.9604 7.64001C97.9604 7.47001 97.7905 7.29999 97.6205 7.29999H93.6005C93.4305 7.29999 93.2605 7.47001 93.2605 7.64001V15.42H86.9305V7.64001C86.9305 7.47001 86.7605 7.29999 86.5905 7.29999H82.5705C82.4005 7.29999 82.2305 7.47001 82.2305 7.64001V28.77C82.2305 28.94 82.4005 29.11 82.5705 29.11H86.5905C86.7605 29.11 86.9305 28.94 86.9305 28.77V19.7H93.2605V28.77C93.2605 28.94 93.4305 29.11 93.6005 29.11H97.6205C97.7905 29.11 97.9604 28.94 97.9604 28.77V7.64001Z" fill="white"/>
<path d="M65.9703 13.11C67.4339 13.11 68.6203 11.9236 68.6203 10.46C68.6203 8.99647 67.4339 7.81 65.9703 7.81C64.5068 7.81 63.3203 8.99647 63.3203 10.46C63.3203 11.9236 64.5068 13.11 65.9703 13.11Z" fill="white"/>
<path d="M68.2801 14.56C68.2801 14.39 68.1101 14.22 67.9401 14.22H63.9201C63.7501 14.22 63.5801 14.39 63.5801 14.56V28.59C63.5801 29.02 63.8401 29.1 64.1801 29.1H67.8601C68.2901 29.1 68.3701 28.93 68.3701 28.59" fill="white"/>
<path d="M109.341 14.31C109.171 14.31 109.001 14.48 109.001 14.65V25C109.001 25 107.971 25.77 106.521 25.77C105.071 25.77 104.721 25.09 104.721 23.72V14.65C104.721 14.48 104.551 14.31 104.381 14.31H100.361C100.191 14.31 100.021 14.48 100.021 14.65V24.4C100.021 28.59 102.331 29.62 105.581 29.62C108.231 29.62 110.371 28.17 110.371 28.17C110.371 28.17 110.461 28.94 110.541 29.03C110.621 29.12 110.711 29.2 110.801 29.2H113.371C113.541 29.2 113.711 29.03 113.711 28.86V14.66C113.711 14.49 113.541 14.32 113.371 14.32" fill="white"/>
<path d="M122.85 25.85C121.14 25.85 120.37 25.08 120.37 25.08V18.32C120.37 18.32 121.31 17.72 122.42 17.64C123.87 17.47 125.24 17.98 125.24 21.4C125.24 25.08 124.81 25.85 122.76 25.85H122.85ZM120.54 14.82V7.64001C120.54 7.47001 120.37 7.29999 120.2 7.29999H116.18C116.01 7.29999 115.84 7.47001 115.84 7.64001V28.77C115.84 28.94 116.01 29.11 116.18 29.11H119C119.09 29.11 119.26 29.02 119.26 28.94C119.35 28.85 119.43 28 119.43 28C119.43 28 121.06 29.63 124.22 29.63C127.9 29.63 130.04 27.75 130.04 21.25C130.04 14.75 126.7 13.89 124.39 13.89C122.08 13.89 120.54 14.92 120.54 14.92V14.83V14.82Z" fill="white"/>
<path d="M76.9205 14.22V10.2C76.9205 10.03 76.8305 9.94 76.6605 9.94H72.4705C72.3005 9.94 72.2104 10.03 72.2104 10.28V14.47C72.2104 14.47 70.1604 14.98 69.9904 14.98C69.8204 15.07 69.7305 15.15 69.7305 15.32V17.97C69.7305 18.14 69.9005 18.31 70.0705 18.31H72.2104V24.55C72.2104 29.25 75.4605 29.68 77.6805 29.68C78.7105 29.68 79.9005 29.34 80.0705 29.25C80.1605 29.16 80.2404 29.08 80.2404 28.91V26.09C80.2404 25.92 80.0705 25.75 79.9005 25.75C79.7305 25.75 79.3005 25.84 78.7905 25.84C77.3405 25.84 76.8205 25.16 76.8205 24.21V18.31H79.8105C79.9805 18.31 80.1505 18.14 80.1505 17.97V14.55C80.1505 14.38 79.9805 14.21 79.8105 14.21" fill="white"/>
</svg>
