<svg width="1265" height="274" viewBox="0 0 1265 274" fill="none" xmlns="http://www.w3.org/2000/svg">
<g filter="url(#filter0_d_3054_18146)">
<path fill-rule="evenodd" clip-rule="evenodd" d="M1124.33 8.60471C1113.64 8.60471 1105.01 17.29 1105.01 27.9309C1105.01 38.5718 1113.69 47.2571 1124.33 47.2571H1156.49C1158.56 47.2571 1160.23 48.9251 1160.23 50.9958C1160.23 53.0665 1158.16 55.6548 1155.57 55.6548H1124.33C1109.03 55.6548 1096.67 43.2308 1096.67 27.9309C1096.67 12.631 1109.09 0.207031 1124.33 0.207031H1151.48C1153.78 0.207031 1155.68 2.10513 1155.68 4.40587C1155.68 6.70661 1153.78 8.60471 1151.48 8.60471H1124.33Z" fill="white"/>
<path fill-rule="evenodd" clip-rule="evenodd" d="M1144.02 65.543C1145.52 67.3261 1145.23 69.972 1143.5 71.4099L1132.46 80.6129L1143.5 89.8158C1145.29 91.3113 1145.52 93.9571 1144.02 95.6827C1142.53 97.4658 1139.88 97.6958 1138.15 96.2004L1123.49 84.0065C1121.36 82.2234 1121.36 78.9448 1123.49 77.1618L1138.15 64.9678C1139.94 63.4724 1142.58 63.76 1144.02 65.4855V65.543Z" fill="white"/>
<path fill-rule="evenodd" clip-rule="evenodd" d="M1163.72 65.543C1162.22 67.3261 1162.51 69.972 1164.23 71.4099L1175.28 80.6129L1164.23 89.8158C1162.45 91.3113 1162.22 93.9571 1163.72 95.6827C1165.21 97.4658 1167.86 97.6958 1169.58 96.2004L1184.25 84.0065C1186.38 82.2234 1186.38 78.9448 1184.25 77.1618L1169.58 64.9678C1167.8 63.4724 1165.16 63.76 1163.72 65.4855V65.543Z" fill="white"/>
<path fill-rule="evenodd" clip-rule="evenodd" d="M1158.31 8.60471C1169.01 8.60471 1177.64 17.29 1177.64 27.9309C1177.64 38.5718 1169.01 47.2571 1158.31 47.2571H1131.16C1128.86 47.2571 1126.96 49.1552 1126.96 51.4559C1126.96 53.7567 1128.86 55.6548 1131.16 55.6548H1158.31C1173.61 55.6548 1185.98 43.2308 1185.98 27.9309C1185.98 12.631 1173.55 0.207031 1158.31 0.207031H1131.16C1128.86 0.207031 1126.96 2.10513 1126.96 4.40587C1126.96 6.70661 1128.86 8.60471 1131.16 8.60471H1158.31Z" fill="white"/>
<path fill-rule="evenodd" clip-rule="evenodd" d="M1105.01 69.7492H1111.8C1114.1 69.7492 1115.99 67.8511 1115.99 65.5504C1115.99 63.2497 1114.1 61.3516 1111.8 61.3516H1103.46C1099.72 61.3516 1096.67 64.4 1096.67 68.1387V93.2168C1096.67 96.9555 1099.72 100.004 1103.46 100.004H1111.8C1114.1 100.004 1115.99 98.1058 1115.99 95.8051C1115.99 93.5044 1114.1 91.6062 1111.8 91.6062H1105.01V69.6342V69.7492Z" fill="white"/>
<path fill-rule="evenodd" clip-rule="evenodd" d="M1124.33 8.60471C1113.64 8.60471 1105.01 17.29 1105.01 27.9309C1105.01 38.5718 1113.69 47.2571 1124.33 47.2571H1156.49C1158.56 47.2571 1160.23 48.9251 1160.23 50.9958C1160.23 53.0665 1158.16 55.6548 1155.57 55.6548H1124.33C1109.03 55.6548 1096.67 43.2308 1096.67 27.9309C1096.67 12.631 1109.09 0.207031 1124.33 0.207031H1151.48C1153.78 0.207031 1155.68 2.10513 1155.68 4.40587C1155.68 6.70661 1153.78 8.60471 1151.48 8.60471H1124.33Z" fill="white"/>
<path d="M1130.09 27.9284C1130.09 30.5167 1127.96 32.6449 1125.37 32.6449C1122.78 32.6449 1120.66 30.5167 1120.66 27.9284C1120.66 25.3401 1122.78 23.2119 1125.37 23.2119C1127.96 23.2119 1130.09 25.3401 1130.09 27.9284Z" fill="white"/>
<path d="M1162.5 27.9284C1162.5 30.5167 1160.38 32.6449 1157.79 32.6449C1155.2 32.6449 1153.07 30.5167 1153.07 27.9284C1153.07 25.3401 1155.2 23.2119 1157.79 23.2119C1160.38 23.2119 1162.5 25.3401 1162.5 27.9284Z" fill="white"/>
<path d="M1087.92 122.148H1100.69L1119.67 172.822H1107.47L1103.56 161.491H1085.04L1081.13 172.822H1068.94L1087.92 122.148ZM1100 151.483L1096.32 140.842L1094.59 134.63H1093.9L1092.17 140.842L1088.49 151.483H1100ZM1122.03 122.148H1139.92C1144 122.148 1147.62 122.781 1150.9 123.989C1154.18 125.197 1156.94 126.922 1159.18 129.166C1161.43 131.351 1163.15 134.055 1164.36 137.161C1165.57 140.267 1166.2 143.718 1166.2 147.514C1166.2 151.31 1165.57 154.761 1164.36 157.867C1163.15 160.973 1161.48 163.677 1159.18 165.862C1156.88 168.048 1154.18 169.831 1150.9 171.039C1147.62 172.247 1144 172.88 1139.92 172.88H1122.03V122.206V122.148ZM1139.4 162.354C1142.16 162.354 1144.52 162.009 1146.47 161.318C1148.43 160.571 1150.1 159.535 1151.36 158.212C1152.68 156.889 1153.66 155.336 1154.24 153.553C1154.87 151.713 1155.16 149.7 1155.16 147.514C1155.16 145.328 1154.87 143.373 1154.24 141.59C1153.6 139.749 1152.68 138.196 1151.36 136.873C1150.1 135.55 1148.49 134.515 1146.47 133.825C1144.52 133.077 1142.16 132.674 1139.4 132.674H1133.13V162.411H1139.4V162.354ZM1170.4 122.148H1181.44V141.705H1182.13L1198.87 122.148H1211.99V122.839L1193.93 143.43L1214.17 172.074V172.765H1200.71L1186.28 152.173L1181.44 157.752V172.765H1170.4V122.091V122.148Z" fill="white"/>
<path d="M889.888 170.704C889.888 170.704 894.375 158.74 899.839 144.188C905.303 129.636 909.905 117.442 910.02 117.039L910.307 116.292H921.984L932.107 143.268C937.686 158.108 942.288 170.359 942.345 170.474C942.403 170.704 942.115 170.704 936.766 170.647H931.072L928.828 164.147L926.585 157.705H916.117L905.649 157.647L905.016 159.373C904.671 160.351 903.635 163.227 902.715 165.873L901.047 170.589H895.41C892.304 170.589 889.773 170.589 889.773 170.589L889.888 170.704ZM922.732 146.834C922.444 145.971 921.294 142.865 920.258 139.874C919.223 136.883 917.957 133.145 917.44 131.534C916.98 129.866 916.52 128.428 916.462 128.313C916.462 128.198 916.289 128.083 916.117 128.083C915.772 128.083 915.887 127.738 914.449 132.512C913.989 133.95 909.732 146.259 908.985 148.099C908.927 148.329 909.272 148.329 916.059 148.329H923.249L922.674 146.776L922.732 146.834ZM947.234 166.16V161.501L957.07 151.608C962.764 145.856 967.366 141.197 967.999 140.392C970.472 137.343 971.277 135.618 971.45 133.145C971.622 131.074 971.047 129.521 969.551 128.083C968.056 126.588 966.446 125.955 964.03 126.012C962.477 126.012 961.096 126.3 960.061 126.875C959.716 127.048 958.968 127.68 958.393 128.256C957.358 129.291 956.667 130.384 956.15 131.764C956.035 132.109 955.862 132.397 955.747 132.397C955.517 132.397 946.889 128.773 946.774 128.716C946.659 128.601 947.119 127.335 947.752 126.07C949.995 121.641 954.137 118.305 959.026 117.097C962.074 116.349 965.525 116.292 968.746 116.924C972.025 117.557 975.131 119.225 977.374 121.468C980.998 125.092 982.436 130.039 981.343 135.445C980.71 138.781 978.985 142.175 976.339 145.569C975.879 146.144 972.14 149.998 968.114 154.081C962.534 159.661 960.751 161.559 960.809 161.731C960.866 161.904 961.672 161.961 971.68 161.961H982.493V170.934H947.177V166.275L947.234 166.16ZM986.635 170.589C986.635 170.474 991.293 158.223 996.873 143.383L1007 116.407H1018.67L1018.79 116.752C1018.84 116.924 1023.45 129.176 1028.97 143.901C1034.49 158.683 1039.03 170.762 1039.03 170.762C1039.03 170.762 1036.5 170.762 1033.4 170.762H1027.76L1025.63 164.55C1024.42 161.156 1023.45 158.223 1023.39 158.05L1023.27 157.762H1002.45L1000.15 164.262L997.851 170.762H992.156C986.807 170.819 986.462 170.819 986.577 170.589H986.635ZM1020 148.214C1019.3 146.431 1014.88 133.662 1014.53 132.569C1013.27 128.371 1013.21 128.14 1012.86 128.14C1012.52 128.14 1012.52 128.256 1012.35 128.831C1011.31 132.282 1010.22 135.618 1008.66 140.047C1007.63 142.923 1006.54 145.971 1006.25 146.834L1005.67 148.387H1012.86C1018.56 148.387 1020 148.387 1020 148.214ZM900.99 90.8686C899.667 90.581 898.631 89.7757 897.999 88.5103C897.538 87.59 897.538 87.475 897.538 86.2096C897.538 84.9441 897.538 84.7716 897.884 84.1389C898.344 83.2186 899.494 82.1258 900.472 81.7231L901.22 81.4355H909.387C918.935 81.4355 918.303 81.378 919.798 82.7009C920.891 83.7363 921.294 84.5415 921.409 85.7494C921.581 88.0502 920.316 90.0633 918.188 90.7535C917.44 90.9836 917.037 90.9836 909.445 90.9836C905.073 90.9836 901.277 90.9261 901.047 90.8686H900.99ZM934.293 90.811C932.855 90.4084 931.589 89.2005 931.187 87.7626C930.899 86.7272 931.014 85.1167 931.417 84.1389C932.05 82.7584 933.372 81.7806 934.925 81.4931C935.501 81.378 941.598 81.378 955.402 81.378C978.007 81.378 975.648 81.263 977.201 82.7009C978.294 83.7363 978.697 84.5415 978.812 85.6919C978.985 87.9926 977.719 90.0058 975.591 90.696C974.786 90.9261 974.441 90.9261 954.884 90.9261C937.916 90.9261 934.868 90.9261 934.293 90.7535V90.811ZM991.754 90.811C990.316 90.4084 989.05 89.2005 988.648 87.7626C988.36 86.7272 988.475 85.1167 988.878 84.1389C989.913 81.8381 992.847 80.8028 995.205 81.8381C996.01 82.1833 996.988 83.1611 997.448 84.0239C997.851 84.7716 997.908 84.8866 997.908 86.152C997.908 87.4174 997.908 87.5325 997.506 88.3377C997.045 89.3156 996.24 90.1208 995.205 90.581C994.342 90.9836 992.789 91.0986 991.754 90.811ZM1011.14 90.8686C1009.18 90.4084 1007.8 88.7404 1007.69 86.6697C1007.63 85.5769 1007.86 84.4265 1008.32 83.6787C1008.78 82.931 1009.87 82.0682 1010.68 81.7231L1011.37 81.4355H1021.95C1034.2 81.4355 1033.28 81.3205 1034.72 82.7009C1035.81 83.7363 1036.22 84.5415 1036.33 85.7494C1036.5 88.0502 1035.24 90.0633 1033.11 90.7535C1032.3 90.9836 1031.96 90.9836 1021.95 90.9836C1016.26 90.9836 1011.42 90.9261 1011.14 90.8686ZM910.825 71.7724C909.33 71.5423 908.122 70.6221 907.489 69.2991C907.202 68.6664 907.144 68.3788 907.086 67.286C907.086 66.1931 907.086 65.9055 907.317 65.2728C907.719 64.2375 908.639 63.2597 909.675 62.742L910.538 62.3394H936.996L937.744 62.6845C938.607 63.1447 939.757 64.295 940.16 65.1578C940.39 65.6755 940.447 65.9631 940.447 67.1134C940.447 68.2638 940.447 68.4939 940.102 69.1841C939.412 70.5645 938.204 71.5423 936.651 71.7724C935.788 71.945 911.803 71.945 910.825 71.7724ZM953.964 71.7724C952.411 71.4848 951.031 70.4495 950.513 69.0691C950.283 68.4364 950.225 68.0913 950.225 67.0559C950.225 66.0206 950.225 65.733 950.57 65.0428C951.031 64.065 951.836 63.2597 952.871 62.7996C953.619 62.4544 953.849 62.3969 954.942 62.3969C956.035 62.3969 957.013 62.627 958.163 63.7198C959.313 64.8127 959.658 65.6755 959.658 67.1709C959.658 68.2063 959.658 68.3788 959.198 69.2416C958.22 71.2548 956.207 72.2326 953.964 71.8299V71.7724ZM973.175 71.7724C971.737 71.5423 970.472 70.6796 969.897 69.4717C968.574 66.8258 969.551 63.8924 972.14 62.6845L972.888 62.3394H981.285C986.922 62.3394 989.913 62.4544 990.316 62.627C991.121 62.9721 992.386 64.18 992.789 64.9853C993.077 65.5604 993.134 65.733 993.134 66.9984C993.134 68.2638 993.134 68.4939 992.789 69.1266C992.156 70.507 990.833 71.4848 989.28 71.7724C988.418 71.8875 973.98 71.8875 973.175 71.7724ZM1006.59 71.7724C1005.73 71.5999 1004.52 70.9672 1004.01 70.392C1003.77 70.1619 1003.43 69.5867 1003.2 69.1266C1002.85 68.3788 1002.8 68.1488 1002.8 67.1709C1002.8 65.6179 1003.03 64.9277 1004.01 63.8924C1004.52 63.3172 1004.98 62.9721 1005.56 62.742L1006.36 62.3969H1023.22L1023.96 62.742C1024.83 63.2022 1025.98 64.3525 1026.38 65.2153C1026.61 65.733 1026.67 66.0206 1026.67 67.1709C1026.67 68.3213 1026.67 68.5514 1026.32 69.2416C1025.63 70.6221 1024.42 71.5999 1022.87 71.8299C1021.95 72.0025 1007.63 72.0025 1006.59 71.8299V71.7724ZM913.298 50.088C906.051 49.0526 899.667 44.7963 895.985 38.5268C888.853 26.4479 893.627 10.8604 906.224 4.82098C908.927 3.49805 911.458 2.80783 914.276 2.52024C915.254 2.4052 920.891 2.4052 932.107 2.4052C950.053 2.4052 949.305 2.40517 952.411 3.21043C954.194 3.67058 957.415 4.93599 957.415 5.22358C957.415 5.51117 957.012 5.91382 956.552 6.71908C955.459 8.44463 954.597 10.2852 953.791 12.1258C953.504 12.931 953.216 13.5638 953.159 13.6213C953.101 13.6788 952.699 13.4487 952.123 13.2187C951.088 12.701 949.65 12.2983 948.212 12.1258C947.637 12.0683 941.195 12.0108 931.129 12.0108C915.254 12.0108 914.909 12.0108 913.644 12.2408C909.962 12.9886 906.684 15.1743 904.613 18.2803C903.865 19.4306 903.003 21.3288 902.6 22.7092C902.312 23.8596 902.255 24.1472 902.255 26.3329C902.255 28.4035 902.255 28.8637 902.543 29.7265C904.096 35.3057 908.122 39.1595 913.701 40.3674C914.736 40.5974 915.657 40.5974 931.187 40.5974C946.717 40.5974 947.694 40.5974 948.787 40.3674C951.261 39.9072 952.871 39.1595 954.309 37.8365C956.552 35.7659 957.703 33.0625 959.716 25.2975C961.384 18.7979 962.017 16.8423 963.397 14.0239C966.215 8.21457 970.529 4.64841 976.454 3.15293C979.617 2.34767 978.812 2.40517 996.758 2.34766C1008.2 2.34766 1013.55 2.34766 1014.53 2.4627C1020.92 3.0954 1026.49 6.02885 1030.69 10.9179C1032.99 13.6213 1034.89 17.4175 1035.7 21.0411C1036.96 26.793 1036.04 33.005 1033.17 38.0666C1029.49 44.5087 1022.93 48.9376 1015.62 49.973C1014.42 50.1455 1011.94 50.1455 997.793 50.1455C983.644 50.1455 980.94 50.1455 980.192 50.0305C977.374 49.7429 974.613 48.9951 972.485 47.9598L971.335 47.3846L972.082 46.2343C972.945 44.9113 974.498 41.9204 975.188 40.1373C975.476 39.5046 975.706 38.9294 975.706 38.8719C975.706 38.8143 976.166 39.0444 976.741 39.2745C978.064 39.9072 979.732 40.3099 981.688 40.4824C982.781 40.5974 988.187 40.5974 998.828 40.5974C1014.07 40.5974 1014.36 40.5974 1015.39 40.3098C1020.92 38.9294 1024.88 35.0756 1026.26 29.6689C1026.67 28.1159 1026.72 25.1825 1026.38 23.4569C1025.29 18.0502 1021.32 13.8514 1015.91 12.3559L1014.65 12.0108H998.138C983.471 11.9533 981.458 12.0108 980.307 12.1258C975.764 12.816 973.29 14.8867 971.392 19.4882C970.702 21.2137 970.184 22.9393 968.919 27.7708C967.366 33.8103 966.848 35.4208 965.468 38.2967C964.26 40.8275 962.994 42.6106 961.269 44.3937C957.99 47.6147 954.252 49.3402 948.96 50.0305C947.004 50.2605 914.794 50.2605 913.126 50.0305L913.298 50.088ZM915.197 30.9919C913.413 30.4742 912.263 29.1513 911.918 27.1956C911.515 25.0099 912.551 23.0543 914.506 22.0765C915.369 21.6739 915.542 21.6163 916.577 21.6163C918.072 21.6163 918.935 22.019 920.028 23.1118C920.948 24.0321 921.294 24.8374 921.409 26.0453C921.581 28.1159 920.431 30.014 918.59 30.8193C917.842 31.1644 916.059 31.2795 915.254 30.9919H915.197ZM943.898 30.9919C942.115 30.4742 940.965 29.1513 940.62 27.1956C940.217 25.0099 941.252 23.0543 943.208 22.0765C944.071 21.6739 944.243 21.6163 945.279 21.6163C946.774 21.6163 947.637 22.019 948.73 23.1118C949.65 24.0321 949.995 24.8374 950.11 26.0453C950.283 28.1159 949.132 30.014 947.292 30.8193C946.544 31.1644 944.761 31.2795 943.956 30.9919H943.898ZM982.378 30.9919C980.422 30.4742 979.042 28.8637 978.927 26.793C978.87 25.7001 979.1 24.5498 979.56 23.8021C979.962 23.1118 980.94 22.2491 981.63 21.9615C982.896 21.3863 984.621 21.3863 985.772 21.9615C986.462 22.3066 987.497 23.3419 987.9 24.0321C988.59 25.24 988.59 26.9656 988.015 28.2885C987.612 29.1513 986.577 30.1866 985.714 30.5892C984.851 30.9919 983.356 31.1069 982.436 30.8768L982.378 30.9919ZM1011.14 30.9919C1009.18 30.4742 1007.8 28.8637 1007.69 26.793C1007.63 25.7001 1007.86 24.5498 1008.32 23.8021C1008.72 23.1118 1009.7 22.2491 1010.39 21.9615C1011.65 21.3863 1013.38 21.3863 1014.53 21.9615C1015.22 22.3066 1016.26 23.3419 1016.66 24.0321C1017.35 25.24 1017.35 26.9656 1016.77 28.2885C1016.37 29.1513 1015.34 30.1866 1014.47 30.5892C1013.61 30.9919 1012.12 31.1069 1011.19 30.8768L1011.14 30.9919Z" fill="white"/>
<path d="M141.352 58.1194H145.666L158.032 45.7529L158.665 40.5187C135.658 20.2147 100.514 22.4004 80.2099 45.4078C74.5731 51.7924 70.4893 59.3848 68.2461 67.6674C69.6265 67.0923 71.1795 67.0347 72.56 67.3798L97.2929 63.296C97.2929 63.296 98.5583 61.2254 99.191 61.3404C110.177 49.2615 128.698 47.8236 141.41 58.1194H141.352Z" fill="white"/>
<path d="M175.656 67.6097C172.838 57.1414 166.971 47.7084 158.861 40.5186L141.49 57.8891C148.795 63.871 152.994 72.9014 152.822 82.392V85.498C161.334 85.498 168.294 92.4002 168.294 100.97C168.294 109.541 161.392 116.443 152.822 116.443H121.934L118.828 119.549V138.07L121.934 141.176H152.822C175.024 141.348 193.142 123.518 193.315 101.316C193.43 87.8562 186.815 75.2597 175.656 67.7248V67.6097Z" fill="white"/>
<path d="M90.9916 140.891H121.879V116.158H90.9916C88.8059 116.158 86.6201 115.698 84.607 114.777L80.2931 116.1L67.8116 128.467L66.7188 132.781C73.6785 138.072 82.2488 140.891 90.9916 140.833V140.891Z" fill="white"/>
<path d="M90.9759 60.6547C68.7738 60.7698 50.8855 78.8881 51.0006 101.09C51.0581 113.457 56.8674 125.133 66.703 132.725L84.6488 114.78C76.8839 111.271 73.4327 102.126 76.9414 94.3605C80.45 86.5955 89.5954 83.1444 97.3604 86.6531C100.812 88.2061 103.515 90.9669 105.068 94.3605L123.014 76.4148C115.364 66.4641 103.515 60.5972 90.9759 60.6547Z" fill="white"/>
<path d="M275.609 123.632C264.853 123.747 254.5 119.548 246.965 111.841C239.143 104.478 234.829 94.2401 234.944 83.5417C234.829 72.8433 239.2 62.5475 246.965 55.2426C254.5 47.5352 264.853 43.1638 275.609 43.2788C285.905 43.1638 295.798 47.1325 303.103 54.3223L295.396 62.2024C290.104 57.0832 283.029 54.2648 275.667 54.3799C267.959 54.2648 260.539 57.4283 255.248 63.0651C249.783 68.5294 246.735 75.9493 246.85 83.6567C246.792 91.3067 249.783 98.6115 255.248 104.018C266.406 115.177 284.467 115.349 295.856 104.478C299.249 100.74 301.377 96.0232 301.78 90.9616H275.724V79.8605H312.594C312.939 82.1037 313.111 84.347 313.054 86.6477C313.514 96.1382 310.063 105.399 303.563 112.243C296.316 119.836 286.135 123.92 275.667 123.575L275.609 123.632ZM361.312 116.27C351.016 126.105 334.796 126.105 324.557 116.27C319.553 111.438 316.85 104.766 317.022 97.8063C316.85 90.9041 319.553 84.1744 324.557 79.3429C334.853 69.5072 351.016 69.5072 361.312 79.3429C366.258 84.1744 369.019 90.8465 368.847 97.8063C369.019 104.766 366.258 111.438 361.312 116.27ZM332.667 109.022C337.959 114.717 346.875 115.004 352.569 109.655C352.799 109.425 353.029 109.252 353.202 109.022C356.078 106.031 357.688 102.005 357.515 97.8063C357.631 93.6074 356.078 89.5811 353.202 86.5902C347.737 80.8959 338.707 80.7233 333.013 86.1875C332.898 86.3026 332.725 86.4751 332.61 86.5902C329.677 89.5811 328.124 93.6649 328.296 97.8063C328.181 102.005 329.792 106.031 332.667 109.022ZM417.852 116.27C407.556 126.105 391.336 126.105 381.098 116.27C376.094 111.438 373.391 104.766 373.563 97.8063C373.391 90.9041 376.094 84.1744 381.098 79.3429C391.394 69.5072 407.614 69.5072 417.852 79.3429C422.799 84.1744 425.56 90.8465 425.387 97.8063C425.56 104.708 422.856 111.438 417.852 116.27ZM389.151 109.022C394.442 114.717 403.358 115.004 409.052 109.655C409.282 109.425 409.512 109.252 409.685 109.022C412.561 106.031 414.171 102.005 413.999 97.8063C414.114 93.6074 412.561 89.5811 409.685 86.5902C404.22 80.8959 395.19 80.7233 389.496 86.1875C389.381 86.3026 389.208 86.4751 389.093 86.5902C386.16 89.5811 384.607 93.6649 384.779 97.8063C384.664 102.005 386.275 106.031 389.151 109.022ZM455.009 146.812C449.833 146.985 444.713 145.374 440.572 142.211C436.891 139.45 434.015 135.768 432.174 131.512L442.068 127.371C443.16 129.902 444.828 132.145 446.957 133.813C449.257 135.653 452.133 136.631 455.067 136.574C458.863 136.804 462.544 135.366 465.19 132.662C467.778 129.499 469.101 125.473 468.814 121.389V117.65H468.411C465.075 121.619 460.013 123.805 454.837 123.517C448.222 123.517 441.953 120.814 437.466 115.982C432.635 111.208 429.931 104.593 430.046 97.8063C429.931 90.9616 432.635 84.347 437.466 79.5154C441.953 74.6839 448.222 71.923 454.837 71.923C457.598 71.923 460.301 72.4982 462.832 73.7061C465.017 74.6263 466.916 76.0643 468.469 77.8474H468.871V73.7061H479.627V119.951C480.202 127.371 477.729 134.618 472.725 140.14C468.008 144.684 461.624 147.1 455.067 146.869L455.009 146.812ZM455.757 113.509C459.496 113.566 463.119 112.013 465.593 109.195C468.296 106.146 469.676 102.178 469.561 98.0939C469.734 93.9525 468.296 89.9262 465.593 86.7627C463.119 83.9443 459.553 82.3338 455.757 82.4488C451.903 82.3913 448.222 83.9443 445.576 86.7627C442.7 89.8112 441.147 93.8375 441.262 97.9788C441.147 102.12 442.758 106.089 445.576 109.08C448.165 111.956 451.846 113.566 455.757 113.509ZM498.666 46.2122V122.079H487.335V46.2122H498.666ZM529.783 123.632C522.939 123.805 516.324 121.101 511.492 116.212C506.603 111.323 503.957 104.708 504.13 97.8063C503.9 90.9041 506.431 84.2319 511.205 79.2278C515.691 74.4538 522.018 71.8655 528.575 71.9805C531.566 71.9805 534.5 72.4982 537.261 73.6485C539.734 74.6263 541.977 76.1218 543.875 77.9624C545.486 79.5154 546.981 81.2985 548.189 83.1966C549.224 84.8071 550.03 86.5327 550.777 88.2582L551.928 91.1917L517.187 105.456C519.315 110.403 524.319 113.509 529.668 113.279C534.845 113.279 539.676 110.575 542.38 106.089L551.065 111.956C548.822 115.119 546.003 117.823 542.725 119.836C538.814 122.309 534.27 123.575 529.668 123.46L529.783 123.632ZM515.289 97.0585L538.353 87.453C537.663 85.7849 536.398 84.347 534.73 83.4842C532.947 82.4489 530.876 81.9312 528.805 81.9887C525.297 82.1037 521.903 83.5417 519.487 86.13C516.496 88.9484 515.001 92.9747 515.289 97.0585Z" fill="white"/>
<path d="M611.35 123.633C591.621 123.978 575.286 108.218 574.998 88.4896C574.998 88.0294 574.998 87.5118 574.998 87.0516C574.538 67.3228 590.183 50.9301 609.912 50.4699C610.372 50.4699 610.89 50.4699 611.35 50.4699C621.243 50.1823 630.734 54.3812 637.061 61.9161L630.791 68.013C626.075 62.0886 618.885 58.8101 611.35 59.0977C604.103 58.9251 597.143 61.7435 592.024 66.8052C586.674 72.1544 583.856 79.5167 584.144 87.0516C583.856 94.5865 586.674 101.949 592.024 107.298C597.143 112.417 604.103 115.178 611.35 115.006C619.748 115.121 627.743 111.382 633.034 104.825L639.304 111.094C636.025 115.006 631.941 118.112 627.282 120.24C622.278 122.541 616.814 123.691 611.292 123.633H611.35Z" fill="white"/>
<path d="M656.078 122.072H647.105V51.957H656.078V122.072Z" fill="white"/>
<path d="M670.834 79.8637C680.612 70.1431 696.429 70.1431 706.265 79.8637C710.924 84.7528 713.397 91.3099 713.225 98.0971C713.455 104.884 710.924 111.441 706.265 116.33C696.487 126.051 680.669 126.051 670.834 116.33C666.175 111.441 663.701 104.884 663.874 98.0971C663.644 91.3099 666.175 84.7528 670.834 79.8637ZM677.506 110.694C683.258 116.791 692.863 117.021 698.903 111.269C699.075 111.096 699.305 110.866 699.478 110.694C702.641 107.3 704.309 102.756 704.137 98.0971C704.309 93.4381 702.641 88.8941 699.478 85.5005C693.726 79.4036 684.12 79.1735 678.081 84.9253C677.908 85.0979 677.678 85.328 677.506 85.5005C674.342 88.8941 672.674 93.4381 672.847 98.0971C672.674 102.756 674.342 107.242 677.506 110.636V110.694Z" fill="white"/>
<path d="M762.944 122.081H754.259V115.466H753.971C752.418 117.997 750.233 120.068 747.644 121.448C744.941 123.001 741.892 123.864 738.729 123.864C733.61 124.209 728.548 122.196 725.097 118.4C721.819 114.258 720.151 109.024 720.438 103.733V74.2256H729.411V102.065C729.411 110.98 733.38 115.466 741.26 115.466C744.826 115.581 748.22 113.971 750.348 111.152C752.648 108.219 753.914 104.538 753.856 100.799V74.2256H762.829V122.138L762.944 122.081Z" fill="white"/>
<path d="M793.442 123.625C787.288 123.625 781.421 120.979 777.395 116.263C772.908 111.316 770.492 104.759 770.665 98.0868C770.492 91.3572 772.908 84.8576 777.395 79.911C781.421 75.252 787.288 72.5486 793.442 72.5486C796.836 72.5486 800.229 73.2964 803.278 74.9069C805.924 76.2298 808.167 78.243 809.777 80.7738H810.18L809.777 74.1592V51.957H818.75V122.072H810.065V115.457H809.662C808.052 117.931 805.809 120.001 803.163 121.324C800.172 122.877 796.836 123.683 793.442 123.683V123.625ZM794.938 115.4C799.021 115.457 802.99 113.732 805.751 110.741C808.8 107.29 810.353 102.746 810.065 98.0868C810.353 93.4853 808.8 88.9414 805.751 85.4328C800.287 79.4509 791.026 78.9907 785.045 84.4549C784.699 84.7425 784.354 85.0877 784.067 85.4328C781.018 88.8839 779.465 93.4278 779.753 98.0293C779.465 102.631 781.018 107.175 784.067 110.626C786.828 113.732 790.796 115.457 794.938 115.4Z" fill="white"/>
</g>
<defs>
<filter id="filter0_d_3054_18146" x="0.556721" y="0.207031" width="1264.06" height="273.559" filterUnits="userSpaceOnUse" color-interpolation-filters="sRGB">
<feFlood flood-opacity="0" result="BackgroundImageFix"/>
<feColorMatrix in="SourceAlpha" type="matrix" values="0 0 0 0 0 0 0 0 0 0 0 0 0 0 0 0 0 0 127 0" result="hardAlpha"/>
<feOffset dy="50.4433"/>
<feGaussianBlur stdDeviation="25.2216"/>
<feComposite in2="hardAlpha" operator="out"/>
<feColorMatrix type="matrix" values="0 0 0 0 0 0 0 0 0 0 0 0 0 0 0 0 0 0 0.25 0"/>
<feBlend mode="normal" in2="BackgroundImageFix" result="effect1_dropShadow_3054_18146"/>
<feBlend mode="normal" in="SourceGraphic" in2="effect1_dropShadow_3054_18146" result="shape"/>
</filter>
</defs>
</svg>
