<svg width="354" height="57" viewBox="0 0 354 57" fill="none" xmlns="http://www.w3.org/2000/svg">
<g clip-path="url(#clip0_961_4028)">
<path d="M344.955 1.29541H9.04284C4.76163 1.29541 1.29102 4.77538 1.29102 9.06814V47.9318C1.29102 52.2245 4.76163 55.7045 9.04284 55.7045H344.955C349.236 55.7045 352.707 52.2245 352.707 47.9318V9.06814C352.707 4.77538 349.236 1.29541 344.955 1.29541Z" fill="#231F20" stroke="white"/>
<path fill-rule="evenodd" clip-rule="evenodd" d="M336.403 12.9547C336.396 13.3252 336.485 13.6911 336.661 14.0169C336.86 14.3455 337.135 14.621 337.462 14.8201C337.785 15.0024 338.152 15.0921 338.522 15.0792C338.883 15.0887 339.241 14.9991 339.555 14.8201C339.883 14.621 340.158 14.3455 340.357 14.0169C340.526 13.6887 340.615 13.3244 340.615 12.9547C340.615 12.5849 340.526 12.2206 340.357 11.8924C340.157 11.5713 339.882 11.3044 339.555 11.1151C339.243 10.9271 338.886 10.8285 338.522 10.8301C338.149 10.8251 337.783 10.9237 337.462 11.1151C337.136 11.3044 336.861 11.5713 336.661 11.8924C336.485 12.2182 336.396 12.5842 336.403 12.9547ZM335.912 12.9547C335.913 12.5096 336.029 12.0723 336.248 11.6851C336.484 11.2925 336.813 10.9634 337.204 10.7265C337.595 10.4936 338.041 10.3685 338.496 10.3637C338.941 10.3549 339.38 10.4716 339.762 10.7006C340.154 10.9375 340.482 11.2666 340.718 11.6592C340.945 12.0531 341.064 12.4999 341.064 12.9547C341.064 13.4095 340.945 13.8562 340.718 14.2501C340.49 14.6491 340.16 14.98 339.762 15.2087C339.369 15.4361 338.924 15.5559 338.47 15.5559C338.017 15.5559 337.571 15.4361 337.178 15.2087C336.793 14.9643 336.466 14.6368 336.222 14.2501C336.017 13.8493 335.911 13.4051 335.912 12.9547Z" fill="white"/>
<path fill-rule="evenodd" clip-rule="evenodd" d="M338.264 12.9545C338.365 12.9847 338.473 12.9847 338.574 12.9545C338.607 12.8535 338.607 12.7445 338.574 12.6436C338.607 12.5515 338.607 12.4506 338.574 12.3586C338.473 12.325 338.364 12.325 338.264 12.3586V12.9545ZM339.401 12.4881C339.416 12.6304 339.383 12.7737 339.308 12.8955C339.234 13.0174 339.121 13.111 338.987 13.1617L339.504 14.3276H338.755L338.496 13.2654H338.367V14.2499H337.695V11.659H338.471C338.742 11.6304 339.015 11.6943 339.246 11.8404C339.336 11.9153 339.406 12.0111 339.451 12.1194C339.496 12.2277 339.514 12.3453 339.504 12.4622L339.401 12.4881Z" fill="white"/>
<path fill-rule="evenodd" clip-rule="evenodd" d="M33.2044 10.3635L28.76 23.6549L24.3156 10.3635H18.0625V46.6362H24.1089V24.7172L28.7083 38.4749H28.8117L33.4111 24.7172V46.6362H39.4575V10.3635H33.2044Z" fill="white"/>
<path fill-rule="evenodd" clip-rule="evenodd" d="M56.6658 29.4586V27.5932C56.6658 18.1364 55.3738 15.5455 53.4617 15.5455C51.5496 15.5455 50.2576 18.1364 50.2576 27.4895V29.355C50.2576 38.6823 51.5496 41.2732 53.4617 41.2732C55.3738 41.2732 56.6658 38.6823 56.6658 29.355M43.7461 29.355V27.4895C43.927 15.5455 47.7254 9.84546 53.4617 9.84546C59.1981 9.84546 63.074 15.5455 63.074 27.5932V29.4586C63.074 41.4286 59.1981 47.1805 53.4617 47.1805C47.7254 47.1805 43.927 41.4545 43.927 29.4586" fill="white"/>
<path fill-rule="evenodd" clip-rule="evenodd" d="M74.0817 28.2926C76.8207 28.2926 78.8361 26.7122 78.8361 22.4372V22.0226C78.8361 17.4626 76.6656 16.2708 73.9267 16.2708H73.7716V28.2926H74.0817ZM67.4668 10.3635H73.9783C80.4382 10.3635 85.2702 13.7835 85.2702 21.919V22.3853C85.3828 24.2032 85.0564 26.0214 84.3187 27.6858C83.5809 29.3501 82.4537 30.8115 81.0325 31.9458L85.7611 46.6362H79.0429L74.9344 34.0185H73.7458V46.6362H67.4668V10.3635Z" fill="white"/>
<path fill-rule="evenodd" clip-rule="evenodd" d="M88.707 29.1477V27.904C88.707 16.1672 93.6682 10.1045 100.8 10.1045C102.459 10.0823 104.102 10.4365 105.606 11.1409V17.7218C104.25 16.7795 102.655 16.2407 101.007 16.1672C97.3891 16.1672 95.1152 19.7945 95.1152 27.619V29.4068C95.1152 38.8895 97.9059 41.0659 100.49 41.0659H101.058V31.7127H97.9575V26.0645H106.795V45.3668C104.747 46.3616 102.506 46.8923 100.231 46.9213C93.9266 46.9213 88.707 41.7395 88.707 29.1477Z" fill="white"/>
<path fill-rule="evenodd" clip-rule="evenodd" d="M121.781 33.6817L119.869 21.7635L117.905 33.6817H121.781ZM116.614 10.3635H123.332L130.205 46.6362H124.029L122.841 39.4335H116.975L115.838 46.6362H109.74L116.614 10.3635Z" fill="white"/>
<path fill-rule="evenodd" clip-rule="evenodd" d="M133.408 10.3635H139.3L145.656 28.7331V10.3635H151.806V46.6362H146.225L139.558 27.4376V46.6362H133.408V10.3635Z" fill="white"/>
<path fill-rule="evenodd" clip-rule="evenodd" d="M174.803 23.5772C175.535 22.879 176.112 22.0331 176.495 21.0954C176.878 20.1576 177.059 19.1491 177.025 18.1363V17.8253C177.025 16.0635 176.198 14.9235 175.009 14.9235C173.821 14.9235 173.123 16.0635 173.123 17.6181V18.1363C173.287 20.068 173.907 21.9329 174.932 23.5772M177.981 39.9776L173.304 31.0908C172.002 32.691 171.257 34.6748 171.185 36.739V37.1535C171.185 39.9517 172.529 41.8172 174.596 41.8172C175.235 41.8092 175.862 41.6502 176.428 41.3531C176.994 41.0559 177.482 40.629 177.852 40.1072M165.139 37.5163V37.2053C165.188 35.1176 165.712 33.0686 166.67 31.2144C167.629 29.3601 168.996 27.7494 170.668 26.5049C168.871 24.067 167.813 21.1616 167.619 18.1363V17.7735C167.563 16.7525 167.715 15.7307 168.067 14.7707C168.418 13.8107 168.961 12.9327 169.662 12.1905C170.364 11.4483 171.209 10.8575 172.146 10.4542C173.084 10.051 174.093 9.84379 175.113 9.84535C176.115 9.82773 177.109 10.0204 178.032 10.4111C178.955 10.8018 179.786 11.3817 180.473 12.1137C181.159 12.8458 181.685 13.7136 182.017 14.6616C182.349 15.6095 182.479 16.6166 182.399 17.6181V18.1363C182.354 20.0549 181.863 21.9365 180.966 23.6319C180.069 25.3274 178.79 26.79 177.232 27.904L180.487 34.1222C180.746 32.9822 180.952 31.5313 181.263 29.2513L186.12 30.1322C185.832 33.3434 185.048 36.4901 183.795 39.4594L186.792 44.6413L182.244 47.4394L180.539 44.0453C179.737 45.0479 178.711 45.8471 177.544 46.3782C176.377 46.9093 175.101 47.1575 173.821 47.1026C172.602 47.054 171.405 46.7593 170.302 46.2361C169.199 45.7128 168.213 44.9719 167.402 44.0575C166.592 43.1431 165.973 42.0741 165.584 40.9146C165.196 39.755 165.044 38.5287 165.139 37.309" fill="white"/>
<path fill-rule="evenodd" clip-rule="evenodd" d="M199.559 10.3635H205.812L210.256 23.6549L214.7 10.3635H220.954V46.6362H214.907V24.7172L210.308 38.4749H210.204L205.605 24.7172V46.6362H199.559V10.3635Z" fill="white"/>
<path fill-rule="evenodd" clip-rule="evenodd" d="M238.162 29.4585V27.5931C238.162 18.1362 236.87 15.5453 234.958 15.5453C233.046 15.5453 231.754 18.1362 231.754 27.4894V29.3549C231.754 38.6822 233.046 41.2731 234.958 41.2731C236.87 41.2731 238.162 38.6822 238.162 29.3549M225.242 29.3549V27.4894C225.242 15.4935 229.118 9.7417 234.854 9.7417C240.591 9.7417 244.596 15.5453 244.596 27.5931V29.4585C244.596 41.4285 240.694 47.1803 234.958 47.1803C229.221 47.1803 225.346 41.4544 225.346 29.4585" fill="white"/>
<path fill-rule="evenodd" clip-rule="evenodd" d="M255.603 28.2926C258.342 28.2926 260.358 26.7122 260.358 22.4372V22.0226C260.358 17.4626 258.187 16.2708 255.448 16.2708H255.293V28.2926H255.603ZM248.988 10.3635H255.5C261.96 10.3635 266.662 13.7835 266.662 21.919V22.3853C266.775 24.2032 266.449 26.0214 265.711 27.6858C264.973 29.3501 263.846 30.8115 262.425 31.9458L267.283 46.6362H260.564L256.482 33.9926H255.293V46.6362H248.988V10.3635Z" fill="white"/>
<path fill-rule="evenodd" clip-rule="evenodd" d="M270.229 29.1477V27.904C270.229 16.1672 275.19 10.1045 282.321 10.1045C283.981 10.0823 285.624 10.4365 287.127 11.1409V17.7218C285.771 16.7795 284.177 16.2407 282.528 16.1672C278.911 16.1672 276.637 19.7945 276.637 27.619V29.4068C276.637 38.8895 279.427 41.0659 282.011 41.0659H282.58V31.7127H279.479V26.0645H288.316V45.3668C286.269 46.3616 284.028 46.8923 281.753 46.9213C275.448 46.9213 270.229 41.7395 270.229 29.1477Z" fill="white"/>
<path fill-rule="evenodd" clip-rule="evenodd" d="M303.303 33.6819L301.391 21.686L299.427 33.6819H303.303ZM298.135 10.1824H304.905L311.727 46.6365H305.422L304.233 39.4337H298.497L297.36 46.6365H291.262L298.135 10.1824Z" fill="white"/>
<path fill-rule="evenodd" clip-rule="evenodd" d="M314.932 10.3635H320.823L327.18 28.7331V10.3635H333.329V46.6362H327.748L321.081 27.4376V46.6362H314.932V10.3635Z" fill="white"/>
</g>
<defs>
<clipPath id="clip0_961_4028">
<rect width="354" height="57" fill="white"/>
</clipPath>
</defs>
</svg>
