<svg width="151" height="30" viewBox="0 0 151 30" fill="none" xmlns="http://www.w3.org/2000/svg">
<path d="M148.26 20.09C146.99 20.09 145.83 20.94 145.83 22.42C145.83 23.9 146.97 24.75 148.26 24.75C149.55 24.75 150.68 23.89 150.68 22.42C150.68 20.95 149.54 20.09 148.26 20.09ZM148.26 24.21C147.3 24.21 146.53 23.49 146.53 22.42C146.53 21.35 147.3 20.63 148.26 20.63C149.22 20.63 149.98 21.35 149.98 22.42C149.98 23.49 149.19 24.21 148.26 24.21Z" fill="white"/>
<path d="M149.34 21.9199C149.34 21.3499 148.94 21.1599 148.27 21.1599H147.3V23.6699H147.86V22.6199H148.12L148.72 23.6699H149.38L148.72 22.5699C149.06 22.5399 149.35 22.3799 149.35 21.9199H149.34ZM148.35 22.1899H147.86V21.5899H148.25C148.46 21.5899 148.75 21.6099 148.75 21.8599C148.75 22.1399 148.6 22.1899 148.35 22.1899Z" fill="white"/>
<path d="M78.52 20.3399L74.5399 6.37988H69.1699L74.8599 23.9899H82.03L87.7499 6.37988H82.6699L78.52 20.3399Z" fill="white"/>
<path d="M59.65 6.34998H50.71V23.99H55.7299V10.6H59.6199C60.9099 10.6 61.82 10.92 62.45 11.58C63.24 12.42 63.5599 13.77 63.5599 16.24V23.9799H68.4199V14.2299C68.4199 7.26995 63.99 6.33997 59.65 6.33997V6.34998Z" fill="white"/>
<path d="M94.8198 6.37988H89.8398V23.9899H94.8198V6.37988Z" fill="white"/>
<path d="M104.84 6.37988H97.8604V23.9899H105.93C110.23 23.9899 111.63 23.2699 113.15 21.6699C114.22 20.5399 114.92 18.0699 114.92 15.3699C114.92 12.8899 114.33 10.6899 113.31 9.30988C111.47 6.84988 108.81 6.36987 104.85 6.36987L104.84 6.37988ZM104.93 20.2299H102.79V10.2099H104.93C108.03 10.2099 110.04 11.5999 110.04 15.2199C110.04 18.8399 108.03 20.2299 104.93 20.2299Z" fill="white"/>
<path d="M131.17 6.37988L124.22 23.9799H129.13L130.23 20.8699H138.45L139.49 23.9799H144.82L137.82 6.37988H131.17ZM131.29 17.8399L134.4 9.58987L137.41 17.8399H131.29Z" fill="white"/>
<path d="M122.2 6.37988H117.22V23.9899H122.2V6.37988Z" fill="white"/>
<path d="M16.9805 11.7299V19.5899C17.6105 19.7999 18.3004 19.9199 19.0804 19.9199C24.4704 19.9199 29.5005 12.9399 29.5005 12.9399C29.5005 12.9399 24.8505 6.61988 17.7505 6.84988C17.4905 6.84988 17.2405 6.86986 16.9805 6.88986V9.47985C17.4405 9.42985 17.9205 9.39987 18.4105 9.39987C22.9505 9.39987 25.6505 12.9299 25.6505 12.9299L21.9604 16.0399C20.3004 13.2699 19.7405 12.0499 16.9805 11.7199V11.7299Z" fill="white"/>
<path d="M5.22003 13.2799C5.22003 13.2799 9.14004 7.48989 16.98 6.88989V4.78992C8.30004 5.48992 0.790039 12.8299 0.790039 12.8299C0.790039 12.8299 5.04004 25.1299 16.98 26.2599V24.0299C8.22004 22.9299 5.22003 13.2799 5.22003 13.2799Z" fill="white"/>
<path d="M12.03 13.98C12.03 13.98 14.19 11.39 16.96 11.72V9.47998C11.68 10.05 8.5 13.57 8.5 13.57C8.5 13.57 10.34 20.45 16.96 21.63V19.59C13.23 18.34 12.02 13.98 12.02 13.98H12.03Z" fill="white"/>
<path d="M16.9805 0.919922V4.78995C17.2305 4.76995 17.4905 4.74994 17.7505 4.74994C27.6105 4.41994 34.0405 12.8399 34.0405 12.8399C34.0405 12.8399 26.6605 21.8199 18.9705 21.8199C18.2705 21.8199 17.6105 21.7599 16.9805 21.6399V24.0399C17.5105 24.1099 18.0605 24.1499 18.6305 24.1499C25.7905 24.1499 30.9605 20.4999 35.9705 16.1699C36.8005 16.8299 40.2005 18.4499 40.9005 19.1599C36.1405 23.1499 25.0304 26.3599 18.7404 26.3599C18.1304 26.3599 17.5505 26.3199 16.9805 26.2699V29.6399H44.1805V0.929932H16.9805V0.919922Z" fill="white"/>
</svg>
