<?xml version="1.0" encoding="UTF-8"?>
<svg id="Layer_1" xmlns="http://www.w3.org/2000/svg" version="1.1" viewBox="0 0 198 36">
  <!-- Generator: Adobe Illustrator 29.7.1, SVG Export Plug-In . SVG Version: 2.1.1 Build 8)  -->
  <defs>
    <style>
      .st0 {
        fill: #fff;
        fill-rule: evenodd;
      }
    </style>
  </defs>
  <path class="st0" d="M64.5,20.3c3.9-1.2,6.8-4.8,6.8-9.1,0-5.3-4.3-9.5-9.5-9.5h-16.4v32.6h5.4v-13.6h7.6l8.2,13.6h6.3l-8.4-14ZM50.8,15.2V7.1h11c2.3,0,4.1,1.8,4.1,4.1,0,2.2-1.8,4.1-4.1,4.1h-11ZM41.5,5.1c0,2.2-1.8,4-4,4s-4-1.8-4-4,1.8-4,4-4,4,1.8,4,4M0,18.1C0,8.7,7.6,1.1,17,1.1c9.4,0,17,7.6,17,17,0,9.4-7.6,17-17,17C7.6,35.1,0,27.5,0,18.1M8.8,9.9c-2.1,2.1-3.4,5-3.4,8.2,0,3.2,1.3,6.1,3.4,8.2,2.1,2.1,5,3.4,8.2,3.4,3.2,0,6.1-1.3,8.2-3.4,2.1-2.1,3.4-5,3.4-8.2s-1.3-6.1-3.4-8.2c-2.1-2.1-5-3.4-8.2-3.4-3.2,0-6.1,1.3-8.2,3.4"/>
  <polygon class="st0" points="187.3 1.6 180.7 1.6 172.3 13.7 163.9 1.6 157.3 1.6 169.6 19.4 169.6 34.3 175 34.3 175 19.4 187.3 1.6"/>
  <path class="st0" d="M193.7.9c-2.2,0-4,1.8-4,4s1.8,4,4,4,4-1.8,4-4-1.8-4-4-4M193.7,8.3c-1.9,0-3.4-1.5-3.4-3.4s1.5-3.4,3.4-3.4,3.4,1.5,3.4,3.4-1.5,3.4-3.4,3.4"/>
  <path class="st0" d="M195.5,4c0-.7-.5-1.2-1.2-1.2h-2.3v4.1h.7v-1.7h1.1l.8,1.7h.8l-.8-1.7c.5-.1.9-.6.9-1.2ZM192.7,3.5h1.6c.3,0,.5.2.5.5s-.2.5-.5.5h-1.6v-1Z"/>
  <polygon class="st0" points="99.5 7.1 99.5 1.6 76.8 1.6 76.8 34.3 99.5 34.3 99.5 28.8 82.2 28.8 82.2 20.7 98.6 20.7 98.6 15.2 82.2 15.2 82.2 7.1 99.5 7.1"/>
  <polygon class="st0" points="116.3 34.3 116.3 1.6 121.7 1.6 121.7 28.8 137.4 28.8 137.4 34.3 116.3 34.3"/>
  <polygon class="st0" points="141.9 34.3 141.9 1.6 147.3 1.6 147.3 28.8 163 28.8 163 34.3 141.9 34.3"/>
  <polygon class="st0" points="105.2 34.3 110.6 34.3 110.6 1.6 105.2 1.6 105.2 34.3"/>
</svg>