<svg width="58" height="50" viewBox="0 0 58 50" fill="none" xmlns="http://www.w3.org/2000/svg">
<path d="M57.3802 5.97995C57.3802 3.19995 55.1302 0.949951 52.3502 0.949951C50.4902 0.949951 48.8602 1.96997 47.9902 3.46997L40.7102 16.12L33.4302 3.46997C32.5002 1.84997 30.8102 0.949951 29.0702 0.949951C28.2202 0.949951 27.3602 1.16996 26.5702 1.61996C25.7702 2.07996 25.1502 2.72997 24.7202 3.46997L17.4402 16.12L10.1602 3.46997C9.23021 1.84997 7.54021 0.949951 5.80021 0.949951C4.95021 0.949951 4.09021 1.16996 3.30021 1.61996C0.890209 3.00996 0.0602027 6.07996 1.4502 8.48996L13.0902 28.72C14.0202 30.34 15.7102 31.24 17.4602 31.24C18.3102 31.24 19.1702 31.02 19.9602 30.57C20.7602 30.11 21.3802 29.46 21.8102 28.72L29.0902 16.07L36.3702 28.72C37.3002 30.34 38.9902 31.24 40.7302 31.24C41.5802 31.24 42.4402 31.02 43.2302 30.57C44.0302 30.11 44.6502 29.46 45.0802 28.72L56.7202 8.49997C57.1502 7.75997 57.3902 6.89996 57.3902 5.98996L57.3802 5.97995ZM19.5302 29.87C18.8902 30.24 18.1602 30.43 17.4302 30.43C15.9202 30.43 14.5102 29.62 13.7602 28.31L2.12021 8.07996C1.56021 7.09996 1.4102 5.95996 1.7002 4.86996C1.9902 3.77996 2.6902 2.86997 3.6702 2.30997C4.3102 1.93997 5.0402 1.74997 5.7702 1.74997C7.2802 1.74997 8.69021 2.55996 9.44021 3.86996L21.0802 24.1C21.8602 25.45 21.8002 27.05 21.0802 28.31C20.7202 28.94 20.2002 29.48 19.5302 29.87ZM42.8102 29.87C42.1702 30.24 41.4402 30.43 40.7102 30.43C39.2002 30.43 37.7902 29.62 37.0402 28.31L25.4002 8.07996C24.6202 6.72996 24.6802 5.12996 25.4002 3.86996C25.7602 3.23996 26.2802 2.69997 26.9502 2.30997C27.5902 1.93997 28.3202 1.74997 29.0502 1.74997C30.5602 1.74997 31.9702 2.55996 32.7202 3.86996L44.3602 24.1C45.1402 25.45 45.0802 27.05 44.3602 28.31C44.0002 28.94 43.4802 29.48 42.8102 29.87ZM52.3402 10.21C50.0102 10.21 48.1102 8.30995 48.1102 5.97995C48.1102 5.20995 48.3202 4.48996 48.6802 3.86996C49.4102 2.59996 50.7802 1.74997 52.3402 1.74997C54.6702 1.74997 56.5702 3.64995 56.5702 5.97995C56.5702 6.74995 56.3602 7.46997 56.0002 8.08997C55.2702 9.35997 53.9002 10.21 52.3402 10.21Z" fill="white"/>
<path d="M10.33 41.2999L8.76 46.3799L7.18 41.2999H5.8L4.23 46.3799L2.64 41.2999H0.75L3.48 49.0499H4.96L6.49 44.1799L8.03 49.0499H9.49L12.23 41.2999H10.33Z" fill="white"/>
<path d="M20.5102 49.0499L20.2102 48.1099H17.4502L17.1502 49.0499H15.2402L18.0102 41.2999H19.6602L22.4602 49.0499H20.5102ZM18.8402 43.5099L17.8902 46.6999H19.7702L18.8402 43.5099Z" fill="white"/>
<path d="M32.8103 41.2999H30.7103L29.0703 44.3399L29.0603 44.3499V44.3399L27.4103 41.2999H25.3203L28.1603 46.2999V49.0499H29.9703V46.2999L32.8103 41.2999Z" fill="white"/>
<path d="M44.9995 49.0499H43.2495V44.2499L41.5795 49.0499H40.2495L38.5195 44.2499V49.0499H36.7695V41.2999H38.8395L40.9095 46.6899L42.9595 41.2999H44.9995V49.0499Z" fill="white"/>
<path d="M49.2998 45.17C49.2998 43.05 50.8298 41.1 53.4098 41.1C55.9898 41.1 57.4998 43.05 57.4998 45.17C57.4998 47.29 55.9698 49.24 53.4098 49.24C50.8498 49.24 49.2998 47.29 49.2998 45.17ZM55.6798 45.17C55.6798 43.9 54.8198 42.71 53.4098 42.71C51.9998 42.71 51.1398 43.89 51.1398 45.17C51.1398 46.45 51.9898 47.63 53.4098 47.63C54.8298 47.63 55.6798 46.45 55.6798 45.17Z" fill="white"/>
</svg>
