<svg width="55" height="42" viewBox="0 0 55 42" fill="none" xmlns="http://www.w3.org/2000/svg">
<path d="M46.4388 3.41061C42.8823 1.80425 39.129 0.658756 35.2729 0.00282707C35.2379 -0.00360307 35.2017 0.000999882 35.1694 0.0159805C35.1372 0.0309612 35.1106 0.0555567 35.0935 0.0862677C34.6112 0.930343 34.077 2.03126 33.7031 2.89648C29.4866 2.27529 25.2916 2.27529 21.1618 2.89648C20.7879 2.01192 20.2343 0.930343 19.7499 0.0862677C19.732 0.0562565 19.7053 0.0322628 19.6733 0.0174181C19.6413 0.00257349 19.6054 -0.00243261 19.5705 0.00305228C15.714 0.657456 11.9604 1.80285 8.40434 3.41039C8.37392 3.42318 8.34828 3.44495 8.33097 3.47269C1.21921 13.9273 -0.729133 24.1248 0.226752 34.1959C0.229454 34.2205 0.237159 34.2444 0.249409 34.2661C0.261658 34.2877 0.278204 34.3068 0.298066 34.322C4.99017 37.7127 9.53531 39.7711 13.9961 41.1354C14.0308 41.1455 14.0678 41.1451 14.1022 41.134C14.1366 41.1229 14.1667 41.1017 14.1886 41.0733C15.2436 39.6555 16.1842 38.1603 16.9908 36.5882C17.0019 36.5667 17.0083 36.5431 17.0094 36.519C17.0106 36.4949 17.0065 36.4708 16.9975 36.4483C16.9886 36.4259 16.9748 36.4055 16.9573 36.3887C16.9398 36.3718 16.9188 36.3588 16.8958 36.3505C15.4036 35.7936 13.9831 35.1146 12.6165 34.3436C12.5915 34.3292 12.5706 34.309 12.5555 34.2847C12.5404 34.2605 12.5316 34.233 12.5299 34.2046C12.5282 34.1762 12.5336 34.1478 12.5457 34.122C12.5577 34.0961 12.5761 34.0736 12.5991 34.0564C12.8866 33.8443 13.1744 33.6239 13.4489 33.401C13.4733 33.3812 13.5028 33.3685 13.5342 33.3644C13.5655 33.3602 13.5974 33.3647 13.6263 33.3774C22.6041 37.4107 32.3234 37.4107 41.1952 33.3774C41.2241 33.3639 41.2563 33.3587 41.288 33.3625C41.3198 33.3663 41.3498 33.3789 41.3746 33.3988C41.6493 33.6214 41.9369 33.8443 42.2267 34.0564C42.2498 34.0735 42.2682 34.0958 42.2805 34.1215C42.2927 34.1472 42.2983 34.1755 42.2968 34.2039C42.2953 34.2322 42.2868 34.2598 42.2719 34.2841C42.2571 34.3084 42.2364 34.3288 42.2116 34.3434C40.8445 35.1291 39.4124 35.7998 37.9305 36.3482C37.9075 36.3569 37.8866 36.3702 37.8692 36.3874C37.8517 36.4045 37.8382 36.4251 37.8294 36.4477C37.8206 36.4704 37.8168 36.4946 37.8182 36.5188C37.8196 36.543 37.8261 36.5667 37.8375 36.5882C38.6612 38.158 39.6018 39.6532 40.6374 41.071C40.6586 41.1003 40.6886 41.1222 40.7231 41.1338C40.7577 41.1453 40.795 41.1459 40.8299 41.1354C45.3122 39.7708 49.8573 37.7125 54.5494 34.322C54.5696 34.3075 54.5865 34.289 54.5988 34.2675C54.6111 34.2461 54.6187 34.2224 54.621 34.1979C55.7647 22.5545 52.7051 12.4406 46.5101 3.47471C46.4949 3.44558 46.4696 3.42299 46.4388 3.41061ZM18.3314 28.0635C15.6286 28.0635 13.4014 25.6217 13.4014 22.6231C13.4014 19.6246 15.5854 17.1828 18.3316 17.1828C21.0992 17.1828 23.3047 19.646 23.2615 22.6233C23.2615 25.6217 21.0775 28.0635 18.3314 28.0635ZM36.5595 28.0635C33.8567 28.0635 31.6295 25.6217 31.6295 22.6231C31.6295 19.6246 33.8132 17.1828 36.5595 17.1828C39.327 17.1828 41.5325 19.646 41.4893 22.6233C41.4893 25.6217 39.327 28.0635 36.5595 28.0635Z" fill="#E9E7E0"/>
</svg>
