<svg width="587" height="821" viewBox="0 0 587 821" fill="none" xmlns="http://www.w3.org/2000/svg">
<path d="M40.9546 325.063L122.592 820.578L437.496 768.697L424.797 691.62L362.674 672.379L329.266 490.06L348.623 438.864L368.646 256.6C369.74 246.614 360.81 238.447 350.971 240.428L58.8743 299.138C46.8933 301.542 38.9779 313.011 40.9631 325.061L40.9546 325.063Z" fill="#5CAAE2" stroke="black" stroke-width="0.75" stroke-miterlimit="10"/>
<path d="M363.656 249.276L261.209 276.398L252.688 449.623L232.936 493.308L277.087 699.963L359.452 709.136L424.246 691.465L362.668 672.389L329.259 490.07L348.616 438.874L369.41 254.253C369.775 251.033 366.786 248.453 363.649 249.286L363.656 249.276Z" fill="#1E78AF" stroke="black" stroke-width="0.75" stroke-miterlimit="10"/>
<path d="M424.798 691.62L359.458 709.118L277.094 699.953L232.935 493.299L252.695 449.613L261.208 276.39L357.986 250.342" stroke="black" stroke-width="0.75" stroke-miterlimit="10"/>
<path d="M86.9062 337.953C115.243 461.68 146.607 600.578 174.175 724.484C145.829 600.758 114.474 461.86 86.9062 337.953Z" fill="black"/>
<path d="M170.146 362.073C191.523 487.192 215.072 627.623 235.655 752.873C214.277 627.754 190.737 487.322 170.146 362.073Z" fill="black"/>
<path d="M272.313 283.268L267.428 433.544L334.48 422.497L350.071 263.25L272.313 283.268Z" fill="#5CAAE2" stroke="black" stroke-width="0.75" stroke-miterlimit="10"/>
<path d="M331.973 354.591C336.044 326.461 329.546 302.239 317.46 300.49C305.374 298.741 292.276 320.127 288.205 348.257C284.134 376.387 290.632 400.61 302.718 402.359C314.804 404.108 327.902 382.721 331.973 354.591Z" fill="#B20B1B" stroke="black" stroke-width="0.75" stroke-miterlimit="10"/>
<path d="M280.162 545.841L267.662 548.076C266.298 548.318 265.004 547.391 264.766 545.999L262.053 530.119C261.823 528.726 262.73 527.409 264.093 527.158L276.593 524.923C277.958 524.681 279.252 525.609 279.49 527L282.203 542.88C282.432 544.273 281.526 545.59 280.162 545.841Z" fill="#2C176C" stroke="black" stroke-width="0.75" stroke-miterlimit="10"/>
<path d="M300.936 541.453L288.436 543.688C287.071 543.93 285.777 543.002 285.539 541.611L282.826 525.731C282.597 524.338 283.503 523.021 284.866 522.77L297.367 520.535C298.731 520.292 300.025 521.22 300.263 522.612L302.976 538.492C303.206 539.885 302.299 541.202 300.936 541.453Z" fill="#2C176C" stroke="black" stroke-width="0.75" stroke-miterlimit="10"/>
<path d="M323.063 537.5L310.563 539.735C309.198 539.977 307.904 539.049 307.666 537.658L304.953 521.778C304.724 520.385 305.63 519.068 306.993 518.817L319.494 516.582C320.858 516.34 322.152 517.268 322.39 518.659L325.103 534.539C325.333 535.932 324.426 537.249 323.063 537.5Z" fill="#2C176C" stroke="black" stroke-width="0.75" stroke-miterlimit="10"/>
<path d="M285.145 578.693L272.645 580.928C271.28 581.17 269.986 580.242 269.748 578.85L267.035 562.97C266.806 561.577 267.712 560.26 269.075 560.01L281.576 557.775C282.94 557.532 284.234 558.46 284.472 559.852L287.185 575.732C287.415 577.125 286.508 578.442 285.145 578.693Z" fill="#2C176C" stroke="black" stroke-width="0.75" stroke-miterlimit="10"/>
<path d="M305.918 574.304L293.418 576.539C292.053 576.782 290.759 575.854 290.521 574.462L287.809 558.582C287.579 557.189 288.486 555.872 289.849 555.621L302.349 553.386C303.714 553.144 305.008 554.072 305.246 555.464L307.959 571.344C308.188 572.737 307.281 574.053 305.918 574.304Z" fill="#2C176C" stroke="black" stroke-width="0.75" stroke-miterlimit="10"/>
<path d="M328.045 570.343L315.545 572.578C314.18 572.82 312.886 571.892 312.648 570.501L309.936 554.621C309.706 553.228 310.613 551.911 311.976 551.66L324.476 549.425C325.841 549.183 327.135 550.111 327.373 551.502L330.086 567.382C330.315 568.775 329.408 570.092 328.045 570.343Z" fill="#2C176C" stroke="black" stroke-width="0.75" stroke-miterlimit="10"/>
<path d="M289.729 609.24L277.229 611.475C275.864 611.717 274.57 610.789 274.332 609.397L271.619 593.517C271.39 592.124 272.296 590.807 273.659 590.557L286.16 588.321C287.524 588.079 288.818 589.007 289.056 590.399L291.769 606.279C291.999 607.672 291.092 608.989 289.729 609.24Z" fill="#2C176C" stroke="black" stroke-width="0.75" stroke-miterlimit="10"/>
<path d="M312.461 605.17L299.961 607.405C298.596 607.647 297.302 606.719 297.064 605.327L294.352 589.447C294.122 588.054 295.029 586.738 296.392 586.487L308.892 584.252C310.257 584.009 311.551 584.937 311.789 586.329L314.502 602.209C314.731 603.602 313.824 604.919 312.461 605.17Z" fill="#2C176C" stroke="black" stroke-width="0.75" stroke-miterlimit="10"/>
<path d="M332.629 600.89L320.129 603.125C318.764 603.367 317.47 602.439 317.232 601.048L314.519 585.168C314.29 583.775 315.197 582.458 316.56 582.207L329.06 579.972C330.425 579.729 331.719 580.657 331.957 582.049L334.67 597.929C334.899 599.322 333.992 600.639 332.629 600.89Z" fill="#2C176C" stroke="black" stroke-width="0.75" stroke-miterlimit="10"/>
<path d="M294.428 640.426L281.928 642.661C280.563 642.903 279.269 641.975 279.031 640.584L276.318 624.704C276.089 623.311 276.995 621.994 278.359 621.743L290.859 619.508C292.223 619.266 293.517 620.194 293.756 621.585L296.468 637.465C296.698 638.858 295.791 640.175 294.428 640.426Z" fill="#2C176C" stroke="black" stroke-width="0.75" stroke-miterlimit="10"/>
<path d="M316.547 636.475L304.047 638.71C302.682 638.952 301.388 638.024 301.15 636.632L298.437 620.752C298.208 619.359 299.115 618.042 300.478 617.792L312.978 615.557C314.343 615.314 315.637 616.242 315.875 617.634L318.587 633.514C318.817 634.907 317.91 636.224 316.547 636.475Z" fill="#2C176C" stroke="black" stroke-width="0.75" stroke-miterlimit="10"/>
<path d="M337.33 632.085L324.83 634.32C323.466 634.562 322.172 633.634 321.934 632.243L319.221 616.363C318.991 614.97 319.898 613.653 321.261 613.402L333.761 611.167C335.126 610.925 336.42 611.852 336.658 613.244L339.371 629.124C339.6 630.517 338.694 631.834 337.33 632.085Z" fill="#2C176C" stroke="black" stroke-width="0.75" stroke-miterlimit="10"/>
<path d="M347.824 665.626L286.065 678.856L282.235 655.611L344.22 643.748L347.824 665.626Z" fill="#2C176C" stroke="black" stroke-width="0.75" stroke-miterlimit="10"/>
<path d="M58.8659 299.14L85.6182 258.576L55.2833 74.4515C55.2833 74.4515 73.6485 55.4938 96.4238 67.6735L126.643 251.097L169.747 276.851L58.8659 299.14Z" fill="#2C176C" stroke="black" stroke-width="0.75" stroke-miterlimit="10"/>
<path d="M357.155 274.714L429.012 201.245L431.233 238.274L477.678 196.133L413.261 288.285L410.275 246.555L357.155 274.714Z" fill="#2C176C"/>
<path d="M320.696 344.581L450.116 321.284L427.595 359.29L523.269 358.511L394.743 382.443L407.911 352.289L320.696 344.581Z" fill="#2C176C"/>
<path d="M333.996 382.207L368.607 408.044L355.474 420.452L413.648 432.558L379.604 410.964L389.146 401.105L333.996 382.207Z" fill="#2C176C"/>
<path d="M314.591 327.302C316.852 326.93 318.382 324.795 318.01 322.534C317.637 320.274 315.503 318.743 313.242 319.115C310.981 319.488 309.45 321.622 309.823 323.883C310.195 326.144 312.33 327.675 314.591 327.302Z" fill="#FFDC5E" stroke="black" stroke-width="0.75" stroke-miterlimit="10"/>
<path d="M303.299 346.938C305.956 346.5 307.756 343.991 307.318 341.334C306.88 338.677 304.371 336.878 301.714 337.315C299.056 337.753 297.257 340.262 297.695 342.92C298.133 345.577 300.642 347.376 303.299 346.938Z" fill="#FFDC5E" stroke="black" stroke-width="0.75" stroke-miterlimit="10"/>
<path d="M311.848 362.059C314.505 361.621 316.304 359.112 315.867 356.455C315.429 353.798 312.92 351.998 310.263 352.436C307.605 352.874 305.806 355.383 306.244 358.04C306.682 360.697 309.191 362.497 311.848 362.059Z" fill="#FFDC5E" stroke="black" stroke-width="0.75" stroke-miterlimit="10"/>
<path d="M297.383 363.406C300.04 362.968 301.84 360.459 301.402 357.802C300.964 355.145 298.455 353.345 295.798 353.783C293.14 354.221 291.341 356.73 291.779 359.387C292.217 362.045 294.726 363.844 297.383 363.406Z" fill="#FFDC5E" stroke="black" stroke-width="0.75" stroke-miterlimit="10"/>
<path d="M302.012 381.587C304.669 381.149 306.469 378.64 306.031 375.982C305.593 373.325 303.084 371.526 300.427 371.964C297.769 372.401 295.97 374.911 296.408 377.568C296.846 380.225 299.355 382.024 302.012 381.587Z" fill="#FFDC5E" stroke="black" stroke-width="0.75" stroke-miterlimit="10"/>
<path d="M314.903 387.424C317.56 386.986 319.359 384.477 318.921 381.82C318.484 379.163 315.975 377.364 313.317 377.801C310.66 378.239 308.861 380.748 309.299 383.406C309.736 386.063 312.245 387.862 314.903 387.424Z" fill="#FFDC5E" stroke="black" stroke-width="0.75" stroke-miterlimit="10"/>
<path d="M305.129 395.987C307.786 395.549 309.586 393.04 309.148 390.382C308.71 387.725 306.201 385.926 303.544 386.364C300.887 386.802 299.087 389.311 299.525 391.968C299.963 394.625 302.472 396.424 305.129 395.987Z" fill="#FFDC5E" stroke="black" stroke-width="0.75" stroke-miterlimit="10"/>
<path d="M323.744 363.092C326.402 362.654 328.201 360.145 327.763 357.488C327.325 354.831 324.816 353.031 322.159 353.469C319.502 353.907 317.703 356.416 318.14 359.073C318.578 361.731 321.087 363.53 323.744 363.092Z" fill="#FFDC5E" stroke="black" stroke-width="0.75" stroke-miterlimit="10"/>
<path d="M320.112 341.043C322.769 340.606 324.568 338.096 324.13 335.439C323.693 332.782 321.184 330.983 318.526 331.421C315.869 331.858 314.07 334.367 314.508 337.025C314.945 339.682 317.454 341.481 320.112 341.043Z" fill="#FFDC5E" stroke="black" stroke-width="0.75" stroke-miterlimit="10"/>
<path d="M359.457 709.118L364.399 739.114" stroke="black" stroke-width="0.75" stroke-miterlimit="10"/>
<path d="M337.182 433.63L309.877 438.129L298.375 480.841L324.484 477.023L337.182 433.63Z" fill="#5CAAE2" stroke="black" stroke-width="0.75" stroke-miterlimit="10"/>
<path d="M264.298 445.884L251.995 487.894L296.644 481.363L308.156 438.658L264.298 445.884Z" fill="#5CAAE2" stroke="black" stroke-width="0.75" stroke-miterlimit="10"/>
</svg>
