<svg width="46" height="51" viewBox="0 0 46 51" fill="none" xmlns="http://www.w3.org/2000/svg">
<path d="M22.851 16.7583C18.654 16.7583 15.2289 20.526 15.2289 25.1429C15.2289 29.7597 18.654 33.5274 22.851 33.5274C27.048 33.5274 30.4732 29.7597 30.4732 25.1429C30.4732 20.526 27.048 16.7583 22.851 16.7583ZM45.7117 25.1429C45.7117 21.6708 45.7403 18.2302 45.5631 14.7644C45.3858 10.7388 44.551 7.16614 41.8749 4.22244C39.1932 1.27244 35.951 0.360399 32.2915 0.16541C29.1351 -0.029579 26.0074 0.00187091 22.8567 0.00187091C19.7004 0.00187091 16.5726 -0.029579 13.4219 0.16541C9.7624 0.360399 6.51455 1.27873 3.83851 4.22244C1.15675 7.17243 0.327629 10.7388 0.15037 14.7644C-0.0268895 18.2365 0.0017008 21.6771 0.0017008 25.1429C0.0017008 28.6086 -0.0268895 32.0555 0.15037 35.5213C0.327629 39.5469 1.16246 43.1196 3.83851 46.0633C6.52027 49.0133 9.7624 49.9253 13.4219 50.1203C16.5783 50.3153 19.7061 50.2839 22.8567 50.2839C26.0131 50.2839 29.1408 50.3153 32.2915 50.1203C35.951 49.9253 39.1989 49.007 41.8749 46.0633C44.5567 43.1133 45.3858 39.5469 45.5631 35.5213C45.7461 32.0555 45.7117 28.6149 45.7117 25.1429ZM22.851 38.0436C16.361 38.0436 11.1233 32.282 11.1233 25.1429C11.1233 18.0037 16.361 12.2421 22.851 12.2421C29.341 12.2421 34.5787 18.0037 34.5787 25.1429C34.5787 32.282 29.341 38.0436 22.851 38.0436ZM35.059 14.7267C33.5437 14.7267 32.3201 13.3806 32.3201 11.7138C32.3201 10.0469 33.5437 8.70089 35.059 8.70089C36.5743 8.70089 37.798 10.0469 37.798 11.7138C37.7984 12.1096 37.7279 12.5016 37.5904 12.8674C37.4529 13.2331 37.2512 13.5655 36.9968 13.8453C36.7423 14.1252 36.4402 14.3471 36.1077 14.4983C35.7752 14.6496 35.4188 14.7272 35.059 14.7267Z" fill="#E9E7E0"/>
</svg>
