<svg width="47" height="50" viewBox="0 0 47 50" fill="none" xmlns="http://www.w3.org/2000/svg">
<path d="M44.5714 0H1.85714C0.829911 0 0 0.89375 0 2V48C0 49.1063 0.829911 50 1.85714 50H44.5714C45.5987 50 46.4286 49.1063 46.4286 48V2C46.4286 0.89375 45.5987 0 44.5714 0ZM13.7719 42.6063H6.88304V18.7438H13.7719V42.6063ZM10.3304 15.4813C9.54064 15.4813 8.76867 15.2291 8.11204 14.7566C7.45542 14.2841 6.94365 13.6125 6.64144 12.8268C6.33923 12.0411 6.26016 11.1765 6.41422 10.3424C6.56829 9.50825 6.94857 8.74206 7.50698 8.14069C8.06539 7.53933 8.77685 7.12979 9.55139 6.96387C10.3259 6.79796 11.1288 6.88311 11.8584 7.20857C12.588 7.53403 13.2116 8.08517 13.6503 8.7923C14.089 9.49943 14.3232 10.3308 14.3232 11.1813C14.3174 13.5563 12.5299 15.4813 10.3304 15.4813ZM39.5629 42.6063H32.6799V31C32.6799 28.2313 32.6335 24.675 29.0991 24.675C25.5183 24.675 24.967 27.6875 24.967 30.8V42.6063H18.0897V18.7438H24.6942V22.0063H24.7871C25.704 20.1313 27.95 18.15 31.3045 18.15C38.2804 18.15 39.5629 23.0938 39.5629 29.5188V42.6063Z" fill="#E9E7E0"/>
</svg>
