<svg width="387" height="319" viewBox="0 0 387 319" fill="none" xmlns="http://www.w3.org/2000/svg">
<path d="M173.715 48.0525V248.873C173.715 256.666 166.991 262.979 158.701 262.979H23.4363C15.1405 262.979 8.41602 256.666 8.41602 248.873V48.0525C8.41602 43.6716 10.5455 39.7544 13.8888 37.1603C16.4843 35.1548 19.8059 33.9463 23.4363 33.9463H158.701C158.717 34.113 158.738 34.2797 158.771 34.4464C159.73 39.7752 167.733 44.7499 173.715 48.0525Z" fill="#FFDC5E" stroke="black" stroke-miterlimit="10"/>
<path d="M187.504 55.3662H55.3396C47.2356 55.3662 40.666 61.6818 40.666 69.4724V270.293C40.666 278.083 47.2356 284.399 55.3396 284.399H187.504C195.608 284.399 202.178 278.083 202.178 270.293V69.4724C202.178 61.6818 195.608 55.3662 187.504 55.3662Z" fill="#F9DD73" stroke="black" stroke-miterlimit="10"/>
<path d="M173.708 131.512H111.828V259.416H173.708V131.512Z" fill="#CE4B45" stroke="black" stroke-miterlimit="10"/>
<path d="M142.768 141.347C153.898 141.347 162.953 150.052 162.953 160.751V228.933C162.953 239.632 153.898 248.337 142.768 248.337C131.639 248.337 122.584 239.632 122.584 228.933V160.751C122.584 150.052 131.639 141.347 142.768 141.347ZM142.768 140.957C131.395 140.957 122.178 149.817 122.178 160.751V228.933C122.178 239.867 131.395 248.727 142.768 248.727C154.142 248.727 163.359 239.867 163.359 228.933V160.751C163.359 149.817 154.142 140.957 142.768 140.957Z" fill="black"/>
<path d="M142.768 175.316C151.091 175.316 157.837 168.83 157.837 160.829C157.837 152.829 151.091 146.343 142.768 146.343C134.446 146.343 127.699 152.829 127.699 160.829C127.699 168.83 134.446 175.316 142.768 175.316Z" fill="#5CAAE2" stroke="black" stroke-miterlimit="10"/>
<path d="M142.768 242.2C151.091 242.2 157.837 235.714 157.837 227.714C157.837 219.713 151.091 213.227 142.768 213.227C134.446 213.227 127.699 219.713 127.699 227.714C127.699 235.714 134.446 242.2 142.768 242.2Z" fill="#5CAAE2" stroke="black" stroke-miterlimit="10"/>
<path d="M155.487 180.191H130.697V210.519H155.487V180.191Z" fill="#5CAAE2" stroke="black" stroke-miterlimit="10"/>
<path d="M85.6836 55.3662V284.399" stroke="black" stroke-miterlimit="10"/>
<path d="M85.6836 98.1223H202.178" stroke="black" stroke-miterlimit="10"/>
<path d="M194.203 57.2257H48.0529L13.8887 37.1603C16.4842 35.1548 19.8058 33.9463 23.4362 33.9463H157.991L158.771 34.4464L194.203 57.2257Z" fill="#FFDC5E" stroke="black" stroke-miterlimit="10"/>
<path d="M289.397 176.097L280.576 173.555C289.484 145.014 294.22 112.38 292.361 92.3506C289.847 65.2634 275.764 40.5307 253.721 24.4867C231.104 8.026 206.541 4.91097 180.727 15.2249C161.031 23.0907 147.901 36.1915 147.771 36.3217L141.096 30.2219C141.675 29.6385 155.493 15.7927 176.896 7.1665C196.945 -0.917995 227.517 -5.69993 259.286 17.4232C283.399 34.9726 298.798 61.9921 301.545 91.564C302.483 101.649 301.881 114.823 299.822 129.653C297.671 145.098 294.073 161.163 289.408 176.102L289.397 176.097Z" fill="#2C176C" stroke="black" stroke-miterlimit="10"/>
<path d="M14.2031 259.666L46.9476 281.867C46.9476 281.867 39.6867 277.752 40.6675 264.136L40.9439 251.399" fill="#FFDC5E"/>
<path d="M14.2031 259.666L46.9476 281.867C46.9476 281.867 39.6867 277.752 40.6675 264.136L40.9439 251.399" stroke="black" stroke-miterlimit="10"/>
<path d="M114.033 43.8541L114.326 28.1748H121.197V50.2874L114.033 43.8541Z" fill="#CE4B45"/>
<path d="M120.997 28.3727V49.8445L114.24 43.7707L114.527 28.3727H121.002M121.398 27.982H114.126L113.828 43.9322L121.398 50.7301V27.9768V27.982Z" fill="black"/>
<path d="M151.015 34.0974H121.592V50.5477H151.015V34.0974Z" fill="#CE4B45"/>
<path d="M150.82 34.2849V50.3601H121.787V34.2849H150.82ZM151.21 33.915H121.402V50.7352H151.21V33.915Z" fill="black"/>
<path d="M150.647 33.9152L144.215 28.1279H114.641L121.186 33.9152H150.647Z" fill="#CE4B45" stroke="black" stroke-width="0.77" stroke-miterlimit="10"/>
<path d="M0.589844 116.818V107.9L19.5061 107.577L31.4866 116.818H0.589844Z" fill="#CE4B45"/>
<path d="M19.415 107.837L30.7127 116.552H0.86173V108.155L19.415 107.837ZM19.5992 107.311L0.314453 107.639V117.073H32.257L19.5938 107.306L19.5992 107.311Z" fill="black"/>
<path d="M31.9964 117.328H8.90234V155.505H31.9964V117.328Z" fill="#CE4B45"/>
<path d="M31.7366 117.583V155.261H9.16276V117.583H31.7366ZM32.2622 117.078H8.64258V155.761H32.2622V117.078Z" fill="black"/>
<path d="M8.64199 155.032L0.519531 146.687V108.311L8.64199 116.802V155.032Z" fill="#CE4B45" stroke="black" stroke-width="1.04" stroke-miterlimit="10"/>
<path d="M0.589844 71.8059V62.888L19.647 62.5598L31.492 71.8059H0.589844Z" fill="#CE4B45"/>
<path d="M19.5559 62.8255L30.729 71.5455H0.86173V63.1485L19.5559 62.8307M19.7401 62.2994L0.314453 62.6276V72.0612H32.257L19.7347 62.2942L19.7401 62.2994Z" fill="black"/>
<path d="M31.9964 72.3164H8.90234V110.494H31.9964V72.3164Z" fill="#CE4B45"/>
<path d="M31.7366 72.5665V110.244H9.16276V72.5665H31.7366ZM32.2622 72.0664H8.64258V110.749H32.2622V72.0664Z" fill="black"/>
<path d="M8.64199 110.02L0.519531 101.675V63.2996L8.64199 71.7904V110.02Z" fill="#CE4B45" stroke="black" stroke-width="1.04" stroke-miterlimit="10"/>
<path d="M14.2031 241.757L30.5727 253.249V211.743L14.2031 202.075V241.757Z" fill="black"/>
<path d="M14.2031 199.178L30.5727 209.133V167.627L14.2031 160.829V199.178Z" fill="black"/>
<path d="M88.2853 46.2292L84.709 46.2449V46.2292H88.2853Z" fill="#2C176C"/>
<path d="M90.5282 18.8035V18.9181C90.3548 18.8608 90.1706 18.8243 89.9863 18.8035H90.5282Z" fill="#2C176C"/>
<path d="M89.9859 18.8035H77.4473V18.7722H89.5415C89.6933 18.7722 89.8396 18.7826 89.9859 18.8035Z" fill="#2C176C"/>
<path d="M92.8846 20.9497V45.1875H77.4471V23.4917H45.7483C39.9775 23.5698 35.2417 28.2059 35.2417 33.8213H29.2812C29.2812 25.0909 36.6505 17.8867 45.705 17.7617H89.9857C90.1699 17.7826 90.3542 17.819 90.5275 17.8763C91.893 18.2774 92.8846 19.5016 92.8846 20.9497Z" fill="#2C176C" stroke="black" stroke-miterlimit="10"/>
<path d="M255.498 199.861C255.498 199.861 281.052 167.752 286.108 170.44C286.108 170.44 302.878 170.278 262.667 231.496" fill="#2C176C"/>
<path d="M255.498 199.861C255.498 199.861 281.052 167.752 286.108 170.44C286.108 170.44 302.878 170.278 262.667 231.496" stroke="black" stroke-miterlimit="10"/>
<path d="M208.416 311.085V299.016H217.628V302.12C229.364 301.849 261.627 300.714 294.041 296.02C344.986 288.644 374.398 275.601 376.847 259.302C377.79 253.025 376.105 247.43 371.689 242.195C362.922 231.792 343.485 223.198 315.487 217.337C293.824 212.805 275.363 211.399 275.173 211.389L279.985 202.71C283.225 202.913 354.745 208.029 378.847 236.616C384.883 243.779 387.278 251.837 385.967 260.573C384.152 272.637 373.396 282.732 353.992 290.587C339.389 296.5 319.654 301.276 295.33 304.793C254.241 310.736 213.466 311.054 213.06 311.059L208.421 311.09L208.416 311.085Z" fill="#2C176C" stroke="black" stroke-miterlimit="10"/>
<path d="M206.471 295.968C206.471 295.968 206.151 302.626 213.244 301.61C220.337 300.594 221.724 287.639 221.724 287.639" fill="#2C176C"/>
<path d="M206.471 295.968C206.471 295.968 206.151 302.626 213.244 301.61C220.337 300.594 221.724 287.639 221.724 287.639" stroke="black" stroke-miterlimit="10"/>
<path d="M241.15 270.728C264.606 244.345 271.029 212.611 255.496 199.848C239.963 187.085 208.356 198.127 184.899 224.511C161.443 250.894 155.02 282.628 170.553 295.391C186.086 308.154 217.693 297.112 241.15 270.728Z" fill="#2C176C" stroke="black" stroke-miterlimit="10"/>
</svg>
