<svg version="1.2" xmlns="http://www.w3.org/2000/svg" viewBox="0 0 331 162" width="331" height="162">
	<style>
		.s0 { fill: #2b2667 } 
		.s1 { fill: #70a7da } 
		.s2 { fill: #f9dd73 } 
		.s3 { fill: #c62d27 } 
		.s4 { fill: none;stroke: #231f20;stroke-miterlimit:10 } 
		.s5 { fill: none;stroke: #231f20;stroke-linecap: round;stroke-linejoin: round;stroke-width: .5 } 
		.s6 { fill: none;stroke: #231f20;stroke-linecap: round;stroke-linejoin: round;stroke-width: .4 } 
		.s7 { fill: none;stroke: #231f20;stroke-linecap: round;stroke-linejoin: round } 
	</style>
	<g>
		<path class="s0" d="m330.3 62.63v3.07c0 3.22-2.11 5.95-5.02 6.89q-1.05 0.34-2.21 0.34h-3.55v-5.93c2.18 1.18 2.57 1.04 4.93 0.3 2.37-0.74 4.42-2.46 5.54-4.67z"/>
		<path class="s1" d="m330.3 23.55v39.08h-0.31c-1.12 2.21-3.17 3.93-5.54 4.67-2.36 0.74-2.75 0.88-4.93-0.3v-32.33c0-7.49-2.42-14.42-6.52-20.05 1.33-1.53 3.28-2.5 5.47-2.5h4.6c3.98 0 7.23 3.25 7.23 7.23z"/>
		<path class="s1" d="m319.52 72.93v8.12c0 6.67-5.41 12.08-12.08 12.08h-100.76l33.05-42.15 3.31-4.22c3.12-3.81 0.44-9.57-4.46-9.57h-138.49c-1.7 0-3.14 0.7-4.34 1.77-3.44 3.1-3.65 8.49-0.74 12.1l33.89 42.07h-102.72c-6.65 0-12.03-5.39-12.03-12.04v-44.79c0.06-3.82 0.71-11.14 5.2-18.55q0.2-0.34 0.41-0.68c0.62-0.98 2.29-3.5 4.84-6.02 8.73-8.64 20.48-10.13 25.26-10.46h235.58c11.33 0 21.36 5.52 27.56 14.03 4.1 5.63 6.52 12.56 6.52 20.05z"/>
		<path class="s2" d="m306.65 93.13c2.54 0 4.59 2.05 4.59 4.58 0 1.27-0.51 2.42-1.34 3.25-0.83 0.83-1.98 1.34-3.25 1.34h-107.16l7.19-9.17z"/>
		<path class="s1" d="m304.92 107v49.97c0 2.59-2.1 4.69-4.7 4.69h-266.78c-2.59 0-4.7-2.1-4.7-4.69v-49.97c0-2.6 2.11-4.7 4.7-4.7h102.85l25.23 31.32 1.04 1.29c1.3 1.6 3.23 2.55 5.28 2.57h0.89c2 0.01 3.89-0.91 5.13-2.49l25.63-32.69h100.73c2.6 0 4.7 2.1 4.7 4.7zm-5.62 46.06c0-1.86-1.34-3.42-3.12-3.74q-0.34-0.07-0.7-0.07c-2.1 0-3.81 1.71-3.81 3.81 0 2.1 1.71 3.82 3.81 3.82q0.36 0 0.71-0.07c1.77-0.33 3.11-1.88 3.11-3.75zm-258.15 0c0-2.1-1.71-3.81-3.81-3.81q-0.36 0-0.7 0.07c-1.78 0.32-3.12 1.88-3.12 3.74 0 1.86 1.34 3.42 3.11 3.75q0.35 0.07 0.71 0.07c2.1 0 3.81-1.71 3.81-3.82z"/>
		<path class="s2" d="m296.18 149.32c1.78 0.32 3.12 1.88 3.12 3.74 0 1.86-1.34 3.42-3.11 3.75q-0.35 0.07-0.71 0.07c-2.1 0-3.81-1.71-3.81-3.82 0-2.11 1.71-3.81 3.81-3.81q0.36 0 0.7 0.07z"/>
		<path class="s2" d="m238.58 37.19c4.9 0 7.58 5.76 4.46 9.57l-3.31 4.22-0.33-0.26c0.9-1.05 1.44-2.39 1.44-3.86 0-3.35-2.82-6.07-6.29-6.07-1.7 0-3.24 0.65-4.37 1.7q-0.38-0.06-0.77-0.06h-119.11q-0.9 0-1.67 0.29h-0.01c-1.13-1.14-2.73-1.84-4.5-1.84-3.47 0-6.29 2.72-6.29 6.07 0 3.35 2.82 6.06 6.29 6.06q0.47 0 0.91-0.07 0.36 0.75 0.9 1.42l31.24 38.77 7.39 9.17 18.31 22.73c-0.64 0.94-1.01 2.07-1.01 3.29 0 1.47 0.54 2.81 1.44 3.86l-1.78 1.44-25.23-31.32-7.39-9.17-33.89-42.07c-2.91-3.61-2.7-9 0.74-12.1 1.2-1.07 2.64-1.77 4.34-1.77z"/>
		<path class="s2" d="m239.73 50.98l-33.05 42.15-7.19 9.17-25.63 32.69c-1.24 1.58-3.13 2.5-5.13 2.5h-0.89c-2.05-0.03-3.98-0.98-5.28-2.58l-1.04-1.29 1.78-1.44c1.15 1.35 2.9 2.21 4.86 2.21 3.48 0 6.3-2.72 6.3-6.07q-0.01-1.14-0.42-2.15l18.71-23.87 7.19-9.17 31.97-40.77c0.8 0.36 1.7 0.56 2.64 0.56 1.95 0 3.7-0.86 4.85-2.2z"/>
		<path class="s0" d="m234.53 41.92c2.85 0 5.15 2.22 5.15 4.96 0 2.74-2.3 4.96-5.15 4.96-2.85 0-5.14-2.22-5.14-4.96 0-2.74 2.3-4.96 5.14-4.96zm3.17 2.65c0.19-0.19 0.19-0.5 0-0.69h-0.02c-0.19-0.2-0.5-0.2-0.69-0.01l-1.97 1.97c-0.19 0.19-0.5 0.19-0.69 0l-1.82-1.82c-0.19-0.19-0.5-0.19-0.69 0h-0.01c-0.19 0.2-0.19 0.51 0 0.7l1.82 1.82c0.19 0.19 0.19 0.5 0 0.69l-1.67 1.67c-0.19 0.19-0.19 0.5 0 0.69h0.01c0.19 0.2 0.5 0.2 0.69 0l1.67-1.67c0.19-0.19 0.5-0.19 0.69 0l1.82 1.82c0.19 0.19 0.5 0.19 0.69 0h0.01c0.19-0.2 0.19-0.51 0.01-0.7l-1.83-1.82c-0.19-0.19-0.19-0.5 0-0.69 0 0 1.98-1.97 1.98-1.96z"/>
		<path class="s0" d="m231.91 52.36l-31.97 40.77-7.19 9.17-18.71 23.87c-0.89-2.29-3.19-3.92-5.88-3.92-2.22 0-4.17 1.11-5.29 2.78l-18.31-22.73-7.39-9.17-31.24-38.77q-0.54-0.67-0.9-1.42c3.05-0.42 5.39-2.94 5.39-5.99 0-1.64-0.69-3.14-1.79-4.23q0.78-0.29 1.67-0.29h119.11q0.39 0 0.77 0.06c-1.19 1.1-1.93 2.65-1.93 4.37 0 2.44 1.5 4.55 3.66 5.5zm-26.65 6.51c0-4.21-3.42-7.63-7.63-7.63-2.62 0-4.93 1.32-6.3 3.32h-44.54c-1.4-1.66-3.49-2.72-5.84-2.72-4.22 0-7.63 3.42-7.63 7.63 0 4.21 3.41 7.63 7.63 7.63 2.86 0 5.37-1.58 6.66-3.92h43.73c1.37 2.01 3.67 3.32 6.29 3.32 4.21 0 7.63-3.41 7.63-7.63zm-6.51 22.63c0-3.6-2.69-6.53-6.01-6.53-2.07 0-3.89 1.13-4.96 2.84h-35.08c-1.1-1.42-2.75-2.32-4.59-2.32-3.32 0-6.01 2.92-6.01 6.53 0 3.61 2.69 6.52 6.01 6.52 2.25 0 4.22-1.35 5.24-3.35h34.44c1.07 1.71 2.88 2.83 4.95 2.83 3.32 0 6.01-2.91 6.01-6.52zm-11.39 20.8q0.38-0.86 0.38-1.89c0-2.44-1.75-4.42-3.91-4.42-1.34 0-2.53 0.76-3.23 1.92h-22.85c-0.72-0.96-1.8-1.57-3-1.57-2.16 0-3.91 1.98-3.91 4.42q0.01 0.82 0.25 1.54c0.55 1.69 1.98 2.89 3.66 2.89 1.47 0 2.75-0.92 3.42-2.27h22.43c0.7 1.16 1.89 1.92 3.23 1.92 1.56 0 2.91-1.04 3.53-2.54z"/>
		<path class="s2" d="m197.63 51.24c4.21 0 7.63 3.42 7.63 7.63 0 4.21-3.42 7.63-7.63 7.63-2.62 0-4.92-1.31-6.29-3.32h-43.73c-1.29 2.34-3.8 3.92-6.66 3.92-4.22 0-7.63-3.42-7.63-7.63 0-4.21 3.41-7.63 7.63-7.63 2.35 0 4.44 1.06 5.84 2.72h44.54c1.37-2 3.68-3.32 6.3-3.32zm4.46 7.93c0-2.42-1.97-4.38-4.38-4.38-2.41 0-4.39 1.96-4.39 4.38 0 2.42 1.97 4.38 4.39 4.38 2.42 0 4.38-1.96 4.38-4.38zm-56.82 0.7c0-2.42-1.96-4.39-4.38-4.39-2.42 0-4.38 1.97-4.38 4.39 0 2.42 1.96 4.38 4.38 4.38 2.42 0 4.38-1.97 4.38-4.38z"/>
		<path fill-rule="evenodd" class="s3" d="m197.71 63.55c-2.43 0-4.39-1.96-4.39-4.38 0-2.42 1.96-4.38 4.39-4.38 2.42 0 4.38 1.96 4.38 4.38 0 2.42-1.96 4.38-4.38 4.38z"/>
		<path class="s2" d="m192.74 74.97c3.32 0 6.01 2.93 6.01 6.53 0 3.6-2.69 6.52-6.01 6.52-2.07 0-3.88-1.12-4.95-2.83h-34.44c-1.02 2-2.99 3.35-5.24 3.35-3.32 0-6.01-2.92-6.01-6.52 0-3.6 2.69-6.53 6.01-6.53 1.84 0 3.49 0.9 4.59 2.32h35.08c1.07-1.71 2.89-2.84 4.96-2.84zm3.47 6.78c0-1.82-1.48-3.3-3.3-3.3-1.82 0-3.3 1.48-3.3 3.3 0 1.82 1.48 3.31 3.3 3.31 1.82 0 3.3-1.48 3.3-3.31zm-44.94 0.59c0-1.82-1.48-3.3-3.3-3.3-1.82 0-3.3 1.48-3.3 3.3 0 1.82 1.48 3.3 3.3 3.3 1.82 0 3.3-1.47 3.3-3.3z"/>
		<path fill-rule="evenodd" class="s3" d="m192.91 85.06c-1.82 0-3.3-1.48-3.3-3.31 0-1.82 1.48-3.3 3.3-3.3 1.82 0 3.3 1.48 3.3 3.3 0 1.83-1.48 3.31-3.3 3.31z"/>
		<path class="s2" d="m187.74 100.41q0 1.03-0.38 1.89c-0.62 1.5-1.97 2.54-3.53 2.54-1.34 0-2.53-0.76-3.23-1.92h-22.43c-0.67 1.35-1.95 2.27-3.42 2.27-1.68 0-3.11-1.2-3.66-2.89q-0.24-0.73-0.25-1.54c0-2.44 1.75-4.42 3.91-4.42 1.2 0 2.28 0.61 3 1.57h22.85c0.7-1.16 1.89-1.92 3.23-1.92 2.16 0 3.91 1.98 3.91 4.42zm-1.4 0.18c0-1.32-1.07-2.39-2.38-2.39-1.31 0-2.39 1.07-2.39 2.39 0 0.67 0.28 1.28 0.72 1.71 0.43 0.42 1.02 0.68 1.67 0.68 0.65 0 1.23-0.26 1.66-0.68 0.44-0.43 0.72-1.04 0.72-1.71zm-29.26 0c0-1.32-1.07-2.39-2.39-2.39-1.32 0-2.39 1.07-2.39 2.39 0 0.67 0.28 1.28 0.72 1.71 0.43 0.42 1.02 0.68 1.67 0.68 0.65 0 1.24-0.26 1.67-0.68 0.44-0.43 0.72-1.04 0.72-1.71z"/>
		<path class="s3" d="m183.96 98.2c1.31 0 2.38 1.07 2.38 2.39 0 0.67-0.28 1.28-0.72 1.71-0.43 0.42-1.02 0.68-1.66 0.68-0.64 0-1.24-0.26-1.67-0.68-0.44-0.43-0.72-1.04-0.72-1.71 0-1.32 1.07-2.39 2.39-2.39z"/>
		<path class="s0" d="m168.15 123.39c2.84 0 5.14 2.22 5.14 4.96 0 2.74-2.3 4.96-5.14 4.96-2.84 0-5.15-2.22-5.15-4.96 0-2.74 2.3-4.96 5.15-4.96zm3.16 2.64c0.19-0.19 0.19-0.49 0-0.68l-0.02-0.02c-0.19-0.19-0.5-0.19-0.69 0l-1.97 1.98c-0.19 0.19-0.5 0.19-0.69 0l-1.82-1.83c-0.19-0.19-0.5-0.19-0.68 0l-0.02 0.02c-0.19 0.19-0.19 0.49 0 0.68l1.82 1.83c0.19 0.19 0.19 0.49 0 0.68l-1.67 1.68c-0.19 0.19-0.19 0.49 0 0.68l0.02 0.02c0.19 0.19 0.49 0.19 0.68 0l1.67-1.67c0.19-0.19 0.5-0.19 0.69 0l1.82 1.82c0.19 0.19 0.5 0.19 0.69 0l0.02-0.02c0.19-0.19 0.19-0.49 0-0.68l-1.83-1.83c-0.19-0.19-0.19-0.49 0-0.68z"/>
		<path class="s3" d="m154.69 98.2c1.32 0 2.39 1.07 2.39 2.39 0 0.67-0.28 1.28-0.72 1.71-0.43 0.42-1.02 0.68-1.67 0.68-0.65 0-1.24-0.26-1.67-0.68-0.44-0.43-0.72-1.04-0.72-1.71 0-1.32 1.07-2.39 2.39-2.39z"/>
		<path fill-rule="evenodd" class="s3" d="m147.97 85.64c-1.82 0-3.3-1.48-3.3-3.3 0-1.82 1.48-3.3 3.3-3.3 1.82 0 3.3 1.48 3.3 3.3 0 1.82-1.48 3.3-3.3 3.3z"/>
		<path fill-rule="evenodd" class="s3" d="m140.89 64.25c-2.42 0-4.38-1.96-4.38-4.39 0-2.42 1.96-4.38 4.38-4.38 2.42 0 4.38 1.96 4.38 4.38 0 2.43-1.96 4.39-4.38 4.39z"/>
		<path class="s2" d="m128.9 93.13l7.39 9.17h-109.28c-2.53 0-4.59-2.05-4.59-4.59 0-1.27 0.51-2.41 1.35-3.24 0.83-0.83 1.98-1.34 3.24-1.34z"/>
		<path class="s0" d="m104.11 42.01c2.84 0 5.15 2.22 5.15 4.96 0 2.74-2.31 4.96-5.15 4.96-2.84 0-5.15-2.22-5.15-4.96 0-2.74 2.31-4.96 5.15-4.96zm3.16 2.65c0.19-0.19 0.19-0.5 0-0.69h-0.01c-0.19-0.2-0.5-0.2-0.69-0.01l-1.97 1.97c-0.19 0.19-0.5 0.19-0.69 0l-1.82-1.82c-0.19-0.19-0.5-0.19-0.69 0h-0.02c-0.19 0.2-0.19 0.51 0 0.7l1.83 1.82c0.19 0.19 0.19 0.5 0 0.69l-1.68 1.67c-0.19 0.19-0.19 0.5 0 0.69h0.02c0.19 0.2 0.5 0.2 0.69 0l1.67-1.67c0.19-0.19 0.5-0.19 0.69 0l1.82 1.83c0.19 0.18 0.5 0.18 0.68 0l0.02-0.02c0.19-0.19 0.19-0.5 0-0.69l-1.82-1.82c-0.19-0.19-0.19-0.5 0-0.69 0 0 1.97-1.97 1.97-1.96z"/>
		<path class="s2" d="m37.34 149.25c2.1 0 3.81 1.71 3.81 3.81 0 2.1-1.71 3.82-3.81 3.82q-0.36 0-0.71-0.07c-1.77-0.33-3.11-1.88-3.11-3.75 0-1.87 1.34-3.42 3.12-3.74q0.34-0.07 0.7-0.07z"/>
		<path class="s1" d="m13.12 14.17c2.67 0 4.99 1.44 6.23 3.58-4.49 7.41-5.14 14.73-5.2 18.55v33.89c-2.47 1.73-4.16 1.26-6.81-0.2-2.64-1.46-4.24-3.83-6.01-6.28h-0.04v-42.31c0-3.99 3.25-7.23 7.23-7.23z"/>
		<path class="s0" d="m14.15 70.19v4.7q-0.5 0.09-1.03 0.08h-4.6q-1.16 0-2.21-0.34c-2.91-0.93-5.02-3.67-5.02-6.88v-4.04h0.04c1.77 2.45 3.37 4.82 6.01 6.28 2.65 1.46 4.34 1.93 6.81 0.2z"/>
	</g>
	<g>
		<path class="s4" d="m19.35 17.75q0.2-0.34 0.41-0.68c0.62-0.98 2.29-3.5 4.84-6.02 8.73-8.64 20.48-10.13 25.26-10.46h235.58c11.33 0 21.36 5.52 27.56 14.03"/>
		<path class="s4" d="m27.01 93.13h-0.83c-6.65 0-12.03-5.39-12.03-12.04v-6.2"/>
		<path class="s4" d="m319.52 72.93v8.12c0 6.67-5.41 12.08-12.08 12.08h-0.79"/>
		<path class="s2" d="m33.44 102.3h-6.43c-2.53 0-4.59-2.05-4.59-4.59 0-1.27 0.51-2.41 1.35-3.24 0.83-0.83 1.98-1.34 3.24-1.34h101.89"/>
		<path class="s2" d="m206.68 93.13h99.97c2.54 0 4.59 2.05 4.59 4.58 0 1.27-0.51 2.42-1.34 3.25-0.83 0.83-1.98 1.34-3.25 1.34h-6.43"/>
		<path class="s4" d="m199.49 102.3h100.73c2.6 0 4.7 2.1 4.7 4.7v49.97c0 2.59-2.1 4.69-4.7 4.69h-266.78c-2.59 0-4.7-2.1-4.7-4.69v-49.97c0-2.6 2.11-4.7 4.7-4.7h102.85"/>
		<path fill-rule="evenodd" class="s4" d="m120.65 0.5h7.87 79.86 9.06"/>
		<path class="s5" d="m108.63 42.72c1.1 1.09 1.79 2.59 1.79 4.23 0 3.05-2.34 5.57-5.39 5.99"/>
		<path fill-rule="evenodd" class="s6" d="m104.11 51.93c-2.85 0-5.15-2.22-5.15-4.96 0-2.74 2.3-4.96 5.15-4.96 2.85 0 5.15 2.22 5.15 4.96 0 2.74-2.3 4.96-5.15 4.96z"/>
		<path class="s6" d="m107.27 43.97h-0.01c-0.19-0.2-0.5-0.2-0.69-0.01l-1.97 1.97c-0.19 0.19-0.5 0.19-0.69 0l-1.82-1.82c-0.19-0.19-0.5-0.19-0.69 0h-0.02c-0.19 0.2-0.19 0.51 0 0.7l1.83 1.82c0.19 0.19 0.19 0.5 0 0.69l-1.68 1.67c-0.19 0.19-0.19 0.5 0 0.69h0.02c0.19 0.2 0.5 0.2 0.69 0l1.67-1.67c0.19-0.19 0.5-0.19 0.69 0l1.82 1.83c0.19 0.18 0.5 0.18 0.68 0l0.02-0.02c0.19-0.19 0.19-0.5 0-0.69l-1.82-1.82c-0.19-0.19-0.19-0.5 0-0.69l1.97-1.97c0.19-0.19 0.19-0.5 0-0.68z"/>
		<path class="s5" d="m231.91 52.36c-2.16-0.95-3.66-3.06-3.66-5.5 0-1.72 0.74-3.27 1.93-4.37"/>
		<path fill-rule="evenodd" class="s6" d="m234.54 51.84c-2.85 0-5.15-2.22-5.15-4.96 0-2.74 2.3-4.96 5.15-4.96 2.84 0 5.14 2.22 5.14 4.96 0 2.74-2.3 4.96-5.14 4.96z"/>
		<path class="s6" d="m237.7 43.88h-0.02c-0.19-0.2-0.5-0.2-0.69-0.01l-1.97 1.97c-0.19 0.19-0.5 0.19-0.69 0l-1.82-1.82c-0.19-0.19-0.5-0.19-0.69 0h-0.01c-0.19 0.2-0.19 0.51 0 0.7l1.82 1.82c0.19 0.19 0.19 0.5 0 0.69l-1.67 1.67c-0.19 0.19-0.19 0.5 0 0.69h0.01c0.19 0.2 0.5 0.2 0.69 0l1.67-1.67c0.19-0.19 0.5-0.19 0.69 0l1.82 1.82c0.19 0.19 0.5 0.19 0.69 0h0.01c0.19-0.2 0.19-0.51 0.01-0.7l-1.83-1.82c-0.19-0.19-0.19-0.5 0-0.69l1.98-1.97c0.19-0.19 0.19-0.5 0-0.68z"/>
		<path class="s5" d="m162.87 125.03c1.12-1.67 3.07-2.78 5.29-2.78 2.69 0 4.99 1.63 5.88 3.92"/>
		<path fill-rule="evenodd" class="s6" d="m168.14 133.31c-2.84 0-5.14-2.22-5.14-4.96 0-2.74 2.3-4.96 5.14-4.96 2.85 0 5.15 2.22 5.15 4.96 0 2.74-2.3 4.96-5.15 4.96z"/>
		<path class="s6" d="m171.31 125.35l-0.02-0.02c-0.19-0.19-0.5-0.19-0.69 0l-1.97 1.98c-0.19 0.19-0.5 0.19-0.69 0l-1.82-1.83c-0.19-0.19-0.5-0.19-0.68 0l-0.02 0.02c-0.19 0.19-0.19 0.49 0 0.68l1.82 1.83c0.19 0.19 0.19 0.49 0 0.68l-1.67 1.68c-0.19 0.19-0.19 0.49 0 0.68l0.02 0.02c0.19 0.19 0.49 0.19 0.68 0l1.67-1.67c0.19-0.19 0.5-0.19 0.69 0l1.82 1.82c0.19 0.19 0.5 0.19 0.69 0l0.02-0.02c0.19-0.19 0.19-0.49 0-0.68l-1.83-1.83c-0.19-0.19-0.19-0.49 0-0.68l1.98-1.98c0.19-0.19 0.19-0.49 0-0.68z"/>
		<path class="s4" d="m128.52 0.5v0.09"/>
		<path class="s4" d="m208.38 0.59v-0.09"/>
		<path class="s4" d="m239.73 50.98l3.31-4.22c3.12-3.81 0.44-9.57-4.46-9.57h-138.49c-1.7 0-3.14 0.7-4.34 1.77-3.44 3.1-3.65 8.49-0.74 12.1l33.89 42.07 7.39 9.17 25.23 31.32 1.04 1.29c1.3 1.6 3.23 2.55 5.28 2.57h0.89c2 0.01 3.89-0.91 5.13-2.49l25.63-32.69 7.19-9.17z"/>
		<path class="s4" d="m239.4 50.72c-1.15 1.34-2.9 2.2-4.85 2.2-0.94 0-1.84-0.2-2.64-0.56l-31.97 40.77-7.19 9.17-18.71 23.87q0.41 1.01 0.42 2.15c0 3.35-2.82 6.07-6.3 6.07-1.96 0-3.71-0.86-4.86-2.21-0.9-1.05-1.44-2.39-1.44-3.86 0-1.22 0.37-2.35 1.01-3.29l-18.31-22.73-7.39-9.17-31.24-38.77q-0.54-0.67-0.9-1.42-0.44 0.07-0.91 0.07c-3.47 0-6.29-2.71-6.29-6.06 0-3.35 2.82-6.07 6.29-6.07 1.77 0 3.37 0.7 4.5 1.84h0.01q0.77-0.29 1.67-0.29h119.11q0.39 0 0.77 0.06c1.13-1.05 2.67-1.7 4.37-1.7 3.47 0 6.29 2.72 6.29 6.07 0 1.47-0.54 2.81-1.44 3.86z"/>
		<path class="s7" d="m205.26 58.87c0 4.22-3.42 7.63-7.63 7.63-2.62 0-4.92-1.31-6.29-3.32h-43.73c-1.29 2.34-3.8 3.92-6.66 3.92-4.22 0-7.63-3.42-7.63-7.63 0-4.21 3.41-7.63 7.63-7.63 2.35 0 4.44 1.06 5.84 2.72h44.54c1.37-2 3.68-3.32 6.3-3.32 4.21 0 7.63 3.42 7.63 7.63z"/>
		<path class="s7" d="m198.75 81.5c0 3.61-2.69 6.52-6.01 6.52-2.07 0-3.88-1.12-4.95-2.83h-34.44c-1.02 2-2.99 3.35-5.24 3.35-3.32 0-6.01-2.92-6.01-6.52 0-3.6 2.69-6.53 6.01-6.53 1.84 0 3.49 0.9 4.59 2.32h35.08c1.07-1.71 2.89-2.84 4.96-2.84 3.32 0 6.01 2.93 6.01 6.53z"/>
		<path class="s7" d="m183.83 95.99c-1.34 0-2.53 0.76-3.23 1.92h-22.85c-0.72-0.96-1.8-1.57-3-1.57-2.16 0-3.91 1.98-3.91 4.42q0.01 0.82 0.25 1.54c0.55 1.69 1.98 2.89 3.66 2.89 1.47 0 2.75-0.92 3.42-2.27h22.43c0.7 1.16 1.89 1.92 3.23 1.92 1.56 0 2.91-1.04 3.53-2.54q0.38-0.86 0.38-1.89c0-2.44-1.75-4.42-3.91-4.42z"/>
		<path class="s7" d="m156.36 102.3c-0.43 0.42-1.02 0.68-1.67 0.68-0.65 0-1.24-0.26-1.67-0.68-0.44-0.43-0.72-1.04-0.72-1.71 0-1.32 1.07-2.39 2.39-2.39 1.32 0 2.39 1.07 2.39 2.39 0 0.67-0.28 1.28-0.72 1.71z"/>
		<path class="s7" d="m185.62 102.3c-0.43 0.42-1.02 0.68-1.66 0.68-0.64 0-1.24-0.26-1.67-0.68-0.44-0.43-0.72-1.04-0.72-1.71 0-1.32 1.07-2.39 2.39-2.39 1.32 0 2.38 1.07 2.38 2.39 0 0.67-0.28 1.28-0.72 1.71z"/>
		<path class="s4" d="m1.29 25.6v-4.2c0-3.99 3.25-7.23 7.23-7.23h4.6c2.67 0 4.99 1.44 6.23 3.58-4.49 7.41-5.14 14.73-5.2 18.55v38.59q-0.5 0.09-1.03 0.08h-4.6q-1.16 0-2.21-0.34"/>
		<path class="s4" d="m6.31 74.63c-2.91-0.93-5.02-3.67-5.02-6.88v-42.15"/>
		<path class="s4" d="m325.28 72.59q-1.05 0.34-2.21 0.34h-3.55v-38.26c0-7.49-2.42-14.42-6.52-20.05 1.33-1.53 3.28-2.5 5.47-2.5h4.6c3.98 0 7.23 3.25 7.23 7.23v4.2"/>
		<path fill-rule="evenodd" class="s4" d="m329.53 87.34l0.15 0.55 0.28-0.38-0.43-0.17z"/>
		<path class="s4" d="m330.3 23.55v42.15c0 3.22-2.11 5.95-5.02 6.89"/>
		<path fill-rule="evenodd" class="s5" d="m140.89 64.25c-2.42 0-4.38-1.96-4.38-4.39 0-2.42 1.96-4.38 4.38-4.38 2.42 0 4.38 1.96 4.38 4.38 0 2.43-1.96 4.39-4.38 4.39z"/>
		<path fill-rule="evenodd" class="s5" d="m197.71 63.55c-2.43 0-4.39-1.96-4.39-4.38 0-2.42 1.96-4.38 4.39-4.38 2.42 0 4.38 1.96 4.38 4.38 0 2.42-1.96 4.38-4.38 4.38z"/>
		<path fill-rule="evenodd" class="s5" d="m147.97 85.64c-1.82 0-3.3-1.48-3.3-3.3 0-1.82 1.48-3.3 3.3-3.3 1.82 0 3.3 1.48 3.3 3.3 0 1.82-1.48 3.3-3.3 3.3z"/>
		<path fill-rule="evenodd" class="s5" d="m192.91 85.06c-1.82 0-3.3-1.48-3.3-3.31 0-1.82 1.48-3.3 3.3-3.3 1.82 0 3.3 1.48 3.3 3.3 0 1.83-1.48 3.31-3.3 3.31z"/>
		<path class="s4" d="m41.15 153.06c0 2.11-1.71 3.82-3.81 3.82q-0.36 0-0.71-0.07c-1.77-0.33-3.11-1.88-3.11-3.75 0-1.87 1.34-3.42 3.12-3.74q0.34-0.07 0.7-0.07c2.1 0 3.81 1.71 3.81 3.81z"/>
		<path class="s4" d="m291.67 153.06c0 2.11 1.71 3.82 3.81 3.82q0.36 0 0.71-0.07c1.77-0.33 3.11-1.88 3.11-3.75 0-1.87-1.34-3.42-3.12-3.74q-0.34-0.07-0.7-0.07c-2.1 0-3.81 1.71-3.81 3.81z"/>
		<path class="s4" d="m1.33 63.71c1.77 2.45 3.37 4.82 6.01 6.28 2.65 1.46 4.34 1.93 6.81 0.2"/>
		<path class="s4" d="m329.99 62.63c-1.12 2.21-3.17 3.93-5.54 4.67-2.36 0.74-2.75 0.88-4.93-0.3"/>
	</g>
</svg>