<svg version="1.2" xmlns="http://www.w3.org/2000/svg" viewBox="0 0 1218 378" width="1218" height="378">
	<style>
		.s0 { fill: #2b2667 } 
		.s1 { fill: #70a7da } 
		.s2 { fill: #ffdc5e;stroke: #000000;stroke-width: .4 } 
		.s3 { fill: #f9dd73 } 
		.s4 { fill: #c62d27 } 
		.s5 { fill: none;stroke: #231f20;stroke-miterlimit:10;stroke-width: .4 } 
		.s6 { fill: none;stroke: #ffdc5e;stroke-miterlimit:10;stroke-width: .4 } 
		.s7 { fill: none;stroke: #231f20;stroke-linecap: round;stroke-linejoin: round;stroke-width: .4 } 
		.s8 { fill: #ffdc5e } 
		.s9 { fill: none;stroke: #000000;stroke-miterlimit:10;stroke-width: .4 } 
	</style>
	<path class="s0" d="m1218 230.42v11.36c0 11.92-7.81 22.02-18.58 25.5q-3.9 1.27-8.18 1.26h-13.13v-21.95c8.06 4.37 9.51 3.85 18.24 1.11 8.77-2.74 16.36-9.1 20.5-17.28z"/>
	<path class="s1" d="m1218.01 85.78v144.63l-1.15 0.01c-4.14 8.17-11.73 14.54-20.5 17.28-8.74 2.74-10.18 3.26-18.25-1.11v-119.65c0-27.72-8.95-53.37-24.13-74.21 4.92-5.66 12.14-9.25 20.25-9.25h17.02c14.73 0 26.76 12.03 26.76 26.76z"/>
	<path class="s1" d="m1178.13 268.54v30.05q-0.01 5.79-1.41 11.18c-4.95 19.28-22.46 33.53-43.3 33.53h-372.91l122.32-155.99 12.25-15.62c11.55-14.1 1.63-35.42-16.5-35.42h-512.55c-6.29 0-11.62 2.59-16.06 6.55-12.73 11.47-13.51 31.42-2.74 44.78l125.42 155.7h-380.16c-24.61 0-44.52-19.95-44.52-44.56v-165.76c0.22-14.14 2.63-41.23 19.25-68.66 0.48-0.85 0.99-1.66 1.51-2.51 2.3-3.63 8.48-12.96 17.92-22.28 32.3-31.98 75.79-37.49 93.48-38.71h871.87c41.93 0 79.05 20.43 102 51.92 15.17 20.84 24.13 46.48 24.13 74.2z"/>
	<path class="s2" d="m1130.47 343.45c9.32 0 16.84 7.52 16.84 16.8 0 4.66-1.87 8.87-4.91 11.92-3.05 3.04-7.27 4.91-11.93 4.91h-396.28l26.37-33.63z"/>
	<path class="s2" d="m366.03 136.42h512.54c18.01 0 27.86 21.16 16.39 35.17l-12.12 15.45-0.65-1.01c3.3-3.9 4.9-8.54 4.9-13.98 0-12.48-10.51-22.61-23.43-22.61-6.31 0-12.02 2.4-16.23 6.28q-1.37-0.21-2.8-0.21h-440.82c-2.21 0-4.24 0.36-6.17 1.06-4.2-4.21-10.14-6.8-16.7-6.8-12.92 0-23.43 10.13-23.43 22.62 0 12.48 10.51 22.57 23.43 22.57 1.12 0 2.23-0.07 3.28-0.24q1.33 2.73 3.3 5.18v0.01l115.62 143.48 27.16 33.7h-30.23l-27.3-33.89-125.43-155.7c-10.72-13.3-9.94-33.16 2.72-44.57 4.42-3.94 9.72-6.51 15.97-6.51z"/>
	<path class="s0" d="m863.58 153.77c10.54 0 19.05 8.22 19.05 18.36 0 10.14-8.51 18.36-19.05 18.36-10.55 0-19.03-8.22-19.03-18.36 0-10.14 8.52-18.36 19.03-18.36zm11.73 9.81c0.7-0.7 0.7-1.85 0-2.55h-0.08c-0.7-0.74-1.85-0.74-2.55-0.04l-7.29 7.29c-0.7 0.7-1.85 0.7-2.56 0l-6.73-6.74c-0.7-0.7-1.85-0.7-2.55 0h-0.04c-0.7 0.74-0.7 1.89 0 2.6l6.73 6.73c0.71 0.7 0.71 1.85 0 2.55l-6.18 6.19c-0.7 0.7-0.7 1.85 0 2.55h0.04c0.7 0.74 1.85 0.74 2.55 0l6.18-6.18c0.71-0.7 1.86-0.7 2.56 0l6.73 6.73c0.71 0.71 1.85 0.71 2.56 0h0.03c0.71-0.74 0.71-1.88 0.04-2.59l-6.77-6.73c-0.7-0.71-0.7-1.85 0-2.56l7.33-7.29z"/>
	<path class="s0" d="m755.26 216.51c0-15.58-12.66-28.24-28.24-28.24-9.7 0-18.25 4.88-23.31 12.29h-164.85c-5.18-6.15-12.91-10.07-21.61-10.07-15.62 0-28.24 12.66-28.24 28.24 0 15.58 12.62 28.24 28.24 28.24 10.59 0 19.88-5.85 24.65-14.51h161.84c5.07 7.44 13.58 12.29 23.28 12.29 15.58 0 28.24-12.62 28.24-28.24zm-24.09 83.75c0-13.32-9.96-24.17-22.25-24.17-7.66 0-14.39 4.18-18.35 10.51h-129.83c-4.07-5.25-10.18-8.58-16.99-8.58-12.29 0-22.24 10.8-22.24 24.16 0 13.36 9.95 24.13 22.24 24.13 8.33 0 15.62-4.99 19.39-12.39h127.46c3.96 6.32 10.66 10.47 18.32 10.47 12.29 0 22.25-10.77 22.25-24.13z"/>
	<path class="s3" d="m727.01 188.27c15.58 0 28.24 12.65 28.24 28.23 0 15.58-12.66 28.24-28.24 28.24-9.7 0-18.21-4.85-23.28-12.29h-161.84c-4.78 8.66-14.07 14.51-24.65 14.51-15.62 0-28.24-12.65-28.24-28.24 0-15.58 12.62-28.23 28.24-28.23 8.69 0 16.43 3.92 21.61 10.06h164.84c5.07-7.4 13.62-12.28 23.32-12.28zm16.5 29.34c0-8.95-7.29-16.21-16.21-16.21-8.92 0-16.25 7.26-16.25 16.21 0 8.96 7.3 16.21 16.25 16.21 8.96 0 16.21-7.25 16.21-16.21zm-210.29 2.59c0-8.95-7.25-16.24-16.21-16.24-8.95 0-16.21 7.29-16.21 16.24 0 8.96 7.26 16.21 16.21 16.21 8.96 0 16.21-7.29 16.21-16.21z"/>
	<path fill-rule="evenodd" class="s4" d="m727.27 233.82c-8.97 0-16.22-7.25-16.22-16.21 0-8.97 7.25-16.21 16.22-16.21 8.98 0 16.23 7.24 16.23 16.21 0 8.96-7.25 16.21-16.23 16.21z"/>
	<path class="s3" d="m708.93 276.09c12.29 0 22.24 10.84 22.24 24.17 0 13.32-9.95 24.13-22.24 24.13-7.66 0-14.36-4.15-18.32-10.48h-127.46c-3.78 7.4-11.07 12.4-19.4 12.4-12.28 0-22.24-10.81-22.24-24.13 0-13.32 9.96-24.17 22.24-24.17 6.81 0 12.92 3.33 16.99 8.59h129.83c3.96-6.33 10.7-10.51 18.36-10.51zm12.84 25.09c0-6.73-5.48-12.21-12.21-12.21-6.74 0-12.22 5.48-12.22 12.21 0 6.74 5.48 12.25 12.22 12.25 6.73 0 12.21-5.48 12.21-12.25zm-166.32 2.18c0-6.73-5.48-12.21-12.21-12.21-6.74 0-12.22 5.48-12.22 12.21 0 6.74 5.48 12.22 12.22 12.22 6.73 0 12.21-5.44 12.21-12.22z"/>
	<path fill-rule="evenodd" class="s4" d="m709.57 313.43c-6.76 0-12.22-5.47-12.22-12.23 0-6.76 5.46-12.23 12.22-12.23 6.75 0 12.21 5.47 12.21 12.23 0 6.76-5.46 12.23-12.21 12.23z"/>
	<path fill-rule="evenodd" class="s4" d="m543.2 315.58c-6.75 0-12.21-5.46-12.21-12.22 0-6.75 5.46-12.21 12.21-12.21 6.76 0 12.22 5.46 12.22 12.21 0 6.76-5.46 12.22-12.22 12.22z"/>
	<path fill-rule="evenodd" class="s4" d="m517.03 236.41c-8.97 0-16.21-7.25-16.21-16.23 0-8.97 7.24-16.22 16.21-16.22 8.96 0 16.21 7.25 16.21 16.22 0 8.98-7.25 16.23-16.21 16.23z"/>
	<path class="s2" d="m95.56 343.45h377.02l27.11 33.63h-404.13c-9.28 0-16.84-7.52-16.84-16.83 0-4.66 1.87-8.84 4.96-11.89 3.04-3.04 7.26-4.91 11.88-4.91z"/>
	<path class="s0" d="m380.92 154.1c10.51 0 19.06 8.22 19.06 18.36 0 10.14-8.55 18.36-19.06 18.36-10.51 0-19.06-8.22-19.06-18.36 0-10.14 8.55-18.36 19.06-18.36zm11.69 9.81c0.71-0.7 0.71-1.85 0-2.55h-0.03c-0.71-0.74-1.85-0.74-2.56-0.04l-7.29 7.29c-0.7 0.7-1.85 0.7-2.55 0l-6.74-6.73c-0.7-0.71-1.85-0.71-2.55 0h-0.07c-0.71 0.74-0.71 1.88 0 2.59l6.77 6.73c0.7 0.7 0.7 1.85 0 2.56l-6.22 6.18c-0.7 0.7-0.7 1.85 0 2.55h0.07c0.71 0.74 1.85 0.74 2.56 0l6.18-6.18c0.7-0.7 1.85-0.7 2.55 0l6.74 6.77c0.7 0.67 1.85 0.67 2.51 0l0.08-0.07c0.7-0.71 0.7-1.85 0-2.56l-6.74-6.73c-0.7-0.7-0.7-1.85 0-2.56l7.29-7.29z"/>
	<path class="s1" d="m44.15 51.07c9.88 0 18.47 5.33 23.06 13.25-16.62 27.43-19.03 54.52-19.25 68.66v125.42c-9.14 6.4-15.4 4.66-25.2-0.74-9.77-5.4-15.69-14.17-22.25-23.24h-0.14v-156.59c0-14.77 12.02-26.76 26.75-26.76z"/>
	<path class="s0" d="m47.96 258.4v17.39c-1.22 0.23-2.52 0.3-3.81 0.3h-17.03q-4.28 0.01-8.17-1.26c-10.77-3.44-18.58-13.58-18.58-25.46v-14.95h0.14c6.56 9.06 12.48 17.84 22.25 23.24 9.8 5.4 16.06 7.14 25.2 0.74z"/>
	<path class="s5" d="m66.81 64.32c0.48-0.85 1-1.66 1.52-2.51 2.29-3.63 8.47-12.96 17.91-22.28 32.31-31.98 75.8-37.49 93.49-38.71h871.87c41.93 0 79.05 20.43 102 51.92"/>
	<path class="s5" d="m95.17 343.29h-3.07c-24.61 0-44.52-19.94-44.52-44.56v-22.94"/>
	<path class="s5" d="m1177.72 268.54v30.05q-0.01 5.78-1.41 11.17c-4.96 19.29-22.46 33.54-43.3 33.54h-2.92"/>
	<path class="s5" d="m118.95 377.23h-23.79c-9.37 0-16.99-7.58-16.99-16.98 0-4.7 1.89-8.92 5-11.99 3.07-3.08 7.32-4.96 11.99-4.96h377.09"/>
	<path class="s6" d="m760.11 343.3h369.98c9.4 0 16.99 7.58 16.99 16.95 0 4.7-1.89 8.95-4.96 12.03-3.07 3.07-7.33 4.95-12.03 4.95h-23.79"/>
	<path class="s7" d="m586.71-151.7l0.22-0.89c0.59-2.37 1.07-4.78 1.37-7.26 0-0.22 0.07-0.48 0.07-0.74"/>
	<path class="s7" d="m397.25 156.73c4.07 4.04 6.62 9.59 6.62 15.66 0 11.29-8.66 20.61-19.94 22.17"/>
	<path fill-rule="evenodd" class="s7" d="m380.52 190.82c-10.54 0-19.06-8.21-19.06-18.36 0-10.15 8.52-18.36 19.06-18.36 10.54 0 19.06 8.21 19.06 18.36 0 10.15-8.52 18.36-19.06 18.36z"/>
	<path class="s7" d="m392.22 161.36h-0.04c-0.7-0.74-1.85-0.74-2.55-0.04l-7.3 7.29c-0.7 0.71-1.85 0.71-2.55 0l-6.73-6.73c-0.71-0.7-1.86-0.7-2.56 0h-0.07c-0.71 0.74-0.71 1.89 0 2.59l6.77 6.74c0.7 0.7 0.7 1.85 0 2.55l-6.22 6.18c-0.7 0.7-0.7 1.85 0 2.55h0.08c0.7 0.74 1.85 0.74 2.55 0l6.18-6.18c0.7-0.7 1.85-0.7 2.55 0l6.74 6.78c0.7 0.66 1.85 0.66 2.52 0l0.07-0.08c0.7-0.7 0.7-1.85 0-2.55l-6.73-6.74c-0.71-0.7-0.71-1.85 0-2.55l7.29-7.29c0.7-0.71 0.7-1.85 0-2.56z"/>
	<path class="s7" d="m853.48 192.41c-7.99-3.51-13.54-11.32-13.54-20.35 0-6.37 2.73-12.1 7.14-16.18"/>
	<path fill-rule="evenodd" class="s7" d="m863.21 190.48c-10.53 0-19.04-8.2-19.04-18.35 0-10.15 8.51-18.36 19.04-18.36 10.53 0 19.05 8.21 19.05 18.36 0 10.15-8.52 18.35-19.05 18.35z"/>
	<path class="s7" d="m874.93 161.02h-0.07c-0.7-0.74-1.85-0.74-2.55-0.03l-7.29 7.29c-0.71 0.7-1.86 0.7-2.56 0l-6.73-6.74c-0.71-0.7-1.85-0.7-2.56 0h-0.03c-0.71 0.74-0.71 1.89 0 2.59l6.73 6.74c0.7 0.7 0.7 1.85 0 2.55l-6.18 6.18c-0.7 0.71-0.7 1.85 0 2.56h0.04c0.7 0.74 1.85 0.74 2.55 0l6.18-6.18c0.7-0.71 1.85-0.71 2.56 0l6.73 6.73c0.7 0.71 1.85 0.71 2.55 0h0.04c0.7-0.74 0.71-1.89 0.04-2.59l-6.77-6.73c-0.71-0.71-0.71-1.85 0-2.56l7.32-7.29c0.71-0.7 0.71-1.85 0-2.55z"/>
	<path class="s7" d="m648.93-170.99c-0.04 0.41-0.04 0.78-0.04 1.19"/>
	<path class="s5" d="m463.33-382.68c0 0-0.04-0.04-0.04-0.08"/>
	<path class="s5" d="m778.22-382.98c0 0-0.04 0.23-0.08 0.3"/>
	<path class="s8" d="m760.13 343.3l-26.61 33.94h-24.52l145-184.72c6.33 1.84 21.2 2.7 28-6.5l1 1z"/>
	<path class="s9" d="m883 187.02l11.7-15.34c11.54-14.1 1.63-35.41-16.51-35.41h-512.55c-6.29 0-11.62 2.59-16.06 6.55-12.73 11.47-13.51 31.42-2.74 44.78l125.43 155.7 27.35 33.94m383.38-190.22l-122.87 156.28-26.61 33.94h-24.52l145-184.72c6.33 1.84 21.2 2.7 28-6.5z"/>
	<path class="s7" d="m730.78 300.26c0 13.36-9.96 24.13-22.25 24.13-7.66 0-14.36-4.15-18.32-10.48h-127.46c-3.77 7.4-11.06 12.4-19.39 12.4-12.29 0-22.24-10.81-22.24-24.13 0-13.32 9.95-24.17 22.24-24.17 6.81 0 12.92 3.33 16.99 8.59h129.83c3.96-6.33 10.69-10.51 18.35-10.51 12.29 0 22.25 10.84 22.25 24.17z"/>
	<path class="s5" d="m-0.02 93.38v-15.55c0-14.77 12.03-26.76 26.76-26.76h17.02c9.88 0 18.47 5.33 23.06 13.25-16.62 27.43-19.03 54.52-19.25 68.66v142.81c-1.22 0.23-2.51 0.3-3.81 0.3h-17.02q-4.29 0.01-8.18-1.26"/>
	<path class="s5" d="m1199.04 267.28q-3.89 1.26-8.18 1.26h-13.13v-141.6c0-27.72-8.96-53.37-24.13-74.21 4.92-5.66 12.13-9.25 20.24-9.25h17.02c14.73 0 26.76 12.03 26.76 26.76v15.54"/>
	<path fill-rule="evenodd" class="s7" d="m516.63 236.41c-8.96 0-16.21-7.25-16.21-16.22 0-8.98 7.25-16.23 16.21-16.23 8.97 0 16.21 7.25 16.21 16.23 0 8.97-7.24 16.22-16.21 16.22z"/>
	<path fill-rule="evenodd" class="s7" d="m726.89 233.82c-8.97 0-16.23-7.25-16.23-16.21 0-8.97 7.26-16.21 16.23-16.21 8.97 0 16.23 7.24 16.23 16.21 0 8.96-7.26 16.21-16.23 16.21z"/>
	<path fill-rule="evenodd" class="s7" d="m542.83 315.58c-6.76 0-12.22-5.46-12.22-12.21 0-6.76 5.46-12.22 12.22-12.22 6.75 0 12.21 5.46 12.21 12.22 0 6.75-5.46 12.21-12.21 12.21z"/>
	<path fill-rule="evenodd" class="s7" d="m709.17 313.43c-6.75 0-12.21-5.47-12.21-12.23 0-6.76 5.46-12.23 12.21-12.23 6.76 0 12.22 5.47 12.22 12.23 0 6.76-5.46 12.23-12.22 12.23z"/>
	<path class="s5" d="m0.12 234.42c6.55 9.07 12.47 17.84 22.25 23.24 9.8 5.4 16.06 7.14 25.2 0.74"/>
	<path class="s5" d="m1216.47 230.42c-4.14 8.18-11.73 14.54-20.5 17.28-8.74 2.74-10.18 3.26-18.25-1.11"/>
</svg>