<?xml version="1.0" encoding="UTF-8"?>
<svg xmlns="http://www.w3.org/2000/svg" viewBox="0 0 137.92 326.24">
  <defs>
    <style>
      .cls-1 {
        fill: none;
        stroke: #231f20;
        stroke-miterlimit: 10;
      }

      .cls-2 {
        fill: #e9e7e1;
      }

      .cls-3 {
        fill: #c62d27;
      }

      .cls-4 {
        fill: #2b2667;
      }

      .cls-5 {
        fill: #70a7da;
      }
    </style>
  </defs>
  <g transform="translate(137.92 0) scale(-1 1)">
    <polygon class="cls-5" points="136.07 304.5 137.3 308.77 127.3 311.65 127.26 311.51 126.07 307.38 136.07 304.5"/>
    <path class="cls-2" d="M126.99,272.94l9.08,31.56-10,2.88-5.14-17.86c-2.63-9.16-10.99-15.12-20.07-15.12-1.91,0-3.86.26-5.79.82-9.97,2.87-15.73,13.28-12.86,23.26l5.84,20.28-10.55,2.56-8.49-29.5c-3.19-11.09,3.21-22.67,14.3-25.86l20.43-5.88c9.97-2.87,20.38,2.89,23.25,12.86Z"/>
    <polygon class="cls-2" points="100.47 202.19 108.33 205.98 103.37 212.29 113.4 215.8 106.28 222.38 115.28 225.39 109.8 234.57 110.01 235.31 109.96 235.33 90.31 240.98 60.11 249.67 59.89 248.93 51.24 247.34 57.25 239.77 57.85 239.01 56.94 238.69 50.28 236.33 54.37 229.78 54.91 228.92 54.1 228.82 46.05 227.74 51.5 219.81 52.04 219.03 51.21 218.78 42.66 216.24 48.6 209.74 49.16 209.13 48.32 208.77 39.97 205.13 45.41 198.64 45.92 198.02 45.14 197.73 37 194.74 42.33 187.98 42.83 187.36 42.1 187.19 34.75 185.47 39.77 179.11 40.26 178.5 39.54 178.31 32.16 176.41 37.09 169.8 37.54 169.19 36.86 168.99 27.61 166.29 33.8 158.39 34.24 157.82 33.57 157.58 24.87 154.37 30.76 147.84 31.2 147.35 30.56 147.14 22.63 144.54 27.92 137.98 28.33 137.47 27.71 137.28 20.48 135.02 25.47 129.46 25.87 129.01 25.26 128.76 17.53 125.53 22.6 119.52 22.98 119.07 22.39 118.79 14.71 115.24 19.62 109.15 19.97 108.71 19.44 108.55 12.2 106.31 16.75 99.22 17.07 98.73 16.55 98.51 10.13 95.73 14.04 89.81 14.34 89.36 13.86 89.22 15.37 87.3 60.4 72.9 62.92 71.91 71.08 75.73 65.8 81.9 73.73 84.62 68.79 92.26 76.85 94.82 71.65 102.21 79.42 104.41 74.1 110.68 82.69 113.61 76.95 120.56 86.04 123.12 79.97 131.03 90.1 134.66 83.24 142.41 91.66 145.65 85.92 151.73 94.31 154.68 88.48 160.6 97.34 163.73 91.55 171.26 100.39 174.09 94.76 182.39 104.06 184.93 97.62 192.29 107.33 196.46 100.47 202.19"/>
    <polygon class="cls-3" points="113.69 248.29 113.75 248.51 94.1 254.17 94.04 253.95 91.95 246.68 91.3 244.45 110.92 238.69 110.93 238.69 113.69 248.29"/>
    <polygon class="cls-4" points="109.96 235.33 110.93 238.69 110.92 238.69 91.3 244.45 90.42 241.38 90.31 240.98 109.96 235.33"/>
    <polygon class="cls-5" points="94.1 254.17 96.16 261.34 88.37 263.57 86.31 256.41 86.25 256.2 84.15 248.93 91.95 246.68 94.04 253.95 94.1 254.17"/>
    <polygon class="cls-4" points="91.95 246.68 84.15 248.93 83.52 246.74 91.3 244.45 91.95 246.68"/>
    <polygon class="cls-4" points="90.42 241.38 91.3 244.45 83.52 246.74 82.62 243.63 90.42 241.38"/>
    <polygon class="cls-4" points="90.31 240.98 90.42 241.38 82.62 243.63 83.52 246.74 61.72 253.14 61.16 253.3 60.11 249.67 90.31 240.98"/>
    <polygon class="cls-5" points="89.12 322.48 89.16 322.62 78.74 325.62 77.5 321.32 88.05 318.76 89.12 322.48"/>
    <polygon class="cls-3" points="84.15 248.93 86.25 256.2 63.85 262.65 61.16 253.3 61.72 253.14 83.52 246.74 84.15 248.93"/>
    <polygon class="cls-2" points="8.46 70.45 .77 67.55 5.59 60.48 5.38 59.77 4.21 55.7 9.23 6.66 14.17 1 17 10.06 24.99 5.35 26.62 14.27 34.46 8.81 35.74 18.26 44.61 14.98 44.61 25.64 53.41 24.3 51.56 32.48 60.04 36.85 54.82 43.78 62.67 47.05 57.41 52.79 57.11 53.12 57.59 53.39 64.69 57.25 60.22 62.54 67.18 65.67 62.92 71.91 60.4 72.9 15.37 87.3 13.86 89.22 7.75 87.28 11.41 80.69 11.94 79.74 11.07 79.51 4.01 77.56 8.62 71 8.89 70.62 8.46 70.45"/>
  </g>
  <g transform="translate(137.92 0) scale(-1 1)">
    <line class="cls-1" x1="57.59" y1="53.39" x2="57.41" y2="52.79"/>
    <polyline class="cls-1" points="94.1 254.17 113.75 248.51 113.69 248.29 110.93 238.69 109.96 235.33 90.31 240.98 60.11 249.67"/>
    <polyline class="cls-1" points="63.85 262.65 63.91 262.86 86.31 256.41"/>
    <path class="cls-1" d="M127.3,311.65l10-2.88-1.23-4.27-9.08-31.56c-2.87-9.97-13.28-15.73-23.25-12.86l-20.43,5.88c-11.09,3.19-17.49,14.77-14.3,25.86l8.49,29.5,1.24,4.3,10.42-3"/>
    <path class="cls-1" d="M89.12,322.48l-1.07-3.72-5.84-20.28c-2.87-9.98,2.89-20.39,12.86-23.26,1.93-.56,3.88-.82,5.79-.82,9.08,0,17.44,5.96,20.07,15.12l5.14,17.86,1.19,4.13"/>
    <line class="cls-1" x1="56.94" y1="238.69" x2="57.25" y2="239.77"/>
    <line class="cls-1" x1="54.1" y1="228.82" x2="54.37" y2="229.78"/>
    <line class="cls-1" x1="51.21" y1="218.78" x2="51.5" y2="219.81"/>
    <line class="cls-1" x1="48.32" y1="208.77" x2="48.6" y2="209.74"/>
    <line class="cls-1" x1="45.14" y1="197.73" x2="45.41" y2="198.64"/>
    <line class="cls-1" x1="42.1" y1="187.19" x2="42.33" y2="187.98"/>
    <line class="cls-1" x1="39.54" y1="178.31" x2="39.77" y2="179.11"/>
    <line class="cls-1" x1="36.86" y1="168.99" x2="37.09" y2="169.8"/>
    <line class="cls-1" x1="33.57" y1="157.58" x2="33.8" y2="158.39"/>
    <line class="cls-1" x1="30.56" y1="147.14" x2="30.76" y2="147.84"/>
    <line class="cls-1" x1="27.71" y1="137.28" x2="27.92" y2="137.98"/>
    <line class="cls-1" x1="25.26" y1="128.76" x2="25.47" y2="129.46"/>
    <line class="cls-1" x1="22.39" y1="118.79" x2="22.6" y2="119.52"/>
    <line class="cls-1" x1="19.44" y1="108.55" x2="19.62" y2="109.15"/>
    <line class="cls-1" x1="16.55" y1="98.51" x2="16.75" y2="99.22"/>
    <line class="cls-1" x1="13.86" y1="89.22" x2="14.04" y2="89.81"/>
    <line class="cls-1" x1="11.07" y1="79.51" x2="11.41" y2="80.69"/>
    <line class="cls-1" x1="60.77" y1="249.1" x2="59.89" y2="248.93"/>
    <line class="cls-1" x1="104.36" y1="223.36" x2="60.77" y2="236.76"/>
    <polyline class="cls-1" points="86.25 256.2 86.31 256.41 88.37 263.57 96.16 261.34 94.1 254.17 94.04 253.95"/>
    <polyline class="cls-1" points="113.75 248.28 110.01 235.31 109.8 234.57 115.28 225.39 106.28 222.38 113.4 215.8 103.37 212.29 108.33 205.98 100.47 202.19 107.33 196.46 97.62 192.29 104.06 184.93 94.76 182.39 100.39 174.09 91.55 171.26 97.34 163.73 88.48 160.6 94.31 154.68 85.92 151.73 91.66 145.65 83.24 142.41 90.1 134.66 79.97 131.03 86.04 123.12 76.95 120.56 82.69 113.61 74.1 110.68 79.42 104.41 71.65 102.21 76.85 94.82 68.79 92.26 73.73 84.62 65.8 81.9 71.08 75.73 62.92 71.91 67.18 65.67 60.22 62.54 64.69 57.25 57.59 53.39 57.11 53.12 57.41 52.79 62.67 47.05 54.82 43.78 60.04 36.85 51.56 32.48 53.41 24.3 44.61 25.64 44.61 14.98 35.74 18.26 34.46 8.81 26.62 14.27 24.99 5.35 17 10.06 14.17 1 9.23 6.66 4.21 55.7 5.38 59.77 5.59 60.48 .77 67.55 8.46 70.45 8.89 70.62 8.62 71 4.01 77.56 11.07 79.51 11.94 79.74 11.41 80.69 7.75 87.28 13.86 89.22 14.34 89.36 14.04 89.81 10.13 95.73 16.55 98.51 17.07 98.73 16.75 99.22 12.2 106.31 19.44 108.55 19.97 108.71 19.62 109.15 14.71 115.24 22.39 118.79 22.98 119.07 22.6 119.52 17.53 125.53 25.26 128.76 25.87 129.01 25.47 129.46 20.48 135.02 27.71 137.28 28.33 137.47 27.92 137.98 22.63 144.54 30.56 147.14 31.2 147.35 30.76 147.84 24.87 154.37 33.57 157.58 34.24 157.82 33.8 158.39 27.61 166.29 36.86 168.99 37.54 169.19 37.09 169.8 32.16 176.41 39.54 178.31 40.26 178.5 39.77 179.11 34.75 185.47 42.1 187.19 42.83 187.36 42.33 187.98 37 194.74 45.14 197.73 45.92 198.02 45.41 198.64 39.97 205.13 48.32 208.77 49.16 209.13 48.6 209.74 42.66 216.24 51.21 218.78 52.04 219.03 51.5 219.81 46.05 227.74 54.1 228.82 54.91 228.92 54.37 229.78 50.28 236.33 56.94 238.69 57.85 239.01 57.25 239.77 51.24 247.34 59.89 248.93 60.11 249.67 61.16 253.3 63.85 262.65 86.25 256.2 84.15 248.93 83.52 246.74 82.62 243.63 90.42 241.38 91.3 244.45 91.95 246.68 94.04 253.95"/>
    <line class="cls-1" x1="101.49" y1="212.19" x2="58.03" y2="227.74"/>
    <line class="cls-1" x1="100.47" y1="202.19" x2="54.1" y2="217.53"/>
    <line class="cls-1" x1="94.99" y1="193.62" x2="52.97" y2="207.11"/>
    <line class="cls-1" x1="91.97" y1="183.63" x2="49.16" y2="196.17"/>
    <line class="cls-1" x1="89.39" y1="172.26" x2="45.92" y2="185.49"/>
    <line class="cls-1" x1="84.31" y1="162.05" x2="42.83" y2="175.97"/>
    <line class="cls-1" x1="83.61" y1="151.91" x2="39.54" y2="166.46"/>
    <line class="cls-1" x1="79.76" y1="142.73" x2="37.54" y2="155.08"/>
    <line class="cls-1" x1="77.28" y1="131.83" x2="34.24" y2="145.1"/>
    <line class="cls-1" x1="73.98" y1="121.65" x2="31.2" y2="135.35"/>
    <line class="cls-1" x1="70.56" y1="111.67" x2="29.53" y2="125.83"/>
    <line class="cls-1" x1="67.66" y1="102.39" x2="25.87" y2="115.85"/>
    <line class="cls-1" x1="65.51" y1="91.24" x2="22.39" y2="106.1"/>
    <line class="cls-1" x1="63.57" y1="82.19" x2="19.97" y2="96.82"/>
    <line class="cls-1" x1="60.4" y1="72.9" x2="15.37" y2="87.3"/>
    <line class="cls-1" x1="55.76" y1="62.46" x2="19.44" y2="75.23"/>
    <line class="cls-1" x1="52.59" y1="51.78" x2="8.46" y2="70.45"/>
    <line class="cls-1" x1="50.05" y1="35.3" x2="11.07" y2="59.22"/>
    <line class="cls-1" x1="40.9" y1="27.97" x2="11.94" y2="49.69"/>
    <line class="cls-1" x1="31.2" y1="19.51" x2="11.07" y2="42.03"/>
    <line class="cls-1" x1="18.15" y1="14.17" x2="11.94" y2="32.94"/>
    <line class="cls-1" x1="84.15" y1="248.93" x2="91.95" y2="246.68"/>
    <polyline class="cls-1" points="61.72 253.14 83.52 246.74 91.3 244.45 110.92 238.69"/>
    <line class="cls-1" x1="77.5" y1="321.32" x2="88.05" y2="318.76"/>
    <polyline class="cls-1" points="126.07 307.38 136.07 304.5 136.08 304.5"/>
  </g>
</svg>
