<svg width="393" height="20" viewBox="0 0 393 20" fill="none" xmlns="http://www.w3.org/2000/svg">
<path d="M327.151 0H0V5H139.668C140.018 4.95238 140.926 5.02857 141.765 5.71429C142.814 6.57143 156.445 14.4286 157.703 14.8571C158.71 15.2 159.8 15.2857 160.22 15.2857H392.79V12.5714H353.155C347.786 12.5714 345.186 11.3333 344.557 10.7143C342.879 9.42857 338.601 6.17143 334.91 3.42857C331.219 0.685714 328.199 0 327.151 0Z" fill="#D80813"/>
<path d="M135.226 9H0V20H154.558H393V18.7143H157.703C156.026 18.7143 152.35 18.6429 152 18.5C147.037 15.5952 137.836 9.72857 137.5 9.5C137.164 9.27143 135.575 9 135.226 9Z" fill="#D80813"/>
</svg>
