<svg width="1313" height="842" viewBox="0 301 1313 842" fill="none" xmlns="http://www.w3.org/2000/svg">
<path d="M1272.44 302.841H39.9475C18.2691 302.841 0.695312 320.417 0.695312 342.098V1102.53C0.695312 1124.21 18.2691 1141.78 39.9475 1141.78H1272.44C1294.12 1141.78 1311.7 1124.21 1311.7 1102.53V342.098C1311.7 320.417 1294.12 302.841 1272.44 302.841Z" fill="#D80813" stroke="black" stroke-width="1.39" stroke-miterlimit="10"/>
<path d="M995.633 349.173H70.3391C52.6588 349.173 38.3262 363.508 38.3262 381.19V1056.31C38.3262 1073.99 52.6588 1088.33 70.3391 1088.33H995.633C1013.31 1088.33 1027.65 1073.99 1027.65 1056.31V381.19C1027.65 363.508 1013.31 349.173 995.633 349.173Z" fill="#E9E7E0" stroke="black" stroke-width="1.39" stroke-miterlimit="10"/>
<path d="M983.958 408.672H81.8947C64.6584 408.672 50.6855 420.669 50.6855 435.468V1000.51C50.6855 1015.31 64.6584 1027.3 81.8947 1027.3H983.958C1001.19 1027.3 1015.17 1015.31 1015.17 1000.51V435.468C1015.17 420.669 1001.19 408.672 983.958 408.672Z" fill="#2C176C" stroke="black" stroke-width="1.35443" stroke-miterlimit="10"/>
<path d="M1259.49 352.723H1066.78C1058.38 352.723 1051.57 359.532 1051.57 367.932V1076.67C1051.57 1085.07 1058.38 1091.88 1066.78 1091.88H1259.49C1267.89 1091.88 1274.7 1085.07 1274.7 1076.67V367.932C1274.7 359.532 1267.89 352.723 1259.49 352.723Z" fill="#D80813"/>
<path d="M1241.44 683.961H1084.86C1080.29 683.961 1076.58 687.665 1076.58 692.235V957.7C1076.58 962.27 1080.29 965.975 1084.86 965.975H1241.44C1246.01 965.975 1249.71 962.27 1249.71 957.7V692.235C1249.71 687.665 1246.01 683.961 1241.44 683.961Z" fill="#FFDC5E" stroke="black" stroke-width="1.34" stroke-miterlimit="10"/>
<path d="M1225.74 701.426H1100.53C1096.7 701.426 1093.6 704.531 1093.6 708.361V941.598C1093.6 945.428 1096.7 948.532 1100.53 948.532H1225.74C1229.57 948.532 1232.67 945.428 1232.67 941.598V708.361C1232.67 704.531 1229.57 701.426 1225.74 701.426Z" fill="#FFDC5E" stroke="black" stroke-width="1.13" stroke-miterlimit="10"/>
<path d="M1107.61 1049C1116.8 1049 1124.25 1041.55 1124.25 1032.36C1124.25 1023.17 1116.8 1015.72 1107.61 1015.72C1098.42 1015.72 1090.97 1023.17 1090.97 1032.36C1090.97 1041.55 1098.42 1049 1107.61 1049Z" fill="#5CAAE2" stroke="black" stroke-width="1.39" stroke-miterlimit="10"/>
<path d="M1239.51 1049C1248.7 1049 1256.16 1041.55 1256.16 1032.36C1256.16 1023.17 1248.7 1015.72 1239.51 1015.72C1230.32 1015.72 1222.87 1023.17 1222.87 1032.36C1222.87 1041.55 1230.32 1049 1239.51 1049Z" fill="#5CAAE2" stroke="black" stroke-width="1.39" stroke-miterlimit="10"/>
<path d="M1173.56 1061.34C1189.57 1061.34 1202.54 1048.37 1202.54 1032.36C1202.54 1016.35 1189.57 1003.37 1173.56 1003.37C1157.56 1003.37 1144.58 1016.35 1144.58 1032.36C1144.58 1048.37 1157.56 1061.34 1173.56 1061.34Z" fill="#5CAAE2" stroke="black" stroke-width="1.39" stroke-miterlimit="10"/>
<path d="M1173.56 1046.84C1181.56 1046.84 1188.04 1040.36 1188.04 1032.36C1188.04 1024.36 1181.56 1017.88 1173.56 1017.88C1165.56 1017.88 1159.08 1024.36 1159.08 1032.36C1159.08 1040.36 1165.56 1046.84 1173.56 1046.84Z" fill="#5CAAE2" stroke="black" stroke-width="1.39" stroke-miterlimit="10"/>
<path d="M1163.15 485.585C1187.46 485.585 1207.17 465.873 1207.17 441.556C1207.17 417.24 1187.46 397.527 1163.15 397.527C1138.83 397.527 1119.12 417.24 1119.12 441.556C1119.12 465.873 1138.83 485.585 1163.15 485.585Z" fill="#5CAAE2" stroke="black" stroke-width="1.39" stroke-miterlimit="10"/>
<path d="M1163.15 626.909C1195.08 626.909 1220.97 601.019 1220.97 569.082C1220.97 537.145 1195.08 511.255 1163.15 511.255C1131.22 511.255 1105.33 537.145 1105.33 569.082C1105.33 601.019 1131.22 626.909 1163.15 626.909Z" fill="#5CAAE2" stroke="black" stroke-width="1.39" stroke-miterlimit="10"/>
<path d="M1163.15 615.861C1188.98 615.861 1209.92 594.917 1209.92 569.082C1209.92 543.246 1188.98 522.303 1163.15 522.303C1137.32 522.303 1116.38 543.246 1116.38 569.082C1116.38 594.917 1137.32 615.861 1163.15 615.861Z" fill="#5CAAE2" stroke="black" stroke-width="1.13" stroke-miterlimit="10"/>
<path d="M1163.15 470C1178.85 470 1191.59 457.265 1191.59 441.556C1191.59 425.847 1178.85 413.113 1163.15 413.113C1147.44 413.113 1134.71 425.847 1134.71 441.556C1134.71 457.265 1147.44 470 1163.15 470Z" fill="#5CAAE2" stroke="black" stroke-width="1.39" stroke-miterlimit="10"/>
<path d="M1097.43 701.426H1232.68" stroke="black" stroke-width="0.94" stroke-miterlimit="10"/>
<path d="M1097.24 713.18H1232.49" stroke="black" stroke-width="0.94" stroke-miterlimit="10"/>
<path d="M1097.05 724.957H1232.32" stroke="black" stroke-width="0.94" stroke-miterlimit="10"/>
<path d="M1096.89 736.734H1232.13" stroke="black" stroke-width="0.94" stroke-miterlimit="10"/>
<path d="M1096.7 748.487H1231.95" stroke="black" stroke-width="0.94" stroke-miterlimit="10"/>
<path d="M1096.51 760.265H1231.78" stroke="black" stroke-width="0.94" stroke-miterlimit="10"/>
<path d="M1096.35 772.018H1231.59" stroke="black" stroke-width="0.94" stroke-miterlimit="10"/>
<path d="M1096.16 783.795H1231.41" stroke="black" stroke-width="0.94" stroke-miterlimit="10"/>
<path d="M1095.97 795.549H1231.22" stroke="black" stroke-width="0.94" stroke-miterlimit="10"/>
<path d="M1095.79 807.326H1231.05" stroke="black" stroke-width="0.94" stroke-miterlimit="10"/>
<path d="M1095.62 819.103H1230.86" stroke="black" stroke-width="0.94" stroke-miterlimit="10"/>
<path d="M1095.43 830.856H1230.68" stroke="black" stroke-width="0.94" stroke-miterlimit="10"/>
<path d="M1095.24 842.633H1230.49" stroke="black" stroke-width="0.94" stroke-miterlimit="10"/>
<path d="M1095.06 854.387H1230.32" stroke="black" stroke-width="0.94" stroke-miterlimit="10"/>
<path d="M1094.89 866.164H1230.14" stroke="black" stroke-width="0.94" stroke-miterlimit="10"/>
<path d="M1094.71 877.917H1229.95" stroke="black" stroke-width="0.94" stroke-miterlimit="10"/>
<path d="M1094.52 889.694H1229.76" stroke="black" stroke-width="0.94" stroke-miterlimit="10"/>
<path d="M1094.33 901.471H1229.6" stroke="black" stroke-width="0.94" stroke-miterlimit="10"/>
<path d="M1094.16 913.225H1229.41" stroke="black" stroke-width="0.94" stroke-miterlimit="10"/>
<path d="M1093.98 925.002H1229.22" stroke="black" stroke-width="0.94" stroke-miterlimit="10"/>
<path d="M1093.79 936.755H1229.03" stroke="black" stroke-width="0.94" stroke-miterlimit="10"/>
<path d="M1093.6 948.532H1228.87" stroke="black" stroke-width="0.94" stroke-miterlimit="10"/>
</svg>
