<svg width="101" height="148" viewBox="0 0 101 148" fill="none" xmlns="http://www.w3.org/2000/svg">
<g clip-path="url(#clip0_542_7659)">
<path d="M99.4591 114.107L100.212 116.837L62.4011 139.48L62.2739 139.45L62.3991 133.928H62.4011L99.4591 114.107Z" fill="#E9E7DF"/>
<path d="M100.212 116.838L99.4764 124.514L98.6923 125.051L96.997 126.212L94.063 128.221L92.516 129.282L92.0247 129.618L71.4479 143.71L69.5599 145.002L65.7069 147.64V147.642L64.474 148.486L62.2739 139.45L62.4011 139.481L100.212 116.838Z" fill="#E9E7DF"/>
<path d="M98.4513 110.452C99.4493 110.811 100.023 111.927 99.7652 113.016L99.4589 114.108L62.4009 133.929L62.7958 130.564H62.7977L98.4109 110.305L98.4263 110.442C98.434 110.444 98.4436 110.448 98.4513 110.452Z" fill="#E9E7DF"/>
<path d="M98.6939 125.054C98.8846 125.37 98.9636 125.747 98.9193 126.117L98.6881 128.04C98.6342 128.483 98.3818 128.87 98.0119 129.079L94.5982 131.002L94.5731 130.996C94.5731 130.996 94.5827 130.99 94.577 130.985L92.5291 129.304L92.5156 129.282L94.0626 128.221L94.7773 128.796C95.0759 129.036 95.4786 129.069 95.808 128.878L96.28 128.606C96.6017 128.419 96.8156 128.077 96.8541 127.69L96.9966 126.212L98.692 125.05V125.054H98.6939Z" fill="#E9E7DF"/>
<path d="M98.4106 110.307L98.4513 110.453C98.4513 110.453 98.4339 110.444 98.4261 110.442L98.4106 110.307Z" fill="#E9E7DF"/>
<path d="M97.5132 107.05L98.411 110.305L62.7978 130.564H62.7959L63.3642 125.751L97.5132 107.05Z" fill="#E9E7DF"/>
<path d="M96.8467 104.435C97.8542 104.435 98.4438 105.641 97.8658 106.518L97.5133 107.05L63.3643 125.751L63.7707 122.296L96.7985 104.462L96.8467 104.435Z" fill="#E9E7DF"/>
<path d="M96.997 126.212L96.8545 127.691C96.8159 128.078 96.6021 128.42 96.2804 128.606L95.8084 128.878C95.479 129.069 95.0763 129.036 94.7777 128.797L94.063 128.221L96.997 126.212Z" fill="#E9E7DF"/>
<path d="M96.8466 46.7314V87.3766L89.3506 80.1246L92.1382 46.3177L95.7677 43.8765L96.8466 46.7314Z" fill="#E9E7DF"/>
<path d="M96.8462 87.3771L91.4558 90.5392L88.6855 92.1654L76.0054 99.6038V87.3771L82.7712 83.7009L89.3502 80.125L96.8462 87.3771Z" fill="#E9E7DF"/>
<path d="M96.4014 103.018L96.7983 104.462L63.7705 122.296L64.2213 118.475L64.2695 118.485L96.4014 103.018Z" fill="#E9E7DF"/>
<path d="M95.6755 100.38C96.6349 100.822 96.9855 102.08 96.4095 103.008L96.4018 103.018L64.2698 118.484L64.2217 118.474L64.7592 113.921L95.6736 100.38H95.6755Z" fill="#E9E7DF"/>
<path d="M95.7677 43.8771L92.1382 46.3183L82.4306 45.0854L78.7856 44.6226L82.4055 42.2796V42.2202L95.7677 43.8771Z" fill="#E9E7DF"/>
<path d="M94.0338 94.4344L95.6732 100.38L64.7588 113.921L65.6103 106.696L67.2016 100.777L73.3278 98.3216L76.0056 99.6037L88.6858 92.1652L92.1381 90.7808L94.0338 94.4344ZM72.4937 106.44C72.536 106.342 72.4956 106.225 72.4031 106.18L71.5131 105.74C71.4206 105.695 71.3801 105.578 71.4245 105.479L71.8714 104.455C71.9138 104.357 71.8733 104.24 71.7809 104.195L71.7731 104.191C71.6807 104.144 71.5709 104.187 71.5285 104.285L71.0815 105.309C71.0372 105.408 70.9274 105.451 70.8369 105.406L69.9449 104.965C69.8524 104.92 69.7445 104.963 69.7002 105.062L69.6964 105.07C69.654 105.168 69.6945 105.285 69.7869 105.33L70.677 105.77C70.7694 105.815 70.8099 105.932 70.7656 106.03L70.388 106.899C70.3437 106.997 70.3841 107.114 70.4766 107.159L70.4863 107.163C70.5768 107.208 70.6866 107.165 70.7309 107.069L71.1085 106.2C71.1528 106.102 71.2626 106.059 71.3532 106.104L72.2451 106.544C72.3376 106.59 72.4455 106.547 72.4898 106.448L72.4937 106.44Z" fill="#E9E7DF"/>
<path d="M94.577 130.986C94.577 130.986 94.579 130.996 94.5732 130.996L93.531 130.754C93.3576 130.713 93.1977 130.629 93.059 130.511L92.0264 129.618L92.5176 129.282L92.5311 129.304L94.579 130.986H94.577Z" fill="#E9E7DF"/>
<path d="M92.1384 46.3178L89.3508 80.1247L82.714 77.1632L77.7456 74.9452V73.3334L78.0307 64.873L78.7108 44.6692L78.784 44.6221H78.7859L82.4308 45.0849L92.1384 46.3178Z" fill="#E9E7DF"/>
<path d="M92.1383 90.7807L88.686 92.1652L91.4563 90.5391L92.1383 90.7807Z" fill="#E9E7DF"/>
<path d="M89.3504 80.1248L82.7714 83.7006L76.0056 87.3769L66.1997 81.966L77.7452 74.9719V74.9453L82.7136 77.1633L89.3504 80.1248Z" fill="#E9E7DF"/>
<path d="M85.6188 6.00695V15.7617C85.6188 17.1134 84.5785 18.2194 83.3071 18.2194H80.9433C81.2457 17.8323 81.5135 17.4124 81.7427 16.968H83.257C84.1123 16.968 84.8116 16.2246 84.8116 15.3153V6.45342C84.8116 5.54615 84.1123 4.80066 83.257 4.80066H79.9376C79.7739 4.80066 79.614 4.82729 79.4656 4.87849C79.3115 4.49551 79.1304 4.12686 78.9224 3.77665C79.2171 3.63124 79.5427 3.54932 79.8875 3.54932H83.3071C84.5785 3.54932 85.6188 4.65525 85.6188 6.00695Z" fill="#E9E7DF"/>
<path d="M84.8118 6.45305V15.3149C84.8118 16.2242 84.1125 16.9676 83.2572 16.9676H81.7429C82.3633 15.7716 82.7004 14.3953 82.6638 12.9392L82.633 11.7923C82.5713 9.33054 81.4482 7.15348 79.7452 5.74239L79.7548 5.7301C79.6739 5.43928 79.5776 5.1546 79.4658 4.87812C79.6142 4.82692 79.7741 4.80029 79.9378 4.80029H83.2572C84.1125 4.80029 84.8118 5.54578 84.8118 6.45305Z" fill="#E9E7DF"/>
<path d="M44.9876 7.71034C46.3188 5.96951 48.3262 4.82876 50.5879 4.76322L74.9465 4.05665C76.0138 4.02593 77.0367 4.23688 77.9672 4.64239C78.3121 4.7919 78.6434 4.96803 78.9613 5.17078C79.2349 5.34282 79.4969 5.53328 79.7454 5.74218C81.4484 7.15328 82.5715 9.33033 82.6332 11.7921L82.664 12.939C82.7006 14.3951 82.3635 15.7714 81.7432 16.9674C81.5139 17.4119 81.2461 17.8317 80.9437 18.2188C80.4486 18.8537 79.8648 19.4066 79.2098 19.8531V19.8552C78.1021 20.6129 76.794 21.0696 75.3877 21.1106L51.0291 21.8192C46.9141 21.938 43.4541 18.4564 43.3424 14.0818L43.3135 12.9349C43.2615 10.9647 43.8992 9.13577 44.9895 7.71034H44.9876ZM78.8939 16.5374C79.4314 15.5994 79.7396 14.5057 79.7396 13.3383C79.7396 11.8433 79.2329 10.469 78.3834 9.38563C78.1406 9.07638 77.8709 8.78965 77.5762 8.53365C76.4992 7.58746 75.1006 7.0181 73.5691 7.0181C72.0375 7.0181 70.7564 7.54035 69.6987 8.41486C70.7159 7.4912 72.0259 6.93209 73.4554 6.93209C73.4881 6.93209 73.5228 6.93209 73.5556 6.93414C72.9641 6.71295 72.3303 6.59621 71.6695 6.59621C68.433 6.59621 65.8111 9.45117 65.8111 12.9738C65.8111 16.4964 68.3791 19.2899 71.5694 19.3452C71.29 19.2428 71.0184 19.1158 70.7602 18.9684C71.6021 19.4107 72.5576 19.6606 73.5691 19.6606C75.432 19.6606 77.1042 18.8148 78.235 17.4754C78.4816 17.1845 78.7012 16.8712 78.8939 16.5374ZM61.3705 14.1473C61.3705 10.6575 58.6079 7.82708 55.2 7.82708C53.7204 7.82708 52.3622 8.36161 51.2988 9.25251C52.3218 8.30836 53.6414 7.74106 55.0863 7.74106C55.119 7.74106 55.1537 7.74106 55.1865 7.74311C54.595 7.52192 53.9612 7.40313 53.3004 7.40313C50.0639 7.40313 47.442 10.2601 47.442 13.7807C47.442 17.3013 50.01 20.0968 53.2003 20.1542C52.9209 20.0497 52.6493 19.9248 52.3911 19.7773C53.2349 20.2177 54.1885 20.4675 55.2 20.4675C58.6079 20.4675 61.3705 17.6392 61.3705 14.1473Z" fill="#E9E7DF"/>
<path d="M82.4055 42.2202V42.2796L78.7856 44.6226H78.7837L78.7104 44.6123L82.4055 42.2202Z" fill="#E9E7DF"/>
<path d="M82.3959 41.2959L82.4055 42.2196L78.7105 44.6117L78.0304 64.8728L77.7453 73.3332V74.945L66.1844 81.9575V86.029C66.1131 86.0269 66.0419 86.0249 65.9706 86.0249C65.5448 86.0249 65.1306 86.0761 64.7299 86.1744V48.9289L64.6548 48.7241L82.3959 41.2959ZM78.4292 50.3318L77.5989 48.9289L76.3968 50.256L75.3295 49.0252L74.3739 50.1803L73.8904 64.7151L74.7862 66.0423L75.9883 64.8687L77.0749 66.0423L77.9457 64.8687L78.4292 50.3318Z" fill="#E9E7DF"/>
<path d="M82.3961 41.2348V41.2962L64.655 48.7244L58.2783 51.3951V51.3439L62.9963 34.931L68.9183 34.7999V34.7917L70.1128 33.1123L70.918 33.5117L73.2857 34.6831L75.2237 35.6416L77.6685 36.852L81.1689 38.5846L82.3961 41.2348ZM80.1344 40.5815C80.1344 39.7438 79.4967 39.0659 78.7107 39.0659C77.9247 39.0659 77.287 39.7438 77.287 40.5815C77.287 41.4191 77.9247 42.095 78.7107 42.095C79.4967 42.095 80.1344 41.4171 80.1344 40.5815ZM75.3201 42.7483C75.3201 41.9127 74.6824 41.2348 73.8964 41.2348C73.1104 41.2348 72.4708 41.9127 72.4708 42.7483C72.4708 43.5839 73.1085 44.2618 73.8964 44.2618C74.6843 44.2618 75.3201 43.5839 75.3201 42.7483ZM69.897 44.612C69.897 43.7764 69.2593 43.0985 68.4733 43.0985C67.6873 43.0985 67.0496 43.7764 67.0496 44.612C67.0496 45.4476 67.6873 46.1255 68.4733 46.1255C69.2593 46.1255 69.897 45.4476 69.897 44.612ZM64.7301 47.1352C64.7301 46.2996 64.0925 45.6217 63.3065 45.6217C62.5205 45.6217 61.8809 46.2996 61.8809 47.1352C61.8809 47.9708 62.5185 48.6487 63.3065 48.6487C64.0944 48.6487 64.7301 47.9708 64.7301 47.1352Z" fill="#E9E7DF"/>
<path d="M78.7103 39.0659C79.4963 39.0659 80.134 39.7438 80.134 40.5815C80.134 41.4191 79.4963 42.095 78.7103 42.095C77.9243 42.095 77.2866 41.4171 77.2866 40.5815C77.2866 39.7459 77.9243 39.0659 78.7103 39.0659ZM79.7525 40.4606C79.7911 39.9978 79.4655 39.5882 79.0282 39.5493C78.5928 39.5103 78.2075 39.8544 78.1709 40.3193C78.1343 40.7842 78.4579 41.1918 78.8952 41.2307C79.3326 41.2716 79.7159 40.9255 79.7525 40.4606Z" fill="#E9E7DF"/>
<path d="M79.0286 39.5494C79.4659 39.5883 79.7915 39.9979 79.7529 40.4608C79.7163 40.9257 79.333 41.2718 78.8956 41.2308C78.4583 41.1919 78.1347 40.7843 78.1713 40.3194C78.2079 39.8545 78.5932 39.5105 79.0286 39.5494Z" fill="#E9E7DF"/>
<path d="M79.755 5.73032L79.7454 5.74261C79.4969 5.53371 79.2349 5.34324 78.9613 5.17121C78.6434 4.96845 78.3121 4.79232 77.9672 4.64281C77.0367 4.2373 76.0138 4.02636 74.9465 4.05708L50.5879 4.76365C48.3262 4.82919 46.3188 5.96994 44.9876 7.71076L39.9248 3.88709C41.2367 2.08687 43.2538 0.903111 45.5309 0.835526L72.4748 0.0531779C75.1661 -0.0246473 77.5742 1.47861 78.9228 3.7765C79.1308 4.12671 79.3119 4.49536 79.4661 4.87834C79.5778 5.15482 79.6741 5.4395 79.755 5.73032Z" fill="#E9E7DF"/>
<path d="M79.7394 13.3388C79.7394 14.5062 79.4311 15.5998 78.8936 16.5378C78.701 16.8716 78.4814 17.185 78.2348 17.4758C77.1039 18.8152 75.4317 19.661 73.5688 19.661C72.5574 19.661 71.6019 19.4112 70.76 18.9688L70.7137 18.9442C68.8585 17.8752 67.5967 15.7514 67.5967 13.3101C67.5967 11.344 68.4135 9.58678 69.6985 8.41531C70.7561 7.5408 72.1027 7.01855 73.5688 7.01855C75.0349 7.01855 76.499 7.58791 77.5759 8.5341C77.8707 8.7901 78.1404 9.07683 78.3831 9.38608C79.2327 10.4695 79.7394 11.8437 79.7394 13.3388ZM78.6008 13.3654C78.6008 12.8432 78.5257 12.3393 78.3831 11.8642C78.2097 11.2723 77.9323 10.7255 77.5759 10.2442C76.6531 9.00105 75.1967 8.19822 73.5553 8.19822C70.7677 8.19822 68.5098 10.5125 68.5098 13.3654C68.5098 16.2183 70.7677 18.5346 73.5553 18.5346C75.2429 18.5346 76.736 17.6847 77.651 16.3821C77.9728 15.9275 78.2213 15.4175 78.3831 14.8687C78.5257 14.3935 78.6008 13.8876 78.6008 13.3654Z" fill="#E9E7DF"/>
<path d="M78.784 44.6221L78.7108 44.6692L78.0308 64.873L78.7108 44.6118L78.784 44.6221Z" fill="#E9E7DF"/>
<path d="M78.383 11.8637C78.5256 12.3389 78.6007 12.8427 78.6007 13.3649C78.6007 13.8872 78.5256 14.393 78.383 14.8682C78.2212 15.4171 77.9727 15.927 77.651 16.3817C76.7359 17.6842 75.2429 18.5342 73.5552 18.5342C70.7676 18.5342 68.5098 16.2199 68.5098 13.3649C68.5098 10.51 70.7676 8.19775 73.5552 8.19775C75.1966 8.19775 76.653 9.00058 77.5758 10.2437C77.9322 10.725 78.2097 11.2718 78.383 11.8637ZM76.653 10.9565C76.8399 10.7578 76.8399 10.4383 76.653 10.2417L76.6376 10.2233C76.4508 10.0266 76.1502 10.0266 75.9653 10.2233L74.0292 12.2815C73.8442 12.4781 73.5437 12.4781 73.3587 12.2815L71.571 10.381C71.386 10.1823 71.0836 10.1823 70.8986 10.381L70.8813 10.3973C70.6963 10.596 70.6963 10.9155 70.8813 11.1121L72.6691 13.0127C72.8559 13.2093 72.8559 13.5288 72.6691 13.7274L71.0296 15.4703C70.8447 15.6669 70.8447 15.9864 71.0296 16.1851L71.047 16.2015C71.2319 16.4001 71.5324 16.4001 71.7174 16.2015L73.3587 14.4586C73.5437 14.262 73.8442 14.262 74.0292 14.4586L75.8169 16.3592C76.0038 16.5558 76.3044 16.5558 76.4893 16.3592L76.5066 16.3407C76.6916 16.1441 76.6916 15.8246 76.5066 15.628L74.7189 13.7274C74.532 13.5288 74.532 13.2093 74.7189 13.0127L76.653 10.9565Z" fill="#E9E7DF"/>
<path d="M77.5991 48.9292L78.4294 50.3321L77.9459 64.869L77.0751 66.0425L75.9886 64.869L74.7864 66.0425L73.8906 64.7154L74.3742 50.1805L75.3297 49.0255L76.397 50.2563L77.5991 48.9292Z" fill="#E9E7DF"/>
<path d="M77.7455 74.9453V74.9719L66.2 81.966L66.1846 81.9578L77.7455 74.9453Z" fill="#E9E7DF"/>
<path d="M77.678 36.6844C77.678 36.7417 77.6741 36.797 77.6684 36.8523L75.2236 35.6419C75.4837 35.3511 75.8497 35.1709 76.2543 35.1709C77.0403 35.1709 77.678 35.8488 77.678 36.6844Z" fill="#E9E7DF"/>
<path d="M68.6965 23.4495L53.5601 23.941L46.2317 24.154C43.6232 24.2298 42.5406 21.4527 40.7181 19.6443C41.0109 19.2326 41.1843 18.7206 41.1843 18.1676V8.41491C41.1843 7.06321 40.144 5.95728 38.8725 5.95728H38.834C39.0998 5.2077 39.4697 4.50932 39.9244 3.88672L44.9872 7.71039C43.8968 9.13582 43.2591 10.9647 43.3112 12.9349L43.34 14.0818C43.4518 18.4564 46.9118 21.9381 51.0268 21.8193L75.3853 21.1107C76.7917 21.0697 78.0997 20.613 79.2075 19.8552C77.9283 21.9032 75.7167 23.2959 73.1814 23.3696L68.9181 23.4946V23.4413L68.6965 23.4495Z" fill="#E9E7DF"/>
<path d="M76.6532 10.2421C76.84 10.4387 76.84 10.7582 76.6532 10.9568L74.719 13.013C74.5321 13.2097 74.5321 13.5292 74.719 13.7278L76.5067 15.6284C76.6917 15.825 76.6917 16.1445 76.5067 16.3411L76.4894 16.3595C76.3045 16.5561 76.0039 16.5561 75.8171 16.3595L74.0293 14.459C73.8443 14.2623 73.5438 14.2623 73.3589 14.459L71.7175 16.2018C71.5325 16.4005 71.232 16.4005 71.0471 16.2018L71.0297 16.1854C70.8448 15.9868 70.8448 15.6673 71.0297 15.4707L72.6692 13.7278C72.856 13.5292 72.856 13.2097 72.6692 13.013L70.8814 11.1125C70.6964 10.9159 70.6964 10.5964 70.8814 10.3977L70.8987 10.3813C71.0837 10.1827 71.3861 10.1827 71.5711 10.3813L73.3589 12.2819C73.5438 12.4785 73.8443 12.4785 74.0293 12.2819L75.9654 10.2236C76.1503 10.027 76.4509 10.027 76.6377 10.2236L76.6532 10.2421Z" fill="#E9E7DF"/>
<path d="M76.0058 87.3767V99.6035L73.328 98.3214L70.7484 97.0844C71.0644 96.5908 71.3264 96.046 71.5229 95.4644C73.1932 95.1859 74.4839 93.2853 74.4839 90.9833C74.4839 90.8031 74.4762 90.6249 74.4608 90.4508C74.2624 88.2062 72.8329 86.4674 71.0952 86.4674C70.4229 86.4674 69.7967 86.7295 69.2689 87.1822C68.3808 86.494 67.3231 86.0762 66.1846 86.0291V81.9761L66.2 81.9658L76.0058 87.3767Z" fill="#E9E7DF"/>
<path d="M73.8963 41.2344C74.6823 41.2344 75.32 41.9123 75.32 42.7479C75.32 43.5835 74.6823 44.2614 73.8963 44.2614C73.1103 44.2614 72.4707 43.5835 72.4707 42.7479C72.4707 41.9123 73.1084 41.2344 73.8963 41.2344ZM74.9 42.5799C74.9366 42.115 74.613 41.7054 74.1756 41.6665C73.7383 41.6276 73.355 41.9717 73.3184 42.4366C73.2818 42.9015 73.6054 43.309 74.0427 43.3479C74.48 43.3889 74.8634 43.0428 74.9 42.5799Z" fill="#E9E7DF"/>
<path d="M74.1755 41.6671C74.6129 41.706 74.9365 42.1156 74.8999 42.5805C74.8633 43.0433 74.4799 43.3895 74.0426 43.3485C73.6053 43.3096 73.2816 42.902 73.3183 42.4371C73.3549 41.9722 73.7382 41.6282 74.1755 41.6671Z" fill="#E9E7DF"/>
<path d="M74.4608 90.4512C74.4763 90.6253 74.484 90.8034 74.484 90.9837C74.484 93.2856 73.1932 95.1862 71.5229 95.4648C71.785 94.6845 71.9294 93.8345 71.9294 92.9457C71.9294 92.5975 71.9063 92.2555 71.8639 91.9196L74.4608 90.4512Z" fill="#E9E7DF"/>
<path d="M74.4609 90.4512L71.864 91.9196C71.6117 89.9453 70.6407 88.2434 69.269 87.1825C69.7969 86.7299 70.423 86.4678 71.0954 86.4678C72.8331 86.4678 74.2625 88.2065 74.4609 90.4512Z" fill="#E9E7DF"/>
<path d="M73.555 6.93461C73.5223 6.93256 73.4876 6.93256 73.4549 6.93256C72.0254 6.93256 70.7154 7.49167 69.6982 8.41533C68.4132 9.5868 67.5964 11.344 67.5964 13.3101C67.5964 15.7514 68.8583 17.8752 70.7135 18.9443L70.7597 18.9688C71.0179 19.1163 71.2895 19.2433 71.5688 19.3457C68.3786 19.2904 65.8105 16.4559 65.8105 12.9742C65.8105 9.4926 68.4325 6.59668 71.669 6.59668C72.3298 6.59668 72.9636 6.71342 73.555 6.93461Z" fill="#E9E7DF"/>
<path d="M65.6108 106.696L65.58 106.811L18.6353 97.8793L22.8735 93.1504L30.2501 89.8633H30.3368V95.4339L58.2786 99.6037L61.6423 97.7031C62.7307 99.0344 64.2661 99.8659 65.9711 99.8659C67.9265 99.8659 69.6603 98.7722 70.7488 97.0846L73.3284 98.3216L67.2021 100.777L65.6108 106.696Z" fill="#E9E7DF"/>
<path d="M72.305 33.2004C72.9196 33.4134 73.3049 34.0299 73.2856 34.6832L70.918 33.5117C71.284 33.1636 71.8061 33.0284 72.305 33.2004Z" fill="#E9E7DF"/>
<path d="M72.3457 145.191C72.6058 145.619 72.7136 146.133 72.6539 146.641L72.4863 148.022C72.4208 148.57 72.0952 149.044 71.6252 149.279L65.0115 152.982C65.131 152.785 64.8227 152.228 64.6127 151.851L63.4626 149.762C63.2873 149.447 63.2815 149.058 63.4453 148.734L63.6688 148.298L64.474 148.486L65.707 147.643V148.251C65.707 148.708 65.8862 149.142 66.2002 149.451L66.8629 150.102C67.1885 150.422 67.6682 150.489 68.0592 150.268L70.136 149.099C70.6793 148.792 71.0357 148.21 71.0781 147.557L71.1127 147.004C71.1493 146.426 70.8815 145.873 70.4173 145.568L69.56 145.003L71.4479 143.71L72.3457 145.191Z" fill="#E9E7DF"/>
<path d="M72.4032 106.18C72.4957 106.225 72.5362 106.341 72.4938 106.44L72.4899 106.448C72.4456 106.546 72.3377 106.589 72.2453 106.544L71.3533 106.104C71.2627 106.059 71.1529 106.102 71.1086 106.2L70.731 107.068C70.6867 107.165 70.5769 107.208 70.4864 107.163L70.4767 107.159C70.3843 107.114 70.3438 106.997 70.3881 106.899L70.7657 106.03C70.81 105.932 70.7696 105.815 70.6771 105.77L69.7871 105.33C69.6946 105.285 69.6541 105.168 69.6965 105.07L69.7004 105.061C69.7447 104.963 69.8526 104.92 69.945 104.965L70.837 105.405C70.9275 105.451 71.0373 105.408 71.0817 105.309L71.5286 104.285C71.571 104.187 71.6808 104.144 71.7733 104.191L71.781 104.195C71.8734 104.24 71.9139 104.357 71.8715 104.455L71.4246 105.479C71.3803 105.578 71.4207 105.694 71.5132 105.739L72.4032 106.18Z" fill="#E9E7DF"/>
<path d="M71.8637 91.9194C71.9061 92.2553 71.9292 92.5973 71.9292 92.9455C71.9292 93.8343 71.7847 94.6843 71.5227 95.4646C71.3262 96.0462 71.0642 96.591 70.7482 97.0846C69.6598 98.7721 67.9259 99.8658 65.9705 99.8658C64.2656 99.8658 62.7302 99.0343 61.6417 97.7031L60.6053 95.6407L63.6164 95.7431H63.6222C63.7936 95.9336 64.0171 96.0913 64.2695 96.2142C64.7125 96.4353 65.2404 96.5521 65.6893 96.5521C66.4502 96.5521 67.1341 96.1793 67.6119 95.5813C67.9645 95.141 68.2053 94.5757 68.2766 93.949C68.292 93.8302 68.2997 93.7094 68.3016 93.5845V93.5476C68.3016 92.8677 68.1051 92.2389 67.7737 91.7351C67.6909 91.6061 67.5984 91.4893 67.4983 91.3788C67.4751 91.3521 67.4501 91.3255 67.425 91.3009C67.3865 91.262 67.348 91.2231 67.3075 91.1883C67.2748 91.1576 67.242 91.1289 67.2093 91.1023C67.1708 91.0695 67.1303 91.0388 67.0898 91.0101C67.0513 90.9814 67.0128 90.9548 66.9762 90.9302C66.901 90.8811 66.824 90.8381 66.745 90.7971C66.7142 90.7807 66.6833 90.7664 66.6506 90.7521C66.6333 90.7439 66.614 90.7357 66.5947 90.7275C66.5678 90.7152 66.5389 90.7029 66.508 90.6927C66.4811 90.6824 66.4522 90.6722 66.4233 90.6619C66.404 90.6558 66.3828 90.6497 66.3636 90.6435C66.3443 90.6374 66.3231 90.6312 66.3038 90.6251C66.2634 90.6148 66.2248 90.6046 66.1844 90.5964C66.0245 90.5595 65.8588 90.5411 65.6893 90.5411C65.381 90.5411 65.0959 90.6026 64.8339 90.7152C64.8301 90.7152 64.8281 90.7193 64.8243 90.7193C64.7915 90.7336 64.7607 90.748 64.7299 90.7643V90.7705C64.7048 90.7848 64.6817 90.7992 64.6567 90.8155C63.9882 91.178 63.5104 91.8908 63.3101 92.7612C63.3043 92.7837 63.3004 92.8062 63.2966 92.8288C63.2869 92.8677 63.2792 92.9066 63.2715 92.9455L63.1328 92.925L60.0254 92.497C60.0369 92.2737 60.0581 92.0546 60.089 91.8375C60.1025 91.7392 60.1179 91.6409 60.1352 91.5446C60.1699 91.3521 60.2123 91.1617 60.2585 90.9753C60.2816 90.8831 60.3067 90.791 60.3356 90.6988C60.376 90.5616 60.4223 90.4244 60.4685 90.2912C60.8056 89.3573 61.3123 88.5279 61.9442 87.8541C62.4142 87.3564 62.9537 86.9427 63.5432 86.6376H63.5451C63.8726 86.4676 64.2829 86.314 64.6548 86.2095C64.6798 86.2013 64.7048 86.1952 64.7299 86.189C64.7414 86.187 64.7549 86.1829 64.7665 86.1808C65.1556 86.0887 65.5583 86.0395 65.9705 86.0395C66.0418 86.0395 66.1131 86.0395 66.1844 86.0436V86.0293C67.3229 86.0764 68.3806 86.4942 69.2687 87.1823C70.6404 88.2432 71.6113 89.9451 71.8637 91.9194Z" fill="#E9E7DF"/>
<path d="M70.4168 145.567C70.8811 145.872 71.1489 146.425 71.1123 147.003L71.0776 147.556C71.0352 148.209 70.6788 148.791 70.1355 149.098L68.0588 150.267C67.6677 150.489 67.188 150.421 66.8624 150.102L66.1997 149.45C65.8857 149.141 65.7065 148.707 65.7065 148.25V147.642L69.5595 145.002L70.4168 145.567Z" fill="#E9E7DF"/>
<path d="M47.4418 24.2113V24.1397L53.5604 23.941L68.8298 23.4966L68.9184 23.5293L69.7333 23.8263L68.9184 24.7561L68.6949 25.0121L68.9184 25.1985L69.8951 26.0157L68.9184 27.0028L68.6949 27.2281L68.9184 27.4411L70.1128 28.5737L68.9184 29.485L68.6949 29.655L68.9184 29.8762L70.0049 30.9494L68.9184 31.9816L68.8105 32.084L68.9184 32.17L70.1128 33.1121L68.9184 34.7915V34.7997L62.9963 34.9307L47.5786 35.2728L47.4418 35.1376L46.2725 33.8944L47.4418 32.8848L47.4727 32.8581L47.4418 32.8254L46.3726 31.7153L47.4418 30.5602L47.5786 30.4128L47.4418 30.2981L46.2725 29.3212L47.4418 28.1067L47.5786 27.9654L47.4418 27.8138L46.4728 26.7427L47.4418 25.858L47.5786 25.733L47.4418 25.561L46.6231 24.537L47.4418 24.2113Z" fill="#E9E7DF"/>
<path d="M68.473 43.0986C69.259 43.0986 69.8967 43.7765 69.8967 44.6121C69.8967 45.4477 69.259 46.1256 68.473 46.1256C67.687 46.1256 67.0493 45.4477 67.0493 44.6121C67.0493 43.7765 67.687 43.0986 68.473 43.0986ZM69.4902 44.4811C69.5268 44.0162 69.2012 43.6086 68.7658 43.5676C68.3285 43.5287 67.9432 43.8748 67.9066 44.3377C67.87 44.8026 68.1937 45.2122 68.631 45.2511C69.0683 45.29 69.4516 44.946 69.4902 44.4811Z" fill="#E9E7DF"/>
<path d="M68.7663 43.5674C69.2017 43.6084 69.5273 44.016 69.4907 44.4809C69.4522 44.9458 69.0688 45.2898 68.6315 45.2509C68.1942 45.212 67.8705 44.8024 67.9071 44.3375C67.9437 43.8746 68.329 43.5285 68.7663 43.5674Z" fill="#E9E7DF"/>
<path d="M68.9184 31.9819V32.1704L68.8105 32.0843L68.9184 31.9819Z" fill="#E9E7DF"/>
<path d="M68.919 23.4946V23.529L68.8296 23.4967L68.919 23.4946Z" fill="#E9E7DF"/>
<path d="M68.9183 23.4414V23.4937L68.8297 23.4957L68.6968 23.4495L68.9183 23.4414Z" fill="#E9E7DF"/>
<path d="M68.8294 23.4968L53.5601 23.9412L68.6965 23.4497L68.8294 23.4968Z" fill="#E9E7DF"/>
<path d="M68.3015 93.5477V93.5845C68.2996 93.7095 68.2919 93.8303 68.2765 93.9491C68.2052 94.5758 67.9644 95.141 67.6118 95.5814C67.1341 96.1794 66.4502 96.5521 65.6892 96.5521C65.2403 96.5521 64.7125 96.4354 64.2694 96.2142L63.6221 95.7432H65.0034C65.0419 95.7432 65.0804 95.7411 65.119 95.7391L65.1267 95.735H65.1305C65.4715 95.7145 65.8009 95.6039 66.0938 95.4155C66.2498 95.3151 66.3904 95.1943 66.5137 95.055C66.585 94.9772 66.6505 94.8932 66.7102 94.8052C66.874 94.5614 66.9896 94.2829 67.0512 93.9859L67.1533 93.4883C67.2651 92.9517 67.1842 92.3905 66.9299 91.9133L66.3269 90.7808L66.3635 90.6436C66.3827 90.6497 66.4039 90.6558 66.4232 90.662C66.4521 90.6722 66.481 90.6825 66.508 90.6927C66.5388 90.7029 66.5677 90.7152 66.5946 90.7275C66.6139 90.7357 66.6332 90.7439 66.6505 90.7521C66.6833 90.7664 66.7141 90.7808 66.7449 90.7972C66.8239 90.8381 66.901 90.8811 66.9761 90.9303C67.0127 90.9549 67.0512 90.9815 67.0898 91.0102C67.1302 91.0388 67.1707 91.0695 67.2092 91.1023C67.2419 91.1289 67.2747 91.1576 67.3075 91.1883C67.3479 91.2231 67.3864 91.2621 67.425 91.301C67.45 91.3255 67.4751 91.3522 67.4982 91.3788C67.5983 91.4894 67.6908 91.6061 67.7737 91.7331C68.105 92.239 68.3015 92.8677 68.3015 93.5477Z" fill="#E9E7DF"/>
<path d="M66.9301 91.9136C67.1844 92.3908 67.2653 92.9519 67.1536 93.4885L67.0515 93.9862C66.9898 94.2831 66.8743 94.5617 66.7105 94.8054C66.6508 94.8935 66.5853 94.9774 66.514 95.0552L66.41 95.0061L66.1846 94.8975V90.5967C66.225 90.6049 66.2636 90.6151 66.304 90.6254C66.3233 90.6315 66.3445 90.6376 66.3637 90.6438L66.3271 90.781L66.9301 91.9136Z" fill="#E9E7DF"/>
<path d="M66.4101 95.006L66.5141 95.0552C66.3908 95.1944 66.2502 95.3153 66.0941 95.4156C65.8013 95.604 65.4718 95.7146 65.1309 95.7351L66.4101 95.0101L66.1847 94.9016V94.8975L66.4101 95.006Z" fill="#E9E7DF"/>
<path d="M66.4099 95.0098L65.1307 95.7348H65.1191C65.0806 95.7369 65.0421 95.7389 65.0035 95.7389H64.73V90.7745C65.019 90.6311 65.3407 90.5513 65.6894 90.5513C65.8589 90.5513 66.0246 90.5697 66.1845 90.6066V94.9013L66.4099 95.0098Z" fill="#E9E7DF"/>
<path d="M66.2005 81.966L66.1846 81.9765V81.9575L66.2005 81.966Z" fill="#E9E7DF"/>
<path d="M66.1845 90.5963V90.6066C66.0246 90.5697 65.8589 90.5513 65.6894 90.5513C65.3407 90.5513 65.019 90.6311 64.73 90.7745V90.7704C64.7608 90.752 64.7936 90.7356 64.8244 90.7192C64.8282 90.7192 64.8302 90.7171 64.834 90.7151C65.096 90.6025 65.3811 90.541 65.6894 90.541C65.8589 90.541 66.0246 90.5594 66.1845 90.5963Z" fill="#E9E7DF"/>
<path d="M64.7667 86.1805C64.7552 86.1826 64.7417 86.1867 64.7301 86.1887C64.7051 86.1949 64.68 86.201 64.655 86.2092C64.2697 86.3096 63.8979 86.455 63.5453 86.6373H63.5434C63.5434 86.6373 63.5415 86.6291 63.5396 86.625C63.9171 86.4284 64.3159 86.2768 64.7301 86.1744C65.1308 86.0761 65.545 86.0249 65.9708 86.0249C66.0421 86.0249 66.1133 86.0269 66.1846 86.029V86.0433C66.1133 86.0413 66.0421 86.0392 65.9708 86.0392C65.5585 86.0392 65.1559 86.0884 64.7667 86.1805Z" fill="#E9E7DF"/>
<path d="M65.6108 106.696L64.7593 113.921L16.231 104.474L18.6352 97.8789L65.58 106.81L65.6108 106.696Z" fill="#E9E7DF"/>
<path d="M65.1271 95.7349L65.1194 95.7387C65.0808 95.7406 65.0423 95.7425 65.0038 95.7425H63.6206L63.6167 95.7387H65.0038C65.0423 95.7387 65.0808 95.7368 65.1194 95.7349H65.1271Z" fill="#E9E7DF"/>
<path d="M65.0113 152.983C64.9766 153.039 64.9072 153.065 64.7897 153.049L62.8189 152.707C62.3007 152.635 61.8248 152.355 61.4935 151.923L59.6306 149.508C59.2992 149.08 59.1721 148.515 59.2838 147.974L59.4225 147.302L63.6685 148.298L63.445 148.734C63.2813 149.057 63.287 149.447 63.4624 149.762L64.6125 151.851C64.8225 152.228 65.1307 152.785 65.0113 152.981V152.983Z" fill="#E9E7DF"/>
<path d="M64.73 90.7638C64.7611 90.7476 64.7922 90.7334 64.8252 90.7192C64.7941 90.7354 64.7611 90.7516 64.73 90.7699V90.7638Z" fill="#E9E7DF"/>
<path d="M64.7588 113.922L64.2213 118.474L14.9494 107.986C14.1884 106.86 14.5853 105.273 15.772 104.695L16.2305 104.474L64.7588 113.922Z" fill="#E9E7DF"/>
<path d="M64.7301 90.7748V95.7392H63.6166L60.6036 95.6368V95.6409L61.642 97.7012L58.2783 99.6038V51.3952L64.655 48.7246L64.7301 48.9294V86.1749C64.3159 86.2773 63.9172 86.4289 63.5396 86.6255C63.3566 86.0971 63.0213 85.751 62.663 85.7796C62.1679 85.8226 61.8192 86.5702 61.8847 87.4529C61.8943 87.588 61.9136 87.7191 61.9425 87.844C61.3106 88.5219 60.802 89.3534 60.4687 90.2914C60.4225 90.4246 60.3763 90.5618 60.3358 90.699C60.3069 90.7912 60.2819 90.8833 60.2588 90.9755C60.2106 91.1619 60.1682 91.3523 60.1355 91.5448C60.1181 91.6411 60.1027 91.7394 60.0892 91.8377C60.0584 92.0548 60.0372 92.2739 60.0256 92.4972V92.5054L63.1331 92.9314L63.2718 92.9518C63.2795 92.9109 63.2872 92.8699 63.2968 92.829C63.3007 92.8064 63.3045 92.7839 63.3103 92.7614C63.5107 91.9258 64.027 91.2008 64.6569 90.8157C64.6801 90.7994 64.7051 90.7871 64.7301 90.7748ZM62.9 78.122C63.3951 78.079 63.7438 77.3315 63.6783 76.4488C63.6108 75.5681 63.1581 74.8862 62.663 74.9271C62.1679 74.9701 61.8192 75.7177 61.8847 76.6004C61.9502 77.481 62.4049 78.163 62.9 78.122ZM63.7226 53.4945C63.7226 52.6097 63.3199 51.8929 62.8229 51.8929C62.3259 51.8929 61.9232 52.6097 61.9232 53.4945C61.9232 54.3792 62.3259 55.096 62.8229 55.096C63.3199 55.096 63.7226 54.3792 63.7226 53.4945ZM63.7226 65.4222C63.7226 64.5375 63.3199 63.8206 62.8229 63.8206H62.7805C62.2835 63.8206 61.8809 64.5375 61.8809 65.4222C61.8809 66.307 62.2835 67.0238 62.7805 67.0238H62.8229C63.3199 67.0238 63.7226 66.307 63.7226 65.4222Z" fill="#E9E7DF"/>
<path d="M64.7306 90.7705V90.7746C64.7053 90.7867 64.6801 90.7989 64.6567 90.815C64.682 90.7989 64.7053 90.7847 64.7306 90.7705Z" fill="#E9E7DF"/>
<path d="M62.2738 139.45L64.4738 148.486L63.6685 148.298L59.4225 147.302L22.7017 138.698L22.1006 138.557L18.8448 137.795L17.6138 137.507L14.9495 136.882L8.91185 135.467L8.22217 126.439L62.2738 139.45Z" fill="#E9E7DF"/>
<path d="M63.3065 45.6221C64.0925 45.6221 64.7301 46.3 64.7301 47.1356C64.7301 47.9712 64.0925 48.6491 63.3065 48.6491C62.5205 48.6491 61.8809 47.9712 61.8809 47.1356C61.8809 46.3 62.5185 45.6221 63.3065 45.6221ZM64.2678 47.0414C64.3044 46.5765 63.9807 46.1689 63.5434 46.13C63.1061 46.0911 62.7227 46.4351 62.6861 46.9C62.6495 47.3649 62.9732 47.7725 63.4105 47.8114C63.8478 47.8503 64.2312 47.5063 64.2678 47.0414Z" fill="#E9E7DF"/>
<path d="M63.5432 46.1295C63.9805 46.1684 64.3042 46.5759 64.2676 47.0408C64.231 47.5057 63.8476 47.8498 63.4103 47.8109C62.973 47.772 62.6493 47.3644 62.6859 46.8995C62.7225 46.4346 63.1059 46.0906 63.5432 46.1295Z" fill="#E9E7DF"/>
<path d="M64.2694 96.2142C64.017 96.0913 63.7935 95.9336 63.6221 95.7432L64.2694 96.2142Z" fill="#E9E7DF"/>
<path d="M64.2213 118.474L63.7705 122.296L63.6164 122.38L13.6855 111.456L14.9493 107.986L64.2213 118.474Z" fill="#E9E7DF"/>
<path d="M64.6567 90.8154C64.0267 91.2005 63.5104 91.9255 63.3101 92.7611C63.5104 91.8906 63.9882 91.1779 64.6567 90.8154Z" fill="#E9E7DF"/>
<path d="M63.7705 122.296L63.364 125.751L12.6433 114.313C11.6493 113.342 12.2214 111.581 13.5661 111.466L13.6856 111.456L63.6164 122.38L63.7705 122.296Z" fill="#E9E7DF"/>
<path d="M64.6551 86.21C64.2833 86.3144 63.8729 86.468 63.5454 86.638C63.898 86.4557 64.2698 86.3103 64.6551 86.21Z" fill="#E9E7DF"/>
<path d="M63.6784 76.4482C63.7439 77.3309 63.3952 78.0785 62.9001 78.1215C62.405 78.1624 61.9504 77.4804 61.8849 76.5998C61.8194 75.7171 62.168 74.9696 62.6632 74.9266C63.1583 74.8856 63.611 75.5676 63.6784 76.4482Z" fill="#E9E7DF"/>
<path d="M63.6204 95.7432H63.6166L60.6054 95.6408L60.6035 95.6367L63.6166 95.7391L63.6204 95.7432Z" fill="#E9E7DF"/>
<path d="M63.5394 86.625C63.5394 86.625 63.5433 86.6332 63.5433 86.6373C62.9538 86.9424 62.4144 87.3561 61.9443 87.8538C61.9424 87.8518 61.9424 87.8477 61.9424 87.8436C62.4124 87.3439 62.9519 86.9302 63.5394 86.625Z" fill="#E9E7DF"/>
<path d="M62.8225 55.0962C63.3194 55.0962 63.7222 54.3791 63.7222 53.4946C63.7222 52.6101 63.3194 51.8931 62.8225 51.8931C62.3257 51.8931 61.9229 52.6101 61.9229 53.4946C61.9229 54.3791 62.3257 55.0962 62.8225 55.0962Z" fill="#E9E7DF"/>
<path d="M62.8225 63.8208C63.3195 63.8208 63.7221 64.5376 63.7221 65.4224C63.7221 66.3071 63.3195 67.0239 62.8225 67.0239H62.8013C63.2887 67.0034 63.6797 66.2948 63.6797 65.4224C63.6797 64.5499 63.2887 63.8413 62.8013 63.8208H62.8225Z" fill="#E9E7DF"/>
<path d="M62.8013 63.8208C63.2887 63.8413 63.6798 64.5499 63.6798 65.4224C63.6798 66.2948 63.2887 67.0034 62.8013 67.0239C62.3139 67.0034 61.9229 66.2948 61.9229 65.4224C61.9229 64.5499 62.3139 63.8413 62.8013 63.8208Z" fill="#E9E7DF"/>
<path d="M63.3644 125.751L62.7961 130.564L11.5418 118.485C11.3896 118.485 11.2432 118.505 11.1025 118.542L12.6437 114.313L63.3644 125.751Z" fill="#E9E7DF"/>
<path d="M63.2715 92.9456C63.2792 92.9067 63.2869 92.8678 63.2966 92.8289C63.2869 92.8698 63.2792 92.9108 63.2715 92.9517L63.1328 92.9313L60.0254 92.5053V92.4971L63.1328 92.9251L63.2715 92.9456Z" fill="#E9E7DF"/>
<path d="M47.4417 35.1377L47.5785 35.2729L62.9962 34.9308L58.2783 51.3438L39.5258 48.8964L37.1639 48.5871L30.3364 47.6962L32.3978 44.5791L39.886 38.2998L42.8105 35.8484L45.1396 33.8945H46.2724L47.4417 35.1377ZM56.818 48.7448C56.818 47.9072 56.1803 47.2293 55.3943 47.2293C54.6083 47.2293 53.9706 47.9072 53.9706 48.7448C53.9706 49.5824 54.6083 50.2583 55.3943 50.2583C56.1803 50.2583 56.818 49.5804 56.818 48.7448ZM48.8654 47.6962C48.8654 46.8606 48.2278 46.1827 47.4417 46.1827C46.6557 46.1827 46.0181 46.8606 46.0181 47.6962C46.0181 48.5318 46.6557 49.2118 47.4417 49.2118C48.2278 49.2118 48.8654 48.5339 48.8654 47.6962ZM42.0495 46.5698C42.0495 45.7342 41.4118 45.0563 40.6258 45.0563C40.3214 45.0563 40.0402 45.1587 39.809 45.3307C39.443 45.6031 39.2021 46.0578 39.2021 46.5698C39.2021 46.9917 39.364 47.3747 39.626 47.6471C39.8822 47.9194 40.2367 48.0853 40.6258 48.0853C41.4118 48.0853 42.0495 47.4074 42.0495 46.5698ZM36.0465 45.7158C36.0465 44.8802 35.4089 44.2023 34.6229 44.2023C33.8369 44.2023 33.1973 44.8802 33.1973 45.7158C33.1973 46.5514 33.8349 47.2293 34.6229 47.2293C35.4108 47.2293 36.0465 46.5514 36.0465 45.7158Z" fill="#E9E7DF"/>
<path d="M62.7805 63.8208H62.8017C62.3143 63.8413 61.9232 64.5499 61.9232 65.4224C61.9232 66.2948 62.3143 67.0034 62.8017 67.0239H62.7805C62.2835 67.0239 61.8809 66.3071 61.8809 65.4224C61.8809 64.5376 62.2835 63.8208 62.7805 63.8208Z" fill="#E9E7DF"/>
<path d="M62.7959 130.564L62.401 133.929L10.0351 121.471L9.91373 121.19C9.80006 120.928 9.74805 120.656 9.74805 120.394C9.74805 119.535 10.299 118.753 11.1043 118.542C11.2449 118.505 11.3913 118.485 11.5435 118.485L62.7979 130.564H62.7959Z" fill="#E9E7DF"/>
<path d="M62.6632 85.7795C63.0215 85.7508 63.3567 86.0969 63.5397 86.6253C62.9521 86.9305 62.4127 87.3442 61.9427 87.8439C61.9138 87.719 61.8945 87.5879 61.8849 87.4527C61.8194 86.57 62.168 85.8225 62.6632 85.7795Z" fill="#E9E7DF"/>
<path d="M62.399 133.929L62.2738 139.45L8.22217 126.439L10.0331 121.471L62.399 133.929Z" fill="#E9E7DF"/>
<path d="M61.942 87.8438C61.942 87.8438 61.942 87.8519 61.944 87.854C61.3121 88.5278 60.8054 89.3572 60.4683 90.2911C60.8015 89.3531 61.3101 88.5216 61.942 87.8438Z" fill="#E9E7DF"/>
<path d="M60.6054 95.6406L61.6419 97.7009L60.6035 95.6406H60.6054Z" fill="#E9E7DF"/>
<path d="M60.2586 90.9751C60.2123 91.1615 60.1699 91.3519 60.1353 91.5444C60.168 91.3519 60.2104 91.1615 60.2586 90.9751Z" fill="#E9E7DF"/>
<path d="M55.1997 7.82764C58.6076 7.82764 61.3702 10.658 61.3702 14.1479C61.3702 17.6377 58.6076 20.4681 55.1997 20.4681C54.1883 20.4681 53.2346 20.2182 52.3908 19.7779L52.3446 19.7533C50.4894 18.6822 49.2275 16.5604 49.2275 14.1192C49.2275 12.1797 50.0213 10.443 51.2754 9.2715C51.2831 9.26535 51.2908 9.25716 51.2985 9.25307C52.3619 8.36217 53.7201 7.82764 55.1997 7.82764ZM60.2317 14.1745C60.2317 11.3195 57.9738 9.0073 55.1862 9.0073C52.3985 9.0073 50.1407 11.3195 50.1407 14.1745C50.1407 17.0294 52.4005 19.3417 55.1862 19.3417C57.9719 19.3417 60.2317 17.0294 60.2317 14.1745Z" fill="#E9E7DF"/>
<path d="M55.1861 9.00684C57.9737 9.00684 60.2316 11.3191 60.2316 14.174C60.2316 17.029 57.9737 19.3412 55.1861 19.3412C52.3985 19.3412 50.1406 17.029 50.1406 14.174C50.1406 11.3191 52.4004 9.00684 55.1861 9.00684ZM58.2858 11.7635C58.4708 11.5669 58.4708 11.2474 58.2858 11.0508L58.2685 11.0323C58.0836 10.8357 57.783 10.8357 57.5962 11.0323L55.662 13.0886C55.4751 13.2872 55.1746 13.2872 54.9896 13.0886L53.2018 11.188C53.0169 10.9914 52.7163 10.9914 52.5314 11.188L52.5141 11.2064C52.3291 11.403 52.3291 11.7225 52.5141 11.9212L54.3018 13.8218C54.4868 14.0184 54.4868 14.3379 54.3018 14.5345L52.6605 16.2794C52.4755 16.476 52.4755 16.7955 52.6605 16.9921L52.6778 17.0105C52.8628 17.2072 53.1633 17.2072 53.3502 17.0105L54.9896 15.2677C55.1746 15.069 55.4751 15.069 55.662 15.2677L57.4497 17.1682C57.6347 17.3648 57.9352 17.3648 58.1202 17.1682L58.1375 17.1498C58.3224 16.9532 58.3224 16.6337 58.1375 16.435L56.3497 14.5345C56.1648 14.3379 56.1648 14.0184 56.3497 13.8218L58.2858 11.7635Z" fill="#E9E7DF"/>
<path d="M58.286 11.0507C58.4709 11.2473 58.4709 11.5668 58.286 11.7634L56.3498 13.8216C56.1649 14.0183 56.1649 14.3377 56.3498 14.5344L58.1376 16.4349C58.3226 16.6336 58.3226 16.9531 58.1376 17.1497L58.1203 17.1681C57.9353 17.3647 57.6348 17.3647 57.4499 17.1681L55.6621 15.2676C55.4752 15.0689 55.1747 15.0689 54.9897 15.2676L53.3503 17.0104C53.1634 17.207 52.8629 17.207 52.6779 17.0104L52.6606 16.992C52.4757 16.7954 52.4757 16.4759 52.6606 16.2793L54.302 14.5344C54.4869 14.3377 54.4869 14.0183 54.302 13.8216L52.5142 11.9211C52.3293 11.7224 52.3293 11.4029 52.5142 11.2063L52.5315 11.1879C52.7165 10.9913 53.017 10.9913 53.202 11.1879L54.9897 13.0884C55.1747 13.2871 55.4752 13.2871 55.6621 13.0884L57.5963 11.0322C57.7832 10.8356 58.0837 10.8356 58.2686 11.0322L58.286 11.0507Z" fill="#E9E7DF"/>
<path d="M43.4693 54.6657C42.0649 54.7006 40.8108 55.614 40.2771 57.0005L33.4284 74.8204C33.178 75.3631 33.2319 75.9571 33.4939 76.4199C33.7386 76.8561 34.1701 77.1756 34.7057 77.2268L52.5701 78.9247C53.2983 78.9943 53.489 78.1116 53.3965 77.2207C53.3542 76.8213 53.2578 76.4199 53.1249 76.1025L47.1778 55.2576C46.9698 54.7395 45.13 54.6534 43.531 54.6637C43.5098 54.6637 43.4905 54.6637 43.4693 54.6657ZM58.2783 51.395V99.6036L30.3364 95.4338V47.6963L37.1639 48.5872L39.5258 48.8964L58.2783 51.3438V51.395ZM55.0572 95.0324V92.5256L34.0873 89.4392L32.4228 89.1935V91.5057L55.0572 95.0324ZM55.0572 90.7807V88.2719L34.016 85.1752L32.4228 84.9418V87.254L55.0572 90.7807ZM55.0572 86.7686V84.2598L34.0391 81.1673L32.4228 80.9297V83.2419L55.0572 86.7686Z" fill="#E9E7DF"/>
<path d="M55.3944 47.2295C56.1804 47.2295 56.8181 47.9074 56.8181 48.745C56.8181 49.5827 56.1804 50.2585 55.3944 50.2585C54.6084 50.2585 53.9707 49.5806 53.9707 48.745C53.9707 47.9094 54.6084 47.2295 55.3944 47.2295ZM55.9222 48.5361C55.9588 48.0712 55.6352 47.6637 55.1979 47.6248C54.7606 47.5838 54.3772 47.9299 54.3406 48.3948C54.304 48.8577 54.6276 49.2673 55.0649 49.3062C55.5023 49.3451 55.8856 49.001 55.9222 48.5361Z" fill="#E9E7DF"/>
<path d="M55.1975 47.6244C55.6348 47.6633 55.9585 48.0709 55.9219 48.5358C55.8853 49.0007 55.5019 49.3447 55.0646 49.3058C54.6273 49.2669 54.3036 48.8573 54.3402 48.3944C54.3768 47.9295 54.7602 47.5834 55.1975 47.6244Z" fill="#E9E7DF"/>
<path d="M55.1864 7.74329C55.1536 7.74125 55.119 7.74124 55.0862 7.74124C53.6413 7.74124 52.3217 8.30855 51.2987 9.25269C51.291 9.25679 51.2833 9.26498 51.2756 9.27112C50.0215 10.4426 49.2278 12.1793 49.2278 14.1188C49.2278 16.5601 50.4896 18.6818 52.3448 19.7529L52.3911 19.7775C52.6492 19.925 52.9208 20.0499 53.2002 20.1544C50.0099 20.097 47.4419 17.2646 47.4419 13.7809C47.4419 10.2972 50.0639 7.40332 53.3004 7.40332C53.9611 7.40332 54.595 7.52211 55.1864 7.74329Z" fill="#E9E7DF"/>
<path d="M55.0567 93.576V95.0322L32.4224 91.5055V90.9996H32.4917L34.0869 90.3545L54.9874 93.576H55.0567Z" fill="#E9E7DF"/>
<path d="M55.0568 92.5253V93.576H54.9874L34.0869 90.3544V89.439L55.0568 92.5253Z" fill="#E9E7DF"/>
<path d="M55.0567 89.5542V90.7809L32.4224 87.2542V86.9757L34.0156 86.3306L54.918 89.5542H55.0567Z" fill="#E9E7DF"/>
<path d="M55.0573 88.2719V89.554H54.9185L34.0161 86.3304V85.1753L55.0573 88.2719Z" fill="#E9E7DF"/>
<path d="M55.0567 85.5297V86.7687L32.4224 83.242V82.9532L34.0156 82.3081L54.918 85.5297H55.0567Z" fill="#E9E7DF"/>
<path d="M55.0573 84.2595V85.5293H54.9185L34.0161 82.3077L34.0392 81.167L55.0573 84.2595Z" fill="#E9E7DF"/>
<path d="M53.3962 77.2204C53.4887 78.1113 53.298 78.994 52.5698 78.9244L34.7054 77.2266C34.1698 77.1754 33.7383 76.8559 33.4937 76.4197L35.4818 75.3608C35.4818 75.3608 35.4837 75.367 35.4856 75.369C35.7014 75.7643 36.0886 76.0572 36.5722 76.1022L52.4137 77.6014C52.8067 77.6383 53.1554 77.4826 53.3962 77.2204Z" fill="#E9E7DF"/>
<path d="M35.4821 75.3613C35.2644 74.9578 35.2239 74.4458 35.4397 73.9788L42.2922 56.2245C42.6313 55.7636 43.0378 55.2025 43.4693 54.6659C43.4905 54.6639 43.5098 54.6639 43.531 54.6639C45.13 54.6536 46.9698 54.7396 47.1778 55.2578L53.1249 76.1026C53.2578 76.4201 53.3542 76.8215 53.3965 77.2209C53.1557 77.483 52.807 77.6387 52.414 77.6018L36.5725 76.1026C36.0889 76.0576 35.7017 75.7647 35.4859 75.3695C35.484 75.3695 35.484 75.3633 35.4821 75.3613ZM50.4471 71.1874C50.4471 70.9744 50.3797 70.7716 50.2621 70.5996C50.1427 70.4276 49.9712 70.2883 49.7632 70.1982L45.4902 68.3795C45.2513 68.2771 43.6947 68.2525 43.4385 68.3099L39.2792 69.5039C38.786 69.6104 38.4238 69.9975 38.3776 70.4644L38.3641 70.6016C38.3237 71.0215 38.5471 71.427 38.9401 71.64L43.5156 74.1283C43.8354 74.3004 44.2245 74.325 44.5655 74.1918L49.7266 72.1909C50.1639 72.0209 50.4471 71.6256 50.4471 71.1874ZM48.8828 64.7094C48.8828 64.5497 48.8327 64.3981 48.7441 64.2712C48.6535 64.1421 48.5264 64.0377 48.3703 63.9701L45.1704 62.6082C44.9913 62.5324 43.8257 62.514 43.635 62.5549L40.5199 63.4499C40.1519 63.5298 39.8803 63.8186 39.8456 64.1688L39.836 64.2732C39.8051 64.5866 39.9727 64.8897 40.2675 65.0494L43.6928 66.9111C43.9317 67.0422 44.2226 67.0585 44.4788 66.9602L48.3434 65.4611C48.6689 65.3341 48.8828 65.0392 48.8828 64.7094ZM47.6363 59.8495C47.6363 59.6365 47.5015 59.4419 47.2915 59.3538L45.1473 58.4404C45.0279 58.3892 44.2476 58.3769 44.1186 58.4056L42.0322 59.0036C41.7836 59.0589 41.6026 59.2535 41.5794 59.487L41.5717 59.5566C41.5525 59.7675 41.6642 59.9703 41.8607 60.0768L44.1571 61.3241C44.317 61.4121 44.5135 61.4244 44.6849 61.3568L47.2742 60.3533C47.4918 60.2673 47.6363 60.0686 47.6363 59.8495Z" fill="#E9E7DF"/>
<path d="M50.2621 70.5993C50.3796 70.7713 50.447 70.9741 50.447 71.1871C50.447 71.6253 50.1638 72.0206 49.7265 72.1906L44.5654 74.1915C44.2245 74.3246 43.8353 74.3001 43.5155 74.128L38.9401 71.6397C38.5471 71.4267 38.3236 71.0212 38.3641 70.6013L38.3776 70.4641C38.4238 69.9972 38.786 69.6101 39.2792 69.5036L43.4384 68.3096C43.6947 68.2522 45.2513 68.2768 45.4902 68.3792L49.7631 70.1979C49.9712 70.288 50.1426 70.4272 50.2621 70.5993ZM49.8941 71.1973C49.8941 71.0089 49.8325 70.8287 49.7246 70.6751C49.6167 70.5215 49.4626 70.3986 49.2719 70.3187L45.39 68.7008C45.1742 68.6106 43.7602 68.5902 43.5271 68.6393L39.7492 69.7002C39.3023 69.7964 38.9728 70.1405 38.9305 70.5542L38.9189 70.6771C38.8804 71.0498 39.0846 71.4103 39.441 71.5987L43.5964 73.8106C43.8873 73.9642 44.2418 73.9867 44.552 73.8679L49.2391 72.0882C49.636 71.9387 49.8941 71.5864 49.8941 71.1973Z" fill="#E9E7DF"/>
<path d="M49.7249 70.675C49.8328 70.8286 49.8944 71.0089 49.8944 71.1973C49.8944 71.5864 49.6363 71.9387 49.2394 72.0882L44.5522 73.8679C44.2421 73.9867 43.8876 73.9642 43.5967 73.8106L39.4413 71.5987C39.0849 71.4103 38.8807 71.0498 38.9192 70.6771L38.9307 70.5542C38.9731 70.1405 39.3026 69.7964 39.7495 69.7002L43.5274 68.6393C43.7605 68.5901 45.1745 68.6106 45.3903 68.7007L49.2722 70.3187C49.4629 70.3986 49.617 70.5214 49.7249 70.675Z" fill="#E9E7DF"/>
<path d="M48.7438 64.2712C48.8324 64.3982 48.8825 64.5497 48.8825 64.7095C48.8825 65.0392 48.6686 65.3341 48.343 65.4611L44.4785 66.9603C44.2223 67.0586 43.9314 67.0422 43.6925 66.9111L40.2672 65.0495C39.9724 64.8897 39.8048 64.5866 39.8357 64.2733L39.8453 64.1688C39.88 63.8186 40.1516 63.5298 40.5196 63.45L43.6347 62.555C43.8254 62.514 44.9909 62.5324 45.1701 62.6082L48.37 63.9702C48.5261 64.0377 48.6532 64.1422 48.7438 64.2712ZM48.0521 64.7218C48.0521 64.5866 48.0098 64.4596 47.9366 64.3531C47.8614 64.2446 47.7555 64.1565 47.6245 64.1012L44.9447 62.9605C44.7944 62.897 43.8177 62.8806 43.6578 62.9175L41.0493 63.665C40.7411 63.7326 40.5138 63.9763 40.4849 64.2671L40.4772 64.3552C40.4502 64.6173 40.5908 64.8713 40.8374 65.0044L43.706 66.565C43.9063 66.6735 44.151 66.6879 44.3648 66.606L47.6013 65.3505C47.8749 65.244 48.0521 64.9962 48.0521 64.7218Z" fill="#E9E7DF"/>
<path d="M47.4417 46.1826C48.2278 46.1826 48.8654 46.8605 48.8654 47.6961C48.8654 48.5317 48.2278 49.2117 47.4417 49.2117C46.6557 49.2117 46.0181 48.5338 46.0181 47.6961C46.0181 46.8585 46.6557 46.1826 47.4417 46.1826ZM47.9696 47.4872C48.0062 47.0244 47.6826 46.6148 47.2452 46.5758C46.8079 46.5369 46.4246 46.881 46.388 47.3459C46.3513 47.8108 46.675 48.2184 47.1123 48.2573C47.5496 48.2982 47.933 47.9521 47.9696 47.4872Z" fill="#E9E7DF"/>
<path d="M47.2449 46.5762C47.6822 46.6152 48.0058 47.0248 47.9692 47.4876C47.9326 47.9525 47.5493 48.2986 47.112 48.2577C46.6746 48.2188 46.351 47.8112 46.3876 47.3463C46.4242 46.8814 46.8076 46.5373 47.2449 46.5762Z" fill="#E9E7DF"/>
<path d="M47.9368 64.353C48.01 64.4595 48.0524 64.5865 48.0524 64.7217C48.0524 64.9961 47.8751 65.2439 47.6016 65.3504L44.3651 66.6059C44.1512 66.6878 43.9066 66.6734 43.7062 66.5649L40.8377 65.0043C40.5911 64.8712 40.4504 64.6172 40.4774 64.3551L40.4851 64.267C40.514 63.9762 40.7413 63.7325 41.0496 63.6649L43.658 62.9174C43.8179 62.8805 44.7947 62.8969 44.9449 62.9604L47.6247 64.1011C47.7557 64.1564 47.8617 64.2445 47.9368 64.353Z" fill="#E9E7DF"/>
<path d="M47.4419 25.561L47.5787 25.7331L47.4419 25.858V25.561Z" fill="#E9E7DF"/>
<path d="M47.4419 27.814L47.5787 27.9655L47.4419 28.1068V27.814Z" fill="#E9E7DF"/>
<path d="M47.5787 30.413L47.4419 30.5605V30.2983L47.5787 30.413Z" fill="#E9E7DF"/>
<path d="M47.473 32.8582L47.4419 32.885V32.8252L47.473 32.8582Z" fill="#E9E7DF"/>
<path d="M47.2912 59.354C47.5012 59.4421 47.6361 59.6366 47.6361 59.8496C47.6361 60.0626 47.4916 60.2674 47.2739 60.3534L44.6847 61.357C44.5132 61.4246 44.3167 61.4123 44.1568 61.3242L41.8605 60.077C41.664 59.9705 41.5522 59.7677 41.5715 59.5568L41.5792 59.4871C41.6023 59.2537 41.7834 59.0591 42.0319 59.0038L44.1183 58.4058C44.2474 58.3771 45.0276 58.3894 45.1471 58.4406L47.2912 59.354ZM46.9791 59.8599C46.9791 59.6919 46.8732 59.5404 46.7094 59.4707L45.0295 58.756C44.9351 58.715 44.3244 58.7068 44.2223 58.7273L42.5867 59.1984C42.3941 59.2393 42.2515 59.3929 42.2342 59.5752L42.2284 59.6305C42.213 59.7943 42.2997 59.9541 42.4538 60.038L44.2532 61.015C44.3784 61.0846 44.5325 61.0928 44.6674 61.0416L46.6959 60.2531C46.8674 60.1876 46.9791 60.0319 46.9791 59.8599Z" fill="#E9E7DF"/>
<path d="M46.7098 59.4705C46.8736 59.5402 46.9795 59.6917 46.9795 59.8597C46.9795 60.0276 46.8678 60.1873 46.6963 60.2529L44.6678 61.0414C44.5329 61.0926 44.3788 61.0844 44.2536 61.0148L42.4542 60.0378C42.3001 59.9539 42.2134 59.7941 42.2288 59.6303L42.2346 59.575C42.2519 59.3927 42.3945 59.2391 42.5871 59.1981L44.2227 58.7271C44.3248 58.7066 44.9355 58.7148 45.0299 58.7558L46.7098 59.4705Z" fill="#E9E7DF"/>
<path d="M42.8107 35.8486L39.8862 38.3001L28.5854 35.9817L28.5874 35.9735L28.6066 35.8629L32.3864 33.7842L42.8107 35.8486Z" fill="#E9E7DF"/>
<path d="M43.469 54.666C43.0375 55.2026 42.631 55.7638 42.2919 56.2246L35.4394 73.9789C35.2236 74.4459 35.2641 74.9579 35.4818 75.3614L33.4936 76.4202C33.2316 75.9573 33.1777 75.3634 33.4281 74.8207L40.2768 57.0008C40.8104 55.6143 42.0646 54.7008 43.469 54.666Z" fill="#E9E7DF"/>
<path d="M40.6258 45.0566C41.4118 45.0566 42.0495 45.7345 42.0495 46.5701C42.0495 47.4057 41.4118 48.0857 40.6258 48.0857C40.2367 48.0857 39.8822 47.9198 39.626 47.6494C39.364 47.375 39.2021 46.992 39.2021 46.5701C39.2021 46.0581 39.443 45.6035 39.809 45.3311C40.0402 45.159 40.3214 45.0566 40.6258 45.0566ZM41.1537 46.3612C41.1903 45.8984 40.8666 45.4888 40.4293 45.4499C40.175 45.4273 39.9381 45.5338 39.7782 45.7202C39.6626 45.8533 39.5874 46.0254 39.572 46.2199C39.5566 46.4145 39.6029 46.5988 39.6973 46.7504C39.8263 46.9613 40.0421 47.1088 40.2964 47.1313C40.7318 47.1723 41.1171 46.8261 41.1537 46.3612Z" fill="#E9E7DF"/>
<path d="M41.1842 8.41516V18.1679C41.1842 18.7208 41.0109 19.2329 40.718 19.6445C40.2942 20.2384 39.6238 20.6255 38.8725 20.6255H35.4549C34.1834 20.6255 33.1431 19.5196 33.1431 18.1679V8.41516C33.1431 7.06346 34.1834 5.95752 35.4549 5.95752H38.8725C40.1439 5.95752 41.1842 7.06346 41.1842 8.41516ZM40.379 17.7214V8.86163C40.379 7.9523 39.6797 7.20887 38.8243 7.20887H35.503C34.6477 7.20887 33.9483 7.9523 33.9483 8.86163V17.7214C33.9483 18.6307 34.6477 19.3742 35.503 19.3742H38.8243C39.2732 19.3742 39.6797 19.1694 39.9648 18.8417C40.221 18.5468 40.379 18.1535 40.379 17.7214Z" fill="#E9E7DF"/>
<path d="M40.4295 45.4493C40.8669 45.4882 41.1905 45.8978 41.1539 46.3606C41.1173 46.8255 40.732 47.1717 40.2966 47.1307C40.0423 47.1082 39.8265 46.9607 39.6975 46.7518C39.6031 46.5982 39.5568 46.4139 39.5723 46.2193C39.5877 46.0248 39.6628 45.8527 39.7784 45.7196C39.9383 45.5332 40.1752 45.4267 40.4295 45.4493Z" fill="#E9E7DF"/>
<path d="M40.3789 8.86175V17.7215C40.3789 18.1537 40.2209 18.5469 39.9647 18.8418C39.6796 19.1695 39.2731 19.3743 38.8242 19.3743H35.5029C34.6476 19.3743 33.9482 18.6309 33.9482 17.7215V8.86175C33.9482 7.95242 34.6476 7.20898 35.5029 7.20898H38.8242C39.6796 7.20898 40.3789 7.95242 40.3789 8.86175Z" fill="#E9E7DF"/>
<path d="M39.8859 38.2998L32.3976 44.5791L30.3363 47.6962V70.6976L30.2496 70.9782L23.871 67.433L19.0952 64.7788L19.2224 63.1731L28.5851 35.9814L39.8859 38.2998Z" fill="#E9E7DF"/>
<path d="M34.6229 44.2026C35.4089 44.2026 36.0465 44.8805 36.0465 45.7161C36.0465 46.5517 35.4089 47.2296 34.6229 47.2296C33.8369 47.2296 33.1973 46.5517 33.1973 45.7161C33.1973 44.8805 33.8349 44.2026 34.6229 44.2026ZM35.1507 45.5072C35.1873 45.0444 34.8618 44.6348 34.4264 44.5959C33.9891 44.5569 33.6038 44.901 33.5672 45.3659C33.5305 45.8308 33.8542 46.2384 34.2915 46.2773C34.7288 46.3162 35.1122 45.9721 35.1507 45.5072Z" fill="#E9E7DF"/>
<path d="M34.426 44.5953C34.8614 44.6342 35.187 45.0438 35.1504 45.5067C35.1118 45.9716 34.7285 46.3156 34.2911 46.2767C33.8538 46.2378 33.5302 45.8302 33.5668 45.3653C33.6034 44.9004 33.9887 44.5564 34.426 44.5953Z" fill="#E9E7DF"/>
<path d="M34.0869 89.4396V90.3551L32.4917 91.0002H32.4224V89.1938L34.0869 89.4396Z" fill="#E9E7DF"/>
<path d="M34.0387 81.1673L34.0156 82.308L32.4224 82.9531V80.9297L34.0387 81.1673Z" fill="#E9E7DF"/>
<path d="M34.0156 85.1754V86.3305L32.4224 86.9756V84.9419L34.0156 85.1754Z" fill="#E9E7DF"/>
<path d="M30.3366 71.0768V82.1075L15.4102 89.1937L16.3773 77.01L23.4109 73.9523L30.2499 70.9785L30.3366 71.0768Z" fill="#E9E7DF"/>
<path d="M30.3367 70.6978V71.0766L30.25 70.9783L30.3367 70.6978Z" fill="#E9E7DF"/>
<path d="M30.2497 70.9782L23.4106 73.9519L16.377 77.0096L7.02002 70.7304L19.0953 64.7788L23.871 67.4331L30.2497 70.9782Z" fill="#E9E7DF"/>
<path d="M22.7017 138.699V139.637C22.7017 140.067 22.4571 140.452 22.0853 140.614L18.922 141.99C18.8237 142.031 18.7197 142.058 18.6137 142.066L17.3037 139.004L17.5946 137.597L17.6139 137.507L18.8449 137.796L18.8256 137.888L18.7101 138.498C18.6619 138.758 18.7023 139.026 18.8237 139.258L19.3419 140.233C19.4729 140.479 19.7484 140.595 20.0027 140.509L21.4495 140.024C21.7539 139.921 21.9755 139.639 22.014 139.303L22.1007 138.557L22.7017 138.699Z" fill="#E9E7DF"/>
<path d="M22.1008 138.557L22.0142 139.303C21.9756 139.639 21.7541 139.921 21.4497 140.024L20.0029 140.509C19.7486 140.595 19.4731 140.478 19.3421 140.233L18.8239 139.258C18.7025 139.026 18.6621 138.758 18.7102 138.498L18.8258 137.888L18.8451 137.795L22.1008 138.557Z" fill="#E9E7DF"/>
<path d="M17.3039 139.004L18.6139 142.065C18.5195 142.072 18.4251 142.063 18.3307 142.043L17.3251 141.805C17.0958 141.75 16.8935 141.613 16.751 141.414L15.1539 139.188C15.021 139.004 14.9497 138.778 14.9497 138.549V136.882L17.614 137.506L17.5948 137.597L17.3039 139.004Z" fill="#E9E7DF"/>
<path d="M16.3769 77.0097L15.4098 89.1935L10.3701 86.2136C10.7246 85.7487 11.029 85.2305 11.2698 84.6673C12.9555 84.5403 14.3927 82.7606 14.5757 80.4668C14.5892 80.2886 14.5969 80.1104 14.5949 79.9343C14.5737 77.6815 13.2868 75.8198 11.5569 75.6642C10.8864 75.6048 10.2411 75.8096 9.68045 76.2131C8.85013 75.4491 7.82909 74.9371 6.69824 74.7876L7.01997 70.7305L16.3769 77.0097Z" fill="#E9E7DF"/>
<path d="M14.5947 79.9346C14.5966 80.1107 14.5889 80.2889 14.5754 80.4671C14.3924 82.7609 12.9552 84.5406 11.2695 84.6676C11.5932 83.9139 11.8032 83.0803 11.8744 82.1935C11.9014 81.8474 11.9053 81.5054 11.8899 81.1654L14.5947 79.9346Z" fill="#E9E7DF"/>
<path d="M14.5947 79.9341L11.8899 81.1649C11.7955 79.1763 10.9613 77.3925 9.68018 76.2128C10.2408 75.8093 10.8862 75.6045 11.5566 75.6639C13.2866 75.8196 14.5735 77.6812 14.5947 79.9341Z" fill="#E9E7DF"/>
<path d="M11.89 81.1651C11.9054 81.5051 11.9016 81.8471 11.8746 82.1932C11.8033 83.08 11.5933 83.9136 11.2697 84.6673C11.0289 85.2305 10.7245 85.7486 10.37 86.2135C9.15245 87.7966 7.3377 88.7326 5.38809 88.5565C3.69085 88.4049 2.22479 87.4382 1.24613 86.0128L0.375355 83.8624L3.36912 84.2331C3.52517 84.4399 3.73901 84.6181 3.98367 84.7656C4.4075 85.0257 4.9238 85.1895 5.37075 85.2305C6.12979 85.2981 6.84066 84.9867 7.36274 84.4338C7.74997 84.0262 8.03509 83.4855 8.15453 82.867C8.17957 82.7503 8.19691 82.6315 8.20847 82.5066L8.21232 82.4697C8.26627 81.7918 8.11985 81.1487 7.82895 80.6163C7.75767 80.4811 7.67483 80.3562 7.58236 80.2374C7.5631 80.2087 7.53998 80.18 7.51686 80.1513C7.48026 80.1104 7.44558 80.0674 7.40898 80.0305C7.37815 79.9957 7.34733 79.965 7.31651 79.9343C7.28183 79.8994 7.2433 79.8646 7.20477 79.8319C7.17009 79.8011 7.13349 79.7704 7.09881 79.7438C7.02753 79.6864 6.95433 79.6373 6.87919 79.5902C6.84837 79.5697 6.81947 79.5533 6.78865 79.5369C6.77131 79.5267 6.75204 79.5165 6.73471 79.5062C6.70773 79.4919 6.68076 79.4775 6.64994 79.4632C6.6249 79.4509 6.596 79.4386 6.56903 79.4263C6.54784 79.4182 6.52857 79.41 6.50931 79.4018C6.49004 79.3936 6.4727 79.3854 6.45344 79.3792C6.41298 79.3649 6.37638 79.3506 6.33592 79.3383C6.17988 79.2891 6.01612 79.2543 5.84659 79.24C4.58859 79.1273 3.6003 80.0756 3.24775 81.4191L3.11097 81.3863L0.0478516 80.6818C0.531401 77.0998 3.33445 74.4824 6.48426 74.765C6.55554 74.7712 6.62682 74.7794 6.6981 74.7876C7.82895 74.9371 8.84999 75.4491 9.68031 76.213C10.9614 77.3927 11.7956 79.1765 11.89 81.1651Z" fill="#E9E7DF"/>
<path d="M7.82897 80.6163C8.11987 81.1488 8.26628 81.7919 8.21234 82.4698L8.20849 82.5067C8.19693 82.6316 8.17959 82.7504 8.15455 82.8671C8.0351 83.4856 7.74998 84.0263 7.36276 84.4339C6.84068 84.9868 6.1298 85.2981 5.37077 85.2305C4.92382 85.1896 4.40752 85.0257 3.98369 84.7656C3.73903 84.6182 3.52519 84.44 3.36914 84.2332L4.75236 84.3581C4.79089 84.3622 4.82942 84.3622 4.86795 84.3642C5.21279 84.3765 5.55378 84.2966 5.86395 84.1328C6.0277 84.0468 6.17797 83.9403 6.31089 83.8113C6.38795 83.7396 6.46116 83.6618 6.52666 83.5798C6.70968 83.3525 6.84646 83.0842 6.93122 82.7954L7.07186 82.308C7.22598 81.7837 7.18937 81.2164 6.97361 80.7187L6.46309 79.535L6.50932 79.4019C6.52859 79.41 6.54785 79.4182 6.56904 79.4264C6.59601 79.4387 6.62491 79.451 6.64996 79.4633C6.68078 79.4776 6.70775 79.492 6.73472 79.5063C6.75206 79.5165 6.77133 79.5268 6.78866 79.537C6.81949 79.5534 6.84839 79.5698 6.87921 79.5903C6.95434 79.6374 7.02755 79.6865 7.09883 79.7439C7.13351 79.7705 7.17011 79.8012 7.20479 79.8319C7.24332 79.8647 7.28185 79.8995 7.31652 79.9343C7.34735 79.9651 7.37817 79.9958 7.40899 80.0306C7.4456 80.0675 7.48027 80.1105 7.51688 80.1514C7.54 80.1801 7.56311 80.2088 7.58238 80.2374C7.67485 80.3562 7.75769 80.4812 7.82897 80.6143V80.6163Z" fill="#E9E7DF"/>
<path d="M6.97378 80.7187C7.18954 81.2164 7.22615 81.7837 7.07203 82.308L6.93139 82.7954C6.84663 83.0842 6.70985 83.3525 6.52683 83.5798C6.46133 83.6618 6.38812 83.7396 6.31106 83.8113L6.21088 83.7539L5.99512 83.6249L6.33611 79.3384C6.37656 79.3507 6.41317 79.365 6.45362 79.3793C6.47289 79.3855 6.49023 79.3937 6.50949 79.4019L6.46325 79.535L6.97378 80.7187Z" fill="#E9E7DF"/>
<path d="M72.1376 110.096L75.6349 121.175L73.3213 122.001L69.8239 110.921L72.1376 110.096ZM84.6963 125.774L88.1936 136.854L86.1952 137.567L79.2331 132.292L79.153 132.321L81.3542 139.294L79.0405 140.119L75.5432 129.04L77.5736 128.315L84.4966 133.598L84.5928 133.564L82.3933 126.596L84.6963 125.774ZM83.5761 146.333L87.0734 157.413L84.7597 158.238L81.2624 147.158L83.5761 146.333ZM87.1745 167.357L86.5649 165.426L95.5523 162.22L96.162 164.151L92.8117 165.346L95.6994 174.495L93.4125 175.311L90.5248 166.162L87.1745 167.357Z" fill="#E9E7DF"/>
</g>
<defs>
<clipPath id="clip0_542_7659">
<rect width="100.26" height="153.107" fill="white"/>
</clipPath>
</defs>
</svg>
