<svg width="108" height="150" viewBox="0 0 108 150" fill="none" xmlns="http://www.w3.org/2000/svg">
<g clip-path="url(#clip0_542_7268)">
<path d="M107.53 97.4702L107.756 98.3309L105.913 98.9114L105.906 98.8832L105.687 98.0507L107.53 97.4702Z" fill="#E9E7E0"/>
<path d="M105.858 91.1085L107.53 97.47L105.686 98.0505L104.74 94.4505C104.256 92.6041 102.716 91.4028 101.044 91.4028C100.692 91.4028 100.333 91.4552 99.9777 91.5681C98.1417 92.1466 97.0829 94.2449 97.6114 96.2566L98.6868 100.344L96.7459 100.86L95.1824 94.9141C94.5931 92.6787 95.7735 90.3446 97.814 89.7016L101.576 88.5163C103.414 87.9378 105.331 89.0989 105.86 91.1085H105.858Z" fill="#E9E7E0"/>
<path d="M100.972 76.8477L102.422 77.6116L101.508 78.8835L103.355 79.591L102.044 80.9173L103.7 81.5241L102.69 83.3745L102.908 84.2009L102.899 84.2049L102.72 83.5277L99.1014 84.6665L93.54 86.4181L93.5013 86.269L91.9065 85.9485L93.0151 84.4226L93.1238 84.2694L92.958 84.2049L91.7297 83.7292L92.4848 82.4089L92.5824 82.2356L92.4332 82.2154L90.9508 81.9977L91.9563 80.3993L92.0539 80.2421L91.901 80.1917L90.3284 79.6797L91.4204 78.3695L91.5235 78.2466L91.3688 78.174L89.833 77.4403L90.8329 76.1321L90.9287 76.0071L90.785 75.9487L89.2861 75.346L90.2657 73.9834L90.3578 73.8584L90.2252 73.8242L88.8699 73.4775L89.7943 72.1955L89.8845 72.0725L89.7538 72.0342L88.3929 71.6513L89.3026 70.3189L89.3855 70.1959L89.2584 70.1556L87.555 69.6114L88.6968 68.019L88.7759 67.9041L88.6526 67.8557L87.0523 67.2087L88.1369 65.8925L88.218 65.7937L88.0983 65.7514L86.6379 65.2273L87.6121 63.905L87.6876 63.8022L87.5753 63.7639L86.242 63.3084L87.1609 62.1876L87.2346 62.0969L87.1241 62.0465L85.6988 61.3975L86.6324 60.1841L86.7024 60.0934L86.5956 60.0369L85.1813 59.3213L86.0836 58.0938L86.1481 58.0051L86.0523 57.9729L84.7191 57.5213L85.557 56.0922L85.6141 55.9935L85.5183 55.9491L84.3379 55.3888L85.0561 54.1955L85.1132 54.1048L85.0248 54.0765L85.301 53.6895L93.5952 50.789L94.0574 50.5874L95.5601 51.3574L94.5896 52.6011L96.05 53.1493L95.1402 54.6893L96.6227 55.2053L95.6669 56.6949L97.0959 57.1384L96.1162 58.4022L97.6999 58.9928L96.6411 60.3937L98.3169 60.9097L97.1972 62.5041L99.0627 63.2358L97.7994 64.798L99.35 65.451L98.2948 66.6766L99.838 67.2712L98.7662 68.4645L100.398 69.0954L99.3315 70.6132L100.959 71.1836L99.9208 72.8566L101.633 73.3686L100.448 74.8522L102.236 75.6927L100.972 76.8477Z" fill="#E9E7E0"/>
<path d="M103.407 86.1401L103.418 86.1845L99.8013 87.3254L99.7902 87.281L99.4035 85.8156L99.2856 85.3661L102.899 84.2051L103.407 86.1401Z" fill="#E9E7E0"/>
<path d="M102.72 83.5278L102.899 84.2051L99.2857 85.3661L99.1218 84.7473L99.1016 84.6667L102.72 83.5278Z" fill="#E9E7E0"/>
<path d="M99.8011 87.3252L100.18 88.7704L98.744 89.2199L98.3647 87.7767L98.3536 87.7344L97.9688 86.269L99.4033 85.8154L99.79 87.2808L99.8011 87.3252Z" fill="#E9E7E0"/>
<path d="M99.2856 85.3662L99.4035 85.8157L97.9689 86.2692L97.8511 85.8278L99.2856 85.3662Z" fill="#E9E7E0"/>
<path d="M99.1221 84.7471L99.2859 85.3659L97.8514 85.8275L97.6875 85.2006L99.1221 84.7471Z" fill="#E9E7E0"/>
<path d="M99.1014 84.6665L99.1217 84.7471L97.6871 85.2007L97.851 85.8275L93.8365 87.1176L93.7334 87.1498L93.54 86.4181L99.1014 84.6665Z" fill="#E9E7E0"/>
<path d="M98.884 101.095L98.8914 101.123L96.9725 101.727L96.7441 100.861L98.6851 100.345H98.687L98.884 101.095Z" fill="#E9E7E0"/>
<path d="M97.9689 86.2691L98.3538 87.7345L94.2288 89.0346L93.7334 87.1499L93.8365 87.1177L97.851 85.8276L97.9689 86.2691Z" fill="#E9E7E0"/>
<path d="M84.0304 50.2933L82.6143 49.7088L83.5 48.2837L83.4632 48.1406L83.2477 47.3202C83.7836 47.1307 84.1722 46.5804 84.1722 45.9314V37.4353L85.0801 36.2944L85.6012 38.1206L87.0726 37.1713L87.3746 38.9692L88.8165 37.8687L89.0541 39.7735L90.6875 39.1124V41.2611L92.3062 40.991L91.9655 42.6398L93.5271 43.5206L92.5677 44.9175L94.0114 45.5766L93.0446 46.7336L92.9875 46.8002L93.0759 46.8546L94.3834 47.6326L93.5621 48.6989L94.842 49.3298L94.0575 50.5876L93.5952 50.7892L85.301 53.6898L85.0248 54.0768L83.8978 53.6857L84.5736 52.3574L84.6694 52.1659L84.5092 52.1195L83.2091 51.7265L84.058 50.4042L84.1096 50.3276L84.0304 50.2933Z" fill="#E9E7E0"/>
<path d="M85.7372 145.51V147.741L67.1084 149.104V145.048H67.1102C68.3975 145.224 69.7657 144.917 71.0529 144.869C72.6716 144.81 74.294 144.824 75.9145 144.839C77.3178 144.853 78.721 144.865 80.1243 144.877C80.8259 144.883 81.5275 144.889 82.2291 144.895C82.6232 144.899 83.7686 145.127 84.0651 144.835C84.2898 144.615 84.3782 144.169 84.3929 143.651L85.7372 145.51Z" fill="#E9E7E0"/>
<path d="M84.0985 141.015C84.1942 141.517 84.4171 142.704 84.3931 143.651C84.3784 144.169 84.29 144.615 84.0653 144.834C83.7688 145.127 82.6234 144.899 82.2293 144.895C81.5277 144.889 80.8261 144.883 80.1245 144.877C78.7212 144.865 77.318 144.853 75.9148 144.838C74.2942 144.824 72.6719 144.81 71.0532 144.869C69.7659 144.917 68.3977 145.223 67.1105 145.048H67.1086V144.016C67.1086 143.256 67.0681 142.496 66.9889 141.742L66.3518 135.772C66.1731 134.095 65.8104 132.446 65.2671 130.864L63.6963 126.278C67.1013 125.691 70.5062 125.105 73.9112 124.52V124.416C74.9203 124.643 75.7564 125.391 76.4912 126.175C77.3567 127.096 78.1375 128.098 78.8501 129.154C77.7084 128.913 76.5501 128.669 75.3955 128.423L71.6498 128.874L67.7403 130.813L67.2044 131.702C66.93 132.158 67.2854 132.748 67.7808 132.662L71.6093 130.813C74.9645 130.114 77.097 130.273 80.3197 131.569H80.3215C81.2607 133.276 82.0728 135.078 82.8039 136.901C83.3379 138.227 83.8296 139.592 84.0985 141.015Z" fill="#E9E7E0"/>
<path d="M84.1727 45.3125V45.9313C84.1727 46.5804 83.7841 47.1306 83.2482 47.3201C83.1193 47.3665 82.983 47.3887 82.8412 47.3887H82.1875V46.1934C82.589 46.4312 82.6608 46.403 83.0954 46.2538C83.5318 46.1047 83.9093 45.758 84.1156 45.3125H84.1727Z" fill="#E9E7E0"/>
<path d="M84.1722 37.4353V45.3125H84.1151C83.9088 45.758 83.5313 46.1047 83.0949 46.2539C82.6603 46.403 82.5884 46.4313 82.187 46.1934V39.6767C82.187 38.167 81.7414 36.7701 80.9863 35.6353C81.2313 35.3269 81.5903 35.1313 81.9936 35.1313H82.8407C83.5737 35.1313 84.1722 35.7864 84.1722 36.5887V37.4353Z" fill="#E9E7E0"/>
<path d="M82.1871 47.3886V49.0253C82.1871 49.2349 82.1632 49.4385 82.1171 49.634C81.8704 50.6842 80.9993 51.4602 79.9626 51.4602H61.4074L67.4936 42.9641L68.1032 42.1135C68.6777 41.3455 68.1842 40.1845 67.2819 40.1845H41.7787C41.4656 40.1845 41.2004 40.3256 40.9794 40.5413C40.346 41.1662 40.3073 42.2526 40.8432 42.9803L47.0841 51.4602H28.168C26.9434 51.4602 25.9526 50.3738 25.9526 49.0334V40.0051C25.9637 39.2351 26.0834 37.7597 26.9102 36.266C26.9342 36.2197 26.9599 36.1753 26.9857 36.129C27.0999 35.9314 27.4074 35.4235 27.877 34.9155C29.4847 33.174 31.6485 32.8736 32.5287 32.8071H75.9112C77.9977 32.8071 79.8447 33.9198 80.9864 35.6351C81.7415 36.77 82.1871 38.1668 82.1871 39.6766V47.3886Z" fill="#E9E7E0"/>
<path d="M81.1318 131.12C81.141 131.146 81.1465 131.174 81.1465 131.2C81.1465 131.297 81.0858 131.386 80.9918 131.41L80.3215 131.569H80.3197C77.097 130.273 74.9645 130.114 71.6093 130.813L67.7808 132.662C67.2854 132.749 66.93 132.158 67.2044 131.702L67.7403 130.813L71.6498 128.874L75.3955 128.423C76.5501 128.669 77.7084 128.913 78.8502 129.155L79.8777 129.683C80.4468 129.975 80.8942 130.487 81.1318 131.12Z" fill="#E9E7E0"/>
<path d="M79.8172 51.46C80.285 51.46 80.6625 51.8732 80.6625 52.3831C80.6625 52.6391 80.5686 52.8709 80.4157 53.0382C80.2629 53.2055 80.0511 53.3083 79.8172 53.3083H60.0835L61.4075 51.46H79.8172Z" fill="#E9E7E0"/>
<path d="M79.4982 54.256V64.3283C79.4982 64.8504 79.1115 65.2737 78.6327 65.2737H29.5047C29.0277 65.2737 28.6392 64.8504 28.6392 64.3283V54.256C28.6392 53.7319 29.0277 53.3086 29.5047 53.3086H48.4447L53.0909 59.6217L53.2824 59.8817C53.5218 60.2042 53.8772 60.3957 54.2547 60.3998H54.4186C54.7869 60.4018 55.1349 60.2163 55.3633 59.8979L60.0831 53.3086H78.6327C79.1115 53.3086 79.4982 53.7319 79.4982 54.256ZM78.4633 63.5402C78.4633 63.1653 78.2165 62.8508 77.8888 62.7863C77.8464 62.7762 77.804 62.7722 77.7598 62.7722C77.3731 62.7722 77.0582 63.1169 77.0582 63.5402C77.0582 63.9635 77.3731 64.3102 77.7598 64.3102C77.804 64.3102 77.8482 64.3061 77.8906 64.2961C78.2165 64.2296 78.4633 63.9171 78.4633 63.5402ZM30.9245 63.5402C30.9245 63.1169 30.6096 62.7722 30.2229 62.7722C30.1787 62.7722 30.1363 62.7762 30.094 62.7863C29.7662 62.8508 29.5194 63.1653 29.5194 63.5402C29.5194 63.9151 29.7662 64.2296 30.0921 64.2961C30.1345 64.3061 30.1787 64.3102 30.2229 64.3102C30.6096 64.3102 30.9245 63.9655 30.9245 63.5402Z" fill="#E9E7E0"/>
<path d="M77.8891 62.7866C78.2169 62.8511 78.4637 63.1655 78.4637 63.5404C78.4637 63.9154 78.2169 64.2298 77.891 64.2963C77.8486 64.3064 77.8044 64.3104 77.7602 64.3104C77.3735 64.3104 77.0586 63.9657 77.0586 63.5404C77.0586 63.1151 77.3735 62.7725 77.7602 62.7725C77.8044 62.7725 77.8468 62.7765 77.8891 62.7866Z" fill="#E9E7E0"/>
<path d="M77.4411 65.2739C77.907 65.2739 78.2863 65.6892 78.2863 66.1991C78.2863 66.4551 78.1924 66.6869 78.0377 66.8542C77.8849 67.0215 77.6731 67.1243 77.4411 67.1243H30.696C30.2301 67.1243 29.8525 66.7111 29.8525 66.1991C29.8525 65.9431 29.9465 65.7133 30.0993 65.546C30.2521 65.3787 30.4639 65.2739 30.696 65.2739H77.4411Z" fill="#E9E7E0"/>
<path d="M75.6607 68.0719V73.6291C75.6607 75.159 74.5263 76.4007 73.1267 76.4007H35.011C33.6114 76.4007 32.4771 75.159 32.4771 73.6291V68.0719C32.4771 67.5478 32.8656 67.1245 33.3426 67.1245H74.7952C75.274 67.1245 75.6607 67.5478 75.6607 68.0719ZM74.4618 74.3588C74.4618 73.9839 74.2151 73.6694 73.8873 73.6049C73.8449 73.5948 73.8026 73.5908 73.7584 73.5908C73.3717 73.5908 73.0568 73.9355 73.0568 74.3588C73.0568 74.7821 73.3717 75.1288 73.7584 75.1288C73.8026 75.1288 73.8468 75.1247 73.8891 75.1147C74.2151 75.0481 74.4618 74.7357 74.4618 74.3588ZM34.9263 74.3588C34.9263 73.9355 34.6114 73.5908 34.2247 73.5908C34.1805 73.5908 34.1381 73.5948 34.0957 73.6049C33.768 73.6694 33.5212 73.9839 33.5212 74.3588C33.5212 74.7337 33.768 75.0481 34.0939 75.1147C34.1363 75.1247 34.1805 75.1288 34.2247 75.1288C34.6114 75.1288 34.9263 74.7841 34.9263 74.3588Z" fill="#E9E7E0"/>
<path d="M73.7711 76.4004C74.2388 76.4004 74.6163 76.8156 74.6163 77.3256C74.6163 77.5816 74.5224 77.8134 74.3696 77.9807C74.2167 78.148 74.005 78.2508 73.7711 78.2508H34.3663C33.9003 78.2508 33.521 77.8376 33.521 77.3256C33.521 77.0696 33.6168 76.8398 33.7696 76.6725C33.9224 76.5052 34.1324 76.4004 34.3663 76.4004H73.7711Z" fill="#E9E7E0"/>
<path d="M73.8877 73.6044C74.2154 73.6689 74.4622 73.9834 74.4622 74.3583C74.4622 74.7332 74.2154 75.0477 73.8895 75.1142C73.8471 75.1243 73.8029 75.1283 73.7587 75.1283C73.372 75.1283 73.0571 74.7836 73.0571 74.3583C73.0571 73.933 73.372 73.5903 73.7587 73.5903C73.8029 73.5903 73.8453 73.5944 73.8877 73.6044Z" fill="#E9E7E0"/>
<path d="M74.0085 116.702C74.5425 116.988 74.5996 117.792 74.1097 118.163L74.0214 118.231C73.9864 118.258 73.9495 118.282 73.9109 118.302C73.8225 118.348 73.7249 118.377 73.6254 118.385L63.5026 119.177L63.4326 116.611H73.6586C73.7451 116.611 73.8298 116.627 73.9109 116.657C73.944 116.669 73.9772 116.683 74.0085 116.702Z" fill="#E9E7E0"/>
<path d="M73.3463 110.77C74.3573 111.084 74.6721 112.469 73.9116 113.255L73.768 113.261L63.2437 113.709L63.0024 111.239H63.0964L73.2726 110.748L73.3334 110.766C73.3334 110.766 73.3426 110.768 73.3463 110.77Z" fill="#E9E7E0"/>
<path d="M73.9112 124.416V124.521C70.5062 125.105 67.1013 125.692 63.6963 126.278L63.5029 119.177L73.6258 118.385C73.7252 118.377 73.8228 118.349 73.9112 118.302V124.416Z" fill="#E9E7E0"/>
<path d="M73.9116 114.102V116.658C73.8305 116.627 73.7458 116.611 73.6593 116.611H63.4333L63.3965 115.273L63.2437 113.709L73.7679 113.261L73.9116 114.102Z" fill="#E9E7E0"/>
<path d="M72.8011 107.564L73.3462 110.769C73.3462 110.769 73.337 110.769 73.3333 110.765L73.2725 110.747L63.0963 111.239H63.0024L62.7114 108.26H62.7354L72.8011 107.564Z" fill="#E9E7E0"/>
<path d="M72.9814 105.289C73.8138 105.597 73.9427 106.815 73.1969 107.321L72.8452 107.561L72.801 107.565L62.7352 108.262H62.7113L62.459 105.676L62.6965 105.686L72.3811 105.083H72.4234L72.9814 105.289Z" fill="#E9E7E0"/>
<path d="M72.8932 79.1983V81.982C72.8932 83.3869 71.851 84.5258 70.5674 84.5258H37.5711C36.2875 84.5258 35.2471 83.3869 35.2471 81.982V79.1983C35.2471 78.6743 35.6338 78.251 36.1107 78.251H72.0277C72.5047 78.251 72.8932 78.6743 72.8932 79.1983ZM71.5158 82.6552C71.5158 82.2803 71.269 81.9659 70.9412 81.9014C70.8989 81.8913 70.8565 81.8873 70.8123 81.8873C70.4256 81.8873 70.1107 82.2319 70.1107 82.6552C70.1107 83.0785 70.4256 83.4252 70.8123 83.4252C70.8565 83.4252 70.9007 83.4212 70.9431 83.4111C71.269 83.3446 71.5158 83.0322 71.5158 82.6552ZM37.8731 82.6552C37.8731 82.2319 37.5582 81.8873 37.1715 81.8873C37.1273 81.8873 37.0849 81.8913 37.0426 81.9014C36.7148 81.9659 36.468 82.2803 36.468 82.6552C36.468 83.0302 36.7148 83.3446 37.0407 83.4111C37.0831 83.4212 37.1273 83.4252 37.1715 83.4252C37.5582 83.4252 37.8731 83.0805 37.8731 82.6552Z" fill="#E9E7E0"/>
<path d="M71.8542 101.983L72.3809 105.083L62.6963 105.686L62.4588 105.676L62.1567 102.596L71.8542 101.983Z" fill="#E9E7E0"/>
<path d="M71.7858 99.4998C72.375 100.181 72.4119 101.229 71.8723 101.959L71.8539 101.983L62.1564 102.596L61.8857 99.8263L71.3438 98.9878H71.3456L71.7858 99.4998Z" fill="#E9E7E0"/>
<path d="M70.9409 81.9013C71.2687 81.9658 71.5154 82.2803 71.5154 82.6552C71.5154 83.0301 71.2687 83.3445 70.9427 83.4111C70.9004 83.4211 70.8562 83.4252 70.812 83.4252C70.4253 83.4252 70.1104 83.0805 70.1104 82.6552C70.1104 82.2299 70.4253 81.8872 70.812 81.8872C70.8562 81.8872 70.8985 81.8912 70.9409 81.9013Z" fill="#E9E7E0"/>
<path d="M71.1473 97.8232L71.3443 98.9883L61.8863 99.8268L61.7739 98.6698V98.6678L71.1473 97.8232Z" fill="#E9E7E0"/>
<path d="M67.7219 90.8026L71.1471 97.8232L61.7738 98.6678L60.2085 90.8026H67.4917C67.569 90.8026 67.6464 90.7986 67.7219 90.7905V90.8026Z" fill="#E9E7E0"/>
<path d="M69.9005 85.4733V88.1662C69.9005 89.5369 68.9429 90.6636 67.722 90.7906C67.6465 90.7987 67.5691 90.8027 67.4918 90.8027H40.6461C40.4657 90.8027 40.2889 90.7805 40.1195 90.7382C39.0422 90.4762 38.2393 89.424 38.2393 88.1662V85.4733C38.2393 84.9512 38.626 84.5259 39.1029 84.5259H69.035C69.5119 84.5259 69.9005 84.9512 69.9005 85.4733ZM68.7275 88.8656C68.7275 88.4907 68.4807 88.1763 68.1529 88.1118C68.1106 88.1017 68.0682 88.0977 68.024 88.0977C67.6373 88.0977 67.3224 88.4423 67.3224 88.8656C67.3224 89.2889 67.6373 89.6356 68.024 89.6356C68.0682 89.6356 68.1124 89.6316 68.1547 89.6215C68.4807 89.555 68.7275 89.2426 68.7275 88.8656ZM40.6627 88.8656C40.6627 88.4423 40.3478 88.0977 39.9611 88.0977C39.9169 88.0977 39.8745 88.1017 39.8322 88.1118C39.5044 88.1763 39.2576 88.4907 39.2576 88.8656C39.2576 89.2406 39.5044 89.555 39.8303 89.6215C39.8727 89.6316 39.9169 89.6356 39.9611 89.6356C40.3478 89.6356 40.6627 89.2909 40.6627 88.8656Z" fill="#E9E7E0"/>
<path d="M68.1528 88.1118C68.4806 88.1763 68.7273 88.4907 68.7273 88.8656C68.7273 89.2405 68.4806 89.555 68.1546 89.6215C68.1123 89.6316 68.0681 89.6356 68.0239 89.6356C67.6372 89.6356 67.3223 89.2909 67.3223 88.8656C67.3223 88.4403 67.6372 88.0977 68.0239 88.0977C68.0681 88.0977 68.1104 88.1017 68.1528 88.1118Z" fill="#E9E7E0"/>
<path d="M67.2818 40.1846C68.1842 40.1846 68.6777 41.3456 68.1032 42.1136L67.4936 42.9642L67.4329 42.9118C67.5986 42.7001 67.698 42.43 67.698 42.1337C67.698 41.4585 67.1787 40.9102 66.5397 40.9102C66.2267 40.9102 65.9431 41.0412 65.735 41.2529C65.6889 41.2448 65.6411 41.2408 65.5932 41.2408H43.6588C43.5483 41.2408 43.4471 41.2609 43.3513 41.2992C43.1432 41.0695 42.8486 40.9284 42.5226 40.9284C41.8836 40.9284 41.3643 41.4766 41.3643 42.1519C41.3643 42.8271 41.8836 43.3734 42.5226 43.3734C42.5797 43.3734 42.6368 43.3693 42.6902 43.3593C42.7344 43.4601 42.7896 43.5548 42.8559 43.6455L48.6088 51.4603L49.9697 53.3087L53.3415 57.8903C53.2237 58.0798 53.1556 58.3075 53.1556 58.5535C53.1556 58.8498 53.255 59.1199 53.4207 59.3315L53.0929 59.6218L48.4468 53.3087L47.0859 51.4603L40.845 42.9803C40.3091 42.2527 40.3478 41.1662 40.9813 40.5413C41.2023 40.3257 41.4674 40.1846 41.7805 40.1846H67.2837H67.2818Z" fill="#E9E7E0"/>
<path d="M67.4933 42.964L61.4071 51.4601L60.0831 53.3085L55.3633 59.8978C55.1349 60.2162 54.7869 60.4017 54.4186 60.4017H54.2547C53.8772 60.3956 53.5217 60.2041 53.2823 59.8816L53.0908 59.6216L53.4186 59.3314C53.6304 59.6035 53.9527 59.7768 54.3136 59.7768C54.9544 59.7768 55.4737 59.2286 55.4737 58.5533C55.4737 58.4001 55.4461 58.255 55.3964 58.1199L58.8419 53.3085L60.1659 51.4601L66.0533 43.2422C66.2006 43.3148 66.3663 43.3551 66.5394 43.3551C66.8985 43.3551 67.2208 43.1817 67.4326 42.9116L67.4933 42.964Z" fill="#E9E7E0"/>
<path d="M66.5364 41.1382C67.0612 41.1382 67.4848 41.5857 67.4848 42.138C67.4848 42.6903 67.0612 43.1377 66.5364 43.1377C66.0115 43.1377 65.5898 42.6903 65.5898 42.138C65.5898 41.5857 66.0134 41.1382 66.5364 41.1382ZM67.1201 41.6723C67.1551 41.634 67.1551 41.5716 67.1201 41.5333H67.1165C67.0815 41.4929 67.0244 41.4929 66.9894 41.5333L66.6266 41.9303C66.5916 41.9686 66.5345 41.9686 66.4995 41.9303L66.1644 41.5635C66.1294 41.5252 66.0723 41.5252 66.0373 41.5635H66.0355C66.0005 41.6038 66.0005 41.6663 66.0355 41.7046L66.3706 42.0714C66.4056 42.1097 66.4056 42.1722 66.3706 42.2105L66.0631 42.5471C66.0281 42.5854 66.0281 42.6479 66.0631 42.6862H66.065C66.0999 42.7265 66.157 42.7265 66.192 42.6862L66.4995 42.3496C66.5345 42.3113 66.5916 42.3113 66.6266 42.3496L66.9618 42.7165C66.9968 42.7548 67.0538 42.7548 67.0888 42.7165H67.0907C67.1257 42.6761 67.1257 42.6137 67.0925 42.5754L66.7555 42.2085C66.7205 42.1702 66.7205 42.1077 66.7555 42.0694L67.1201 41.6723Z" fill="#E9E7E0"/>
<path d="M67.109 145.103V149.104L56.3066 141.398V138.896L56.8259 138.084C56.9954 138.729 57.0101 138.86 57.5349 139.215C59.1426 140.271 60.7134 141.39 62.3266 142.432C63.7022 143.323 64.982 144.536 66.5768 144.945C66.7536 144.99 66.9304 145.024 67.109 145.048V145.103Z" fill="#E9E7E0"/>
<path d="M67.1089 144.017V145.049C66.9303 145.024 66.7535 144.99 66.5767 144.946C64.982 144.537 63.7021 143.323 62.3265 142.432C60.7133 141.39 59.1425 140.271 57.5348 139.215C57.01 138.861 56.9953 138.729 56.8259 138.084C56.6583 137.437 56.6859 136.752 56.7319 136.081C56.9861 132.37 57.7521 128.699 59.0007 125.232L59.0228 125.136C60.38 125.517 61.7372 125.898 63.0944 126.279H63.6966L65.2674 130.864C65.8106 132.447 66.1734 134.095 66.352 135.772L66.9892 141.743C67.0684 142.497 67.1089 143.257 67.1089 144.017Z" fill="#E9E7E0"/>
<path d="M67.0735 19.9509V23.7243C67.0735 24.1859 66.8856 24.5608 66.6517 24.5608H66.0054V24.5225C66.0091 24.4983 66.0091 24.4721 66.0091 24.4459V19.3261C66.0091 19.2978 66.0091 19.2696 66.0054 19.2434V19.062H66.626C66.8727 19.062 67.0735 19.4591 67.0735 19.9509Z" fill="#E9E7E0"/>
<path d="M66.0532 43.2423L60.1658 51.4602L58.8418 53.3086L55.3963 58.12C55.2324 57.6584 54.8089 57.3299 54.3135 57.3299C53.9047 57.3299 53.5456 57.5536 53.3393 57.8902L49.9675 53.3086L48.6066 51.4602L42.8537 43.6454C42.7874 43.5547 42.7322 43.46 42.688 43.3592C43.2497 43.2745 43.6806 42.7666 43.6806 42.1518C43.6806 41.8212 43.5535 41.5189 43.3509 41.2992C43.4467 41.2609 43.548 41.2407 43.6585 41.2407H65.5928C65.6407 41.2407 65.6886 41.2448 65.7346 41.2528C65.5155 41.4745 65.3792 41.787 65.3792 42.1337C65.3792 42.6255 65.6554 43.0508 66.0532 43.2423ZM61.1455 44.5545C61.1455 43.7059 60.5157 43.0165 59.7405 43.0165C59.258 43.0165 58.8326 43.2826 58.5803 43.6857H50.3782C50.1204 43.3511 49.7355 43.1375 49.3027 43.1375C48.5256 43.1375 47.8976 43.8268 47.8976 44.6754C47.8976 45.524 48.5256 46.2134 49.3027 46.2134C49.8294 46.2134 50.2916 45.8949 50.5292 45.4233H58.5821C58.8344 45.8284 59.258 46.0925 59.7405 46.0925C60.5157 46.0925 61.1455 45.4051 61.1455 44.5545ZM59.9467 49.116C59.9467 48.3903 59.4513 47.7997 58.84 47.7997C58.4588 47.7997 58.1236 48.0275 57.9266 48.3722H51.4665C51.2639 48.086 50.9601 47.9046 50.6213 47.9046C50.0099 47.9046 49.5145 48.4931 49.5145 49.2208C49.5145 49.9485 50.0099 50.535 50.6213 50.535C51.0356 50.535 51.3984 50.2629 51.5862 49.8598H57.9284C58.1254 50.2045 58.4588 50.4302 58.84 50.4302C59.4513 50.4302 59.9467 49.8436 59.9467 49.116ZM57.8492 53.3086C57.8953 53.1937 57.9192 53.0647 57.9192 52.9276C57.9192 52.4358 57.5969 52.0367 57.1992 52.0367C56.9524 52.0367 56.7333 52.1899 56.6044 52.4237H52.3965C52.2639 52.2302 52.065 52.1073 51.844 52.1073C51.4463 52.1073 51.124 52.5064 51.124 52.9982C51.124 53.107 51.1406 53.2118 51.17 53.3086C51.2713 53.6493 51.5346 53.8911 51.844 53.8911C52.1147 53.8911 52.3504 53.7057 52.4738 53.4336H56.6044C56.7333 53.6674 56.9524 53.8206 57.1992 53.8206C57.4864 53.8206 57.735 53.611 57.8492 53.3086Z" fill="#E9E7E0"/>
<path d="M66.0055 19.2438V24.5228C65.9705 25.1154 65.523 25.5811 64.9761 25.5811H63.3887V18.123H64.9098C65.4917 18.123 65.9668 18.6169 66.0055 19.2438Z" fill="#E9E7E0"/>
<path d="M63.5033 119.177L63.6966 126.279H63.0945C61.7373 125.898 60.3801 125.517 59.0229 125.136C58.6785 125.039 58.3323 124.942 57.9879 124.845L57.6196 118.294C57.6473 118.3 57.673 118.307 57.7007 118.311L63.3302 119.171C63.3854 119.179 63.4407 119.181 63.4959 119.177H63.5033Z" fill="#E9E7E0"/>
<path d="M63.4327 116.611L63.5027 119.177H63.4953C63.4401 119.181 63.3849 119.179 63.3296 119.171L57.7001 118.31C57.6725 118.306 57.6467 118.3 57.6191 118.294C57.5196 118.266 57.4275 118.22 57.3447 118.155L56.9561 117.847C56.4994 117.486 56.5344 116.736 57.0206 116.424L57.19 116.315C57.2857 116.254 57.3926 116.214 57.503 116.202C57.5491 116.196 57.597 116.194 57.643 116.198L63.302 116.609H63.4327V116.611Z" fill="#E9E7E0"/>
<path d="M63.3964 115.273L63.4332 116.611H63.3025L57.6435 116.2C57.5974 116.196 57.5496 116.2 57.5035 116.204L57.4004 113.712H63.2435L63.3964 115.275V115.273Z" fill="#E9E7E0"/>
<path d="M63.3886 25.5812V32.7892H61.7202C61.7479 31.8842 61.7386 29.0401 61.7221 25.8795C62.2211 25.2667 62.5231 24.4685 62.5231 23.5977C62.5231 22.727 62.2119 21.9005 61.6981 21.2837C61.6926 20.4351 61.6889 19.6228 61.6871 18.877C62.0149 18.8125 62.2635 18.5001 62.2635 18.1232C62.2635 17.7462 62.0149 17.4318 61.6852 17.3693C61.6852 16.9097 61.6852 16.5005 61.6889 16.1538C62.0314 16.1034 62.2966 15.7809 62.2966 15.3919C62.2966 15.0029 62.0443 14.6945 61.711 14.634C61.7037 13.9406 61.6079 13.2432 61.1807 12.7554C61.7736 12.5296 62.1585 12.2716 62.2782 11.9955C62.2856 11.9773 62.2929 11.9612 62.2966 11.9431C62.3003 11.935 62.304 11.929 62.304 11.9209C62.3077 11.9149 62.3077 11.9108 62.3095 11.9048C62.4163 12.0237 62.5655 12.2011 62.7146 12.4349C63.0038 12.8844 63.1474 13.3037 63.2211 13.5576C63.3573 14.0434 63.3886 14.4687 63.3886 14.7671V18.1232H63.3831V25.5812H63.3886Z" fill="#E9E7E0"/>
<path d="M63.0023 111.239L63.2436 113.709H57.3839C56.964 113.41 56.7485 112.922 56.7485 112.433C56.7485 112.003 56.9143 111.572 57.2531 111.266L57.2826 111.237H63.0023V111.239Z" fill="#E9E7E0"/>
<path d="M62.7108 108.26L63.0017 111.24H57.3004L57.1567 107.738L57.1641 107.744L62.7108 108.26Z" fill="#E9E7E0"/>
<path d="M62.4588 105.676L62.7111 108.26L57.1644 107.744L57.1571 107.738L57.0466 107.655C56.3523 107.133 56.345 106.022 57.0337 105.49L57.065 105.466L57.0724 105.46L62.4588 105.676Z" fill="#E9E7E0"/>
<path d="M62.1569 102.596L62.4589 105.676L57.0725 105.46L57.0651 105.466L56.9473 102.596H62.1569Z" fill="#E9E7E0"/>
<path d="M62.5233 23.5977C62.5233 24.4685 62.2213 25.2667 61.7222 25.8794C61.1145 26.6293 60.2085 27.105 59.1975 27.105C57.7648 27.105 56.5457 26.1515 56.0779 24.8131C56.0724 24.801 56.0687 24.7889 56.0651 24.7768V24.7688C56.0558 24.7446 56.0466 24.7204 56.0411 24.6962C55.9343 24.3052 55.8735 23.5614 55.8735 23.517C55.8735 23.4929 55.8735 23.4727 55.8754 23.4505V23.3901C55.8791 23.3497 55.8827 23.3115 55.8864 23.2711C55.8864 23.2611 55.8883 23.249 55.8883 23.2389C56.0595 21.4691 57.4738 20.0884 59.1975 20.0884C60.1937 20.0884 61.0887 20.55 61.6983 21.2837C62.212 21.9005 62.5233 22.7108 62.5233 23.5977ZM61.7148 24.6781C61.8419 24.3495 61.91 23.9887 61.91 23.6118C61.91 23.2349 61.8364 22.8519 61.7038 22.5132C61.5252 22.0577 61.2397 21.6626 60.8769 21.3623C60.4147 20.9753 59.8291 20.7435 59.1901 20.7435C57.6874 20.7435 56.4702 22.0275 56.4702 23.6118C56.4702 25.1961 57.6874 26.4801 59.1901 26.4801C59.8346 26.4801 60.4258 26.2443 60.8917 25.8512C61.2545 25.5428 61.5417 25.1397 61.7148 24.6781Z" fill="#E9E7E0"/>
<path d="M62.304 11.9205C62.304 11.9205 62.3003 11.9346 62.2966 11.9427C62.2929 11.9548 62.2892 11.9649 62.2837 11.977C61.8878 12.8961 58.5436 13.6157 54.4757 13.6157C54.1736 13.6157 53.8753 13.6117 53.5825 13.6036L53.5954 13.1138H55.1441C55.6156 13.1138 55.9967 12.6945 55.9967 12.1785V10.7212H59.6706C60.6963 10.7212 61.6244 11.1747 62.2947 11.9125C62.2984 11.9165 62.3003 11.9185 62.304 11.9205Z" fill="#E9E7E0"/>
<path d="M61.7111 14.6337C62.0444 14.6941 62.2967 15.0106 62.2967 15.3916C62.2967 15.7725 62.0315 16.1031 61.689 16.1535C61.6577 16.1595 61.6264 16.1616 61.5932 16.1616C61.2047 16.1616 60.8916 15.8169 60.8916 15.3916C60.8916 14.9663 61.2047 14.6216 61.5932 14.6216C61.6337 14.6216 61.6724 14.6256 61.7111 14.6337Z" fill="#E9E7E0"/>
<path d="M61.8863 99.8267L62.157 102.596H56.7871L56.4188 102.072C55.8792 101.304 56.0063 100.208 56.7024 99.605L56.8258 99.611L61.8863 99.8267Z" fill="#E9E7E0"/>
<path d="M61.6857 17.3691C62.0154 17.4316 62.264 17.746 62.264 18.123C62.264 18.4999 62.0154 18.8123 61.6876 18.8768C61.6471 18.8869 61.6047 18.8909 61.5605 18.8909C61.1738 18.8909 60.8589 18.5483 60.8589 18.123C60.8589 17.6976 61.1738 17.355 61.5605 17.355C61.6029 17.355 61.6452 17.359 61.6857 17.3691Z" fill="#E9E7E0"/>
<path d="M61.7735 98.6695L61.8858 99.8265L56.8253 99.6108L56.7866 98.6695V98.6675H61.7735V98.6695Z" fill="#E9E7E0"/>
<path d="M60.2082 90.8027L61.7735 98.6679H56.7866L58.1954 90.8027H60.2082Z" fill="#E9E7E0"/>
<path d="M61.9101 23.6113C61.9101 23.9882 61.842 24.3491 61.7149 24.6776C61.5418 25.1392 61.2545 25.5423 60.8918 25.8507L60.5916 25.3549C60.6579 25.3549 60.7223 25.3267 60.7721 25.2722L60.7813 25.2622C60.8807 25.1533 60.8807 24.9759 60.7813 24.8671L59.8182 23.8109C59.7169 23.702 59.7169 23.5246 59.8182 23.4158L60.8605 22.2729C60.9599 22.1641 60.9617 21.9867 60.8605 21.8778L60.8512 21.8678C60.8015 21.8113 60.7352 21.7851 60.6708 21.7851L60.877 21.3618C61.2398 21.6622 61.5252 22.0572 61.7039 22.5128C61.8365 22.8514 61.9101 23.2223 61.9101 23.6113Z" fill="#E9E7E0"/>
<path d="M61.7221 25.8794C61.7387 29.04 61.7479 31.8841 61.7203 32.7891H47.0139C46.9863 31.8861 46.9973 29.044 47.0139 25.8854C47.6253 26.6474 48.5368 27.1311 49.557 27.1311C51.1021 27.1311 52.4022 26.0185 52.776 24.5107L52.2696 27.4315H56.4701L56.4664 27.4133H56.4756L56.0779 24.8131C56.5456 26.1515 57.7647 27.1049 59.1974 27.1049C60.2084 27.1049 61.1144 26.6292 61.7221 25.8794ZM59.7719 31.3076L59.3963 30.7352L58.9359 30.0317L58.5713 29.4754L58.1164 28.784L57.6745 28.1087L57.2306 27.4315L51.3525 27.5464L50.9603 28.2216L50.6177 28.8122L50.2329 29.4754L49.8664 30.1063L49.557 30.6424L49.1703 31.3076H59.7719Z" fill="#E9E7E0"/>
<path d="M61.6871 18.8768C61.6889 19.6226 61.6926 20.4349 61.6981 21.2835C61.0886 20.5498 60.1936 20.0882 59.1973 20.0882C57.4737 20.0882 56.0594 21.469 55.8881 23.2387L56.0889 19.1147H52.5384V19.1308H52.5347L52.9693 23.3939L52.8625 24.0067C52.8754 23.8817 52.8828 23.7527 52.8828 23.6237C52.8828 21.6846 51.393 20.1144 49.557 20.1144C48.5497 20.1144 47.6473 20.5861 47.0378 21.3319C47.0433 20.4591 47.047 19.6246 47.0488 18.8607C47.0912 18.8708 47.1354 18.8748 47.1796 18.8748C47.5663 18.8748 47.8812 18.5301 47.8812 18.1048C47.8812 17.6795 47.5663 17.3368 47.1796 17.3368C47.1354 17.3368 47.093 17.3409 47.0507 17.3509C47.0507 16.8914 47.0507 16.4802 47.047 16.1355C47.0801 16.1415 47.1133 16.1435 47.1464 16.1435C47.535 16.1435 47.8481 15.7989 47.8481 15.3735C47.8481 14.9482 47.535 14.6036 47.1464 14.6036C47.1059 14.6036 47.0654 14.6076 47.0249 14.6157C47.0341 13.9283 47.1317 13.2389 47.5553 12.7552L47.581 12.6826C48.9106 13.249 51.498 13.632 54.472 13.632C57.4461 13.632 59.805 13.2813 61.1807 12.7552C61.6079 13.243 61.7037 13.9404 61.711 14.6338C61.6723 14.6257 61.6337 14.6217 61.5932 14.6217C61.2046 14.6217 60.8915 14.9664 60.8915 15.3917C60.8915 15.817 61.2046 16.1617 61.5932 16.1617C61.6263 16.1617 61.6576 16.1597 61.6889 16.1536C61.6871 16.5003 61.6852 16.9095 61.6852 17.3691C61.6447 17.359 61.6024 17.355 61.56 17.355C61.1733 17.355 60.8584 17.6996 60.8584 18.1229C60.8584 18.5462 61.1733 18.8909 61.56 18.8909C61.6042 18.8909 61.6466 18.8869 61.6871 18.8768Z" fill="#E9E7E0"/>
<path d="M60.8601 21.8784C60.9614 21.9872 60.9595 22.1646 60.8601 22.2734L59.8178 23.4163L59.4458 23.0092L60.4899 21.8683C60.5397 21.8118 60.606 21.7856 60.6704 21.7856C60.7349 21.7856 60.8012 21.8118 60.8509 21.8683L60.8601 21.8784Z" fill="#E9E7E0"/>
<path d="M60.5915 25.3555L60.8917 25.8514C60.4258 26.2444 59.8347 26.4803 59.1901 26.4803C57.6875 26.4803 56.4702 25.1963 56.4702 23.612C56.4702 22.0276 57.6875 20.7437 59.1901 20.7437C59.8292 20.7437 60.4147 20.9755 60.877 21.3625L60.6707 21.7858C60.6063 21.7858 60.54 21.812 60.4903 21.8684L59.4461 23.0093C59.3467 23.1181 59.1846 23.1181 59.0852 23.0093L58.1202 21.9551C58.0208 21.8442 57.8587 21.8442 57.7593 21.9551L57.7501 21.9652C57.6488 22.074 57.6488 22.2514 57.7501 22.3602L58.7132 23.4164C58.8126 23.5253 58.8126 23.7027 58.7132 23.8115L57.8293 24.779C57.7298 24.8899 57.7298 25.0673 57.8293 25.1761L57.8385 25.1862C57.9379 25.2951 58.1 25.2951 58.1994 25.1862L59.0852 24.2187C59.1846 24.1078 59.3467 24.1078 59.4461 24.2187L60.4092 25.2729C60.4589 25.3273 60.5252 25.3555 60.5915 25.3555Z" fill="#E9E7E0"/>
<path d="M59.7408 43.0166C60.516 43.0166 61.1458 43.706 61.1458 44.5546C61.1458 45.4032 60.516 46.0925 59.7408 46.0925C59.2583 46.0925 58.8347 45.8285 58.5824 45.4233H50.5295C50.2919 45.895 49.8297 46.2135 49.303 46.2135C48.5259 46.2135 47.8979 45.5241 47.8979 44.6755C47.8979 43.8269 48.5259 43.1375 49.303 43.1375C49.7358 43.1375 50.1207 43.3512 50.3785 43.6858H58.5806C58.8329 43.2827 59.2583 43.0166 59.7408 43.0166ZM60.5621 44.615C60.5621 44.1272 60.1993 43.7322 59.7555 43.7322C59.3117 43.7322 58.9471 44.1272 58.9471 44.615C58.9471 45.1028 59.3098 45.4979 59.7555 45.4979C60.2011 45.4979 60.5621 45.1028 60.5621 44.615ZM50.0986 44.7561C50.0986 44.2683 49.7376 43.8712 49.292 43.8712C48.8463 43.8712 48.4854 44.2683 48.4854 44.7561C48.4854 45.2439 48.8463 45.639 49.292 45.639C49.7376 45.639 50.0986 45.2419 50.0986 44.7561Z" fill="#E9E7E0"/>
<path d="M60.7809 24.8673C60.8803 24.9761 60.8803 25.1535 60.7809 25.2623L60.7717 25.2724C60.722 25.3268 60.6575 25.355 60.5912 25.355C60.5249 25.355 60.4586 25.3268 60.4089 25.2724L59.4458 24.2182L59.8178 23.811L60.7809 24.8673Z" fill="#E9E7E0"/>
<path d="M59.7557 43.7319C60.1995 43.7319 60.5623 44.127 60.5623 44.6148C60.5623 45.1026 60.1995 45.4977 59.7557 45.4977C59.3119 45.4977 58.9473 45.1026 58.9473 44.6148C58.9473 44.127 59.31 43.7319 59.7557 43.7319Z" fill="#E9E7E0"/>
<path d="M59.8183 23.8115L59.4463 24.2187C59.3469 24.1078 59.1848 24.1078 59.0854 24.2187L58.7134 23.8115C58.8128 23.7027 58.8128 23.5253 58.7134 23.4164L59.0854 23.0093C59.1848 23.1181 59.3469 23.1181 59.4463 23.0093L59.8183 23.4164C59.717 23.5253 59.717 23.7027 59.8183 23.8115Z" fill="#E9E7E0"/>
<path d="M58.8406 47.7998C59.452 47.7998 59.9473 48.3904 59.9473 49.116C59.9473 49.8417 59.452 50.4303 58.8406 50.4303C58.4594 50.4303 58.1261 50.2045 57.929 49.8598H51.5868C51.399 50.263 51.0362 50.5351 50.6219 50.5351C50.0105 50.5351 49.5151 49.9465 49.5151 49.2209C49.5151 48.4952 50.0105 47.9046 50.6219 47.9046C50.9607 47.9046 51.2646 48.086 51.4671 48.3723H57.9272C58.1242 48.0276 58.4594 47.7998 58.8406 47.7998ZM59.4796 49.1664C59.4796 48.7996 59.2071 48.5013 58.8719 48.5013C58.5367 48.5013 58.2642 48.7996 58.2642 49.1664C58.2642 49.5333 58.5367 49.8336 58.8719 49.8336C59.2071 49.8336 59.4796 49.5353 59.4796 49.1664ZM51.2038 49.2854C51.2038 48.9185 50.9313 48.6202 50.5961 48.6202C50.261 48.6202 49.9884 48.9185 49.9884 49.2854C49.9884 49.6522 50.261 49.9505 50.5961 49.9505C50.9313 49.9505 51.2038 49.6542 51.2038 49.2854Z" fill="#E9E7E0"/>
<path d="M58.8714 48.501C59.2065 48.501 59.4791 48.7993 59.4791 49.1662C59.4791 49.533 59.2065 49.8333 58.8714 49.8333C58.5362 49.8333 58.2637 49.535 58.2637 49.1662C58.2637 48.7973 58.5362 48.501 58.8714 48.501Z" fill="#E9E7E0"/>
<path d="M59.0849 23.0089L58.7129 23.4161L57.7498 22.3599C57.6485 22.251 57.6485 22.0737 57.7498 21.9648L57.759 21.9547C57.8584 21.8439 58.0205 21.8439 58.1199 21.9547L59.0849 23.0089Z" fill="#E9E7E0"/>
<path d="M59.0854 24.2182L58.1996 25.1857C58.1002 25.2946 57.9381 25.2946 57.8387 25.1857L57.8295 25.1757C57.73 25.0668 57.73 24.8894 57.8295 24.7786L58.7134 23.811L59.0854 24.2182Z" fill="#E9E7E0"/>
<path d="M57.9197 52.9275C57.9197 53.0646 57.8958 53.1936 57.8497 53.3085C57.7356 53.6109 57.487 53.8205 57.1997 53.8205C56.9529 53.8205 56.7338 53.6673 56.6049 53.4335H52.4743C52.351 53.7056 52.1152 53.891 51.8445 53.891C51.5352 53.891 51.2718 53.6492 51.1705 53.3085C51.1411 53.2118 51.1245 53.1069 51.1245 52.9981C51.1245 52.5063 51.4468 52.1072 51.8445 52.1072C52.0655 52.1072 52.2644 52.2301 52.397 52.4236H56.6049C56.7338 52.1898 56.9529 52.0366 57.1997 52.0366C57.5975 52.0366 57.9197 52.4357 57.9197 52.9275ZM57.6619 52.9638C57.6619 52.6978 57.4649 52.4821 57.2236 52.4821C56.9824 52.4821 56.7835 52.6978 56.7835 52.9638C56.7835 53.0989 56.8351 53.2218 56.9161 53.3085C56.9953 53.3932 57.1039 53.4456 57.2236 53.4456C57.3433 53.4456 57.4501 53.3932 57.5293 53.3085C57.6103 53.2218 57.6619 53.0989 57.6619 52.9638ZM52.2736 52.9638C52.2736 52.6978 52.0766 52.4821 51.8335 52.4821C51.5904 52.4821 51.3934 52.6978 51.3934 52.9638C51.3934 53.0989 51.4449 53.2218 51.526 53.3085C51.6051 53.3932 51.7138 53.4456 51.8335 53.4456C51.9532 53.4456 52.0618 53.3932 52.141 53.3085C52.2221 53.2218 52.2736 53.0989 52.2736 52.9638Z" fill="#E9E7E0"/>
<path d="M57.2233 52.4824C57.4646 52.4824 57.6616 52.6981 57.6616 52.9642C57.6616 53.0992 57.61 53.2222 57.529 53.3089C57.4498 53.3935 57.3412 53.4459 57.2233 53.4459C57.1055 53.4459 56.995 53.3935 56.9158 53.3089C56.8348 53.2222 56.7832 53.0992 56.7832 52.9642C56.7832 52.6981 56.9802 52.4824 57.2233 52.4824Z" fill="#E9E7E0"/>
<path d="M56.0652 24.7768L56.4667 27.4133H52.2754L52.7892 24.4523C52.8186 24.3233 52.8426 24.1922 52.8573 24.0572L52.9752 23.3759L52.5406 19.1309H56.0837L55.8774 23.39V23.4505L55.8719 23.5049V23.515H55.8737C55.8719 23.5452 55.8719 23.5694 55.8719 23.5976C55.8719 23.9806 55.9308 24.3515 56.0413 24.6962C56.0468 24.7203 56.056 24.7445 56.0634 24.7687V24.7768H56.0652Z" fill="#E9E7E0"/>
<path d="M55.9971 10.7214V12.1787C55.9971 12.6948 55.6159 13.114 55.1445 13.114H53.5958C53.1244 13.114 52.7432 12.6948 52.7432 12.1787V3.47705H55.9971V10.7214Z" fill="#E9E7E0"/>
<path d="M55.9971 2.41846H52.7432V3.47669H55.9971V2.41846Z" fill="#E9E7E0"/>
<path d="M55.9971 0.93326V2.41882H52.7432V0.93326C52.7432 0.417246 53.1244 0 53.5958 0H55.1445C55.6159 0 55.9971 0.417246 55.9971 0.93326Z" fill="#E9E7E0"/>
<path d="M54.3122 57.5596C54.8351 57.5596 55.2587 58.007 55.2587 58.5593C55.2587 59.1116 54.8351 59.5591 54.3122 59.5591C53.7892 59.5591 53.3638 59.1116 53.3638 58.5593C53.3638 58.007 53.7873 57.5596 54.3122 57.5596ZM54.8941 58.0917C54.9291 58.0534 54.9291 57.9929 54.8941 57.9546L54.8904 57.9506C54.8554 57.9123 54.7983 57.9123 54.7633 57.9506L54.4005 58.3497C54.3656 58.388 54.3085 58.388 54.2735 58.3497L53.9383 57.9808C53.9033 57.9425 53.8462 57.9425 53.8131 57.9808L53.8094 57.9849C53.7744 58.0232 53.7744 58.0836 53.8094 58.1219L54.1446 58.4908C54.1796 58.5291 54.1796 58.5896 54.1446 58.6279L53.837 58.9665C53.8021 59.0048 53.8021 59.0653 53.837 59.1036L53.8407 59.1076C53.8757 59.1459 53.931 59.1459 53.9659 59.1076L54.2735 58.771C54.3085 58.7327 54.3656 58.7327 54.4005 58.771L54.7357 59.1379C54.7707 59.1761 54.8278 59.1761 54.8628 59.1379L54.8664 59.1338C54.9014 59.0955 54.9014 59.035 54.8664 58.9968L54.5294 58.6279C54.4945 58.5896 54.4945 58.5291 54.5294 58.4908L54.8941 58.0917Z" fill="#E9E7E0"/>
<path d="M53.5959 13.1138L53.583 13.6036C49.8373 13.5048 46.8928 12.7933 46.646 11.9145C47.4747 11.0155 48.6054 10.7857 49.272 10.7212H52.7414V12.1785C52.7414 12.6945 53.1226 13.1138 53.594 13.1138H53.5959Z" fill="#E9E7E0"/>
<path d="M52.8829 23.624C52.8829 23.753 52.8755 23.8821 52.8626 24.007V24.0171L52.7779 24.5009V24.5109C52.4023 26.0187 51.1022 27.1313 49.5571 27.1313C48.5369 27.1313 47.6254 26.6476 47.014 25.8856C46.5241 25.2769 46.2295 24.4868 46.2295 23.624C46.2295 22.7613 46.5333 21.947 47.0379 21.3322C47.6475 20.5864 48.5498 20.1147 49.5571 20.1147C51.3931 20.1147 52.8829 21.685 52.8829 23.624ZM51.6491 25.4623C52.0376 24.9665 52.2697 24.3315 52.2697 23.6382C52.2697 22.7472 51.8848 21.951 51.2789 21.4249C50.8094 21.0158 50.2072 20.7698 49.5498 20.7698C48.4135 20.7698 47.4394 21.5056 47.0324 22.5497C46.9016 22.8843 46.8298 23.2532 46.8298 23.6382C46.8298 24.0231 46.8961 24.3658 47.0213 24.6924C47.4173 25.7546 48.4006 26.5065 49.5498 26.5065C50.395 26.5065 51.15 26.0993 51.6491 25.4623Z" fill="#E9E7E0"/>
<path d="M51.8332 52.4824C52.0763 52.4824 52.2733 52.6981 52.2733 52.9642C52.2733 53.0992 52.2218 53.2222 52.1407 53.3089C52.0615 53.3935 51.9529 53.4459 51.8332 53.4459C51.7135 53.4459 51.6048 53.3935 51.5257 53.3089C51.4446 53.2222 51.3931 53.0992 51.3931 52.9642C51.3931 52.6981 51.5901 52.4824 51.8332 52.4824Z" fill="#E9E7E0"/>
<path d="M52.27 23.638C52.27 24.3314 52.0379 24.9664 51.6494 25.4622L51.1319 25.2989L51.1411 25.2889C51.2405 25.18 51.2405 25.0026 51.1411 24.8938L50.178 23.8396H50.1761C50.0767 23.7287 50.0767 23.5513 50.1761 23.4425H50.178L51.2203 22.2996C51.3197 22.1908 51.3197 22.0134 51.2203 21.9045L51.2111 21.8945C51.1614 21.84 51.0969 21.8118 51.0306 21.8118L51.2792 21.4248C51.8851 21.9509 52.27 22.7471 52.27 23.638Z" fill="#E9E7E0"/>
<path d="M51.1314 25.2988L51.6488 25.462C51.1498 26.099 50.3948 26.5062 49.5495 26.5062C48.4004 26.5062 47.417 25.7543 47.0211 24.692C46.8959 24.3655 46.8296 24.0107 46.8296 23.6378C46.8296 23.2649 46.9014 22.884 47.0322 22.5494C47.4391 21.5053 48.4133 20.7695 49.5495 20.7695C50.2069 20.7695 50.8091 21.0154 51.2787 21.4246L51.0301 21.8116C50.9638 21.8116 50.8993 21.8399 50.8496 21.8943L49.8055 23.0352C49.706 23.146 49.544 23.146 49.4427 23.0352L48.4796 21.981C48.3802 21.8721 48.2181 21.8721 48.1187 21.981L48.1094 21.991C48.0082 22.0999 48.0082 22.2773 48.1094 22.3861L49.0726 23.4423C49.172 23.5512 49.172 23.7286 49.0726 23.8374L48.1886 24.8049C48.0873 24.9158 48.0873 25.0932 48.1886 25.202L48.1978 25.2121C48.2973 25.3209 48.4593 25.3209 48.5588 25.2121L49.4427 24.2446C49.544 24.1357 49.706 24.1357 49.8055 24.2446L50.7686 25.2988C50.8699 25.4096 51.0319 25.4096 51.1314 25.2988Z" fill="#E9E7E0"/>
<path d="M51.5403 138.896V141.398L40.9589 149.021L40.8447 148.83V145.048C41.0215 145.024 41.1983 144.99 41.3732 144.945C42.9514 144.536 44.2184 143.323 45.5811 142.432C47.1777 141.39 48.7338 140.271 50.323 139.215C50.8442 138.86 50.8589 138.729 51.0265 138.084L51.5403 138.896Z" fill="#E9E7E0"/>
<path d="M51.1481 99.605C51.8387 100.208 51.9639 101.304 51.4281 102.072L51.0653 102.596H45.7212L45.9901 99.8247H46.0158L51.0156 99.611L51.1481 99.605Z" fill="#E9E7E0"/>
<path d="M51.22 21.9042C51.3194 22.0131 51.3194 22.1905 51.22 22.2993L50.1777 23.4422H50.1758L49.8057 23.035L50.8498 21.8942C50.8995 21.8397 50.964 21.8115 51.0303 21.8115C51.0966 21.8115 51.161 21.8397 51.2107 21.8942L51.22 21.9042Z" fill="#E9E7E0"/>
<path d="M51.1408 24.8936C51.2402 25.0024 51.2402 25.1798 51.1408 25.2886L51.1316 25.2987C51.0321 25.4096 50.8701 25.4096 50.7688 25.2987L49.8057 24.2445L50.1777 23.8394L51.1408 24.8936Z" fill="#E9E7E0"/>
<path d="M51.1204 136.08C51.1646 136.752 51.1922 137.437 51.0265 138.084C50.8589 138.729 50.8442 138.86 50.323 139.215C48.7338 140.271 47.1777 141.39 45.5811 142.432C44.2184 143.323 42.9514 144.536 41.3732 144.945C41.1983 144.99 41.0215 145.024 40.8447 145.048V143.742C40.8447 142.982 40.8834 142.222 40.9626 141.468L41.5924 135.498C41.7692 133.821 42.1301 132.172 42.6678 130.59L44.2239 126.004H44.8187C46.1391 125.631 47.4558 125.256 48.7743 124.883C50.01 128.35 50.8681 132.37 51.1204 136.08Z" fill="#E9E7E0"/>
<path d="M49.7487 90.8027L51.0654 98.3958L51.0544 98.6679H46.1283L46.1025 98.6659L46.1283 98.3958L47.6163 90.841L49.7487 90.8027Z" fill="#E9E7E0"/>
<path d="M50.5955 49.9505C50.9311 49.9505 51.2032 49.6527 51.2032 49.2853C51.2032 48.9179 50.9311 48.6201 50.5955 48.6201C50.2599 48.6201 49.9878 48.9179 49.9878 49.2853C49.9878 49.6527 50.2599 49.9505 50.5955 49.9505Z" fill="#E9E7E0"/>
<path d="M51.0544 98.6675V98.6696L51.0157 99.6109L46.016 99.8266L45.9902 99.8245L46.1026 98.6675V98.6655L46.1283 98.6675H51.0544Z" fill="#E9E7E0"/>
<path d="M50.6053 111.267C50.9404 111.574 51.1043 112.005 51.1043 112.435C51.1043 112.924 50.8907 113.412 50.4745 113.71H44.6479L44.8855 111.239H50.574L50.6053 111.267Z" fill="#E9E7E0"/>
<path d="M50.8334 116.424C51.3159 116.736 51.349 117.486 50.896 117.847L50.5129 118.155C50.4282 118.224 50.3306 118.27 50.2275 118.296C50.2054 118.302 50.1833 118.306 50.1612 118.31L44.5869 119.171C44.5335 119.179 44.4783 119.181 44.423 119.177H44.4102L44.4783 116.611H44.6146L50.2165 116.2C50.2588 116.196 50.3012 116.2 50.3435 116.204C50.4559 116.214 50.5664 116.254 50.6658 116.317L50.8334 116.426V116.424Z" fill="#E9E7E0"/>
<path d="M50.896 102.596L50.7799 105.46L45.4248 105.678L45.7213 102.594L45.7489 102.596H50.896Z" fill="#E9E7E0"/>
<path d="M50.8205 105.49C51.5019 106.022 51.4964 107.133 50.8076 107.655L50.6898 107.744H50.6879L45.1763 108.262L45.4267 105.678L50.7819 105.46H50.7855L50.8224 105.49H50.8205Z" fill="#E9E7E0"/>
<path d="M50.6879 107.744L50.5461 111.239H44.8853L45.1744 108.262H45.1762L50.6879 107.744Z" fill="#E9E7E0"/>
<path d="M50.4469 113.711L50.353 116.041L50.3438 116.202C50.3014 116.196 50.259 116.194 50.2167 116.198L44.6148 116.609H44.4785L44.5227 114.997L44.6479 113.707H50.4469V113.711Z" fill="#E9E7E0"/>
<path d="M50.2275 118.296L49.8757 124.571C49.5093 124.676 49.141 124.779 48.7745 124.884C47.456 125.257 46.1393 125.631 44.8189 126.004H44.2241L44.4101 119.175H44.423C44.4783 119.181 44.5335 119.179 44.5869 119.171L50.1612 118.31C50.1833 118.306 50.2054 118.302 50.2275 118.296Z" fill="#E9E7E0"/>
<path d="M50.1777 23.8394L49.8057 24.2446C49.7062 24.1357 49.5442 24.1357 49.4429 24.2446L49.0728 23.8394C49.1722 23.7285 49.1722 23.5512 49.0728 23.4423L49.4429 23.0352C49.5442 23.146 49.7062 23.146 49.8057 23.0352L50.1758 23.4423C50.0764 23.5512 50.0764 23.7286 50.1758 23.8374H50.1777V23.8394Z" fill="#E9E7E0"/>
<path d="M49.2919 43.8716C49.7376 43.8716 50.0985 44.2687 50.0985 44.7565C50.0985 45.2443 49.7376 45.6393 49.2919 45.6393C48.8463 45.6393 48.4854 45.2422 48.4854 44.7565C48.4854 44.2707 48.8463 43.8716 49.2919 43.8716Z" fill="#E9E7E0"/>
<path d="M49.7491 90.8023L47.6166 90.8406L46.1287 98.3954L46.1029 98.6655L36.8474 97.8229L36.8032 97.8148L36.8474 97.5488L40.1069 90.8023L40.1198 90.7378C40.2892 90.7801 40.466 90.8023 40.6465 90.8023H49.7491Z" fill="#E9E7E0"/>
<path d="M49.4429 23.0352L49.0728 23.4424L48.1097 22.3862C48.0084 22.2774 48.0084 22.1 48.1097 21.9911L48.1189 21.981C48.2183 21.8722 48.3804 21.8722 48.4798 21.981L49.4429 23.0352Z" fill="#E9E7E0"/>
<path d="M49.4433 24.2445L48.5594 25.212C48.4599 25.3209 48.2979 25.3209 48.1985 25.212L48.1892 25.202C48.088 25.0931 48.088 24.9157 48.1892 24.8049L49.0732 23.8394L49.4433 24.2445Z" fill="#E9E7E0"/>
<path d="M47.0841 51.46L48.445 53.3083H28.3208C27.8549 53.3083 27.4756 52.8951 27.4756 52.3831C27.4756 52.1272 27.5695 51.8974 27.7242 51.7301C27.877 51.5628 28.0888 51.46 28.3208 51.46H47.0841Z" fill="#E9E7E0"/>
<path d="M47.18 17.3369C47.5667 17.3369 47.8816 17.6816 47.8816 18.1049C47.8816 18.5282 47.5667 18.8749 47.18 18.8749C47.1358 18.8749 47.0916 18.8708 47.0493 18.8608C46.7233 18.7943 46.4766 18.4818 46.4766 18.1049C46.4766 17.728 46.7233 17.4155 47.0511 17.351C47.0935 17.3409 47.1358 17.3369 47.18 17.3369Z" fill="#E9E7E0"/>
<path d="M47.1463 14.6035C47.5349 14.6035 47.8479 14.9482 47.8479 15.3735C47.8479 15.7988 47.5349 16.1435 47.1463 16.1435C47.1132 16.1435 47.08 16.1415 47.0469 16.1354C46.7044 16.083 46.4429 15.7625 46.4429 15.3735C46.4429 14.9845 46.6933 14.6781 47.0248 14.6156C47.0653 14.6075 47.1058 14.6035 47.1463 14.6035Z" fill="#E9E7E0"/>
<path d="M46.6399 11.9209C46.7099 12.195 47.0432 12.4551 47.5809 12.6828L47.5551 12.7554C47.1316 13.2392 47.034 13.9285 47.0248 14.6159C46.6933 14.6784 46.4429 14.9948 46.4429 15.3738C46.4429 15.7527 46.7044 16.0833 47.0469 16.1357C47.0487 16.4804 47.0506 16.8916 47.0506 17.3512C46.7228 17.4157 46.476 17.7301 46.476 18.105C46.476 18.4799 46.7228 18.7944 47.0487 18.8609C47.0469 19.6248 47.0432 20.4593 47.0377 21.3321C46.5331 21.9469 46.2292 22.7471 46.2292 23.6239C46.2292 24.5008 46.5239 25.2768 47.0137 25.8855C46.9972 29.0441 46.9861 31.8862 47.0137 32.7892H45.5645V14.7671C45.5829 14.2107 45.6952 13.1989 46.3434 12.2757C46.3876 12.2172 46.4963 12.066 46.6436 11.9048C46.6436 11.9088 46.6436 11.9108 46.6436 11.9149L46.6381 11.9209H46.6399Z" fill="#E9E7E0"/>
<path d="M46.1024 98.6656V98.6676L45.99 99.8246L36.6517 98.9881L36.5928 99.0566L36.8027 97.8149L36.8469 97.823L46.1024 98.6656Z" fill="#E9E7E0"/>
<path d="M45.9899 99.8243L45.721 102.594L36.1488 101.983L36.1304 101.959C36.1304 101.959 36.1157 101.939 36.1102 101.929C35.5964 101.201 35.6387 100.171 36.2151 99.4998L36.5926 99.0563L36.6516 98.9878L45.9899 99.8243Z" fill="#E9E7E0"/>
<path d="M45.7213 102.594L45.4248 105.678L45.2149 105.686L35.5838 105.081H35.5801L36.1104 101.929C36.1104 101.929 36.1233 101.949 36.1307 101.959L36.1491 101.983L45.7213 102.594Z" fill="#E9E7E0"/>
<path d="M45.5596 18.123V25.5811H43.9685C43.3958 25.5811 42.9336 25.0731 42.9336 24.4462V19.3264C42.9336 18.6612 43.4271 18.123 44.033 18.123H45.5596Z" fill="#E9E7E0"/>
<path d="M45.4252 105.678L45.1748 108.262L35.1679 107.561H35.1643L34.8181 107.321C34.0815 106.815 34.2085 105.597 35.0317 105.289L35.5805 105.083H35.5841L45.2153 105.686L45.4252 105.678Z" fill="#E9E7E0"/>
<path d="M45.1745 108.262L44.8853 111.239H44.8191L34.7441 110.747L34.6833 110.766C34.6631 110.772 34.6428 110.778 34.6226 110.788L35.164 107.559H35.1676L45.1745 108.262Z" fill="#E9E7E0"/>
<path d="M44.8856 111.239L44.6481 113.709L34.2067 113.259L34.1109 113.255C33.3706 112.481 33.6616 111.129 34.6229 110.788C34.6431 110.778 34.6634 110.772 34.6836 110.766L34.7444 110.748L44.8193 111.239H44.8856Z" fill="#E9E7E0"/>
<path d="M44.6475 113.709L44.5223 114.999L44.4781 116.611H34.3608C34.2761 116.611 34.1895 116.627 34.1104 116.658V113.828L34.2061 113.259L44.6475 113.709Z" fill="#E9E7E0"/>
<path d="M44.4785 116.611L44.4103 119.175L34.3943 118.385C34.2949 118.377 34.1991 118.348 34.1107 118.3C34.072 118.282 34.037 118.258 34.0021 118.231L33.9137 118.163C33.4293 117.792 33.4846 116.988 34.0149 116.702C34.0463 116.683 34.0776 116.669 34.1107 116.657C34.1899 116.627 34.2764 116.611 34.3612 116.611H44.4785Z" fill="#E9E7E0"/>
<path d="M44.41 119.175L44.224 126.004C40.8614 125.42 37.4987 124.833 34.1343 124.251C34.1269 124.251 34.1177 124.251 34.1104 124.247V118.3C34.1987 118.349 34.2945 118.377 34.3939 118.385L44.41 119.175Z" fill="#E9E7E0"/>
<path d="M44.2244 126.004L42.6683 130.59C42.1306 132.172 41.7696 133.821 41.5929 135.498L40.9631 141.468C40.8839 142.222 40.8452 142.982 40.8452 143.742V145.048C39.569 145.224 38.2155 144.917 36.9412 144.869C35.3372 144.81 33.7332 144.825 32.1274 144.839C30.7389 144.853 29.3486 144.865 27.9601 144.877C27.2658 144.883 26.5697 144.889 25.8755 144.895C25.4869 144.899 24.3525 145.127 24.0579 144.835C23.7964 144.575 23.7209 144.008 23.7338 143.377C23.7504 142.486 23.94 141.47 24.0248 141.015C24.2918 139.592 24.7779 138.227 25.3065 136.901C26.032 135.079 26.8349 133.277 27.7649 131.569C30.9544 130.273 33.0666 130.114 36.3887 130.814L40.1786 132.662C40.6684 132.749 41.0201 132.158 40.7494 131.702L40.2191 130.814L36.3482 128.874L32.6412 128.423C31.4976 128.669 30.3504 128.913 29.2197 129.155C29.9268 128.098 30.7003 127.097 31.5547 126.175C32.2821 125.391 33.1108 124.644 34.1089 124.416L34.1329 124.25C37.4973 124.833 40.8599 125.42 44.2225 126.004H44.2244Z" fill="#E9E7E0"/>
<path d="M42.5187 41.1562C43.0417 41.1562 43.4671 41.6037 43.4671 42.156C43.4671 42.7083 43.0417 43.1558 42.5187 43.1558C41.9957 43.1558 41.5703 42.7083 41.5703 42.156C41.5703 41.6037 41.9957 41.1562 42.5187 41.1562ZM43.1006 41.6904C43.1356 41.6521 43.1356 41.5896 43.1006 41.5513C43.0656 41.511 43.0085 41.511 42.9735 41.5513L42.6108 41.9484C42.5758 41.9867 42.5187 41.9867 42.4837 41.9484L42.1485 41.5816C42.1136 41.5433 42.0565 41.5433 42.0215 41.5816H42.0178C41.9828 41.6219 41.9828 41.6844 42.0178 41.7227L42.3548 42.0895C42.3898 42.1278 42.3898 42.1903 42.3548 42.2286L42.0454 42.5652C42.0104 42.6035 42.0104 42.666 42.0454 42.7043H42.0491C42.0841 42.7446 42.1412 42.7446 42.1762 42.7043L42.4837 42.3677C42.5187 42.3294 42.5758 42.3294 42.6108 42.3677L42.9459 42.7365C42.9809 42.7728 43.038 42.7728 43.0711 42.7365L43.0748 42.7325C43.1098 42.6942 43.1098 42.6317 43.0748 42.5934L42.7397 42.2266C42.7047 42.1883 42.7047 42.1258 42.7397 42.0875L43.1025 41.6904H43.1006Z" fill="#E9E7E0"/>
<path d="M42.9293 19.1025V24.6013H42.2811C42.0472 24.6013 41.8594 24.2264 41.8594 23.7648V19.9915C41.8594 19.4996 42.0601 19.1025 42.3069 19.1025H42.9293Z" fill="#E9E7E0"/>
<path d="M40.8452 145.048V148.83L22.4023 147.467V145.236L23.7319 143.377C23.719 144.008 23.7945 144.575 24.056 144.835C24.3507 145.127 25.485 144.899 25.8736 144.895C26.5679 144.889 27.264 144.883 27.9582 144.877C29.3467 144.865 30.7371 144.853 32.1256 144.839C33.7314 144.825 35.3353 144.811 36.9393 144.869C38.2136 144.917 39.5671 145.224 40.8433 145.048H40.8452Z" fill="#E9E7E0"/>
<path d="M40.751 131.702C41.0217 132.158 40.67 132.749 40.1802 132.662L36.3903 130.813C33.0682 130.114 30.956 130.273 27.7665 131.569L27.1035 131.41C27.0115 131.386 26.9507 131.295 26.9507 131.198C26.9507 131.172 26.9544 131.146 26.9636 131.12C27.1993 130.487 27.6431 129.975 28.2048 129.683L29.2231 129.155C30.3538 128.913 31.5011 128.669 32.6447 128.423L36.3516 128.874L40.2225 130.813L40.7529 131.702H40.751Z" fill="#E9E7E0"/>
<path d="M39.9613 88.0977C40.348 88.0977 40.6629 88.4423 40.6629 88.8656C40.6629 89.2889 40.348 89.6356 39.9613 89.6356C39.9171 89.6356 39.8729 89.6316 39.8305 89.6215C39.5046 89.555 39.2578 89.2426 39.2578 88.8656C39.2578 88.4887 39.5046 88.1763 39.8324 88.1118C39.8747 88.1017 39.9171 88.0977 39.9613 88.0977Z" fill="#E9E7E0"/>
<path d="M37.1712 81.8872C37.558 81.8872 37.8729 82.2319 37.8729 82.6552C37.8729 83.0785 37.558 83.4252 37.1712 83.4252C37.127 83.4252 37.0828 83.4211 37.0405 83.4111C36.7145 83.3445 36.4678 83.0321 36.4678 82.6552C36.4678 82.2782 36.7145 81.9658 37.0423 81.9013C37.0847 81.8912 37.127 81.8872 37.1712 81.8872Z" fill="#E9E7E0"/>
<path d="M34.2245 73.5903C34.6112 73.5903 34.9261 73.935 34.9261 74.3583C34.9261 74.7816 34.6112 75.1283 34.2245 75.1283C34.1803 75.1283 34.1361 75.1243 34.0937 75.1142C33.7678 75.0477 33.521 74.7352 33.521 74.3583C33.521 73.9814 33.7678 73.6689 34.0955 73.6044C34.1379 73.5944 34.1803 73.5903 34.2245 73.5903Z" fill="#E9E7E0"/>
<path d="M30.223 62.7725C30.6097 62.7725 30.9246 63.1171 30.9246 63.5404C30.9246 63.9637 30.6097 64.3104 30.223 64.3104C30.1788 64.3104 30.1346 64.3064 30.0922 64.2963C29.7663 64.2298 29.5195 63.9174 29.5195 63.5404C29.5195 63.1635 29.7663 62.8511 30.0941 62.7866C30.1364 62.7765 30.1788 62.7725 30.223 62.7725Z" fill="#E9E7E0"/>
<path d="M25.763 35.5444C26.2547 35.5444 26.6819 35.8347 26.9103 36.266C26.0834 37.7597 25.9637 39.2351 25.9527 40.0051V46.8363C25.4978 47.185 25.1866 47.0903 24.6986 46.796C24.2124 46.5017 23.9178 46.024 23.5918 45.5301H23.5845V37.0018C23.5845 36.1975 24.183 35.5444 24.9159 35.5444H25.763Z" fill="#E9E7E0"/>
<path d="M25.9527 46.8364V47.7838C25.8919 47.7959 25.8274 47.7999 25.763 47.7999H24.9159C24.7741 47.7999 24.6378 47.7778 24.5089 47.7314C23.973 47.5439 23.5845 46.9916 23.5845 46.3446V45.5303H23.5918C23.9178 46.0241 24.2124 46.5018 24.6986 46.7961C25.1866 47.0904 25.4978 47.1851 25.9527 46.8364Z" fill="#E9E7E0"/>
<path d="M23.728 50.7045L23.6488 50.7387L23.6985 50.8153L24.5474 52.1376L23.2473 52.5307L23.0871 52.577L23.1847 52.7685L23.8587 54.0969L22.7317 54.4879L22.6433 54.5161L22.4555 54.1009L14.1631 51.2003L13.699 50.9988L12.9146 49.743L14.1944 49.1101L13.3731 48.0458L14.6806 47.2657L14.769 47.2113L14.7137 47.1448L13.7451 45.9878L15.1888 45.3307L14.2294 43.9318L15.791 43.0509L15.4503 41.4041L17.069 41.6742V39.5235L18.7024 40.1846L18.94 38.2798L20.3838 39.3824L20.6839 37.5844L22.1553 38.5318L22.6764 36.7056L23.5843 37.8485V46.3445C23.5843 46.9916 23.9729 47.5439 24.5088 47.7313L24.2933 48.5537L24.2565 48.6948L25.1422 50.1199L23.728 50.7045Z" fill="#E9E7E0"/>
<path d="M22.7005 54.6071L23.4206 55.8004L22.2383 56.3607L22.1425 56.4051L22.1996 56.5038L23.0375 57.933L21.7061 58.3845L21.6085 58.4187L21.673 58.5074L22.5753 59.733L21.1629 60.4505L21.0542 60.505L21.1242 60.5957L22.0578 61.8091L20.6325 62.4582L20.522 62.5086L20.5957 62.5993L21.5146 63.72L20.1813 64.1755L20.069 64.2138L20.1445 64.3166L21.1187 65.6409L19.6583 66.165L19.5386 66.2053L19.6197 66.3041L20.7043 67.6203L19.104 68.2674L18.9807 68.3157L19.0617 68.4306L20.2016 70.023L18.4982 70.5693L18.3711 70.6076L18.454 70.7305L19.3637 72.0629L18.0028 72.4479L17.8721 72.4842L17.9623 72.6091L18.8867 73.8911L17.5314 74.2378L17.3988 74.27L17.4909 74.397L18.4706 75.7596L16.9734 76.3623L16.8279 76.4188L16.9237 76.5437L17.9236 77.8519L16.3878 78.5856L16.2331 78.6602L16.3362 78.7811L17.4301 80.0933L15.8556 80.6053L15.7028 80.6537L15.3234 80.3514L6.78428 77.2593L5.521 76.1063L7.30911 75.2638L6.12317 73.7802L7.83579 73.2683L6.79717 71.5973L8.42691 71.0248L7.35883 69.507L8.99042 68.8781L7.91865 67.6848L9.46185 67.0902L8.40666 65.8626L9.95722 65.2116L8.69393 63.6474L10.5594 62.9177L9.43975 61.3213L11.1155 60.8073L10.0585 59.4044L11.6404 58.8138L10.6607 57.55L12.0897 57.1065L11.1339 55.619L12.6182 55.1029L11.7067 53.561L13.167 53.0127L12.1965 51.769L13.6992 50.999L14.1632 51.2006L22.4556 54.1012L22.6434 54.5164L22.7005 54.6071Z" fill="#E9E7E0"/>
<path d="M14.2555 86.6801L14.2168 86.8292L8.6554 85.0776L5.03682 83.9388L5.02761 83.9347L5.06628 83.7856L4.05713 81.9352L5.71265 81.3284L4.40149 80.0021L6.25038 79.2946L5.33514 78.0227L6.78442 77.2588L15.3235 80.3508L15.7029 80.6532L15.8023 80.8104L16.806 82.4088L15.3235 82.6265L15.1744 82.6487L15.272 82.8221L16.027 84.1403L14.7987 84.616L14.633 84.6825L14.7416 84.8337L15.8502 86.3596L14.2555 86.6801Z" fill="#E9E7E0"/>
<path d="M14.2164 86.8293L14.0415 87.4965L9.91462 86.2024L10.0693 85.6118L8.63477 85.1583L8.65502 85.0776L14.2164 86.8293Z" fill="#E9E7E0"/>
<path d="M14.0416 87.4967L13.5278 89.4479L9.40283 88.1457L9.77298 86.7408L9.91477 86.2026L14.0416 87.4967Z" fill="#E9E7E0"/>
<path d="M13.528 89.4476L13.5169 89.4879L9.39191 88.1878L9.01256 89.631L7.57617 89.1815L7.95737 87.7363L7.96657 87.692L8.34961 86.2427L9.74916 86.7325L9.7731 86.7405L9.40296 88.1455L13.528 89.4476Z" fill="#E9E7E0"/>
<path d="M9.94437 90.1132C11.9866 90.7582 13.1652 93.0904 12.5777 95.3257L10.9683 101.445L9.04939 100.841L10.1469 96.6682C10.6755 94.6585 9.61474 92.5602 7.77875 91.9817C7.42333 91.8688 7.06424 91.8164 6.71066 91.8164C5.04041 91.8164 3.5009 93.0178 3.01658 94.8621L2.00742 98.698L0.164062 98.1175L1.89877 91.5201C2.42913 89.5105 4.34615 88.3495 6.18215 88.928L9.94437 90.1132Z" fill="#E9E7E0"/>
<path d="M10.9679 101.445L10.7856 102.138L8.8667 101.536L8.87406 101.506L9.04901 100.84L10.9679 101.445Z" fill="#E9E7E0"/>
<path d="M10.0696 85.6117L9.9149 86.2023L8.47852 85.7508L8.63504 85.1582L10.0696 85.6117Z" fill="#E9E7E0"/>
<path d="M9.9149 86.2025L9.7731 86.7407L9.74916 86.7326L8.34961 86.2428L8.47852 85.751L9.9149 86.2025Z" fill="#E9E7E0"/>
<path d="M8.65512 85.0778L8.63487 85.1585L8.47834 85.7511L4.85791 84.6162L5.03654 83.939L8.65512 85.0778Z" fill="#E9E7E0"/>
<path d="M8.4786 85.751L8.3497 86.2429L7.96666 87.6921L7.95745 87.7365L4.33887 86.5956L4.34992 86.5533L4.85818 84.6162L8.4786 85.751Z" fill="#E9E7E0"/>
<path d="M2.00726 98.6977L1.85073 99.2943L1.84336 99.3226L0 98.742L0.163895 98.1172L2.00726 98.6977Z" fill="#E9E7E0"/>
<path d="M26.9102 36.266C26.9341 36.2197 26.9599 36.1753 26.9857 36.129C27.0998 35.9314 27.4074 35.4235 27.877 34.9155C29.4846 33.174 31.6484 32.8736 32.5286 32.8071H75.9112C77.9976 32.8071 79.8446 33.9198 80.9864 35.6351" fill="#E9E7E0"/>
<path d="M28.3208 51.4603H28.168C26.9434 51.4603 25.9526 50.3738 25.9526 49.0334V47.7837" fill="#E9E7E0"/>
<path d="M82.1869 47.3887V49.0254C82.1869 49.235 82.163 49.4386 82.117 49.6341C81.8702 50.6843 80.9992 51.4603 79.9624 51.4603H79.8169" fill="#E9E7E0"/>
<path d="M29.5049 53.3083H28.3208C27.8549 53.3083 27.4756 52.8951 27.4756 52.3831C27.4756 52.1272 27.5695 51.8974 27.7242 51.7301C27.877 51.5628 28.0888 51.46 28.3208 51.46H47.0841" fill="#E9E7E0"/>
<path d="M61.4072 51.46H79.8169C80.2846 51.46 80.6622 51.8732 80.6622 52.3831C80.6622 52.6391 80.5682 52.8709 80.4154 53.0382C80.2625 53.2055 80.0508 53.3083 79.8169 53.3083H78.6328" fill="#E9E7E0"/>
<path d="M33.3422 67.1243H30.696C30.2301 67.1243 29.8525 66.7111 29.8525 66.1991C29.8525 65.9431 29.9465 65.7133 30.0993 65.546C30.2521 65.3787 30.4639 65.2739 30.696 65.2739" fill="#E9E7E0"/>
<path d="M77.4412 65.2739C77.9071 65.2739 78.2864 65.6892 78.2864 66.1991C78.2864 66.4551 78.1925 66.6869 78.0378 66.8542C77.885 67.0215 77.6732 67.1243 77.4412 67.1243H74.7949" fill="#E9E7E0"/>
<path d="M36.1102 78.2508H34.3663C33.9003 78.2508 33.521 77.8376 33.521 77.3256C33.521 77.0696 33.6168 76.8398 33.7696 76.6725C33.9224 76.5052 34.1324 76.4004 34.3663 76.4004H35.0108" fill="#E9E7E0"/>
<path d="M73.1267 76.4004H73.7713C74.239 76.4004 74.6165 76.8156 74.6165 77.3256C74.6165 77.5816 74.5226 77.8134 74.3698 77.9807C74.2169 78.148 74.0051 78.2508 73.7713 78.2508H72.0273" fill="#E9E7E0"/>
<path d="M60.0831 53.3086H78.6327C79.1115 53.3086 79.4982 53.7319 79.4982 54.256V64.3283C79.4982 64.8504 79.1115 65.2737 78.6327 65.2737H29.5047C29.0277 65.2737 28.6392 64.8504 28.6392 64.3283V54.256C28.6392 53.7319 29.0277 53.3086 29.5047 53.3086H48.4447" fill="#E9E7E0"/>
<path d="M73.1267 76.4007H35.011C33.6114 76.4007 32.4771 75.159 32.4771 73.6291V68.0719C32.4771 67.5478 32.8656 67.1245 33.3426 67.1245H74.7952C75.274 67.1245 75.6607 67.5478 75.6607 68.0719V73.6291C75.6607 75.159 74.5263 76.4007 73.1267 76.4007Z" fill="#E9E7E0"/>
<path d="M39.1032 84.5258H37.5711C36.2875 84.5258 35.2471 83.3869 35.2471 81.982V79.1983C35.2471 78.6743 35.6338 78.251 36.1107 78.251H72.0277C72.5047 78.251 72.8932 78.6743 72.8932 79.1983V81.982C72.8932 83.3869 71.851 84.5258 70.5674 84.5258H69.0353" fill="#E9E7E0"/>
<path d="M58.1958 90.8027H40.6461C40.4657 90.8027 40.2889 90.7805 40.1195 90.7382C39.0422 90.4762 38.2393 89.424 38.2393 88.1662V85.4733C38.2393 84.9512 38.626 84.5259 39.1029 84.5259H69.035C69.5119 84.5259 69.9005 84.9512 69.9005 85.4733V88.1662C69.9005 89.5369 68.9429 90.6636 67.722 90.7906C67.6465 90.7987 67.5691 90.8027 67.4918 90.8027H60.2086" fill="#E9E7E0"/>
<path d="M45.9902 99.8249L46.1026 98.6679V98.6659L46.1283 98.3958L47.6163 90.841L49.7488 90.8027L51.0655 98.3958L51.0544 98.6679V98.6699L51.0157 99.6113" fill="#E9E7E0"/>
<path d="M44.8188 126.004C46.1392 125.631 47.4559 125.257 48.7744 124.884C49.1409 124.779 49.5092 124.676 49.8757 124.571L50.2274 118.296" fill="#E9E7E0"/>
<path d="M50.3433 116.202L50.3525 116.041L50.4464 113.71" fill="#E9E7E0"/>
<path d="M44.4785 116.611L44.5227 114.999L44.6479 113.708" fill="#E9E7E0"/>
<path d="M34.1104 116.658V113.828L34.2061 113.259" fill="#E9E7E0"/>
<path d="M34.1104 118.3V124.247C34.1104 124.247 34.1269 124.249 34.1343 124.251C37.4987 124.833 40.8614 125.42 44.224 126.004L44.41 119.175" fill="#E9E7E0"/>
<path d="M36.5928 99.0569L36.8027 97.8153L36.8469 97.5492L40.1064 90.8027" fill="#E9E7E0"/>
<path d="M36.8467 97.8232L46.1022 98.6658L46.1279 98.6678" fill="#E9E7E0"/>
<path d="M44.4783 116.611H44.6146L50.2165 116.2C50.2588 116.196 50.3012 116.2 50.3435 116.204C50.4559 116.214 50.5664 116.254 50.6658 116.317L50.8334 116.426C51.3159 116.738 51.349 117.488 50.896 117.849L50.5129 118.157C50.4282 118.226 50.3306 118.272 50.2275 118.298C50.2054 118.304 50.1833 118.308 50.1612 118.312L44.5869 119.173C44.5335 119.181 44.4783 119.183 44.423 119.179H44.4102" fill="#E9E7E0"/>
<path d="M44.4785 116.611L44.4103 119.175L34.3943 118.385C34.2949 118.377 34.1991 118.348 34.1107 118.3C34.072 118.282 34.037 118.258 34.0021 118.231L33.9137 118.163C33.4293 117.792 33.4846 116.988 34.0149 116.702C34.0463 116.683 34.0776 116.669 34.1107 116.657C34.1899 116.627 34.2764 116.611 34.3612 116.611H44.4785Z" fill="#E9E7E0"/>
<path d="M44.6481 113.709L34.2067 113.259L34.1109 113.255C33.3706 112.481 33.6616 111.129 34.6229 110.788C34.6431 110.778 34.6634 110.772 34.6836 110.766L34.7444 110.748L44.8193 111.239H44.8856" fill="#E9E7E0"/>
<path d="M50.5463 111.239H50.574L50.6053 111.267C50.9404 111.574 51.1043 112.005 51.1043 112.435C51.1043 112.924 50.8907 113.412 50.4745 113.71H44.6479L44.8855 111.239H50.5463Z" fill="#E9E7E0"/>
<path d="M45.4249 105.678L50.78 105.46H50.7837L50.8205 105.49C51.5019 106.022 51.4964 107.133 50.8076 107.655L50.6898 107.744H50.6879L45.1763 108.262" fill="#E9E7E0"/>
<path d="M45.4252 105.678L45.1748 108.262L35.1679 107.561H35.1643L34.8181 107.321C34.0815 106.815 34.2085 105.597 35.0317 105.289L35.5805 105.083H35.5841L45.2153 105.686L45.4252 105.678Z" fill="#E9E7E0"/>
<path d="M45.721 102.594L36.1488 101.983L36.1304 101.959C36.1304 101.959 36.1157 101.939 36.1102 101.929C35.5964 101.201 35.6387 100.171 36.2151 99.4998L36.5926 99.0563L36.6516 98.9878L45.9899 99.8243" fill="#E9E7E0"/>
<path d="M51.0156 99.611L51.1481 99.605C51.8387 100.208 51.9639 101.304 51.4281 102.072L51.0653 102.596H45.7212L45.9901 99.8247H46.0158L51.0156 99.611Z" fill="#E9E7E0"/>
<path d="M29.2212 129.154C29.9283 128.098 30.7018 127.096 31.5562 126.175C32.2836 125.391 33.1123 124.643 34.1104 124.416" fill="#E9E7E0"/>
<path d="M27.7649 131.569C26.8349 133.277 26.032 135.079 25.3065 136.901C24.7779 138.227 24.2918 139.592 24.0248 141.015C23.94 141.47 23.7504 142.486 23.7338 143.377C23.7209 144.008 23.7964 144.574 24.0579 144.834C24.3525 145.127 25.4869 144.899 25.8755 144.895C26.5697 144.889 27.2658 144.883 27.9601 144.877C29.3486 144.865 30.7389 144.853 32.1274 144.839C33.7332 144.824 35.3372 144.81 36.9412 144.869C38.2155 144.917 39.569 145.224 40.8452 145.048C41.022 145.024 41.1988 144.99 41.3737 144.945C42.9519 144.536 44.2189 143.323 45.5816 142.432C47.1782 141.39 48.7343 140.271 50.3235 139.215C50.8446 138.86 50.8594 138.729 51.027 138.084C51.1927 137.437 51.1651 136.752 51.1209 136.08C50.8686 132.37 50.0104 128.35 48.7748 124.883" fill="#E9E7E0"/>
<path d="M29.2213 129.155C30.352 128.913 31.4992 128.669 32.6428 128.423L36.3498 128.874L40.2207 130.813L40.751 131.702C41.0217 132.158 40.67 132.749 40.1802 132.662L36.3903 130.813C33.0682 130.114 30.956 130.273 27.7665 131.569L27.1035 131.41C27.0115 131.386 26.9507 131.295 26.9507 131.198C26.9507 131.172 26.9544 131.146 26.9636 131.12C27.1993 130.487 27.6431 129.975 28.2048 129.683L29.2231 129.155H29.2213Z" fill="#E9E7E0"/>
<path d="M23.7319 143.378L22.4023 145.236V147.467L40.8452 148.83V143.742C40.8452 142.982 40.8838 142.223 40.963 141.469L41.5928 135.498C41.7696 133.821 42.1305 132.172 42.6683 130.59L44.2243 126.004H44.8192" fill="#E9E7E0"/>
<path d="M51.0265 138.084L51.5403 138.896V141.398L40.9589 149.021L40.8447 149.104" fill="#E9E7E0"/>
<path d="M57.6196 118.294L57.9879 124.845C58.3323 124.942 58.6785 125.039 59.0229 125.136C60.3801 125.517 61.7373 125.898 63.0945 126.279" fill="#E9E7E0"/>
<path d="M56.8253 99.6113L56.7866 98.6699V98.6679L58.1954 90.8027H60.2082L61.7735 98.6679V98.6699L61.8858 99.8269" fill="#E9E7E0"/>
<path d="M73.9112 118.302V124.521C70.5062 125.105 67.1013 125.692 63.6963 126.278L63.5029 119.177" fill="#E9E7E0"/>
<path d="M67.7222 90.8027L71.1474 97.8233L71.3444 98.9884" fill="#E9E7E0"/>
<path d="M73.7676 113.261L73.9112 114.102V116.658" fill="#E9E7E0"/>
<path d="M63.2437 113.708L63.3965 115.273L63.4333 116.611" fill="#E9E7E0"/>
<path d="M63.5027 119.177H63.4953C63.4401 119.181 63.3849 119.179 63.3296 119.171L57.7001 118.31C57.6725 118.306 57.6467 118.3 57.6191 118.294C57.5196 118.266 57.4275 118.22 57.3447 118.155L56.9561 117.847C56.4994 117.486 56.5344 116.736 57.0206 116.424L57.19 116.315C57.2857 116.254 57.3926 116.214 57.503 116.202C57.5491 116.196 57.597 116.194 57.643 116.198L63.302 116.609H63.4327" fill="#E9E7E0"/>
<path d="M73.9109 116.657C73.944 116.669 73.9772 116.683 74.0085 116.702C74.5425 116.988 74.5996 117.792 74.1097 118.163L74.0214 118.231C73.9864 118.258 73.9495 118.282 73.9109 118.302C73.8225 118.348 73.7249 118.377 73.6254 118.385L63.5026 119.177L63.4326 116.611H73.6586C73.7451 116.611 73.8298 116.627 73.9109 116.657Z" fill="#E9E7E0"/>
<path d="M63.2436 113.709H57.3839C56.964 113.41 56.7485 112.922 56.7485 112.433C56.7485 112.003 56.9143 111.572 57.2531 111.266L57.2826 111.237H63.0023" fill="#E9E7E0"/>
<path d="M73.3463 110.77C74.3573 111.084 74.6721 112.469 73.9116 113.255L73.768 113.261L63.2437 113.709L63.0024 111.239H63.0964L73.2726 110.748L73.3334 110.766C73.3334 110.766 73.3426 110.768 73.3463 110.77Z" fill="#E9E7E0"/>
<path d="M62.7111 108.26L57.1644 107.744L57.1571 107.738L57.0466 107.655C56.3523 107.133 56.345 106.022 57.0337 105.49L57.065 105.466L57.0724 105.46L62.4588 105.676" fill="#E9E7E0"/>
<path d="M72.3811 105.083H72.4234L72.9814 105.289C73.8138 105.597 73.9427 106.815 73.1969 107.321L72.8452 107.561L72.801 107.565L62.7352 108.262H62.7113L62.459 105.676L62.6965 105.686L72.3811 105.083Z" fill="#E9E7E0"/>
<path d="M62.157 102.596H56.7871L56.4188 102.072C55.8792 101.304 56.0063 100.208 56.7024 99.605L56.8258 99.611L61.8863 99.8267" fill="#E9E7E0"/>
<path d="M71.3438 98.9878H71.3456L71.7858 99.4998C72.375 100.181 72.4119 101.229 71.8723 101.959L71.8539 101.983L62.1564 102.596L61.8857 99.8263L71.3438 98.9878Z" fill="#E9E7E0"/>
<path d="M73.9111 124.416C74.9203 124.643 75.7563 125.391 76.4911 126.175C77.3566 127.096 78.1374 128.098 78.8501 129.154" fill="#E9E7E0"/>
<path d="M80.3218 131.57C81.261 133.277 82.0731 135.079 82.8042 136.901C83.3382 138.228 83.8299 139.592 84.0988 141.015C84.1945 141.517 84.4173 142.704 84.3934 143.652C84.3787 144.17 84.2903 144.615 84.0656 144.835C83.7691 145.127 82.6237 144.899 82.2296 144.895C81.528 144.889 80.8264 144.883 80.1248 144.877C78.7215 144.865 77.3183 144.853 75.9151 144.839C74.2945 144.825 72.6721 144.811 71.0534 144.869C69.7662 144.918 68.398 145.224 67.1107 145.049H67.1089C66.9303 145.024 66.7535 144.99 66.5767 144.946C64.982 144.537 63.7021 143.323 62.3265 142.432C60.7133 141.39 59.1425 140.271 57.5348 139.215C57.01 138.86 56.9953 138.729 56.8259 138.084C56.6583 137.437 56.6859 136.752 56.7319 136.081C56.9861 132.37 57.7521 128.699 59.0007 125.232" fill="#E9E7E0"/>
<path d="M78.8502 129.155L79.8777 129.683C80.4468 129.975 80.8942 130.487 81.1318 131.12C81.141 131.146 81.1465 131.174 81.1465 131.2C81.1465 131.297 81.0858 131.386 80.9918 131.41L80.3215 131.569H80.3197C77.097 130.273 74.9645 130.114 71.6093 130.813L67.7808 132.662C67.2854 132.749 66.93 132.158 67.2044 131.702L67.7403 130.813L71.6498 128.874L75.3955 128.423C76.5501 128.669 77.7084 128.913 78.8502 129.155Z" fill="#E9E7E0"/>
<path d="M84.3933 143.651L85.7376 145.51V147.741L67.1088 149.104V144.016C67.1088 143.256 67.0682 142.496 66.9891 141.743L66.3519 135.772C66.1733 134.095 65.8105 132.446 65.2672 130.864L63.6964 126.278H63.0942" fill="#E9E7E0"/>
<path d="M56.8259 138.084L56.3066 138.896V141.398L67.109 149.104" fill="#E9E7E0"/>
<path d="M55.9971 10.7212H59.6709C60.6966 10.7212 61.6248 11.1747 62.2951 11.9125C62.2988 11.9165 62.3006 11.9185 62.3043 11.9205" fill="#E9E7E0"/>
<path d="M62.2967 11.9427C62.2931 11.9608 62.2857 11.977 62.2783 11.9951C62.1586 12.2712 61.7737 12.5293 61.1808 12.755C59.8052 13.2811 57.3154 13.6318 54.4721 13.6318C51.6288 13.6318 48.9107 13.2489 47.5812 12.6824C47.0434 12.4547 46.7101 12.1947 46.6401 11.9205L46.6457 11.9145C47.4743 11.0155 48.605 10.7857 49.2717 10.7212H52.7411" fill="#E9E7E0"/>
<path d="M63.3886 18.1232V14.7671C63.3886 14.4687 63.3573 14.0434 63.2211 13.5576C63.1474 13.3037 63.0038 12.8844 62.7146 12.4349C62.5655 12.2011 62.4163 12.0237 62.3095 11.9048C62.3077 11.9108 62.3077 11.9149 62.304 11.9209C62.304 11.929 62.3003 11.935 62.2966 11.9431C62.2929 11.9552 62.2892 11.9653 62.2837 11.9773C61.8878 12.8965 58.5436 13.6161 54.4757 13.6161C54.1737 13.6161 53.8753 13.6121 53.5825 13.604C49.8369 13.5052 46.8923 12.7937 46.6455 11.9149C46.6455 11.9108 46.6455 11.9088 46.6455 11.9048C46.4982 12.066 46.3896 12.2172 46.3454 12.2757C45.6972 13.1989 45.5848 14.2107 45.5664 14.7671V32.7892H63.3905V18.1232H63.3886Z" fill="#E9E7E0"/>
<path d="M56.0781 24.8126L56.4759 27.4129H56.4667H52.2754L52.7892 24.4518L52.8573 24.0568L52.9752 23.3755L52.5406 19.1304L52.5387 19.1123L56.0892 19.1143L55.8885 23.2384" fill="#E9E7E0"/>
<path d="M47.0511 17.351C47.0935 17.3409 47.1358 17.3369 47.18 17.3369C47.5667 17.3369 47.8816 17.6816 47.8816 18.1049C47.8816 18.5282 47.5667 18.8749 47.18 18.8749C47.1358 18.8749 47.0916 18.8708 47.0493 18.8608C46.7233 18.7943 46.4766 18.4818 46.4766 18.1049C46.4766 17.728 46.7233 17.4155 47.0511 17.351Z" fill="#E9E7E0"/>
<path d="M47.0248 14.6156C47.0653 14.6075 47.1058 14.6035 47.1463 14.6035C47.5349 14.6035 47.8479 14.9482 47.8479 15.3735C47.8479 15.7988 47.5349 16.1435 47.1463 16.1435C47.1132 16.1435 47.08 16.1415 47.0469 16.1354C46.7044 16.083 46.4429 15.7625 46.4429 15.3735C46.4429 14.9845 46.6933 14.6781 47.0248 14.6156Z" fill="#E9E7E0"/>
<path d="M45.5596 18.123V25.5811H43.9685C43.3958 25.5811 42.9336 25.0731 42.9336 24.4462V19.3264C42.9336 18.6612 43.4271 18.123 44.033 18.123H45.5596Z" fill="#E9E7E0"/>
<path d="M42.9293 19.1025V24.6013H42.2811C42.0472 24.6013 41.8594 24.2264 41.8594 23.7648V19.9915C41.8594 19.4996 42.0601 19.1025 42.3069 19.1025H42.9293Z" fill="#E9E7E0"/>
<path d="M66.0054 24.5225V24.5608H66.6517C66.8856 24.5608 67.0735 24.1859 67.0735 23.7243V19.9509C67.0735 19.4591 66.8727 19.062 66.626 19.062H66.0054V24.5225Z" fill="#E9E7E0"/>
<path d="M66.0056 19.2438C66.0093 19.27 66.0093 19.2982 66.0093 19.3264V24.4462C66.0093 24.4724 66.0093 24.4986 66.0056 24.5228C65.9706 25.1154 65.5231 25.5811 64.9762 25.5811H63.3833V18.123H64.9099C65.4918 18.123 65.967 18.6169 66.0056 19.2438Z" fill="#E9E7E0"/>
<path d="M52.7432 2.41882V0.93326C52.7432 0.417246 53.1244 0 53.5958 0H55.1445C55.6159 0 55.9971 0.417246 55.9971 0.93326V12.1787C55.9971 12.6948 55.6159 13.114 55.1445 13.114H53.5958C53.1244 13.114 52.7432 12.6948 52.7432 12.1787V2.41882Z" fill="#E9E7E0"/>
<path d="M59.3964 30.7349L59.772 31.3073H49.1704L49.5571 30.6421L49.8665 30.106L50.233 29.4751L50.6178 28.8119L50.9604 28.2213L51.3526 27.546L57.2307 27.4312L57.6745 28.1084L58.1165 28.7837L58.5714 29.4751L58.936 30.0314L59.3964 30.7349Z" fill="#E9E7E0"/>
<path d="M52.7778 24.5004L52.7889 24.452C52.8183 24.323 52.8423 24.192 52.857 24.0569C52.857 24.0448 52.8607 24.0307 52.8607 24.0166" fill="#E9E7E0"/>
<path d="M52.8626 24.007C52.8755 23.8821 52.8829 23.753 52.8829 23.624C52.8829 21.685 51.3931 20.1147 49.5571 20.1147C48.5498 20.1147 47.6475 20.5864 47.0379 21.3322C46.5333 21.947 46.2295 22.7472 46.2295 23.624C46.2295 24.5009 46.5241 25.2769 47.014 25.8856C47.6254 26.6476 48.5369 27.1313 49.5571 27.1313C51.1022 27.1313 52.4023 26.0187 52.7761 24.5109" fill="#E9E7E0"/>
<path d="M43.3509 41.2993C43.5535 41.519 43.6806 41.8214 43.6806 42.1519C43.6806 42.7667 43.2497 43.2747 42.688 43.3593" fill="#E9E7E0"/>
<path d="M42.5187 43.1558C43.0425 43.1558 43.4671 42.7082 43.4671 42.156C43.4671 41.6039 43.0425 41.1562 42.5187 41.1562C41.9949 41.1562 41.5703 41.6039 41.5703 42.156C41.5703 42.7082 41.9949 43.1558 42.5187 43.1558Z" fill="#E9E7E0"/>
<path d="M43.1008 41.5512C43.0658 41.5109 43.0087 41.5109 42.9737 41.5512L42.6109 41.9483C42.5759 41.9866 42.5188 41.9866 42.4838 41.9483L42.1487 41.5815C42.1137 41.5432 42.0566 41.5432 42.0216 41.5815H42.0179C41.983 41.6218 41.983 41.6843 42.0179 41.7226L42.3549 42.0894C42.3899 42.1277 42.3899 42.1902 42.3549 42.2285L42.0456 42.5651C42.0106 42.6034 42.0106 42.6659 42.0456 42.7042H42.0492C42.0842 42.7445 42.1413 42.7445 42.1763 42.7042L42.4838 42.3676C42.5188 42.3293 42.5759 42.3293 42.6109 42.3676L42.9461 42.7365C42.9811 42.7727 43.0381 42.7727 43.0713 42.7365L43.075 42.7324C43.11 42.6941 43.11 42.6316 43.075 42.5933L42.7398 42.2265C42.7048 42.1882 42.7048 42.1257 42.7398 42.0874L43.1026 41.6903C43.1376 41.652 43.1376 41.5895 43.1026 41.5512H43.1008Z" fill="#E9E7E0"/>
<path d="M66.0534 43.2424C65.6556 43.0509 65.3794 42.6256 65.3794 42.1338C65.3794 41.7871 65.5157 41.4747 65.7348 41.2529" fill="#E9E7E0"/>
<path d="M67.4848 42.138C67.4848 42.6903 67.0612 43.1377 66.5364 43.1377C66.0115 43.1377 65.5898 42.6903 65.5898 42.138C65.5898 41.5857 66.0134 41.1382 66.5364 41.1382C67.0594 41.1382 67.4848 41.5857 67.4848 42.138Z" fill="#E9E7E0"/>
<path d="M67.1197 41.5332H67.116C67.081 41.4929 67.0239 41.4929 66.9889 41.5332L66.6262 41.9303C66.5912 41.9686 66.5341 41.9686 66.4991 41.9303L66.1639 41.5634C66.129 41.5251 66.0719 41.5251 66.0369 41.5634H66.035C66 41.6037 66 41.6662 66.035 41.7045L66.3702 42.0714C66.4052 42.1096 66.4052 42.1721 66.3702 42.2104L66.0627 42.5471C66.0277 42.5853 66.0277 42.6478 66.0627 42.6861H66.0645C66.0995 42.7264 66.1566 42.7264 66.1916 42.6861L66.4991 42.3495C66.5341 42.3112 66.5912 42.3112 66.6262 42.3495L66.9613 42.7164C66.9963 42.7547 67.0534 42.7547 67.0884 42.7164H67.0902C67.1252 42.6761 67.1252 42.6136 67.0921 42.5753L66.7551 42.2084C66.7201 42.1701 66.7201 42.1076 66.7551 42.0693L67.1197 41.6722C67.1547 41.6339 67.1547 41.5715 67.1197 41.5332Z" fill="#E9E7E0"/>
<path d="M53.3398 57.8904C53.5461 57.5538 53.9052 57.3301 54.314 57.3301C54.8094 57.3301 55.2329 57.6586 55.3968 58.1202" fill="#E9E7E0"/>
<path d="M55.2587 58.5593C55.2587 59.1116 54.8351 59.5591 54.3122 59.5591C53.7892 59.5591 53.3638 59.1116 53.3638 58.5593C53.3638 58.007 53.7873 57.5596 54.3122 57.5596C54.837 57.5596 55.2587 58.007 55.2587 58.5593Z" fill="#E9E7E0"/>
<path d="M54.8941 57.9551L54.8904 57.9511C54.8554 57.9128 54.7983 57.9128 54.7634 57.9511L54.4006 58.3502C54.3656 58.3885 54.3085 58.3885 54.2735 58.3502L53.9383 57.9813C53.9034 57.943 53.8463 57.943 53.8131 57.9813L53.8094 57.9854C53.7745 58.0237 53.7745 58.0841 53.8094 58.1224L54.1446 58.4913C54.1796 58.5296 54.1796 58.5901 54.1446 58.6284L53.8371 58.967C53.8021 59.0053 53.8021 59.0658 53.8371 59.1041L53.8407 59.1081C53.8757 59.1464 53.931 59.1464 53.966 59.1081L54.2735 58.7715C54.3085 58.7332 54.3656 58.7332 54.4006 58.7715L54.7357 59.1383C54.7707 59.1766 54.8278 59.1766 54.8628 59.1383L54.8665 59.1343C54.9015 59.096 54.9015 59.0355 54.8665 58.9972L54.5295 58.6284C54.4945 58.5901 54.4945 58.5296 54.5295 58.4913L54.8941 58.0922C54.9291 58.0539 54.9291 57.9934 54.8941 57.9551Z" fill="#E9E7E0"/>
<path d="M56.0653 24.7768C56.069 24.7889 56.0726 24.801 56.0782 24.8131C56.5459 26.1515 57.765 27.105 59.1977 27.105C60.2087 27.105 61.1147 26.6293 61.7224 25.8794C62.2215 25.2667 62.5235 24.4685 62.5235 23.5977C62.5235 22.7269 62.2123 21.9005 61.6985 21.2837C61.0889 20.55 60.194 20.0884 59.1977 20.0884C57.474 20.0884 56.0598 21.4691 55.8885 23.2389C55.8885 23.249 55.8867 23.2611 55.8867 23.2711C55.883 23.3115 55.8793 23.3497 55.8774 23.3901" fill="#E9E7E0"/>
<path d="M55.8754 23.4502C55.8735 23.4727 55.8735 23.4931 55.8735 23.5156L55.8754 23.4502Z" fill="#E9E7E0"/>
<path d="M60.8917 25.8514C61.2545 25.543 61.5418 25.1399 61.7149 24.6783C61.8419 24.3497 61.9101 23.9889 61.9101 23.612C61.9101 23.235 61.8364 22.8521 61.7038 22.5134C61.5252 22.0579 61.2397 21.6628 60.877 21.3625C60.4147 20.9755 59.8291 20.7437 59.1901 20.7437C57.6875 20.7437 56.4702 22.0276 56.4702 23.612C56.4702 25.1963 57.6875 26.4803 59.1901 26.4803C59.8347 26.4803 60.4258 26.2444 60.8917 25.8514Z" fill="#E9E7E0"/>
<path d="M59.8178 23.4163C59.7165 23.5252 59.7165 23.7026 59.8178 23.8114L60.7809 24.8676C60.8804 24.9765 60.8804 25.1538 60.7809 25.2627L60.7717 25.2728C60.722 25.3272 60.6575 25.3554 60.5913 25.3554C60.525 25.3554 60.4587 25.3272 60.4089 25.2728L59.4458 24.2186C59.3464 24.1077 59.1843 24.1077 59.0849 24.2186L58.1991 25.1861C58.0997 25.2949 57.9376 25.2949 57.8382 25.1861L57.829 25.176C57.7295 25.0672 57.7295 24.8898 57.829 24.7789L58.7129 23.8114C58.8123 23.7026 58.8123 23.5252 58.7129 23.4163L57.7498 22.3601C57.6485 22.2513 57.6485 22.0739 57.7498 21.965L57.759 21.955C57.8584 21.8441 58.0205 21.8441 58.1199 21.955L59.0849 23.0092C59.1843 23.118 59.3464 23.118 59.4458 23.0092L60.49 21.8683C60.5397 21.8118 60.606 21.7856 60.6704 21.7856C60.7349 21.7856 60.8012 21.8118 60.8509 21.8683L60.8601 21.8784C60.9614 21.9872 60.9596 22.1646 60.8601 22.2734L59.8178 23.4163Z" fill="#E9E7E0"/>
<path d="M56.4664 27.4133L56.47 27.4314H52.2695L52.7759 24.5107L52.7778 24.5006L52.8607 24.0169L52.8625 24.0068L52.9693 23.394L52.5347 19.1309H52.5402" fill="#E9E7E0"/>
<path d="M51.2787 21.4246C50.8091 21.0154 50.2069 20.7695 49.5495 20.7695C48.4133 20.7695 47.4391 21.5053 47.0322 22.5494C46.9014 22.884 46.8296 23.2528 46.8296 23.6378C46.8296 24.0228 46.8959 24.3655 47.0211 24.692C47.417 25.7543 48.4004 26.5062 49.5495 26.5062C50.3948 26.5062 51.1498 26.099 51.6488 25.462C52.0374 24.9662 52.2694 24.3312 52.2694 23.6378C52.2694 22.7469 51.8846 21.9507 51.2787 21.4246Z" fill="#E9E7E0"/>
<path d="M51.0303 21.8115C51.0966 21.8115 51.1611 21.8397 51.2108 21.8942L51.22 21.9042C51.3194 22.0131 51.3194 22.1905 51.22 22.2993L50.1777 23.4422H50.1758C50.0764 23.5511 50.0764 23.7284 50.1758 23.8373H50.1777L51.1408 24.8935C51.2402 25.0023 51.2402 25.1797 51.1408 25.2886L51.1316 25.2987C51.0321 25.4095 50.8701 25.4095 50.7688 25.2987L49.8057 24.2444C49.7062 24.1356 49.5442 24.1356 49.4429 24.2444L48.559 25.212C48.4595 25.3208 48.2975 25.3208 48.198 25.212L48.1888 25.2019C48.0876 25.0931 48.0876 24.9157 48.1888 24.8048L49.0728 23.8393C49.1722 23.7284 49.1722 23.5511 49.0728 23.4422L48.1097 22.386C48.0084 22.2771 48.0084 22.0998 48.1097 21.9909L48.1189 21.9808C48.2183 21.872 48.3804 21.872 48.4798 21.9808L49.4429 23.035C49.5442 23.1459 49.7062 23.1459 49.8057 23.035L50.8498 21.8942C50.8996 21.8397 50.964 21.8115 51.0303 21.8115Z" fill="#E9E7E0"/>
<path d="M47.0139 25.8853C46.9973 29.0438 46.9863 31.8859 47.0139 32.789V32.8071" fill="#E9E7E0"/>
<path d="M47.0506 17.3512C47.0506 16.8916 47.0506 16.4804 47.0469 16.1357L47.0506 17.3512Z" fill="#E9E7E0"/>
<path d="M47.0491 18.8608C47.0473 19.6248 47.0436 20.4593 47.0381 21.3321L47.0491 18.8608Z" fill="#E9E7E0"/>
<path d="M47.0249 14.6154C47.0341 13.928 47.1317 13.2386 47.5553 12.7549Z" fill="#E9E7E0"/>
<path d="M61.7111 14.6337C62.0444 14.6941 62.2967 15.0106 62.2967 15.3916C62.2967 15.7725 62.0315 16.1031 61.689 16.1535C61.6577 16.1595 61.6264 16.1616 61.5932 16.1616C61.2047 16.1616 60.8916 15.8169 60.8916 15.3916C60.8916 14.9663 61.2047 14.6216 61.5932 14.6216C61.6337 14.6216 61.6724 14.6256 61.7111 14.6337Z" fill="#E9E7E0"/>
<path d="M61.6857 17.3691C62.0154 17.4316 62.264 17.746 62.264 18.123C62.264 18.4999 62.0154 18.8123 61.6876 18.8768C61.6471 18.8869 61.6047 18.8909 61.5605 18.8909C61.1738 18.8909 60.8589 18.5483 60.8589 18.123C60.8589 17.6976 61.1738 17.355 61.5605 17.355C61.6029 17.355 61.6452 17.359 61.6857 17.3691Z" fill="#E9E7E0"/>
<path d="M61.7202 32.8073V32.7891C61.7478 31.8841 61.7386 29.04 61.7221 25.8794" fill="#E9E7E0"/>
<path d="M61.1807 12.7549C61.6079 13.2427 61.7037 13.9401 61.711 14.6335Z" fill="#E9E7E0"/>
<path d="M61.6985 21.2837C61.693 20.4351 61.6893 19.6228 61.6875 18.877L61.6985 21.2837Z" fill="#E9E7E0"/>
<path d="M61.6892 16.1538C61.6874 16.5005 61.6855 16.9097 61.6855 17.3693L61.6892 16.1538Z" fill="#E9E7E0"/>
<path d="M62.3084 11.9048C62.3084 11.9048 62.3063 11.9182 62.3042 11.9227L62.3084 11.9048Z" fill="#E9E7E0"/>
<path d="M67.4935 42.9642L68.1031 42.1136C68.6776 41.3456 68.1841 40.1846 67.2817 40.1846H41.7785C41.4655 40.1846 41.2003 40.3257 40.9793 40.5413C40.3458 41.1662 40.3072 42.2527 40.843 42.9803L47.084 51.4603L48.4448 53.3087L53.091 59.6218L53.2825 59.8818C53.5219 60.2043 53.8773 60.3958 54.2548 60.3998H54.4187C54.787 60.4018 55.1351 60.2164 55.3634 59.8979L60.0832 53.3087L61.4073 51.4603L67.4935 42.9642Z" fill="#E9E7E0"/>
<path d="M67.4327 42.9117C67.2209 43.1818 66.8987 43.3552 66.5396 43.3552C66.3665 43.3552 66.2007 43.3149 66.0534 43.2423L60.1661 51.4602L58.842 53.3086L55.3965 58.12C55.4462 58.2551 55.4739 58.4002 55.4739 58.5534C55.4739 59.2287 54.9546 59.7769 54.3137 59.7769C53.9528 59.7769 53.6305 59.6036 53.4187 59.3315C53.253 59.1198 53.1536 58.8497 53.1536 58.5534C53.1536 58.3075 53.2217 58.0797 53.3395 57.8902L49.9677 53.3086L48.6068 51.4602L42.8539 43.6454C42.7876 43.5547 42.7324 43.46 42.6882 43.3592C42.6348 43.3693 42.5777 43.3733 42.5206 43.3733C41.8816 43.3733 41.3623 42.8271 41.3623 42.1518C41.3623 41.4766 41.8816 40.9283 42.5206 40.9283C42.8466 40.9283 43.1412 41.0694 43.3493 41.2992C43.4451 41.2609 43.5463 41.2407 43.6568 41.2407H65.5912C65.6391 41.2407 65.6869 41.2448 65.733 41.2528C65.9411 41.0412 66.2247 40.9102 66.5377 40.9102C67.1767 40.9102 67.696 41.4584 67.696 42.1337C67.696 42.43 67.5966 42.7001 67.4309 42.9117H67.4327Z" fill="#E9E7E0"/>
<path d="M61.1458 44.5546C61.1458 45.4052 60.516 46.0925 59.7408 46.0925C59.2583 46.0925 58.8347 45.8285 58.5824 45.4233H50.5295C50.2919 45.895 49.8297 46.2135 49.303 46.2135C48.5259 46.2135 47.8979 45.5241 47.8979 44.6755C47.8979 43.8269 48.5259 43.1375 49.303 43.1375C49.7358 43.1375 50.1207 43.3512 50.3785 43.6858H58.5806C58.8329 43.2827 59.2583 43.0166 59.7408 43.0166C60.516 43.0166 61.1458 43.706 61.1458 44.5546Z" fill="#E9E7E0"/>
<path d="M59.9473 49.116C59.9473 49.8437 59.452 50.4303 58.8406 50.4303C58.4594 50.4303 58.1261 50.2045 57.929 49.8598H51.5868C51.399 50.263 51.0362 50.5351 50.6219 50.5351C50.0105 50.5351 49.5151 49.9465 49.5151 49.2209C49.5151 48.4952 50.0105 47.9046 50.6219 47.9046C50.9607 47.9046 51.2646 48.086 51.4671 48.3723H57.9272C58.1242 48.0276 58.4594 47.7998 58.8406 47.7998C59.452 47.7998 59.9473 48.3904 59.9473 49.116Z" fill="#E9E7E0"/>
<path d="M57.1997 52.0366C56.9529 52.0366 56.7338 52.1898 56.6049 52.4236H52.397C52.2644 52.2301 52.0655 52.1072 51.8445 52.1072C51.4468 52.1072 51.1245 52.5063 51.1245 52.9981C51.1245 53.1069 51.1411 53.2118 51.1705 53.3085C51.2718 53.6492 51.5352 53.891 51.8445 53.891C52.1152 53.891 52.351 53.7056 52.4743 53.4335H56.6049C56.7338 53.6673 56.9529 53.8205 57.1997 53.8205C57.487 53.8205 57.7356 53.6109 57.8497 53.3085C57.8958 53.1936 57.9197 53.0646 57.9197 52.9275C57.9197 52.4357 57.5975 52.0366 57.1997 52.0366Z" fill="#E9E7E0"/>
<path d="M52.1407 53.3089C52.0615 53.3935 51.9529 53.4459 51.8332 53.4459C51.7135 53.4459 51.6048 53.3935 51.5257 53.3089C51.4446 53.2222 51.3931 53.0992 51.3931 52.9642C51.3931 52.6981 51.5901 52.4824 51.8332 52.4824C52.0763 52.4824 52.2733 52.6981 52.2733 52.9642C52.2733 53.0992 52.2218 53.2222 52.1407 53.3089Z" fill="#E9E7E0"/>
<path d="M57.529 53.3089C57.4498 53.3935 57.3412 53.4459 57.2233 53.4459C57.1055 53.4459 56.995 53.3935 56.9158 53.3089C56.8348 53.2222 56.7832 53.0992 56.7832 52.9642C56.7832 52.6981 56.9802 52.4824 57.2233 52.4824C57.4664 52.4824 57.6616 52.6981 57.6616 52.9642C57.6616 53.0992 57.61 53.2222 57.529 53.3089Z" fill="#E9E7E0"/>
<path d="M23.5845 37.8484V37.0018C23.5845 36.1975 24.183 35.5444 24.9159 35.5444H25.763C26.2547 35.5444 26.6819 35.8347 26.9103 36.266C26.0834 37.7597 25.9637 39.2351 25.9527 40.0051V47.7836C25.8919 47.7957 25.8274 47.7998 25.763 47.7998H24.9159C24.7741 47.7998 24.6378 47.7776 24.5089 47.7312" fill="#E9E7E0"/>
<path d="M14.2168 86.8294L14.0418 87.4966L13.528 89.4478L13.517 89.4881L9.392 88.188L9.01264 89.6312L7.57626 89.1818L7.95745 87.7365L4.33887 86.5956L4.34992 86.5533L4.85818 84.6162L5.0368 83.939L8.65539 85.0778L14.2168 86.8294Z" fill="#E9E7E0"/>
<path d="M1.84336 99.3228L0 98.7423L0.163895 98.1175L1.89861 91.5201C2.42896 89.5105 4.34599 88.3495 6.18198 88.928L9.9442 90.1132C11.9864 90.7582 13.165 93.0904 12.5776 95.3257L10.9681 101.445L10.7858 102.139L8.86692 101.536" fill="#E9E7E0"/>
<path d="M8.87414 101.506L9.04908 100.841L10.1466 96.6681C10.6751 94.6585 9.61443 92.5602 7.77844 91.9817C7.42302 91.8688 7.06393 91.8164 6.71035 91.8164C5.0401 91.8164 3.50059 93.0177 3.01627 94.8621L2.00711 98.6979L1.85059 99.2946" fill="#E9E7E0"/>
<path d="M7.96631 87.6919L8.34934 86.2426L8.47825 85.7508L8.63478 85.1582L10.0693 85.6117L9.91464 86.2023L9.77284 86.7405L9.40269 88.1454L13.5277 89.4476" fill="#E9E7E0"/>
<path d="M14.2168 86.8295L14.2555 86.6803L15.8502 86.3598L14.7416 84.834L14.633 84.6828L14.7987 84.6163L16.027 84.1406L15.272 82.8223L15.1744 82.649L15.3235 82.6268L16.806 82.4091L15.8023 80.8107L15.7029 80.6534L15.8557 80.6051L17.4302 80.0931L16.3364 78.7809L16.2333 78.6599L16.3879 78.5853L17.9238 77.8516L16.9238 76.5435L16.8281 76.4185L16.9735 76.3621L18.4707 75.7594L17.491 74.3968L17.3989 74.2698L17.5315 74.2375L18.8869 73.8908L17.9624 72.6089L17.8722 72.4839L18.003 72.4476L19.3638 72.0626L18.4541 70.7302L18.3713 70.6073L18.4983 70.569L20.2017 70.0227L19.0618 68.4303L18.9808 68.3155L19.1042 68.2671L20.7045 67.62L19.6198 66.3038L19.5388 66.205L19.6585 66.1647L21.1188 65.6406L20.1446 64.3163L20.0691 64.2136L20.1815 64.1753L21.5147 63.7197L20.5958 62.599L20.5222 62.5083L20.6326 62.4579L22.058 61.8088L21.1243 60.5954L21.0544 60.5047L21.163 60.4503L22.5754 59.7327L21.6731 58.5072L21.6086 58.4185L21.7063 58.3842L23.0377 57.9327L22.1998 56.5036L22.1427 56.4048L22.2384 56.3605L23.4207 55.8001L22.7007 54.6068L22.6436 54.5161L22.732 54.4879L23.859 54.0969L23.185 52.7685L23.0874 52.577L23.2476 52.5307L24.5477 52.1376L23.6988 50.8153L23.6491 50.7387L23.7282 50.7045L25.1425 50.1199L24.2568 48.6948L24.2936 48.5537L24.509 47.7313C23.9732 47.5439 23.5846 46.9916 23.5846 46.3445V37.8485L22.6767 36.7056L22.1556 38.5318L20.6842 37.5844L20.384 39.3824L18.9403 38.2798L18.7027 40.1846L17.0693 39.5235V41.6742L15.4506 41.4041L15.7913 43.0509L14.2297 43.9318L15.1891 45.3307L13.7454 45.9878L14.714 47.1448L14.7692 47.2113L14.6809 47.2657L13.3734 48.0458L14.1947 49.1101L12.9148 49.743L13.6993 50.9988L12.1966 51.7687L13.1671 53.0124L11.7068 53.5607L12.6184 55.1027L11.1341 55.6187L12.0898 57.1063L10.6608 57.5497L11.6405 58.8135L10.0586 59.4041L11.1157 60.8071L9.43989 61.321L10.5595 62.9175L8.69407 63.6471L9.95736 65.2113L8.4068 65.8624L9.46199 67.0899L7.91879 67.6846L8.99056 68.8778L7.35897 69.5067L8.42705 71.0245L6.79731 71.597L7.83593 73.268L6.12331 73.78L7.30925 75.2635L5.52114 76.1061L6.78442 77.259L5.33514 78.023L6.25038 79.2949L4.40149 80.0024L5.71265 81.3287L4.05713 81.9354L5.06628 83.7858L5.02761 83.935L4.33888 86.5493" fill="#E9E7E0"/>
<path d="M83.2477 47.3202C83.1188 47.3665 82.9825 47.3887 82.8407 47.3887H82.187V39.6767C82.187 38.167 81.7414 36.7701 80.9863 35.6353C81.2313 35.3269 81.5903 35.1313 81.9936 35.1313H82.8407C83.5737 35.1313 84.1722 35.7864 84.1722 36.5887V37.4353" fill="#E9E7E0"/>
<path d="M99.8012 87.3254L103.418 86.1845L103.407 86.1402L102.899 84.2051L102.72 83.5278L99.1014 84.6667L93.54 86.4183" fill="#E9E7E0"/>
<path d="M94.229 89.0346L94.2401 89.077L98.3651 87.7769" fill="#E9E7E0"/>
<path d="M105.913 98.9112L107.757 98.3307L107.53 97.47L105.858 91.1085C105.33 89.0989 103.413 87.9378 101.575 88.5163L97.8125 89.7016C95.7721 90.3446 94.5917 92.6787 95.181 94.9141L96.7444 100.86L96.9728 101.727L98.8916 101.122" fill="#E9E7E0"/>
<path d="M98.884 101.094L98.687 100.344L97.6116 96.2566C97.083 94.2449 98.1419 92.1466 99.9779 91.5681C100.333 91.4552 100.692 91.4028 101.044 91.4028C102.716 91.4028 104.256 92.6042 104.74 94.4505L105.687 98.0505L105.906 98.883" fill="#E9E7E0"/>
<path d="M98.354 87.7343L98.3651 87.7766L98.7444 89.2198L100.181 88.7703L99.8014 87.3251L99.7904 87.2808" fill="#E9E7E0"/>
<path d="M103.418 86.1382L102.908 84.2011L102.691 83.3747L103.7 81.5243L102.044 80.9176L103.355 79.5912L101.508 78.8837L102.422 77.6119L100.972 76.8479L102.236 75.6929L100.448 74.8524L101.633 73.3688L99.9209 72.8569L100.959 71.1838L99.3316 70.6134L100.398 69.0956L98.7662 68.4647L99.838 67.2714L98.2948 66.6768L99.35 65.4512L97.7994 64.7982L99.0627 63.236L97.1972 62.5043L98.3169 60.9099L96.6411 60.3939L97.7 58.993L96.1163 58.4024L97.096 57.1386L95.6669 56.6951L96.6227 55.2055L95.1403 54.6895L96.05 53.1496L94.5897 52.6013L95.5601 51.3576L94.0575 50.5876L94.842 49.3298L93.5621 48.6989L94.3834 47.6326L93.0759 46.8546L92.9875 46.8002L93.0446 46.7336L94.0114 45.5766L92.5677 44.9175L93.5271 43.5206L91.9655 42.6398L92.3062 40.991L90.6875 41.2611V39.1124L89.0541 39.7735L88.8165 37.8687L87.3746 38.9692L87.0726 37.1713L85.6012 38.1206L85.0801 36.2944L84.1722 37.4353V45.9314C84.1722 46.5805 83.7836 47.1307 83.2477 47.3202L83.4632 48.1406L83.5 48.2837L82.6143 49.7088L84.0304 50.2933L84.1096 50.3276L84.058 50.4042L83.2091 51.7265L84.5092 52.1195L84.6694 52.1659L84.5736 52.3574L83.8978 53.6857L85.0248 54.0768L85.1132 54.105L85.0561 54.1957L84.3379 55.389L85.5183 55.9493L85.6141 55.9937L85.557 56.0924L84.7191 57.5216L86.0524 57.9731L86.1481 58.0053L86.0837 58.094L85.1813 59.3216L86.5956 60.0371L86.7024 60.0936L86.6325 60.1843L85.6988 61.3977L87.1241 62.0468L87.2346 62.0972L87.161 62.1879L86.2421 63.3086L87.5753 63.7641L87.6876 63.8024L87.6121 63.9052L86.638 65.2275L88.0983 65.7516L88.218 65.7939L88.137 65.8927L87.0523 67.2089L88.6526 67.856L88.776 67.9043L88.6968 68.0192L87.5551 69.6116L89.2585 70.1558L89.3855 70.1962L89.3027 70.3191L88.3929 71.6515L89.7538 72.0345L89.8846 72.0728L89.7943 72.1957L88.8699 73.4777L90.2253 73.8244L90.3578 73.8587L90.2658 73.9836L89.2861 75.3462L90.7851 75.9489L90.9287 76.0074L90.833 76.1323L89.833 77.4405L91.3688 78.1742L91.5235 78.2468L91.4204 78.3697L90.3284 79.6799L91.901 80.1919L92.0539 80.2423L91.9563 80.3995L90.9508 81.998L92.4332 82.2157L92.5824 82.2358L92.4848 82.4092L91.7298 83.7294L92.9581 84.2051L93.1238 84.2696L93.0152 84.4228L91.9066 85.9487L93.5013 86.2692L93.54 86.4184L93.7334 87.15L94.2287 89.0347L98.3537 87.7346L97.9688 86.2692L97.851 85.8278L97.6871 85.2009L99.1216 84.7474L99.2855 85.3662L99.4034 85.8157L99.7901 87.2811" fill="#E9E7E0"/>
<path d="M50.0985 44.7565C50.0985 45.2422 49.7376 45.6393 49.2919 45.6393C48.8463 45.6393 48.4854 45.2422 48.4854 44.7565C48.4854 44.2707 48.8463 43.8716 49.2919 43.8716C49.7376 43.8716 50.0985 44.2687 50.0985 44.7565Z" fill="#E9E7E0"/>
<path d="M60.5623 44.6148C60.5623 45.1026 60.1995 45.4977 59.7557 45.4977C59.3119 45.4977 58.9473 45.1026 58.9473 44.6148C58.9473 44.127 59.31 43.7319 59.7557 43.7319C60.2013 43.7319 60.5623 44.127 60.5623 44.6148Z" fill="#E9E7E0"/>
<path d="M50.5955 49.9505C50.9311 49.9505 51.2032 49.6527 51.2032 49.2853C51.2032 48.9179 50.9311 48.6201 50.5955 48.6201C50.2599 48.6201 49.9878 48.9179 49.9878 49.2853C49.9878 49.6527 50.2599 49.9505 50.5955 49.9505Z" fill="#E9E7E0"/>
<path d="M59.4791 49.1662C59.4791 49.535 59.2065 49.8333 58.8714 49.8333C58.5362 49.8333 58.2637 49.535 58.2637 49.1662C58.2637 48.7973 58.5362 48.501 58.8714 48.501C59.2065 48.501 59.4791 48.7993 59.4791 49.1662Z" fill="#E9E7E0"/>
<path d="M30.9246 63.5404C30.9246 63.9657 30.6097 64.3104 30.223 64.3104C30.1788 64.3104 30.1346 64.3064 30.0922 64.2963C29.7663 64.2298 29.5195 63.9174 29.5195 63.5404C29.5195 63.1635 29.7663 62.8511 30.0941 62.7866C30.1364 62.7765 30.1788 62.7725 30.223 62.7725C30.6097 62.7725 30.9246 63.1171 30.9246 63.5404Z" fill="#E9E7E0"/>
<path d="M37.8729 82.6552C37.8729 83.0805 37.558 83.4252 37.1712 83.4252C37.127 83.4252 37.0828 83.4211 37.0405 83.4111C36.7145 83.3445 36.4678 83.0321 36.4678 82.6552C36.4678 82.2782 36.7145 81.9658 37.0423 81.9013C37.0847 81.8912 37.127 81.8872 37.1712 81.8872C37.558 81.8872 37.8729 82.2319 37.8729 82.6552Z" fill="#E9E7E0"/>
<path d="M34.9261 74.3583C34.9261 74.7836 34.6112 75.1283 34.2245 75.1283C34.1803 75.1283 34.1361 75.1243 34.0937 75.1142C33.7678 75.0477 33.521 74.7352 33.521 74.3583C33.521 73.9814 33.7678 73.6689 34.0955 73.6044C34.1379 73.5944 34.1803 73.5903 34.2245 73.5903C34.6112 73.5903 34.9261 73.935 34.9261 74.3583Z" fill="#E9E7E0"/>
<path d="M40.6629 88.8656C40.6629 89.2909 40.348 89.6356 39.9613 89.6356C39.9171 89.6356 39.8729 89.6316 39.8305 89.6215C39.5046 89.555 39.2578 89.2426 39.2578 88.8656C39.2578 88.4887 39.5046 88.1763 39.8324 88.1118C39.8747 88.1017 39.9171 88.0977 39.9613 88.0977C40.348 88.0977 40.6629 88.4423 40.6629 88.8656Z" fill="#E9E7E0"/>
<path d="M77.0586 63.5404C77.0586 63.9657 77.3735 64.3104 77.7602 64.3104C77.8044 64.3104 77.8486 64.3064 77.891 64.2963C78.2169 64.2298 78.4637 63.9174 78.4637 63.5404C78.4637 63.1635 78.2169 62.8511 77.8891 62.7866C77.8468 62.7765 77.8044 62.7725 77.7602 62.7725C77.3735 62.7725 77.0586 63.1171 77.0586 63.5404Z" fill="#E9E7E0"/>
<path d="M70.1104 82.6552C70.1104 83.0805 70.4253 83.4252 70.812 83.4252C70.8562 83.4252 70.9004 83.4211 70.9427 83.4111C71.2687 83.3445 71.5154 83.0321 71.5154 82.6552C71.5154 82.2782 71.2687 81.9658 70.9409 81.9013C70.8985 81.8912 70.8562 81.8872 70.812 81.8872C70.4253 81.8872 70.1104 82.2319 70.1104 82.6552Z" fill="#E9E7E0"/>
<path d="M73.0571 74.3583C73.0571 74.7836 73.372 75.1283 73.7587 75.1283C73.8029 75.1283 73.8471 75.1243 73.8895 75.1142C74.2154 75.0477 74.4622 74.7352 74.4622 74.3583C74.4622 73.9814 74.2154 73.6689 73.8877 73.6044C73.8453 73.5944 73.8029 73.5903 73.7587 73.5903C73.372 73.5903 73.0571 73.935 73.0571 74.3583Z" fill="#E9E7E0"/>
<path d="M67.3223 88.8656C67.3223 89.2909 67.6372 89.6356 68.0239 89.6356C68.0681 89.6356 68.1123 89.6316 68.1546 89.6215C68.4806 89.555 68.7273 89.2426 68.7273 88.8656C68.7273 88.4887 68.4806 88.1763 68.1528 88.1118C68.1104 88.1017 68.0681 88.0977 68.0239 88.0977C67.6372 88.0977 67.3223 88.4423 67.3223 88.8656Z" fill="#E9E7E0"/>
<path d="M93.8364 87.1177L97.8509 85.8277L99.2855 85.3661L102.899 84.2051" fill="#E9E7E0"/>
<path d="M4.85791 84.6162L8.47834 85.751L9.91472 86.2026L14.0416 87.4966L14.176 87.5389" fill="#E9E7E0"/>
<path d="M23.5918 45.5303C23.9177 46.0241 24.2124 46.5018 24.6985 46.7961C25.1866 47.0904 25.4978 47.1851 25.9526 46.8364" fill="#E9E7E0"/>
<path d="M84.1156 45.3125C83.9093 45.758 83.5318 46.1047 83.0954 46.2538C82.6608 46.403 82.589 46.4312 82.1875 46.1934" fill="#E9E7E0"/>
</g>
<defs>
<clipPath id="clip0_542_7268">
<rect width="107.757" height="149.104" fill="white"/>
</clipPath>
</defs>
</svg>
